<svg xmlns="http://www.w3.org/2000/svg" xmlns:xlink="http://www.w3.org/1999/xlink" width="1920" height="628" viewBox="0 0 1920 628"><defs><linearGradient id="linear-gradient" x1="1" y1="0.645" x2="-0.08" y2="0.647" gradientUnits="objectBoundingBox"><stop offset="0" stop-color="#64ff7e"></stop><stop offset="1" stop-color="#00e226"></stop></linearGradient><filter id="Ellipse_33" x="883.8" y="295.449" width="44.785" height="44.784"><feGaussianBlur stdDeviation="3"></feGaussianBlur></filter><filter id="Ellipse_11" x="519.581" y="295.223" width="44.754" height="44.754"><feGaussianBlur stdDeviation="3"></feGaussianBlur></filter></defs><g id="Group_35361" data-name="Group 35361" transform="translate(0 -3138)"><rect id="Rectangle_20496" data-name="Rectangle 20496" width="1920" height="628" transform="translate(0 3138)" fill="#cecece"></rect><text id="Iconography" transform="translate(176 3533)" fill="#fff" font-size="80" font-family="SpaceMono-Bold, Space Mono" font-weight="700" opacity="0.672"><tspan x="0" y="90">Iconography</tspan></text><g id="Group_35061" data-name="Group 35061" transform="translate(7417 12107.035)"><g id="Group_35044" data-name="Group 35044" transform="translate(-7231.298 -8786.048)"><rect id="Rectangle_703" data-name="Rectangle 703" width="65.78" height="9.521" rx="4.76" transform="translate(0 0)" fill="#444851"></rect><rect id="Rectangle_706" data-name="Rectangle 706" width="65.78" height="8.655" rx="4.328" transform="translate(0 16.445)" fill="#444851"></rect><rect id="Rectangle_707" data-name="Rectangle 707" width="43.276" height="9.521" rx="4.76" transform="translate(0 32.89)" fill="#444851"></rect></g><g id="Group_35046" data-name="Group 35046" transform="translate(-6547.064 -8797.962)"><g id="equalizer" transform="translate(0 66.242) rotate(-90)"><g id="Group_3354" data-name="Group 3354" transform="translate(0 23.658)"><g id="Group_3353" data-name="Group 3353" transform="translate(0 0)"><path id="Path_3794" data-name="Path 3794" d="M63.877,7.1H25.688a9.418,9.418,0,0,0-18.255,0H2.366a2.366,2.366,0,1,0,0,4.732H7.433a9.418,9.418,0,0,0,18.255,0H63.877a2.366,2.366,0,1,0,0-4.732Z" fill="#444851"></path></g></g><g id="Group_3356" data-name="Group 3356"><g id="Group_3355" data-name="Group 3355" transform="translate(0 0)"><path id="Path_3795" data-name="Path 3795" d="M63.877,7.1H56.443a9.418,9.418,0,0,0-18.255,0H2.366a2.366,2.366,0,1,0,0,4.732H38.189a9.418,9.418,0,0,0,18.255,0h7.433a2.366,2.366,0,1,0,0-4.732Z" fill="#444851"></path></g></g></g></g><g id="plus" transform="translate(-7010.326 -8798.813)"><g id="Group_3455" data-name="Group 3455" transform="translate(0 0)"><g id="Group_3454" data-name="Group 3454"><path id="Path_3851" data-name="Path 3851" d="M33.6,0a33.6,33.6,0,1,0,33.6,33.6A33.643,33.643,0,0,0,33.6,0Zm0,62.409a28.8,28.8,0,1,1,28.8-28.8A28.836,28.836,0,0,1,33.6,62.409Z" fill="#444851"></path></g></g><g id="Group_3457" data-name="Group 3457" transform="translate(31.204 17.602)"><g id="Group_3456" data-name="Group 3456"><path id="Path_3852" data-name="Path 3852" d="M240.114,134.1a2.4,2.4,0,0,0-2.4,2.4v27.2a2.4,2.4,0,0,0,4.8,0V136.5A2.4,2.4,0,0,0,240.114,134.1Z" transform="translate(-237.714 -134.095)" fill="#444851"></path></g></g><g id="Group_3459" data-name="Group 3459" transform="translate(17.602 31.204)"><g id="Group_3458" data-name="Group 3458"><path id="Path_3853" data-name="Path 3853" d="M163.7,237.714H136.5a2.4,2.4,0,1,0,0,4.8h27.2a2.4,2.4,0,0,0,0-4.8Z" transform="translate(-134.095 -237.714)" fill="#444851"></path></g></g></g><g id="money" transform="translate(-7126.103 -8798.813)"><path id="Path_3854" data-name="Path 3854" d="M33.185,66.37A33.185,33.185,0,0,1,9.72,9.72,33.185,33.185,0,0,1,56.651,56.651,32.967,32.967,0,0,1,33.185,66.37Zm0-62.222A29.037,29.037,0,1,0,62.222,33.185,29.07,29.07,0,0,0,33.185,4.148Z" transform="translate(0.646 0.646)" fill="#444851"></path><path id="Trazado_3854_-_Contorno" data-name="Trazado 3854 - Contorno" d="M33.581,67.412A33.831,33.831,0,0,1,9.659,9.659,33.831,33.831,0,0,1,57.5,57.5,33.609,33.609,0,0,1,33.581,67.412Zm0-66.37A32.539,32.539,0,0,0,10.572,56.59,32.539,32.539,0,0,0,56.59,10.572,32.326,32.326,0,0,0,33.581,1.042Zm0,62.222A29.683,29.683,0,1,1,63.264,33.581,29.717,29.717,0,0,1,33.581,63.264Zm0-58.074A28.391,28.391,0,1,0,61.972,33.581,28.423,28.423,0,0,0,33.581,5.19Z" transform="translate(0.25 0.25)" fill="#444851"></path><path id="Path_3855" data-name="Path 3855" d="M193.333,114.667a5.185,5.185,0,1,1,5.185-5.185,2.074,2.074,0,0,0,4.148,0,9.348,9.348,0,0,0-7.259-9.1V98.074a2.074,2.074,0,0,0-4.148,0v2.309a9.332,9.332,0,0,0,2.074,18.431A5.185,5.185,0,1,1,188.148,124,2.074,2.074,0,1,0,184,124a9.348,9.348,0,0,0,7.259,9.1v2.309a2.074,2.074,0,1,0,4.148,0V133.1a9.332,9.332,0,0,0-2.074-18.432Z" transform="translate(-159.502 -82.91)" fill="#444851"></path><path id="Trazado_3855_-_Contorno" data-name="Trazado 3855 - Contorno" d="M193.729,95.75a2.723,2.723,0,0,1,2.72,2.72v1.808a9.994,9.994,0,0,1,7.259,9.6,2.72,2.72,0,0,1-5.44,0,4.539,4.539,0,1,0-4.539,4.539A9.979,9.979,0,0,1,196.449,134V135.8a2.72,2.72,0,1,1-5.44,0V134a9.994,9.994,0,0,1-7.259-9.6,2.72,2.72,0,1,1,5.44,0,4.539,4.539,0,1,0,4.539-4.539,9.979,9.979,0,0,1-2.72-19.578V98.47A2.723,2.723,0,0,1,193.729,95.75Zm7.259,15.556a1.43,1.43,0,0,0,1.428-1.428,8.7,8.7,0,0,0-6.757-8.468l-.5-.114V98.47a1.428,1.428,0,0,0-2.856,0v2.825l-.5.114a8.686,8.686,0,0,0,1.931,17.156A5.831,5.831,0,1,1,187.9,124.4a1.428,1.428,0,1,0-2.856,0,8.7,8.7,0,0,0,6.757,8.468l.5.115V135.8a1.428,1.428,0,1,0,2.856,0v-2.824l.5-.115a8.686,8.686,0,0,0-1.931-17.156,5.831,5.831,0,1,1,5.831-5.831A1.43,1.43,0,0,0,200.988,111.306Z" transform="translate(-159.898 -83.306)" fill="#444851"></path></g><g id="explore" transform="translate(-6781.95 -8688.179)"><g id="Group_3461" data-name="Group 3461" transform="translate(0 0)"><path id="Path_3858" data-name="Path 3858" d="M33.714,0A33.714,33.714,0,1,0,67.429,33.714,33.753,33.753,0,0,0,33.714,0Zm0,63.535a29.82,29.82,0,1,1,29.82-29.821A29.854,29.854,0,0,1,33.714,63.535Z" fill="#00e226"></path><path id="Path_3859" data-name="Path 3859" d="M172.783,136.452a1.947,1.947,0,0,0-2.637-.793l-21.914,11.783a1.947,1.947,0,0,0-.793.793l-11.779,21.909a1.947,1.947,0,0,0,2.6,2.654h0l.008,0,.024-.013,21.925-11.775a1.947,1.947,0,0,0,.793-.793l11.731-21.855c.026-.044.05-.089.072-.135l.016-.029h0A1.943,1.943,0,0,0,172.783,136.452ZM142.147,166.3l7.485-13.922,6.436,6.437Zm16.676-10.238-6.437-6.437,13.921-7.485" transform="translate(-120.507 -120.505)" fill="#00e226"></path></g></g><g id="bookmark_1_" data-name="bookmark (1)" transform="translate(-6884.075 -8798.813)"><g id="Group_3452" data-name="Group 3452" transform="translate(0 0)"><path id="Path_3850" data-name="Path 3850" d="M144.408,0h-31.45c-3.468,0-6.29,2.416-6.29,5.386v57.9a1.346,1.346,0,0,0,.878,1.209,1.789,1.789,0,0,0,1.652-.141l19.484-12.834,19.484,12.834a1.749,1.749,0,0,0,.958.279,1.808,1.808,0,0,0,.694-.138,1.346,1.346,0,0,0,.878-1.208V5.386C150.7,2.416,147.875,0,144.408,0Zm3.145,60.553-17.912-11.8a1.787,1.787,0,0,0-1.917,0l-17.912,11.8V5.386a2.948,2.948,0,0,1,3.145-2.693h31.45a2.948,2.948,0,0,1,3.145,2.693V60.553Z" transform="translate(-105.271 1.397)" fill="#444851"></path><path id="Trazado_3850_-_Contorno" data-name="Trazado 3850 - Contorno" d="M113.855-.5H145.3a8.212,8.212,0,0,1,5.354,1.915,6.369,6.369,0,0,1,2.333,4.868v57.9a2.746,2.746,0,0,1-1.731,2.5,3.2,3.2,0,0,1-1.239.249,3.127,3.127,0,0,1-1.727-.509L129.58,54.091,110.864,66.419a3.111,3.111,0,0,1-1.723.51,3.2,3.2,0,0,1-1.234-.246,2.75,2.75,0,0,1-1.739-2.5V6.283C106.168,2.543,109.616-.5,113.855-.5Zm-4.542,64.543V6.283A4.026,4.026,0,0,1,111.5,2.789a3.958,3.958,0,0,0-2.535,3.495V64.094l.026.013a.428.428,0,0,0,.337-.019L129.54,50.772a.344.344,0,0,0-.152.048Zm40.885.052V6.283a3.62,3.62,0,0,0-1.356-2.746,4.965,4.965,0,0,0-1.161-.739,4.024,4.024,0,0,1,2.166,3.485v57.76L129.77,50.818a.34.34,0,0,0-.15-.047l20.213,13.314a.414.414,0,0,0,.347.017Zm-3.145-5.238V6.283c0-.7-.8-1.3-1.748-1.3h-31.45c-.948,0-1.748.594-1.748,1.3V58.857l15.746-10.372a3.183,3.183,0,0,1,3.451,0Z" transform="translate(-106.168 0.5)" fill="#444851"></path></g></g><g id="megaphone" transform="translate(-6777.695 -8798.813)"><g id="Group_3463" data-name="Group 3463" transform="translate(0 2.515)"><g id="Group_3462" data-name="Group 3462"><path id="Path_3860" data-name="Path 3860" d="M85.652,43.174,63.308,20.83a5.925,5.925,0,0,0-9.1,7.5l-.031.156A41.34,41.34,0,0,1,42.835,49.683L32.586,59.931a5.921,5.921,0,0,0,0,8.379L38.172,73.9a5.921,5.921,0,0,0,8.379,0l1.4-1.4,9.775,9.775A5.925,5.925,0,0,0,66.1,73.9l-4.189-4.189,1.4-1.4a5.921,5.921,0,0,0,0-8.379l-.949-.949a41.346,41.346,0,0,1,15.633-6.677l.158-.031a5.932,5.932,0,0,0,7.5-.722h0A5.932,5.932,0,0,0,85.652,43.174ZM43.758,71.1a1.974,1.974,0,0,1-2.793,0l-5.586-5.586a1.974,1.974,0,0,1,0-2.793l9.775-9.775,8.379,8.379Zm19.55,5.586a1.975,1.975,0,0,1-2.793,2.793L50.74,69.706l2.793-2.793ZM56.326,64.121c.594-.594,1.482-1.5,2.885-2.7l1.3,1.3a1.974,1.974,0,0,1,0,2.793l-1.4,1.4Zm.084-5.5-8.547-8.547a45.226,45.226,0,0,0,9.615-18.314L74.724,49A45.223,45.223,0,0,0,56.41,58.619ZM82.859,48.76a1.974,1.974,0,0,1-2.793,0L57.722,26.416a1.975,1.975,0,0,1,2.793-2.793L82.859,45.966A1.977,1.977,0,0,1,82.859,48.76Z" transform="translate(-30.849 -19.098)" fill="#444851"></path></g></g><g id="Group_3465" data-name="Group 3465" transform="translate(9.537 42.77)"><g id="Group_3464" data-name="Group 3464"><path id="Path_3861" data-name="Path 3861" d="M109.43,325.341a1.975,1.975,0,0,0-2.793,0l-2.793,2.793a1.975,1.975,0,0,0,2.793,2.793l2.793-2.793A1.975,1.975,0,0,0,109.43,325.341Z" transform="translate(-103.266 -324.762)" fill="#444851"></path></g></g><g id="Group_3467" data-name="Group 3467" transform="translate(39.554 0)"><g id="Group_3466" data-name="Group 3466" transform="translate(0)"><path id="Path_3862" data-name="Path 3862" d="M333.169,0a1.975,1.975,0,0,0-1.975,1.975v3.95a1.975,1.975,0,1,0,3.95,0V1.975A1.975,1.975,0,0,0,333.169,0Z" transform="translate(-331.194 0)" fill="#444851"></path></g></g><g id="Group_3469" data-name="Group 3469" transform="translate(51.404 15.799)"><g id="Group_3468" data-name="Group 3468"><path id="Path_3863" data-name="Path 3863" d="M427.094,119.966h-3.95a1.975,1.975,0,1,0,0,3.95h3.95a1.975,1.975,0,1,0,0-3.95Z" transform="translate(-421.169 -119.966)" fill="#444851"></path></g></g><g id="Group_3471" data-name="Group 3471" transform="translate(47.454 3.95)"><g id="Group_3470" data-name="Group 3470"><path id="Path_3864" data-name="Path 3864" d="M398.5,30.569a1.975,1.975,0,0,0-2.793,0l-3.95,3.95a1.975,1.975,0,1,0,2.793,2.793l3.95-3.95A1.975,1.975,0,0,0,398.5,30.569Z" transform="translate(-391.178 -29.991)" fill="#444851"></path></g></g></g><path id="seat" d="M0,61.249V67.3H51.26V61.249a9.873,9.873,0,0,0-7.621-9.6l3.1-21.706a9.9,9.9,0,0,0-2.788-8.365l-6.873-6.873a5.908,5.908,0,0,0,2.352-4.717V5.915A5.921,5.921,0,0,0,33.516,0H17.744a5.921,5.921,0,0,0-5.915,5.915V9.989a5.909,5.909,0,0,0,2.352,4.718L7.309,21.579a9.906,9.906,0,0,0-2.788,8.365l3.1,21.707A9.872,9.872,0,0,0,0,61.249ZM42.836,29.386,39.693,51.391h-4.2v-32.7l5.675,5.675A5.94,5.94,0,0,1,42.836,29.386ZM31.545,39.562H19.715V15.9H31.545ZM19.715,43.505H31.545v7.886H19.715ZM15.772,5.915a1.974,1.974,0,0,1,1.972-1.972H33.516a1.974,1.974,0,0,1,1.972,1.972V9.989a1.974,1.974,0,0,1-1.972,1.972H17.744a1.974,1.974,0,0,1-1.972-1.972ZM10.1,24.367l5.675-5.675v32.7h-4.2L8.424,29.386A5.94,5.94,0,0,1,10.1,24.367ZM3.943,61.249a5.921,5.921,0,0,1,5.915-5.915H41.4a5.921,5.921,0,0,1,5.915,5.915v2.1H3.943Zm0,0" transform="translate(-6075.33 -8803.459)" fill="#444851"></path><g id="Group_3433" data-name="Group 3433" transform="translate(-7114.626 -8688.179)"><g id="bookmark" transform="translate(0 0)"><g id="Group_3432" data-name="Group 3432"><path id="Path_3846" data-name="Path 3846" d="M140.316,0h-28.04a5.614,5.614,0,0,0-5.608,5.608V65.893A1.4,1.4,0,0,0,108.924,67L126.3,53.642,143.667,67a1.4,1.4,0,0,0,2.256-1.112V5.608A5.614,5.614,0,0,0,140.316,0Z" transform="translate(-106.668)" fill="#fff"></path></g></g></g><g id="Group_35033" data-name="Group 35033" transform="translate(-6326.471 -8771.938)"><ellipse id="Ellipse_20" data-name="Ellipse 20" cx="6.73" cy="6.73" rx="6.73" ry="6.73" transform="translate(0 0)" fill="#444851"></ellipse><ellipse id="Ellipse_20-2" data-name="Ellipse 20" cx="6.73" cy="6.73" rx="6.73" ry="6.73" transform="translate(27.893 0)" fill="#444851"></ellipse><ellipse id="Ellipse_20-3" data-name="Ellipse 20" cx="6.73" cy="6.73" rx="6.73" ry="6.73" transform="translate(53.836 0)" fill="#444851"></ellipse></g><g id="Group_35034" data-name="Group 35034" transform="translate(-6445.791 -8793.707)"><g id="Group_3441" data-name="Group 3441" transform="translate(0 0)"><path id="Path_3848" data-name="Path 3848" d="M144.931,78.769a.924.924,0,0,0-.121-.121L131.545,65.1a1.07,1.07,0,0,0-1.854.713v9.136H88.3c-.642,0-1.355.143-1.355.713v6.6A1.64,1.64,0,0,0,88.3,83.688h41.4v9.223a1.141,1.141,0,0,0,.642,1h.428a1.142,1.142,0,0,0,.784-.357L144.81,80.074A.927.927,0,0,0,144.931,78.769Z" transform="translate(-77.849 -64.756)" fill="#444851"></path><ellipse id="Ellipse_30" data-name="Ellipse 30" cx="9.463" cy="9.463" rx="9.463" ry="9.463" transform="translate(0 5.344)" fill="#fff"></ellipse><path id="Elipse_30_-_Contorno" data-name="Elipse 30 - Contorno" d="M9.463,3.154a6.309,6.309,0,1,0,6.309,6.309A6.316,6.316,0,0,0,9.463,3.154M9.463,0A9.463,9.463,0,1,1,0,9.463,9.463,9.463,0,0,1,9.463,0Z" transform="translate(0 5.344)" fill="#444851"></path></g><g id="Group_3442" data-name="Group 3442" transform="translate(0 28.39)"><path id="Path_3848-2" data-name="Path 3848" d="M87.155,78.769a.926.926,0,0,1,.121-.121L100.54,65.1a1.07,1.07,0,0,1,1.854.713v9.136h41.4c.642,0,1.355.143,1.355.713v6.6a1.64,1.64,0,0,1-1.355,1.426h-41.4v9.223a1.141,1.141,0,0,1-.642,1h-.428a1.142,1.142,0,0,1-.784-.357L87.276,80.074A.927.927,0,0,1,87.155,78.769Z" transform="translate(-86.941 -64.756)" fill="#444851"></path><path id="Path_12648" data-name="Path 12648" d="M9.463,0A9.463,9.463,0,1,1,0,9.463,9.463,9.463,0,0,1,9.463,0Z" transform="translate(48.369 5.344)" fill="#fff"></path><path id="Elipse_30_-_Contorno-2" data-name="Elipse 30 - Contorno" d="M9.463,3.154a6.309,6.309,0,1,0,6.309,6.309A6.316,6.316,0,0,0,9.463,3.154M9.463,0A9.463,9.463,0,1,1,0,9.463,9.463,9.463,0,0,1,9.463,0Z" transform="translate(48.369 5.344)" fill="#444851"></path></g></g><g id="Group_35036" data-name="Group 35036" transform="translate(-6215.504 -8779.746)"><g id="surface1" transform="translate(0 0)"><path id="Path_3775" data-name="Path 3775" d="M17.122,43.618a10.9,10.9,0,0,0,10.771-9.339H70.168a10.881,10.881,0,0,0,21.542,0H93.39a1.557,1.557,0,0,0,1.528-1.256l1.556-7.9a1.539,1.539,0,0,0,.01-.549,14.41,14.41,0,0,0-13.036-12.4L68.619,10.753,59.383,5.171A29.46,29.46,0,0,0,42.728.035H35.879A101.833,101.833,0,0,0,18.673,1.52c-1.844.311-3.371.611-4.81.934l-3.3.733A1.557,1.557,0,0,0,9.339,4.7V6.855L2.49,10.28A4.478,4.478,0,0,0,0,14.31V25.274A4.474,4.474,0,0,0,1.32,28.46L6.26,33.4A10.9,10.9,0,0,0,17.122,43.618Zm0-3.113A7.783,7.783,0,1,1,24.9,32.722,7.782,7.782,0,0,1,17.122,40.5Zm63.817,0a7.783,7.783,0,1,1,7.783-7.783A7.782,7.782,0,0,1,80.939,40.5Zm2.229-25.233h.014a11.03,11.03,0,0,1,5.324,1.885H87.164V20.27h4.358a12.107,12.107,0,0,1,1.84,4.532l-1.251,6.363h-.388c-.017-.12-.047-.237-.068-.355-.027-.148-.051-.294-.084-.438-.044-.2-.1-.4-.156-.59-.039-.135-.073-.272-.117-.406-.067-.205-.143-.4-.223-.605-.045-.115-.086-.234-.135-.349-.1-.232-.212-.456-.327-.679-.041-.076-.073-.155-.115-.232q-.243-.447-.527-.864c-.032-.051-.072-.1-.107-.146a7.943,7.943,0,0,0-.494-.66c-.072-.089-.156-.171-.227-.258-.144-.167-.29-.332-.443-.487-.092-.094-.188-.181-.283-.271-.148-.14-.3-.28-.453-.412-.106-.089-.213-.173-.322-.257q-.234-.184-.467-.355c-.117-.082-.236-.155-.355-.236-.163-.106-.328-.207-.5-.311-.126-.072-.252-.141-.379-.207-.173-.091-.35-.174-.528-.255-.132-.059-.263-.118-.4-.173-.185-.075-.373-.142-.563-.205-.134-.047-.266-.1-.4-.136-.2-.059-.4-.107-.609-.156-.132-.031-.263-.065-.4-.091-.229-.046-.467-.077-.694-.108-.115-.014-.227-.035-.344-.047-.353-.028-.71-.048-1.069-.048s-.716.02-1.066.054c-.117.011-.229.033-.343.047-.234.031-.468.062-.694.107-.134.027-.265.061-.4.092-.205.048-.409.1-.61.156-.137.041-.269.089-.4.136-.19.063-.378.131-.564.205-.134.054-.264.113-.4.173-.177.08-.355.165-.528.255-.128.067-.254.136-.379.207-.17.1-.335.2-.5.312-.118.076-.236.155-.354.235-.155.113-.311.233-.467.356-.109.084-.216.168-.322.257-.156.132-.312.272-.453.413-.1.09-.191.177-.283.271-.156.156-.3.321-.443.487-.075.087-.156.17-.227.258-.176.215-.341.439-.5.666-.033.049-.068.092-.1.139q-.281.42-.526.865c-.042.075-.075.156-.115.232-.115.222-.227.447-.327.679-.049.115-.09.233-.135.348-.08.2-.156.4-.223.606-.044.134-.078.269-.117.4-.054.2-.107.392-.156.593-.031.143-.056.289-.082.436-.022.118-.051.234-.068.356H44.924l-.7-4.669H66.93v-3.12H43.757l-1.809-12.05,26.1,2.525ZM42.721,3.148A26.438,26.438,0,0,1,57.7,7.793l3.758,2.269L41.47,8.143l-.75-4.994Zm-6.849,0h1.7l.7,4.688L22.725,6.343,21.453,4.227A98.186,98.186,0,0,1,35.875,3.148ZM3.113,17.157H9.339V14.044H3.151a1.369,1.369,0,0,1,.733-.979l7.708-3.846a1.556,1.556,0,0,0,.86-1.4V5.95l2.081-.467c1.108-.246,2.275-.478,3.616-.719l2.308,3.848a1.557,1.557,0,0,0,1.183.747l17.117,1.664,1.851,12.36H29.573V26.5h11.5l.7,4.669H27.906c-.017-.12-.046-.237-.068-.355-.026-.148-.051-.295-.084-.439-.044-.2-.1-.4-.156-.59-.039-.136-.073-.272-.117-.406-.067-.206-.143-.4-.223-.606-.045-.115-.086-.234-.135-.348-.1-.232-.212-.456-.327-.679-.041-.077-.073-.156-.115-.232a9.944,9.944,0,0,0-.526-.864c-.032-.051-.072-.1-.107-.146a7.83,7.83,0,0,0-.494-.66c-.072-.089-.155-.172-.227-.258-.145-.167-.29-.332-.444-.487-.091-.094-.188-.181-.283-.271-.155-.14-.3-.28-.453-.412-.106-.089-.213-.173-.322-.257q-.234-.184-.467-.355c-.117-.083-.235-.156-.355-.237-.156-.106-.329-.207-.5-.311-.126-.072-.252-.14-.38-.207-.173-.091-.35-.174-.528-.255-.132-.059-.263-.118-.4-.173-.186-.075-.374-.141-.564-.205-.134-.047-.266-.1-.4-.136-.2-.059-.4-.107-.608-.155-.132-.031-.264-.065-.4-.092-.229-.045-.467-.076-.694-.108-.115-.014-.227-.035-.343-.046-.354-.029-.71-.049-1.069-.049a10.717,10.717,0,0,0-1.6.132c-.106.016-.214.03-.319.049a10.7,10.7,0,0,0-1.471.369c-.087.028-.171.062-.257.093a11.013,11.013,0,0,0-1.285.552c-.056.03-.117.053-.173.084-.156.086-.311.184-.467.277H3.113V17.157ZM8.194,26.5a10.671,10.671,0,0,0-.76,1.263c-.045.089-.087.179-.131.271a10.656,10.656,0,0,0-.571,1.417v.017L3.757,26.5Zm0,0" transform="translate(0 -0.035)" fill="#444851"></path><path id="Path_3776" data-name="Path 3776" d="M422.258,105.6h3.113v3.113h-3.113Zm0,0" transform="translate(-353.771 -88.48)" fill="#444851"></path><path id="Path_3777" data-name="Path 3777" d="M134.355,86.406h6.226V89.52h-6.226Zm0,0" transform="translate(-112.564 -72.398)" fill="#444851"></path><path id="Path_3778" data-name="Path 3778" d="M287.9,96h6.226v3.113H287.9Zm0,0" transform="translate(-241.207 -80.439)" fill="#444851"></path><path id="Path_3779" data-name="Path 3779" d="M81.443,172.777a4.67,4.67,0,1,0,4.669,4.669A4.67,4.67,0,0,0,81.443,172.777Zm0,6.226A1.556,1.556,0,1,1,83,177.447,1.557,1.557,0,0,1,81.443,179Zm0,0" transform="translate(-64.321 -144.76)" fill="#444851"></path><path id="Path_3780" data-name="Path 3780" d="M474.912,172.777a4.67,4.67,0,1,0,4.669,4.669A4.67,4.67,0,0,0,474.912,172.777Zm0,6.226a1.556,1.556,0,1,1,1.556-1.556A1.556,1.556,0,0,1,474.912,179Zm0,0" transform="translate(-393.973 -144.76)" fill="#444851"></path></g></g><g id="Group_35038" data-name="Group 35038" transform="translate(-6558.127 -8671.157)"><rect id="Rectangle_675" data-name="Rectangle 675" width="65.176" height="33.927" rx="16.964" transform="translate(0 0)" fill="url(#linear-gradient)"></rect><g transform="matrix(1, 0, 0, 1, -858.87, -297.88)" filter="url(#Ellipse_33)"><ellipse id="Ellipse_33-2" data-name="Ellipse 33" cx="13.392" cy="13.392" rx="13.392" ry="13.392" transform="translate(892.8 301.45)" fill="#fff"></ellipse></g></g><g id="Group_35039" data-name="Group 35039" transform="translate(-6893.436 -8671.157)"><rect id="Rectangle_675-2" data-name="Rectangle 675" width="65.214" height="33.443" rx="16.722" transform="translate(0 0)" fill="#f5f5f5"></rect><g transform="matrix(1, 0, 0, 1, -523.56, -297.88)" filter="url(#Ellipse_11)"><ellipse id="Ellipse_11-2" data-name="Ellipse 11" cx="13.377" cy="13.377" rx="13.377" ry="13.377" transform="translate(528.58 301.22)" fill="#fff"></ellipse></g></g><g id="Group_35040" data-name="Group 35040" transform="translate(-7010.326 -8684.774)"><g id="share_1_" data-name="share (1)" transform="translate(0 0)"><path id="Path_3865" data-name="Path 3865" d="M66.548,47.339,47.331,28.121a2.4,2.4,0,0,0-4.091,1.689v9.609H34.832q-26.763,0-32.843,15.126A34.18,34.18,0,0,0,0,67.045q0,6.23,4.767,16.928.112.263.394.9T5.667,86a4.266,4.266,0,0,0,.488.825,1.283,1.283,0,0,0,1.051.639,1.1,1.1,0,0,0,.882-.375,1.4,1.4,0,0,0,.319-.938,7.641,7.641,0,0,0-.094-1,7.764,7.764,0,0,1-.094-.882q-.188-2.551-.188-4.616a31.948,31.948,0,0,1,.657-6.793,20.4,20.4,0,0,1,1.821-5.2,13.057,13.057,0,0,1,3-3.791,17.62,17.62,0,0,1,3.959-2.609,21.468,21.468,0,0,1,4.992-1.6,47.593,47.593,0,0,1,5.78-.807q2.909-.225,6.588-.225h8.408v9.609a2.389,2.389,0,0,0,4.091,1.689L66.548,50.718a2.359,2.359,0,0,0,0-3.379Z" transform="translate(0 -27.408)" fill="#fff"></path></g></g><g id="brake" transform="translate(-5980.398 -8799.647)"><g id="Group_3395" data-name="Group 3395" transform="translate(17.431 17.431)"><g id="Group_3394" data-name="Group 3394"><path id="Path_3836" data-name="Path 3836" d="M135.107,128a15.107,15.107,0,1,0,15.107,15.107A15.124,15.124,0,0,0,135.107,128Zm0,27.889a12.782,12.782,0,1,1,12.782-12.782A12.8,12.8,0,0,1,135.107,155.889Z" transform="translate(-120 -128)" fill="#444851"></path></g></g><g id="Group_3397" data-name="Group 3397" transform="translate(26.727 26.727)"><g id="Group_3396" data-name="Group 3396"><path id="Path_3837" data-name="Path 3837" d="M189.81,192a5.81,5.81,0,1,0,5.81,5.81A5.817,5.817,0,0,0,189.81,192Zm0,9.3a3.486,3.486,0,1,1,3.486-3.486A3.49,3.49,0,0,1,189.81,201.3Z" transform="translate(-184 -192)" fill="#444851"></path></g></g><g id="Group_3399" data-name="Group 3399" transform="translate(30.448 22.836)"><g id="Group_3398" data-name="Group 3398" transform="translate(0 0)"><rect id="Rectangle_698" data-name="Rectangle 698" width="2.537" height="2.537" fill="#444851"></rect></g></g><g id="Group_3401" data-name="Group 3401" transform="translate(40.597 30.448)"><g id="Group_3400" data-name="Group 3400" transform="translate(0 0)"><rect id="Rectangle_699" data-name="Rectangle 699" width="2.537" fill="#444851"></rect></g></g><g id="Group_3403" data-name="Group 3403" transform="translate(22.836 30.448)"><g id="Group_3402" data-name="Group 3402" transform="translate(0 0)"><rect id="Rectangle_700" data-name="Rectangle 700" width="2.537" fill="#444851"></rect></g></g><g id="Group_3405" data-name="Group 3405" transform="translate(25.373 40.597)"><g id="Group_3404" data-name="Group 3404" transform="translate(0 0)"><rect id="Rectangle_701" data-name="Rectangle 701" width="2.537" height="2.537" fill="#444851"></rect></g></g><g id="Group_3407" data-name="Group 3407" transform="translate(35.523 40.597)"><g id="Group_3406" data-name="Group 3406" transform="translate(0 0)"><rect id="Rectangle_702" data-name="Rectangle 702" width="5.075" height="2.537" fill="#444851"></rect></g></g><g id="Group_3409" data-name="Group 3409" transform="translate(12.782 12.782)"><g id="Group_3408" data-name="Group 3408" transform="translate(0 0)"><path id="Path_3838" data-name="Path 3838" d="M107.755,133.185a17.431,17.431,0,0,1,0-34.861,17.629,17.629,0,0,1,2.18.135l.288-2.306a19.755,19.755,0,1,0,0,39.2l-.288-2.306A17.6,17.6,0,0,1,107.755,133.185Z" transform="translate(-88 -96)" fill="#444851"></path></g></g><g id="Group_3411" data-name="Group 3411" transform="translate(0 0)"><g id="Group_3410" data-name="Group 3410" transform="translate(0 0)"><path id="Path_3839" data-name="Path 3839" d="M50.666,10.757a1.161,1.161,0,0,0-1.534.294l-.793,1.058q-.685-.381-1.385-.728c-.086-.05-.177-.086-.266-.128A32.533,32.533,0,1,0,61.255,55.8l1.117.511a1.152,1.152,0,0,0,.482.106,1.163,1.163,0,0,0,1.046-.654A34.879,34.879,0,0,0,50.666,10.757ZM45.592,13.3l.083.04a1.147,1.147,0,0,1,.265.151l.843.69-4.245,5.66-1.981-1.981a1.163,1.163,0,0,1,.161-1.777l3.824-2.648A1.165,1.165,0,0,1,45.592,13.3ZM32.537,70.75a30.213,30.213,0,1,1,9.971-58.732l-3.114,2.156a3.486,3.486,0,0,0-.481,5.331l2.215,2.216-.325.433a3.218,3.218,0,0,0,.3,4.187l6.16,6.16a3.211,3.211,0,0,0,2.719.907.857.857,0,0,1,.928.513.848.848,0,0,1-.242,1.033l-.8.669a3.189,3.189,0,0,0-1.136,2.142l-.95,9.5a3.212,3.212,0,0,0,1.4,2.972,3.484,3.484,0,0,0,.445,4.384l3.236,3.236a3.41,3.41,0,0,0,3.925.689A30.013,30.013,0,0,1,32.537,70.75ZM56.08,56.28a1.159,1.159,0,0,1-1.573-.065l-3.236-3.236a1.161,1.161,0,0,1,0-1.643l.069-.069,6.921,3.167Zm6.21-2.558L50.471,48.314a.881.881,0,0,1-.379-.814l.95-9.5a.874.874,0,0,1,.312-.588l.8-.669a3.2,3.2,0,0,0-2.5-5.631.886.886,0,0,1-.746-.249L42.745,24.7a.883.883,0,0,1-.082-1.149L50.347,13.3c.653.427,1.282.879,1.9,1.345l-5.482,7.309a3.5,3.5,0,0,0,.323,4.557l1.239,1.24a3.493,3.493,0,0,0,2.958.985l2.211-.315a4.872,4.872,0,0,1,5.213,3.09,4.817,4.817,0,0,1-2.129,5.9l-2.529,1.445a3.493,3.493,0,0,0-1.757,3.026v1.726a3.471,3.471,0,0,0,2.191,3.237l9.047,3.619A32.384,32.384,0,0,1,62.29,53.722Zm2.6-9.7a32.119,32.119,0,0,1-.734,4.191l-8.809-3.523a1.158,1.158,0,0,1-.731-1.079V41.886a1.165,1.165,0,0,1,.586-1.009l2.529-1.445a7.161,7.161,0,0,0-4.567-13.307l-2.211.315a1.177,1.177,0,0,1-.986-.329l-1.239-1.24a1.167,1.167,0,0,1-.108-1.518l5.422-7.23c.819.718,1.6,1.468,2.338,2.256l-6,5,1.489,1.785,6.035-5.029a32.331,32.331,0,0,1,7.165,20.405c0,.389-.016.775-.03,1.162h-8.1v2.324Z" transform="translate(0 -8)" fill="#444851"></path></g></g><g id="Group_3413" data-name="Group 3413" transform="translate(41.251 44.066)"><g id="Group_3412" data-name="Group 3412"><path id="Path_3840" data-name="Path 3840" d="M288.351,311.371a17.449,17.449,0,0,1-4.359,3.57l1.164,2.012a19.793,19.793,0,0,0,4.938-4.044Z" transform="translate(-283.992 -311.371)" fill="#444851"></path></g></g></g><g id="Group_35042" data-name="Group 35042" transform="translate(-6445.791 -8688.179)"><ellipse id="Ellipse_37" data-name="Ellipse 37" cx="28.368" cy="22" rx="28.368" ry="22" transform="translate(5.789 11.886)" fill="#444851"></ellipse><g id="tick_1_" data-name="tick (1)" transform="translate(0 0)"><path id="Path_3896" data-name="Path 3896" d="M33.732,0A33.732,33.732,0,1,0,67.464,33.732,33.77,33.77,0,0,0,33.732,0ZM52.538,22.482,31.78,45.835a2.6,2.6,0,0,1-3.561.3L15.244,35.759a2.6,2.6,0,0,1,3.242-4.053l11.05,8.839L48.659,19.033a2.6,2.6,0,0,1,3.879,3.45Z" fill="#4bff6a"></path></g></g><g id="coche_1_" data-name="coche (1)" transform="translate(-7233 -8689.029)"><g id="Group_3561" data-name="Group 3561" transform="translate(57.84 13.924)"><g id="Group_3560" data-name="Group 3560"><path id="Path_3887" data-name="Path 3887" d="M442.417,108.487a3.284,3.284,0,0,1-3.28-3.28,1,1,0,0,0-2.008,0,3.284,3.284,0,0,1-3.28,3.28,1,1,0,1,0,0,2.008,3.284,3.284,0,0,1,3.28,3.28,1,1,0,0,0,2.008,0,3.284,3.284,0,0,1,3.28-3.28,1,1,0,1,0,0-2.008Zm-4.284,2.191a5.341,5.341,0,0,0-1.187-1.187,5.338,5.338,0,0,0,1.187-1.187,5.344,5.344,0,0,0,1.187,1.187A5.345,5.345,0,0,0,438.133,110.679Z" transform="translate(-432.844 -104.203)" fill="#64ff7e"></path></g></g><g id="Group_3563" data-name="Group 3563" transform="translate(0 13.924)"><g id="Group_3562" data-name="Group 3562"><path id="Path_3888" data-name="Path 3888" d="M9.572,108.487a3.284,3.284,0,0,1-3.28-3.28,1,1,0,0,0-2.008,0A3.284,3.284,0,0,1,1,108.487,1,1,0,1,0,1,110.5a3.284,3.284,0,0,1,3.28,3.28,1,1,0,0,0,2.008,0,3.284,3.284,0,0,1,3.28-3.28,1,1,0,1,0,0-2.008Zm-4.284,2.191A5.339,5.339,0,0,0,4.1,109.492,5.337,5.337,0,0,0,5.288,108.3a5.34,5.34,0,0,0,1.187,1.187A5.345,5.345,0,0,0,5.288,110.679Z" transform="translate(0.001 -104.203)" fill="#64ff7e"></path></g></g><g id="Group_3565" data-name="Group 3565" transform="translate(27.849 0)"><g id="Group_3564" data-name="Group 3564"><path id="Path_3889" data-name="Path 3889" d="M220.121,5.355A4.356,4.356,0,0,1,215.77,1a1,1,0,0,0-2.008,0,4.356,4.356,0,0,1-4.351,4.351,1,1,0,1,0,0,2.008,4.356,4.356,0,0,1,4.351,4.351,1,1,0,1,0,2.008,0,4.356,4.356,0,0,1,4.351-4.351,1,1,0,0,0,0-2.009Zm-5.355,2.933a6.416,6.416,0,0,0-1.929-1.929,6.416,6.416,0,0,0,1.929-1.929,6.416,6.416,0,0,0,1.929,1.929A6.416,6.416,0,0,0,214.766,8.288Z" transform="translate(-208.406)" fill="#64ff7e"></path></g></g><g id="Group_3567" data-name="Group 3567" transform="translate(12.978 21.422)"><g id="Group_3566" data-name="Group 3566"><path id="Path_3890" data-name="Path 3890" d="M139.259,172.765,135.353,161.7a2.078,2.078,0,0,0-1.957-1.385H103.041a2.078,2.078,0,0,0-1.957,1.385l-3.906,11.068a1.014,1.014,0,0,0,.947,1.338h40.187a1,1,0,0,0,.947-1.338Zm-39.715-.67,3.434-9.729a.069.069,0,0,1,.063-.045H133.4a.069.069,0,0,1,.063.045l3.434,9.729Z" transform="translate(-97.122 -160.313)" fill="#fff"></path></g></g><g id="Group_3569" data-name="Group 3569" transform="translate(46.995 47.129)"><g id="Group_3568" data-name="Group 3568"><path id="Path_3891" data-name="Path 3891" d="M358.047,352.689c-3.566,0-6.36,1.853-6.36,4.217s2.794,4.218,6.36,4.218,6.36-1.853,6.36-4.218S361.613,352.689,358.047,352.689Zm0,6.427c-2.491,0-4.351-1.166-4.351-2.209s1.861-2.209,4.351-2.209,4.351,1.166,4.351,2.209S360.537,359.116,358.047,359.116Z" transform="translate(-351.687 -352.689)" fill="#fff"></path></g></g><g id="Group_3571" data-name="Group 3571" transform="translate(8.435 47.129)"><g id="Group_3570" data-name="Group 3570"><path id="Path_3892" data-name="Path 3892" d="M69.483,352.689c-3.566,0-6.36,1.853-6.36,4.217s2.793,4.218,6.36,4.218,6.36-1.853,6.36-4.218S73.049,352.689,69.483,352.689Zm0,6.427c-2.49,0-4.351-1.166-4.351-2.209s1.861-2.209,4.351-2.209,4.351,1.166,4.351,2.209S71.973,359.116,69.483,359.116Z" transform="translate(-63.123 -352.689)" fill="#fff"></path></g></g><g id="Group_3573" data-name="Group 3573" transform="translate(0.937 18.209)"><g id="Group_3572" data-name="Group 3572"><path id="Path_3893" data-name="Path 3893" d="M72.284,150.19H66.928a1,1,0,0,0-.974.761l-.705,2.822-4.934-13.978a5.3,5.3,0,0,0-4.987-3.528H24.973a5.3,5.3,0,0,0-4.987,3.529l-4.934,13.978-.705-2.822a1,1,0,0,0-.974-.761H8.017a1,1,0,0,0-1,1v4.284a1,1,0,0,0,1,1h5.546l-3.423,4.793a5.26,5.26,0,0,0-.985,3.074V176.9A5.284,5.284,0,0,0,11.3,181.15c0,.012,0,.023,0,.035V184.4a2.078,2.078,0,0,0,2.075,2.075H19.8a2.078,2.078,0,0,0,2.075-2.075V182.19H58.426V184.4a2.078,2.078,0,0,0,2.075,2.075h6.427A2.078,2.078,0,0,0,69,184.4v-3.213c0-.012,0-.024,0-.035a5.284,5.284,0,0,0,2.144-4.249V164.35a5.259,5.259,0,0,0-.985-3.074l-3.423-4.793h5.547a1,1,0,0,0,1-1v-4.284A1,1,0,0,0,72.284,150.19ZM9.021,154.475V152.2h3.567l.569,2.276ZM19.866,184.4a.067.067,0,0,1-.067.067H13.373a.067.067,0,0,1-.067-.067V182.19h6.561ZM67,184.4a.067.067,0,0,1-.067.067H60.5a.067.067,0,0,1-.067-.067V182.19H67Zm-1.138-4.218H14.444a3.286,3.286,0,0,1-3.122-2.276H68.979A3.285,3.285,0,0,1,65.857,180.181ZM48.786,169.337v2.276H31.515v-2.276Zm-17.114-2.008a3.285,3.285,0,0,1,3.122-2.276H45.506a3.286,3.286,0,0,1,3.122,2.276Zm17.114,6.293V175.9H31.515v-2.276Zm19.74-11.178a3.262,3.262,0,0,1,.611,1.907V175.9H50.795v-7.565a5.3,5.3,0,0,0-5.289-5.289H34.795a5.3,5.3,0,0,0-5.289,5.289V175.9H11.164V164.35a3.262,3.262,0,0,1,.611-1.907l4.257-5.96H53a1,1,0,1,0,0-2.008H16.934l4.945-14.012a3.286,3.286,0,0,1,3.093-2.189H55.328a3.286,3.286,0,0,1,3.093,2.189l4.945,14.012H57.288a1,1,0,1,0,0,2.008h6.981Zm2.753-7.968H67.143l.569-2.276H71.28Z" transform="translate(-7.013 -136.266)" fill="#fff"></path></g></g><g id="Group_3575" data-name="Group 3575" transform="translate(10.577 43.915)"><g id="Group_3574" data-name="Group 3574"><path id="Path_3894" data-name="Path 3894" d="M86.585,328.642H80.158a1,1,0,0,0,0,2.008h6.427a1,1,0,0,0,0-2.008Z" transform="translate(-79.154 -328.642)" fill="#fff"></path></g></g><g id="Group_3577" data-name="Group 3577" transform="translate(49.137 43.915)"><g id="Group_3576" data-name="Group 3576"><path id="Path_3895" data-name="Path 3895" d="M375.149,328.642h-6.427a1,1,0,0,0,0,2.008h6.427a1,1,0,1,0,0-2.008Z" transform="translate(-367.718 -328.642)" fill="#fff"></path></g></g></g><g id="Group_35043" data-name="Group 35043" transform="translate(-6668.762 -8688.179)"><ellipse id="Ellipse_37-2" data-name="Ellipse 37" cx="28.216" cy="22.022" rx="28.216" ry="22.022" transform="translate(5.925 12.355)" fill="#fff"></ellipse><g id="tick_1_2" data-name="tick (1)" transform="translate(0 0)"><path id="Path_3896-2" data-name="Path 3896" d="M33.706,0A33.706,33.706,0,1,0,67.411,33.706,33.744,33.744,0,0,0,33.706,0ZM52.5,22.465,31.754,45.8a2.595,2.595,0,0,1-3.559.3L15.232,35.73a2.593,2.593,0,0,1,3.24-4.05l11.041,8.832,19.107-21.5A2.594,2.594,0,0,1,52.5,22.465Z" fill="#4bff6a"></path></g></g><g id="Group_35045" data-name="Group 35045" transform="translate(-6667.911 -8797.962)"><g id="Group_3358" data-name="Group 3358" transform="translate(0 0)"><g id="Group_3357" data-name="Group 3357"><path id="Path_3796" data-name="Path 3796" d="M28.881,0A28.881,28.881,0,1,0,57.762,28.881,28.914,28.914,0,0,0,28.881,0Zm0,52.43A23.549,23.549,0,1,1,52.43,28.881,23.576,23.576,0,0,1,28.881,52.43Z" fill="#444851"></path></g></g><g id="Group_3360" data-name="Group 3360" transform="translate(44.965 44.965)"><g id="Group_3359" data-name="Group 3359"><path id="Path_3797" data-name="Path 3797" d="M370.881,367.112,355.6,351.827a2.665,2.665,0,0,0-3.77,3.77l15.285,15.285a2.666,2.666,0,0,0,3.77-3.77Z" transform="translate(-351.046 -351.046)" fill="#444851"></path></g></g></g></g></g></svg>