<svg xmlns="http://www.w3.org/2000/svg" xmlns:xlink="http://www.w3.org/1999/xlink" width="1920" height="628" viewBox="0 0 1920 628"><defs><clipPath id="clip-path"><path id="Path_257" data-name="Path 257" d="M142.481,39.534s-37.092,44.807-34.907,47.79,7.787,7.119,7.787,7.119l11.986-7.333s35.182-33.923,32.187-38.968c-3.726-6.275-11.6-10.279-11.6-10.279Z" transform="translate(-107.482 -37.863)" fill="#fff"></path></clipPath><clipPath id="clip-path-2"><path id="Path_258" data-name="Path 258" d="M66.3,0A36.291,36.291,0,0,0,50.993,3.544,28.237,28.237,0,0,0,37.337,17.225c-6.869,14.768-3.09,29.327,6.095,38.447L84.6,5.577A32.434,32.434,0,0,0,66.444,0Z" transform="translate(-33.813 -0.001)" fill="#fff"></path></clipPath><clipPath id="clip-path-3"><path id="Path_259" data-name="Path 259" d="M151.852,167.4q.822.688,1.69,1.323L169,181.2a5.959,5.959,0,0,0,7.482,0l15.487-12.5c.819-.6,2.4-1.934,2.4-1.934h0a32.56,32.56,0,0,0,3.674-44.86S153.215,167.5,151.852,167.4" transform="translate(-151.852 -121.912)" fill="#fff"></path></clipPath><clipPath id="clip-path-4"><rect id="Rectangle_698" data-name="Rectangle 698" width="68.479" height="73.109" fill="none"></rect></clipPath></defs><g id="Group_35398" data-name="Group 35398" transform="translate(-4609 -3015)"><rect id="Rectangle_20635" data-name="Rectangle 20635" width="1920" height="628" transform="translate(4609 3015)" fill="#8357f3"></rect><text id="Iconography" transform="translate(5820 3438)" fill="#fff" font-size="80" font-family="SpaceMono-Bold, Space Mono" font-weight="700" opacity="0.672"><tspan x="0" y="90">Iconography</tspan></text><g id="Group_35396" data-name="Group 35396" transform="translate(9776.737 12244.413)"><g id="Group_35081" data-name="Group 35081" transform="translate(-4813.693 -8913.534)"><path id="Path_12649" data-name="Path 12649" d="M192.306,393.235a7.944,7.944,0,1,1-7.944,7.944,7.944,7.944,0,0,1,7.944-7.944" transform="translate(-184.362 -393.235)" fill="#fff" stroke="#fff" stroke-width="1"></path><path id="Path_12650" data-name="Path 12650" d="M225.04,393.235a7.944,7.944,0,1,1-7.944,7.944,7.944,7.944,0,0,1,7.944-7.944" transform="translate(-188.497 -393.235)" fill="#fff" stroke="#fff" stroke-width="1"></path><path id="Trazado_12651" data-name="Trazado 12651" d="M225.092,393.645a7.586,7.586,0,1,1-7.587,7.587A7.6,7.6,0,0,1,225.092,393.645Zm0,14.3a6.713,6.713,0,1,0-6.713-6.712A6.72,6.72,0,0,0,225.092,407.944Z" transform="translate(-188.549 -393.287)" fill="#fff"></path><path id="Path_12652" data-name="Path 12652" d="M257.775,393.235a7.944,7.944,0,1,1-7.944,7.944,7.944,7.944,0,0,1,7.944-7.944" transform="translate(-192.633 -393.235)" fill="#fff" stroke="#fff" stroke-width="1"></path><path id="Trazado_12653" data-name="Trazado 12653" d="M257.827,393.645a7.586,7.586,0,1,1-7.587,7.587A7.6,7.6,0,0,1,257.827,393.645Zm0,14.3a6.713,6.713,0,1,0-6.713-6.712A6.72,6.72,0,0,0,257.827,407.944Z" transform="translate(-192.685 -393.287)" fill="#fff"></path></g><path id="Path_12654" data-name="Path 12654" d="M74.146,485.47h0L49.827,461.148a5.49,5.49,0,0,0-7.76,0l-24.305,24.3-.025.025a5.487,5.487,0,0,0,3.652,9.351h1.139v17.882a6.42,6.42,0,0,0,6.419,6.419H38.46a1.747,1.747,0,0,0,1.756-1.724V503.374a2.935,2.935,0,0,1,2.93-2.93h5.612a2.933,2.933,0,0,1,2.921,2.93V517.4a1.746,1.746,0,0,0,1.747,1.747H62.94a6.42,6.42,0,0,0,6.419-6.419V494.849h.9a5.489,5.489,0,0,0,3.888-9.379m-2.474,5.289a1.984,1.984,0,0,1-1.41.585H67.619a1.746,1.746,0,0,0-1.747,1.747v19.64a2.932,2.932,0,0,1-2.93,2.93H55.175V503.374a6.42,6.42,0,0,0-6.419-6.419H43.142a6.42,6.42,0,0,0-6.419,6.419v12.281H28.951a2.933,2.933,0,0,1-2.93-2.925V493.088a1.746,1.746,0,0,0-1.747-1.747H21.592a1.992,1.992,0,0,1-1.376-3.4L44.535,463.62a1.992,1.992,0,0,1,2.82,0l24.3,24.3a2,2,0,0,1,.028,2.827l-.009.009Z" transform="translate(-3894.43 -9525.185)" fill="#fff" stroke="#fff" stroke-width="1"></path><path id="Path_12655" data-name="Path 12655" d="M136.255,513.669a3.726,3.726,0,0,1-2.372-.851c-2.488-2.071-4.888-4.015-7-5.73a127.754,127.754,0,0,1-15.3-13.654,21.237,21.237,0,0,1-6.131-14.282,17.8,17.8,0,0,1,4.886-12.506,16.974,16.974,0,0,1,12.323-5.1,16,16,0,0,1,9.679,3.178,19.235,19.235,0,0,1,3.913,3.887,19.234,19.234,0,0,1,3.913-3.887,16,16,0,0,1,9.679-3.178,16.976,16.976,0,0,1,12.333,5.1,17.8,17.8,0,0,1,4.886,12.506,21.243,21.243,0,0,1-6.114,14.273,127.807,127.807,0,0,1-15.3,13.656c-2.12,1.717-4.523,3.667-7.018,5.74a3.728,3.728,0,0,1-2.381.849m-13.592-48.693a13.32,13.32,0,0,0-9.669,4,14.461,14.461,0,0,0-3.932,10.179,17.886,17.886,0,0,0,5.279,12.1A125.791,125.791,0,0,0,129.2,504.471c2.135,1.722,4.532,3.674,7.039,5.759,2.521-2.09,4.936-4.044,7.063-5.77a125.821,125.821,0,0,0,14.856-13.229,17.886,17.886,0,0,0,5.279-12.1,14.461,14.461,0,0,0-3.932-10.179,13.32,13.32,0,0,0-9.669-4,12.374,12.374,0,0,0-7.471,2.459A16.872,16.872,0,0,0,138.2,472a2.338,2.338,0,0,1-3.237.676,2.3,2.3,0,0,1-.676-.676,16.872,16.872,0,0,0-4.165-4.582,12.358,12.358,0,0,0-7.457-2.443" transform="translate(-3865.306 -9519.705)" fill="#fff" stroke="#fff" stroke-width="1"></path><g id="Group_35082" data-name="Group 35082" transform="translate(-5031.468 -8933.206)"><path id="Path_12656" data-name="Path 12656" d="M216.093,459.543a21.336,21.336,0,0,0-19,30.908l10.94,23.543a8.9,8.9,0,0,0,16.146,0l10.94-23.543a21.332,21.332,0,0,0-19.024-30.908m15.661,29.242c-.023.043.495-1.069-10.983,23.632a5.152,5.152,0,0,1-9.353,0c-11.435-24.608-10.96-23.6-10.983-23.632a17.556,17.556,0,1,1,31.321,0Z" transform="translate(-194.824 -459.543)" fill="#fff" stroke="#fff" stroke-width="1"></path><path id="Path_12657" data-name="Path 12657" d="M210.017,464.343a10.406,10.406,0,1,0,10.406,10.406,10.407,10.407,0,0,0-10.406-10.406m0,17.066a6.661,6.661,0,1,1,6.661-6.661,6.661,6.661,0,0,1-6.661,6.661" transform="translate(-188.747 -453.448)" fill="#fff" stroke="#fff" stroke-width="1"></path></g><g id="Group_35085" data-name="Group 35085" transform="translate(-4927.376 -8933.229)"><path id="Path_12658" data-name="Path 12658" d="M303.475,459.543a26.672,26.672,0,1,0,26.672,26.672,26.673,26.673,0,0,0-26.672-26.672m0,48.42a21.748,21.748,0,1,1,21.748-21.748,21.748,21.748,0,0,1-21.748,21.748" transform="translate(-276.803 -459.543)" fill="#fff" stroke="#fff" stroke-width="1"></path><path id="Path_12659" data-name="Path 12659" d="M311.891,491.15,297.78,477.039a2.461,2.461,0,0,0-3.481,3.481l14.111,14.111a2.461,2.461,0,0,0,3.481-3.481" transform="translate(-252.049 -435.724)" fill="#fff" stroke="#fff" stroke-width="1"></path></g><path id="Path_12660" data-name="Path 12660" d="M131.631,91.907a17.049,17.049,0,0,0-12.678-5.518,15.93,15.93,0,0,0-9.962,3.422,20.393,20.393,0,0,0-4.025,4.2,20.394,20.394,0,0,0-4.025-4.2,15.93,15.93,0,0,0-9.962-3.422A17.049,17.049,0,0,0,78.3,91.907a19.816,19.816,0,0,0-5.026,13.53,23.585,23.585,0,0,0,6.288,15.442A134.172,134.172,0,0,0,95.3,135.648c2.182,1.856,4.654,3.965,7.22,6.211a3.717,3.717,0,0,0,4.9,0c2.566-2.246,5.039-4.35,7.22-6.211a133.835,133.835,0,0,0,15.737-14.77,23.585,23.585,0,0,0,6.288-15.442,19.8,19.8,0,0,0-5.03-13.53" transform="translate(-4884.943 -9151.582)" fill="#fff" stroke="#fff" stroke-width="1"></path><path id="Path_12662" data-name="Path 12662" d="M74.045,34.6H15.027l22.6-21.525a2.96,2.96,0,0,0-4.083-4.285L7.736,33.373a5.916,5.916,0,0,0-.007,8.368l.05.05L33.535,66.307a2.96,2.96,0,1,0,4.324-4.043q-.112-.117-.235-.224L14.931,40.515H74.045a2.96,2.96,0,0,0,.206-5.916,1.992,1.992,0,0,0-.206,0" transform="translate(-5051.736 -9076.048)" fill="#fff" stroke="#fff" stroke-width="1"></path><g id="Group_35071" data-name="Group 35071" transform="translate(-4690.628 -9068.348)"><path id="Path_12663" data-name="Path 12663" d="M204.394,107.822H158.519A6.829,6.829,0,0,1,151.7,101V60.084a6.825,6.825,0,0,1,6.818-6.818h45.876a6.825,6.825,0,0,1,6.818,6.818V101a6.829,6.829,0,0,1-6.818,6.822M158.519,56.987a3.1,3.1,0,0,0-3.1,3.1V101a3.106,3.106,0,0,0,3.1,3.1h45.876a3.106,3.106,0,0,0,3.1-3.1V60.084a3.1,3.1,0,0,0-3.1-3.1Z" transform="translate(-151.701 -48.301)" fill="#fff" stroke="#fff" stroke-width="1"></path><path id="Path_12664" data-name="Path 12664" d="M209.354,60.086H153.559a1.86,1.86,0,0,1,0-3.721h55.795a1.86,1.86,0,0,1,0,3.721" transform="translate(-151.701 -36.524)" fill="#fff" stroke="#fff" stroke-width="1"></path><path id="Path_12665" data-name="Path 12665" d="M156.142,67.12a1.866,1.866,0,0,1-1.858-1.858V54.095a1.861,1.861,0,1,1,3.721,0V65.258a1.865,1.865,0,0,1-1.863,1.863" transform="translate(-141.882 -52.232)" fill="#fff" stroke="#fff" stroke-width="1"></path><path id="Path_12666" data-name="Path 12666" d="M162.6,67.12a1.866,1.866,0,0,1-1.858-1.858V54.095a1.86,1.86,0,1,1,3.721,0V65.258A1.865,1.865,0,0,1,162.6,67.12" transform="translate(-117.342 -52.232)" fill="#fff" stroke="#fff" stroke-width="1"></path></g><path id="Path_12667" data-name="Path 12667" d="M92.2,81.624a24.026,24.026,0,0,0-8.684-4.732,13.565,13.565,0,1,0-14.028,0A24.2,24.2,0,0,0,60.9,81.569a18.683,18.683,0,0,0-6.252-3.635,10.705,10.705,0,1,0-12.284,0A18.8,18.8,0,0,0,29.7,95.689v1.224a.082.082,0,0,0,.076.076H52.487a24.351,24.351,0,0,0-.2,3.137v1.266a9.864,9.864,0,0,0,9.861,9.87H90.932a9.864,9.864,0,0,0,9.87-9.861v-1.275A24.091,24.091,0,0,0,98.125,89.72a27.456,27.456,0,0,0-5.927-8.1M65.882,65.278A10.6,10.6,0,1,1,77.09,75.853H75.865a10.607,10.607,0,0,1-9.984-10.575m-25.16,3.858a7.738,7.738,0,1,1,7.886,7.738h-.312a7.739,7.739,0,0,1-7.573-7.738M53.006,94H32.726A15.849,15.849,0,0,1,48.345,79.842h.224A15.7,15.7,0,0,1,58.7,83.608,24.378,24.378,0,0,0,53.006,94m44.773,7.383a6.918,6.918,0,0,1-6.9,6.9H62.116a6.918,6.918,0,0,1-6.9-6.9v-1.266a21.315,21.315,0,0,1,20.651-21.28h1.258a21.315,21.315,0,0,1,20.651,21.28Z" transform="translate(-4963.439 -9120.064)" fill="#fff" stroke="#fff" stroke-width="1"></path><g id="Group_35074" data-name="Group 35074" transform="translate(-4332.687 -9063.424)"><path id="Path_12668" data-name="Path 12668" d="M266.822,51.233a27.12,27.12,0,1,0,27.121,27.12,27.123,27.123,0,0,0-27.121-27.12m0,50.267a23.154,23.154,0,1,1,23.147-23.162v.015A23.179,23.179,0,0,1,266.822,101.5" transform="translate(-239.701 -51.233)" fill="#fff" stroke="#fff" stroke-width="1"></path><path id="Path_12669" data-name="Path 12669" d="M258.559,67.6h-8.577V55.732a1.979,1.979,0,0,0-3.959,0v13.85A1.977,1.977,0,0,0,248,71.559h10.547a1.979,1.979,0,1,0,0-3.959Z" transform="translate(-222.21 -44.256)" fill="#fff" stroke="#fff" stroke-width="1"></path></g><g id="Group_35072" data-name="Group 35072" transform="translate(-4580.878 -9047.646)"><path id="Path_12672" data-name="Path 12672" d="M207.492,121.025l-4.905-16.912a5.926,5.926,0,0,0-5.726-4.389H146.945a1.477,1.477,0,0,0-1.154.555c-.057.07-8.605,15.72-8.605,15.72a5.026,5.026,0,0,0,4.413,7.427h8.768l.285,1.284a5.889,5.889,0,0,0,5.783,4.642h.048l45.788-1.479a5.411,5.411,0,0,0,5.219-6.836Zm-65.893-.571a2.06,2.06,0,0,1-2.061-2.061,2.093,2.093,0,0,1,.248-.988l6.566-12.038,3.353,15.086Zm60.626,4.446-45.807,1.479a2.942,2.942,0,0,1-2.871-2.32l-4.754-21.383h48.063a2.976,2.976,0,0,1,2.871,2.23l4.907,16.921a2.307,2.307,0,0,1,.081.623,2.465,2.465,0,0,1-2.48,2.449h-.011Z" transform="translate(-136.575 -99.724)" fill="#fff" stroke="#fff" stroke-width="1"></path><path id="Path_12673" data-name="Path 12673" d="M178.256,104.574l-29.376.92a1.481,1.481,0,0,0,.046,2.961h.046l29.376-.92a1.479,1.479,0,0,0,1.435-1.521V106a1.431,1.431,0,0,0-1.44-1.427c-.029,0-.059,0-.088,0" transform="translate(-123.553 -93.933)" fill="#fff" stroke="#fff" stroke-width="1"></path><path id="Path_12674" data-name="Path 12674" d="M171.521,107.379l-20.619.643a1.482,1.482,0,1,0,.046,2.963h.046l20.619-.643a1.481,1.481,0,0,0,1.435-1.525v-.011a1.452,1.452,0,0,0-1.473-1.429l-.055,0" transform="translate(-121.202 -90.582)" fill="#fff" stroke="#fff" stroke-width="1"></path></g><g id="Group_35073" data-name="Group 35073" transform="translate(-4465.09 -9057.726)"><path id="Path_12675" data-name="Path 12675" d="M196.579,165.021h-1.12a7.033,7.033,0,0,0,1.46-4.3v-1.96a7.075,7.075,0,0,0-14.148-.236c0,.077,0,.157,0,.236v1.523L172.313,149.84a5.183,5.183,0,0,0-4.393,0l-10.448,10.447v-1.523a7.075,7.075,0,0,0-14.15,0v1.96a7.034,7.034,0,0,0,1.46,4.3H143.67a9.107,9.107,0,0,0-9.095,9.1v18.4a1.389,1.389,0,0,0,1.39,1.39h5.865a1.354,1.354,0,0,1,.794,0h15.554a1.389,1.389,0,0,0,1.39-1.39V187.8a1.39,1.39,0,0,0-2.781,0v3.335H144.017V175.305a1.39,1.39,0,1,0-2.781,0v15.824h-3.881V174.117a6.325,6.325,0,0,1,6.314-6.326h9.653a1.391,1.391,0,0,0,.979-.4l14.424-14.424a15.3,15.3,0,0,1-2.608,8.064l-9.089,13.506a1.4,1.4,0,0,0-.236.775v1.519a1.39,1.39,0,1,0,2.781,0v-1.1l8.853-13.147a18.077,18.077,0,0,0,1.7-3.168,18.081,18.081,0,0,0,1.7,3.168l8.853,13.147v16.787a1.389,1.389,0,0,0,1.39,1.39h15.554a1.354,1.354,0,0,1,.794,0h5.869a1.389,1.389,0,0,0,1.39-1.39v-18.4a9.106,9.106,0,0,0-9.1-9.1m-41.875-4.3a4.3,4.3,0,1,1-8.594,0v-1.96a4.3,4.3,0,0,1,8.594,0Zm30.844-1.96a4.3,4.3,0,0,1,8.594,0v1.96a4.3,4.3,0,1,1-8.594,0ZM202.9,191.127H199.01V180.851a1.39,1.39,0,0,0-2.781,0v10.277H183.456V175.3a1.4,1.4,0,0,0-.236-.775l-9.089-13.506a15.3,15.3,0,0,1-2.608-8.064l14.424,14.424.052.048a1.386,1.386,0,0,0,.93.359h9.651a6.325,6.325,0,0,1,6.318,6.318Z" transform="translate(-134.575 -149.226)" fill="#fff" stroke="#fff" stroke-width="1"></path><path id="Path_12676" data-name="Path 12676" d="M167.994,162.068a1.391,1.391,0,1,0,.4.981,1.39,1.39,0,0,0-.4-.981" transform="translate(-103.968 -136.972)" fill="#fff" stroke="#fff" stroke-width="1"></path><path id="Path_12677" data-name="Path 12677" d="M148.138,165.765a1.391,1.391,0,1,0,.4.981,1.39,1.39,0,0,0-.4-.981" transform="translate(-123.55 -133.325)" fill="#fff" stroke="#fff" stroke-width="1"></path></g><g id="Group_35083" data-name="Group 35083" transform="translate(-4220.952 -9065.015)"><g id="Group_35075" data-name="Group 35075" transform="translate(0)"><path id="Path_12698" data-name="Path 12698" d="M168.936,220.784A27.711,27.711,0,0,0,144.9,262.29l-3.57,11.084a2.164,2.164,0,0,0,2.723,2.723l11.085-3.57a27.711,27.711,0,1,0,13.8-51.744m0,51.092a23.3,23.3,0,0,1-12.377-3.542,2.164,2.164,0,0,0-1.811-.224l-8,2.577,2.577-8a2.165,2.165,0,0,0-.224-1.811,23.387,23.387,0,1,1,19.839,11m2.706-23.381a2.706,2.706,0,1,1-2.706-2.706,2.706,2.706,0,0,1,2.706,2.706m10.833,0a2.7,2.7,0,1,0-.008,0Zm-21.658,0a2.7,2.7,0,1,1,0-.008v.008" transform="translate(-141.222 -220.784)" fill="#fff" stroke="#fff" stroke-width="1"></path></g></g><g id="Group_35084" data-name="Group 35084" transform="translate(-4110.094 -9063.424)"><g id="Group_35076" data-name="Group 35076"><path id="Path_12701" data-name="Path 12701" d="M176.99,265.784h-4.167a23.925,23.925,0,0,0,0,47.85h4.167a23.889,23.889,0,0,0,6.079-.779l6.154,6.151a1.658,1.658,0,0,0,2.81-1.163v-9.525a24.147,24.147,0,0,0,6.289-7.753,23.689,23.689,0,0,0,2.6-10.857,23.951,23.951,0,0,0-23.932-23.924m12.4,40.417a1.659,1.659,0,0,0-.655,1.315v6.355l-4.029-4.026a1.663,1.663,0,0,0-1.658-.409,20.6,20.6,0,0,1-6.079.906H172.8a20.633,20.633,0,1,1,0-41.265h4.167a20.633,20.633,0,0,1,12.4,37.123Z" transform="translate(-148.623 -265.507)" fill="#fff" stroke="#fff" stroke-width="1"></path><path id="Trazado_12702" data-name="Trazado 12702" d="M173,265.684h4.167a24.2,24.2,0,0,1,15.319,42.941v9.394a1.942,1.942,0,0,1-.544,1.316,1.934,1.934,0,0,1-2.734.046l-6.045-6.043a24.17,24.17,0,0,1-5.964.749H173a24.2,24.2,0,0,1,0-48.4Zm17.552,53.688a1.368,1.368,0,0,0,.992-.42,1.388,1.388,0,0,0,.389-.938v-9.651l.1-.083a23.654,23.654,0,0,0-14.869-42.043H173a23.649,23.649,0,0,0,0,47.3h4.2a23.618,23.618,0,0,0,5.978-.77l.153-.04,6.266,6.263A1.373,1.373,0,0,0,190.551,319.371Zm-17.574-50.394h4.167A20.907,20.907,0,0,1,198.05,289.89a21.011,21.011,0,0,1-7.707,16.211h.043l-.655.5a1.393,1.393,0,0,0-.546,1.1v7.021l-4.5-4.5a1.41,1.41,0,0,0-1.382-.34,20.865,20.865,0,0,1-6.132.919h-4.2a20.909,20.909,0,1,1,0-41.818Zm15.964,37.676h-.226l.662-.5A20.448,20.448,0,0,0,197.5,289.89a20.354,20.354,0,0,0-20.354-20.359h-4.167a20.356,20.356,0,1,0,0,40.713h4.2a20.314,20.314,0,0,0,5.97-.894,1.938,1.938,0,0,1,1.934.477l3.558,3.555v-5.689A1.955,1.955,0,0,1,188.941,306.654Z" transform="translate(-148.799 -265.684)" fill="#fff"></path><path id="Path_12703" data-name="Path 12703" d="M169.877,276.438a6.984,6.984,0,0,0-6.46-6.46,6.9,6.9,0,0,0-5.25,1.857,6.993,6.993,0,0,0-2.211,5.1,1.658,1.658,0,0,0,3.291,0,3.676,3.676,0,0,1,3.681-3.675c.086,0,.174,0,.26.008a3.678,3.678,0,0,1,.553,7.256,3.113,3.113,0,0,0-2.454,3.039v3.965a1.658,1.658,0,1,0,3.291,0V283.7a6.933,6.933,0,0,0,5.3-7.262" transform="translate(-136.18 -258.148)" fill="#fff" stroke="#fff" stroke-width="1"></path><path id="Trazado_12704" data-name="Trazado 12704" d="M163.071,269.858h0c.18,0,.363.007.542.021a7.3,7.3,0,0,1,6.715,6.716,7.18,7.18,0,0,1-5.3,7.5v3.593a1.934,1.934,0,1,1-3.844,0v-3.949a3.41,3.41,0,0,1,2.672-3.31,3.4,3.4,0,0,0-.514-6.71c-.078-.005-.16-.008-.24-.008a3.4,3.4,0,0,0-3.4,3.4l0,.034a1.934,1.934,0,0,1-3.839,0l0-.017v-.017a7.3,7.3,0,0,1,2.3-5.3A7.149,7.149,0,0,1,163.071,269.858Zm.037,19.427a1.381,1.381,0,0,0,1.371-1.212,1.4,1.4,0,0,0,0-.339l0-.034v-4.042l.212-.051a6.631,6.631,0,0,0,5.089-6.972,6.746,6.746,0,0,0-6.2-6.205c-.167-.013-.335-.019-.5-.019a6.6,6.6,0,0,0-4.539,1.8,6.746,6.746,0,0,0-2.124,4.877,1.383,1.383,0,0,0,1.365,1.2,1.4,1.4,0,0,0,.173-.011,1.378,1.378,0,0,0,1.2-1.186,3.956,3.956,0,0,1,3.952-3.933c.1,0,.191,0,.282.009a3.954,3.954,0,0,1,.6,7.8,2.855,2.855,0,0,0-2.238,2.771l0,4a1.387,1.387,0,0,0,1.2,1.541A1.435,1.435,0,0,0,163.108,289.285Z" transform="translate(-136.356 -258.325)" fill="#fff"></path><path id="Path_12705" data-name="Path 12705" d="M160.706,278.556a1.661,1.661,0,1,0,.484,1.163,1.658,1.658,0,0,0-.484-1.163" transform="translate(-132.798 -243.848)" fill="#fff" stroke="#fff" stroke-width="1"></path></g></g><g id="Group_35078" data-name="Group 35078" transform="translate(-3990.228 -9062.523)"><path id="Path_12699" data-name="Path 12699" d="M195.064,300.39a1.685,1.685,0,0,0-1.684,1.684v11.534a8.368,8.368,0,0,1-8.36,8.36H166.984a1.685,1.685,0,0,0-1.684,1.684v3.292l-3.979-3.985a1.679,1.679,0,0,0-1.532-1H148.925a8.368,8.368,0,0,1-8.36-8.36V287.851a8.368,8.368,0,0,1,8.36-8.36h16.886a1.684,1.684,0,0,0,0-3.342H148.925a11.717,11.717,0,0,0-11.7,11.7V313.6a11.717,11.717,0,0,0,11.7,11.7h10.007l6.867,6.867a1.684,1.684,0,0,0,2.854-1.181V325.3h16.378a11.717,11.717,0,0,0,11.7-11.7V302.062a1.684,1.684,0,0,0-1.67-1.673" transform="translate(-137.223 -276.149)" fill="#fff" stroke="#fff" stroke-width="1"></path><path id="Path_12707" data-name="Path 12707" d="M177.253,284.251H141.991a1.684,1.684,0,0,0,0,3.342h35.262a1.684,1.684,0,0,0,0-3.342" transform="translate(-131.28 -261.513)" fill="#fff" stroke="#fff" stroke-width="1"></path><path id="Trazado_12708" data-name="Trazado 12708" d="M142.155,284.151l35.313,0a1.964,1.964,0,0,1,0,3.9l-.034,0-35.3,0a1.964,1.964,0,0,1,0-3.9Zm35.26.561H142.19a1.4,1.4,0,0,0,0,2.781h35.226a1.4,1.4,0,0,0,0-2.781Z" transform="translate(-131.46 -261.695)" fill="#fff"></path><path id="Path_12709" data-name="Path 12709" d="M155.877,288.081a1.687,1.687,0,1,0,.491,1.181,1.685,1.685,0,0,0-.491-1.181" transform="translate(-108.723 -255.492)" fill="#fff" stroke="#fff" stroke-width="1"></path><path id="Trazado_12710" data-name="Trazado 12710" d="M154.866,287.486h0a1.964,1.964,0,0,1,1.963,1.955,1.987,1.987,0,0,1-.575,1.4,1.965,1.965,0,1,1-1.388-3.356Zm0,3.367a1.4,1.4,0,0,0,.992-.408,1.42,1.42,0,0,0,.411-1,1.406,1.406,0,0,0-.41-.986,1.391,1.391,0,0,0-.992-.412h0a1.4,1.4,0,1,0,0,2.806Z" transform="translate(-108.903 -255.672)" fill="#fff"></path><path id="Path_12711" data-name="Path 12711" d="M170.678,287.6H141.991a1.684,1.684,0,0,0,0,3.342h28.686a1.684,1.684,0,1,0,0-3.342" transform="translate(-131.28 -255.498)" fill="#fff" stroke="#fff" stroke-width="1"></path><path id="Trazado_12712" data-name="Trazado 12712" d="M171.065,287.482a1.965,1.965,0,0,1,0,3.929,2,2,0,0,1-.227-.013l-28.7,0a1.964,1.964,0,0,1,0-3.9l.034,0h28.67A1.977,1.977,0,0,1,171.065,287.482Zm0,3.368a1.4,1.4,0,0,0,.169-2.8,1.429,1.429,0,0,0-.345,0l-.034,0H142.19a1.4,1.4,0,0,0,0,2.781l28.7,0A1.408,1.408,0,0,0,171.068,290.851Z" transform="translate(-131.46 -255.677)" fill="#fff"></path><path id="Path_12713" data-name="Path 12713" d="M166.652,280.923h-24.4a1.684,1.684,0,1,0,0,3.342h24.415a1.684,1.684,0,0,0,0-3.342Z" transform="translate(-131.545 -267.549)" fill="#fff" stroke="#fff" stroke-width="1"></path><path id="Trazado_12714" data-name="Trazado 12714" d="M142.227,280.81a1.991,1.991,0,0,1,.227.013l24.433,0a1.964,1.964,0,0,1,0,3.9l-.035,0h-24.4a1.965,1.965,0,1,1-.227-3.917Zm24.607.574-24.432,0a1.4,1.4,0,1,0-.343,2.785,1.435,1.435,0,0,0,.344,0l.034,0h24.4a1.4,1.4,0,0,0,0-2.781Z" transform="translate(-131.725 -267.729)" fill="#fff"></path></g></g><g id="Group_35397" data-name="Group 35397" transform="translate(4750.852 3235.297)"><g id="Group_570" data-name="Group 570" transform="translate(327.669 62.406)"><g id="Group_563" data-name="Group 563" transform="translate(10.631 3.745)"><g id="Group_562" data-name="Group 562" clip-path="url(#clip-path)"><rect id="Rectangle_695" data-name="Rectangle 695" width="79.51" height="79.624" transform="matrix(0.597, -0.802, 0.802, 0.597, -29.199, 36.388)" fill="#fff"></rect></g></g><g id="Group_565" data-name="Group 565" transform="translate(3.344 0)"><g id="Group_564" data-name="Group 564" clip-path="url(#clip-path-2)"><rect id="Rectangle_696" data-name="Rectangle 696" width="54.135" height="55.671" transform="translate(-3.344 0)" fill="#fff"></rect></g></g><g id="Group_567" data-name="Group 567" transform="translate(15.02 12.058)"><g id="Group_566" data-name="Group 566" clip-path="url(#clip-path-3)"><rect id="Rectangle_697" data-name="Rectangle 697" width="53.459" height="61.051" transform="translate(0 0)" fill="#fff"></rect></g></g><g id="Group_569" data-name="Group 569"><g id="Group_568" data-name="Group 568" clip-path="url(#clip-path-4)"><path id="Path_260" data-name="Path 260" d="M241.235,182.821a10.793,10.793,0,0,1-4.6-3.63,8.911,8.911,0,0,1-.521-.823,3.138,3.138,0,0,1,2.746-4.661h.051a3.177,3.177,0,0,1,2.9,1.946,5.63,5.63,0,0,0,1.376,1.919,6.571,6.571,0,0,0,4.623,1.515,7.119,7.119,0,0,0,4.805-1.489,4.838,4.838,0,0,0,1.724-3.839,4.2,4.2,0,0,0-1.071-2.977,7.171,7.171,0,0,0-2.664-1.776,40.32,40.32,0,0,0-4.414-1.358,41.256,41.256,0,0,1-5.772-1.906,9.531,9.531,0,0,1-3.787-3,8.679,8.679,0,0,1-1.567-5.432,9.655,9.655,0,0,1,1.567-5.485,10.009,10.009,0,0,1,4.387-3.6,15.941,15.941,0,0,1,6.529-1.254A13.61,13.61,0,0,1,256.2,149.6a9.6,9.6,0,0,1,2.19,2.385,3.17,3.17,0,0,1-2.7,4.85h0a3.142,3.142,0,0,1-2.81-1.7,5.314,5.314,0,0,0-1.408-1.7,6.952,6.952,0,0,0-4.544-1.41,6.45,6.45,0,0,0-4.179,1.306,4.55,4.55,0,0,0-1.619,3.761,3.815,3.815,0,0,0,1.018,2.742,7.19,7.19,0,0,0,2.586,1.7,40.066,40.066,0,0,0,4.283,1.358,44.83,44.83,0,0,1,5.876,1.985,9.79,9.79,0,0,1,3.865,3.056,8.785,8.785,0,0,1,1.593,5.511,9.906,9.906,0,0,1-1.489,5.223,10.737,10.737,0,0,1-4.335,3.944,14.3,14.3,0,0,1-6.712,1.489,16.245,16.245,0,0,1-6.581-1.28" transform="translate(-211.821 -132.427)" fill="#6b24f8"></path><path id="Path_261" data-name="Path 261" d="M345.05,85.73a1.978,1.978,0,0,1-1.978-1.978V77.322a1.978,1.978,0,0,1,3.957,0v6.429a1.978,1.978,0,0,1-1.978,1.978" transform="translate(-309.138 -67.892)" fill="#6b24f8"></path><path id="Path_262" data-name="Path 262" d="M345.05,497.73a1.978,1.978,0,0,1-1.978-1.978v-6.429a1.978,1.978,0,1,1,3.957,0v6.429a1.978,1.978,0,0,1-1.978,1.978" transform="translate(-309.138 -439.14)" fill="#6b24f8"></path></g></g></g></g></g></svg>