<svg xmlns="http://www.w3.org/2000/svg" xmlns:xlink="http://www.w3.org/1999/xlink" width="889.778" height="364.777" viewBox="0 0 889.778 364.777"><defs><clipPath id="clip-path"><rect id="Rectangle_20093" data-name="Rectangle 20093" width="814.251" height="289.14" fill="none"></rect></clipPath></defs><g id="Group_34539" data-name="Group 34539" transform="translate(-114.111 -13898.112)"><g id="Rectangle_20097" data-name="Rectangle 20097" transform="translate(152 13936)" fill="rgba(112,112,112,0.4)" stroke="#707070" stroke-width="1"><rect width="814" height="289" stroke="none"></rect><rect x="0.5" y="0.5" width="813" height="288" fill="none"></rect></g><g id="Group_34535" data-name="Group 34535" transform="translate(152 13936)"><g id="Group_34534" data-name="Group 34534" clip-path="url(#clip-path)"><path id="Path_11847" data-name="Path 11847" d="M665.641,83.759H368.778a3.454,3.454,0,1,1,0-6.908H665.641a3.454,3.454,0,1,1,0,6.908" transform="translate(139.395 29.324)" fill="#ccc"></path><path id="Path_11848" data-name="Path 11848" d="M814.251,58.026H0V6.008A6.008,6.008,0,0,1,6.008,0H808.241a6.008,6.008,0,0,1,6.01,6.008Z" fill="#eef1f7"></path><rect id="Rectangle_20089" data-name="Rectangle 20089" width="814.251" height="230.423" transform="translate(0 58.026)" fill="#fff"></rect><line id="Line_105" data-name="Line 105" x2="799.49" transform="translate(0 105.189)" fill="none" stroke="#d4d4d4" stroke-miterlimit="10" stroke-width="1"></line><line id="Line_106" data-name="Line 106" y1="47.164" transform="translate(757.047 58.025)" fill="none" stroke="#d4d4d4" stroke-miterlimit="10" stroke-width="1"></line><line id="Line_107" data-name="Line 107" y2="169.318" transform="translate(757.047 119.132)" fill="none" stroke="#d4d4d4" stroke-miterlimit="10" stroke-width="1"></line><line id="Line_108" data-name="Line 108" x2="799.49" transform="translate(0 157.406)" fill="none" stroke="#d4d4d4" stroke-miterlimit="10" stroke-width="1"></line><line id="Line_109" data-name="Line 109" x2="799.49" transform="translate(0 200.139)" fill="none" stroke="#d4d4d4" stroke-miterlimit="10" stroke-width="1"></line><line id="Line_110" data-name="Line 110" x2="799.49" transform="translate(0 288.449)" fill="none" stroke="#d4d4d4" stroke-miterlimit="10" stroke-width="1"></line><line id="Line_111" data-name="Line 111" x2="799.49" transform="translate(0 242.873)" fill="none" stroke="#d4d4d4" stroke-miterlimit="10" stroke-width="1"></line><path id="Path_11849" data-name="Path 11849" d="M16.876,23.164a.555.555,0,0,1-.851,0L14.208,21l-1.477-1.761a.555.555,0,0,1,.426-.912h6.587a.555.555,0,0,1,.426.912L18.693,21Z" transform="translate(4.808 6.992)" fill="#1c2532"></path><path id="Path_11850" data-name="Path 11850" d="M66.514,14.176q0-.545,1.295-.544h.544q1.252,0,1.4.648L71.318,21q.041.149.648,3.009.124-.835.709-3.009l1.713-6.933q.106-.439,1.149-.439h.793q1.044,0,1.149.439L79.129,21q.354,1.527.71,3.155c.1-.4.227-.973.385-1.7s.269-1.214.325-1.452l1.629-6.724q.145-.647,1.4-.648h.229q1.3,0,1.3.544a3.023,3.023,0,0,1-.043.314L81.656,27.9c-.084.293-.467.438-1.149.438H78.983c-.71,0-1.093-.145-1.149-.438l-2.046-8.647L73.657,27.9c-.083.293-.466.438-1.148.438H71c-.71,0-1.093-.145-1.148-.438l-3.3-13.408a1.021,1.021,0,0,1-.041-.314" transform="translate(25.379 5.202)" fill="#1d1e1c"></path><path id="Path_11851" data-name="Path 11851" d="M82.053,15.874q-1.254,0-1.253-.669V13.513q0-.667,1.253-.667h.584q1.254,0,1.253.667v1.692q0,.669-1.253.669ZM80.8,27.967V18.3q0-.667,1.253-.667h.584q1.254,0,1.253.667v9.671q0,.667-1.253.667h-.584q-1.254,0-1.253-.667" transform="translate(30.831 4.902)" fill="#1d1e1c"></path><path id="Path_11852" data-name="Path 11852" d="M84.382,25.992a1.971,1.971,0,0,1,.4-.941q.4-.605.71-.605.041,0,.752.293a3.442,3.442,0,0,0,1.3.293c.848,0,1.274-.315,1.274-.941a.941.941,0,0,0-.428-.8,4.043,4.043,0,0,0-1.044-.511,11.535,11.535,0,0,1-1.232-.5,2.533,2.533,0,0,1-1.044-.962,3.125,3.125,0,0,1-.428-1.712,3.129,3.129,0,0,1,1.035-2.476,4.111,4.111,0,0,1,2.809-.908,7.273,7.273,0,0,1,1.587.167q1.5.334,1.5,1.148a2.479,2.479,0,0,1-.312.909c-.21.426-.4.637-.586.637-.014,0-.218-.073-.616-.22a3.334,3.334,0,0,0-1.159-.218q-1.127,0-1.127.752a.774.774,0,0,0,.428.678,5.62,5.62,0,0,0,1.044.481,9.657,9.657,0,0,1,1.232.543,2.725,2.725,0,0,1,1.044,1.022,3.255,3.255,0,0,1,.427,1.723,3.42,3.42,0,0,1-1.075,2.643,3.822,3.822,0,0,1-2.694.992,8.162,8.162,0,0,1-2.705-.387q-1.086-.385-1.086-1.1" transform="translate(32.197 6.188)" fill="#1d1e1c"></path><path id="Path_11853" data-name="Path 11853" d="M91.154,27.967V13.513q0-.667,1.253-.667h.586q1.252,0,1.252.667v5.41A3.7,3.7,0,0,1,97.19,17.5q3.154,0,3.154,3.383v7.081q0,.667-1.253.667h-.586q-1.252,0-1.252-.667V21.345a1.163,1.163,0,0,0-1.337-1.293,1.88,1.88,0,0,0-1.672,1.21v6.7q0,.667-1.252.667h-.586q-1.252,0-1.253-.667" transform="translate(34.781 4.902)" fill="#1d1e1c"></path><path id="Path_11854" data-name="Path 11854" d="M103.493,26.318l.564-.084q.271,0,.46.616a3.5,3.5,0,0,1,.188.887q0,1.024-2,1.025-3.051,0-3.051-3.385V13.513q0-.667,1.253-.667h.586q1.252,0,1.253.667V25.42q0,.9.752.9" transform="translate(38.023 4.902)" fill="#1d1e1c"></path><path id="Path_11855" data-name="Path 11855" d="M105.332,15.874q-1.254,0-1.253-.669V13.513q0-.667,1.253-.667h.584q1.254,0,1.253.667v1.692q0,.669-1.253.669Zm-1.253,12.093V18.3q0-.667,1.253-.667h.584q1.254,0,1.253.667v9.671q0,.667-1.253.667h-.584q-1.254,0-1.253-.667" transform="translate(39.713 4.902)" fill="#1d1e1c"></path><path id="Path_11856" data-name="Path 11856" d="M107.662,25.992a1.972,1.972,0,0,1,.4-.941q.4-.605.71-.605.041,0,.752.293a3.442,3.442,0,0,0,1.3.293c.848,0,1.274-.315,1.274-.941a.941.941,0,0,0-.428-.8,4.043,4.043,0,0,0-1.044-.511,11.535,11.535,0,0,1-1.232-.5,2.533,2.533,0,0,1-1.044-.962,3.125,3.125,0,0,1-.428-1.712,3.129,3.129,0,0,1,1.035-2.476,4.111,4.111,0,0,1,2.809-.908,7.273,7.273,0,0,1,1.587.167q1.5.334,1.5,1.148a2.479,2.479,0,0,1-.312.909c-.21.426-.4.637-.586.637-.014,0-.218-.073-.616-.22a3.334,3.334,0,0,0-1.159-.218q-1.127,0-1.127.752a.774.774,0,0,0,.428.678,5.62,5.62,0,0,0,1.044.481,9.657,9.657,0,0,1,1.232.543,2.725,2.725,0,0,1,1.044,1.022,3.255,3.255,0,0,1,.427,1.723,3.42,3.42,0,0,1-1.075,2.643,3.822,3.822,0,0,1-2.694.992,8.162,8.162,0,0,1-2.705-.387q-1.086-.385-1.086-1.1" transform="translate(41.08 6.188)" fill="#1d1e1c"></path><path id="Path_11857" data-name="Path 11857" d="M118.709,25.718l.564-.084q.271,0,.46.616a3.546,3.546,0,0,1,.187.887q0,1.024-2,1.025-3.048,0-3.049-3.385V19.515h-.333q-.628,0-.627-1.044v-.355q0-1.044.627-1.044h.333l.272-1.984q.1-.669,1.127-.669h.648q1.044,0,1.044.669v1.984h1.022q.628,0,.627,1.044v.355q0,1.044-.627,1.044h-1.022V24.82q0,.9.752.9" transform="translate(43.462 5.501)" fill="#1d1e1c"></path><path id="Path_11858" data-name="Path 11858" d="M122.567,26.657a2.179,2.179,0,0,1,.481-1.169c.321-.461.591-.691.814-.691a1.666,1.666,0,0,1,.544.229,5.09,5.09,0,0,0,2.527.732q1.963,0,1.963-1.525a1.363,1.363,0,0,0-.627-1.127,6.544,6.544,0,0,0-1.514-.8,19.143,19.143,0,0,1-1.766-.793,4.029,4.029,0,0,1-1.5-1.39,4.148,4.148,0,0,1-.626-2.35,3.9,3.9,0,0,1,.752-2.411,4.893,4.893,0,0,1,4.2-1.817,6.857,6.857,0,0,1,2.673.459c.724.307,1.087.642,1.087,1a2.408,2.408,0,0,1-.4,1.137q-.4.68-.753.68a1.214,1.214,0,0,1-.376-.146,4.673,4.673,0,0,0-1.931-.374,2.349,2.349,0,0,0-1.525.374,1.2,1.2,0,0,0-.428.941,1.233,1.233,0,0,0,.627,1,6.854,6.854,0,0,0,1.5.774,17.966,17.966,0,0,1,1.764.783,3.983,3.983,0,0,1,2.141,3.635,5.527,5.527,0,0,1-.408,2.233,3.466,3.466,0,0,1-1.116,1.451,5.59,5.59,0,0,1-3.383,1,8.281,8.281,0,0,1-3.363-.6q-1.357-.607-1.358-1.234" transform="translate(46.767 5.167)" fill="#1d1e1c"></path><path id="Path_11859" data-name="Path 11859" d="M130.428,24.426a4.986,4.986,0,0,1,.105-1.067,3.04,3.04,0,0,1,.479-1.033,2.949,2.949,0,0,1,1-.908,8.812,8.812,0,0,1,4.407-.879v-.688q0-1.192-1.63-1.191a5.274,5.274,0,0,0-2.234.5,2.06,2.06,0,0,1-.439.167c-.209,0-.441-.216-.7-.648a2.221,2.221,0,0,1-.387-1.024c0-.374.387-.71,1.159-1a8.022,8.022,0,0,1,2.831-.439q4.491,0,4.49,3.488v3.926a15.616,15.616,0,0,0,.126,2.172l.124.857q0,.334-.846.5a7.253,7.253,0,0,1-1.264.166,1.212,1.212,0,0,1-.553-.082.582.582,0,0,1-.22-.283c-.055-.131-.1-.236-.126-.314a2.639,2.639,0,0,1-.093-.406c-.036-.2-.059-.315-.073-.356a2.918,2.918,0,0,1-1.3,1.129,3.976,3.976,0,0,1-1.775.46,2.992,2.992,0,0,1-2.35-.836,3.215,3.215,0,0,1-.741-2.213m3.07-.314a.861.861,0,0,0,.272.667,1.162,1.162,0,0,0,.814.251,1.81,1.81,0,0,0,1.065-.376,2.3,2.3,0,0,0,.774-.941V22.567q-2.924,0-2.925,1.546" transform="translate(49.767 6.188)" fill="#1d1e1c"></path><path id="Path_11860" data-name="Path 11860" d="M139.038,26.681V20.059a12.827,12.827,0,0,0-.126-2.193,6.448,6.448,0,0,1-.126-.752q0-.334.847-.5a7.291,7.291,0,0,1,1.263-.167,1.214,1.214,0,0,1,.554.083.6.6,0,0,1,.218.262c.057.119.1.216.126.293a2.735,2.735,0,0,1,.094.385c.035.181.059.293.073.334a4.132,4.132,0,0,1,1.326-1.127,3.568,3.568,0,0,1,1.766-.46A2.61,2.61,0,0,1,147.81,17.8a4.273,4.273,0,0,1,1.379-1.127,3.821,3.821,0,0,1,1.837-.46,2.955,2.955,0,0,1,2.309.825,3.748,3.748,0,0,1,.741,2.559v7.081q0,.667-1.253.667h-.584q-1.254,0-1.253-.667V20.059q0-1.293-1.232-1.293a1.866,1.866,0,0,0-1.65,1.21v6.7q0,.667-1.253.667h-.586q-1.254,0-1.253-.667V20.059q0-1.293-1.232-1.293a1.869,1.869,0,0,0-1.65,1.21v6.7q0,.667-1.253.667h-.584q-1.254,0-1.253-.667" transform="translate(52.956 6.188)" fill="#1d1e1c"></path><path id="Path_11861" data-name="Path 11861" d="M151.857,26.681V20.059a12.827,12.827,0,0,0-.126-2.193,6.448,6.448,0,0,1-.126-.752q0-.334.847-.5a7.291,7.291,0,0,1,1.263-.167,1.214,1.214,0,0,1,.554.083.6.6,0,0,1,.218.262c.057.119.1.216.126.293a2.732,2.732,0,0,1,.094.385c.035.181.059.293.073.334a2.593,2.593,0,0,1,2.277-1.587,1.1,1.1,0,0,1,.93.345,1.265,1.265,0,0,1,.26.782,4.167,4.167,0,0,1-.187,1.1c-.126.439-.279.658-.46.658a2,2,0,0,1-.439-.084,2.156,2.156,0,0,0-.543-.082,1.889,1.889,0,0,0-1.67,1.043v6.7q0,.667-1.253.667h-.584q-1.254,0-1.253-.667" transform="translate(57.848 6.188)" fill="#1d1e1c"></path><path id="Path_11862" data-name="Path 11862" d="M161.656,25.718l.564-.084q.271,0,.46.616a3.546,3.546,0,0,1,.186.887q0,1.024-2,1.025-3.048,0-3.049-3.385V19.515h-.333q-.628,0-.627-1.044v-.355q0-1.044.627-1.044h.333l.272-1.984q.1-.669,1.127-.669h.648q1.044,0,1.044.669v1.984h1.022q.628,0,.627,1.044v.355q0,1.044-.627,1.044H160.9V24.82q0,.9.752.9" transform="translate(59.849 5.501)" fill="#1d1e1c"></path><path id="Path_11863" data-name="Path 11863" d="M169.249,27.656V16.4h-3.321q-.626,0-.626-1.044v-.648q0-1.044.626-1.044h9.88q.626,0,.626,1.044v.648q0,1.044-.626,1.044h-3.321V27.656q0,.667-1.253.667H170.5q-1.254,0-1.253-.667" transform="translate(63.074 5.213)" fill="#1d1e1c"></path><path id="Path_11864" data-name="Path 11864" d="M175.411,26.022a6.092,6.092,0,0,1-1.3-4.188,6.049,6.049,0,0,1,1.3-4.176,5.666,5.666,0,0,1,7.55,0,6.081,6.081,0,0,1,1.283,4.176,6.124,6.124,0,0,1-1.283,4.188,5.633,5.633,0,0,1-7.55,0m1.837-4.176q0,3.185,1.931,3.186t1.933-3.186q0-3.185-1.933-3.186t-1.931,3.186" transform="translate(66.436 6.188)" fill="#1d1e1c"></path><path id="Path_11865" data-name="Path 11865" d="M184.013,26.022a6.091,6.091,0,0,1-1.3-4.188,6.049,6.049,0,0,1,1.3-4.176,5.666,5.666,0,0,1,7.55,0,6.081,6.081,0,0,1,1.283,4.176,6.124,6.124,0,0,1-1.283,4.188,5.633,5.633,0,0,1-7.55,0m1.837-4.176q0,3.185,1.931,3.186t1.933-3.186q0-3.185-1.933-3.186t-1.931,3.186" transform="translate(69.719 6.188)" fill="#1d1e1c"></path><path id="Path_11866" data-name="Path 11866" d="M195.48,26.318l.564-.084c.181,0,.333.206.459.616a3.5,3.5,0,0,1,.188.887q0,1.024-2,1.025-3.05,0-3.049-3.385V13.513q0-.667,1.253-.667h.584q1.254,0,1.253.667V25.42q0,.9.753.9" transform="translate(73.122 4.902)" fill="#1d1e1c"></path><path id="Path_11867" data-name="Path 11867" d="M195.643,25.992a1.971,1.971,0,0,1,.4-.941q.4-.605.71-.605.041,0,.753.293a3.424,3.424,0,0,0,1.293.293c.85,0,1.275-.315,1.275-.941a.938.938,0,0,0-.428-.8,4.021,4.021,0,0,0-1.044-.511,11.539,11.539,0,0,1-1.232-.5,2.516,2.516,0,0,1-1.044-.962,3.114,3.114,0,0,1-.427-1.712,3.128,3.128,0,0,1,1.033-2.476,4.114,4.114,0,0,1,2.809-.908,7.251,7.251,0,0,1,1.586.167q1.5.334,1.5,1.148a2.479,2.479,0,0,1-.312.909c-.21.426-.4.637-.586.637-.014,0-.218-.073-.616-.22a3.332,3.332,0,0,0-1.158-.218q-1.129,0-1.129.752a.774.774,0,0,0,.428.678,5.621,5.621,0,0,0,1.044.481,9.556,9.556,0,0,1,1.231.543,2.706,2.706,0,0,1,1.044,1.022,3.242,3.242,0,0,1,.43,1.723,3.417,3.417,0,0,1-1.078,2.643,3.816,3.816,0,0,1-2.693.992,8.167,8.167,0,0,1-2.705-.387q-1.086-.385-1.086-1.1" transform="translate(74.651 6.188)" fill="#1d1e1c"></path><path id="Path_11868" data-name="Path 11868" d="M57.677,38.081h-24.5a1.8,1.8,0,0,1-1.8-1.8v-24.5a1.8,1.8,0,0,1,1.8-1.8H57.891a1.588,1.588,0,0,1,1.587,1.587V36.28a1.8,1.8,0,0,1-1.8,1.8" transform="translate(11.971 3.807)" fill="#3883ca"></path><path id="Path_11869" data-name="Path 11869" d="M39.621,16.4a1.556,1.556,0,0,1,1.556-1.556H51.211a1.556,1.556,0,0,1,0,3.111H41.177A1.555,1.555,0,0,1,39.621,16.4" transform="translate(15.118 5.666)" fill="#fff"></path><path id="Path_11870" data-name="Path 11870" d="M33.952,16.4a1.556,1.556,0,0,1,1.556-1.556h3.02a1.556,1.556,0,0,1,0,3.111h-3.02A1.555,1.555,0,0,1,33.952,16.4" transform="translate(12.955 5.666)" fill="#fff"></path><path id="Path_11871" data-name="Path 11871" d="M33.952,20.577a1.555,1.555,0,0,1,1.556-1.556h3.02a1.556,1.556,0,0,1,0,3.111h-3.02a1.555,1.555,0,0,1-1.556-1.556" transform="translate(12.955 7.258)" fill="#fff"></path><path id="Path_11872" data-name="Path 11872" d="M33.952,24.75a1.555,1.555,0,0,1,1.556-1.556h3.02a1.556,1.556,0,0,1,0,3.111h-3.02a1.555,1.555,0,0,1-1.556-1.556" transform="translate(12.955 8.85)" fill="#fff"></path><path id="Path_11873" data-name="Path 11873" d="M39.621,20.577a1.555,1.555,0,0,1,1.556-1.556H51.211a1.556,1.556,0,0,1,0,3.111H41.177a1.555,1.555,0,0,1-1.556-1.556" transform="translate(15.118 7.258)" fill="#fff"></path><path id="Path_11874" data-name="Path 11874" d="M39.621,24.75a1.555,1.555,0,0,1,1.556-1.556H51.211a1.556,1.556,0,0,1,0,3.111H41.177a1.555,1.555,0,0,1-1.556-1.556" transform="translate(15.118 8.85)" fill="#fff"></path><path id="Path_11875" data-name="Path 11875" d="M340.327,28.627c-3.7,0-7.346-1.985-10.834-5.906a1.145,1.145,0,0,1-.064-1.448c1.029-1.342,4.8-5.732,10.229-5.93,3.845-.112,7.607,1.846,11.213,5.9a1.141,1.141,0,0,1,.061,1.452c-1.026,1.337-4.8,5.728-10.226,5.926-.126,0-.253.007-.379.007m-9.62-6.681c3.263,3.609,6.622,5.4,9.946,5.254,4.578-.167,7.9-3.791,9-5.182-3.263-3.609-6.593-5.41-9.947-5.254-4.577.167-7.894,3.79-9,5.182m19.1-.119v0" transform="translate(125.612 5.853)" fill="#7f8594"></path><path id="Path_11876" data-name="Path 11876" d="M342.907,20.545a4.693,4.693,0,1,1-4.693-4.693,4.693,4.693,0,0,1,4.693,4.693" transform="translate(127.26 6.049)" fill="#7f8594"></path><path id="Path_11877" data-name="Path 11877" d="M335.078,20.433a.633.633,0,0,1-.088-.006.711.711,0,0,1-.618-.794,3.719,3.719,0,0,1,2.589-2.9.71.71,0,0,1,.4,1.361,2.293,2.293,0,0,0-1.583,1.713.711.711,0,0,1-.7.622" transform="translate(127.583 6.376)" fill="#fff"></path><rect id="Rectangle_20090" data-name="Rectangle 20090" width="12.691" height="1.422" transform="translate(504.654 27.124)" fill="#7f8594"></rect><rect id="Rectangle_20091" data-name="Rectangle 20091" width="7.661" height="1.422" transform="translate(507.169 32.383)" fill="#7f8594"></rect><rect id="Rectangle_20092" data-name="Rectangle 20092" width="17.987" height="1.422" transform="translate(502.006 21.19)" fill="#7f8594"></rect><path id="Path_11878" data-name="Path 11878" d="M390.429,43.246a.691.691,0,0,1-.691-.691V7.582a.691.691,0,0,1,1.382,0V42.555a.691.691,0,0,1-.691.691" transform="translate(148.711 2.629)" fill="#d4d4d4"></path><path id="Path_11879" data-name="Path 11879" d="M503.6,43.246a.691.691,0,0,1-.691-.691V7.582a.691.691,0,1,1,1.382,0V42.555a.691.691,0,0,1-.691.691" transform="translate(191.893 2.629)" fill="#d4d4d4"></path><path id="Path_11880" data-name="Path 11880" d="M424.452,18.6h-8.207a1.965,1.965,0,0,1-1.967-1.966v-.113a1.966,1.966,0,0,1,1.967-1.966h8.207a1.967,1.967,0,0,1,1.967,1.966v.113a1.966,1.966,0,0,1-1.967,1.966" transform="translate(158.074 5.553)" fill="#7f8594"></path><path id="Path_11881" data-name="Path 11881" d="M413.742,18.6h-3.734a1.966,1.966,0,0,1-1.967-1.967v-.113a1.966,1.966,0,0,1,1.967-1.966h3.734a1.967,1.967,0,0,1,1.967,1.966v.113a1.967,1.967,0,0,1-1.967,1.967" transform="translate(155.694 5.552)" fill="#7f8594"></path><path id="Path_11882" data-name="Path 11882" d="M413.742,22.676h-3.734a1.966,1.966,0,0,1-1.967-1.967v-.113a1.966,1.966,0,0,1,1.967-1.966h3.734a1.967,1.967,0,0,1,1.967,1.966v.113a1.967,1.967,0,0,1-1.967,1.967" transform="translate(155.694 7.108)" fill="#7f8594"></path><path id="Path_11883" data-name="Path 11883" d="M413.742,26.754h-3.734a1.966,1.966,0,0,1-1.967-1.967v-.113a1.966,1.966,0,0,1,1.967-1.966h3.734a1.967,1.967,0,0,1,1.967,1.966v.113a1.967,1.967,0,0,1-1.967,1.967" transform="translate(155.694 8.664)" fill="#7f8594"></path><path id="Path_11884" data-name="Path 11884" d="M424.452,22.676h-8.207a1.966,1.966,0,0,1-1.967-1.967v-.113a1.966,1.966,0,0,1,1.967-1.966h8.207a1.967,1.967,0,0,1,1.967,1.966v.113a1.967,1.967,0,0,1-1.967,1.967" transform="translate(158.074 7.108)" fill="#7f8594"></path><path id="Path_11885" data-name="Path 11885" d="M424.452,26.754h-8.207a1.966,1.966,0,0,1-1.967-1.967v-.113a1.966,1.966,0,0,1,1.967-1.966h8.207a1.967,1.967,0,0,1,1.967,1.966v.113a1.967,1.967,0,0,1-1.967,1.967" transform="translate(158.074 8.664)" fill="#7f8594"></path><path id="Path_11886" data-name="Path 11886" d="M431.483,26.747a1.255,1.255,0,0,1,.25-.609c.166-.26.3-.39.4-.39a2.358,2.358,0,0,1,.461.231,6.243,6.243,0,0,0,1.145.471,5.458,5.458,0,0,0,1.69.24,2.339,2.339,0,0,0,1.626-.608,2,2,0,0,0,.676-1.553,1.906,1.906,0,0,0-.62-1.5,4.553,4.553,0,0,0-1.5-.877q-.877-.323-1.764-.694a3.75,3.75,0,0,1-1.506-1.145,3.069,3.069,0,0,1-.618-1.977,3.041,3.041,0,0,1,1.126-2.466,4.519,4.519,0,0,1,2.976-.934,6.345,6.345,0,0,1,1.94.333q1.034.332,1.033.794a1.332,1.332,0,0,1-.231.591c-.153.258-.273.388-.361.388a1.265,1.265,0,0,1-.387-.185,4.168,4.168,0,0,0-2.034-.517,2.674,2.674,0,0,0-1.737.526,1.872,1.872,0,0,0-.645,1.543,1.757,1.757,0,0,0,1.2,1.587q.516.24,1.165.471a13.425,13.425,0,0,1,1.282.537,6.356,6.356,0,0,1,1.165.71,2.99,2.99,0,0,1,.859,1.108,3.774,3.774,0,0,1,.332,1.626,3.361,3.361,0,0,1-1.107,2.669,4.109,4.109,0,0,1-2.81.971,7.735,7.735,0,0,1-2.853-.461q-1.156-.462-1.155-.887" transform="translate(164.639 5.701)" fill="#7f8594"></path><path id="Path_11887" data-name="Path 11887" d="M438.905,27.849V14.731c0-.269.245-.406.738-.406h.073c.492,0,.739.137.739.406V19.72a3.921,3.921,0,0,1,2.827-1.275,3.493,3.493,0,0,1,1.905.536,2.209,2.209,0,0,1,.746.942,3.6,3.6,0,0,1,.289,1.514v6.412c0,.271-.249.406-.74.406h-.075q-.738,0-.738-.406V21.587a1.762,1.762,0,0,0-.482-1.311,1.674,1.674,0,0,0-1.245-.481,2.76,2.76,0,0,0-1.351.322,3.3,3.3,0,0,0-.858.638l-.278.332v6.763c0,.271-.247.406-.739.406h-.073c-.493,0-.738-.135-.738-.406" transform="translate(167.471 5.466)" fill="#7f8594"></path><path id="Path_11888" data-name="Path 11888" d="M447.074,25.99a5.253,5.253,0,0,1-1.109-3.667,5.613,5.613,0,0,1,1.09-3.741,3.861,3.861,0,0,1,3.1-1.275q3.917,0,3.917,4.822a.886.886,0,0,1-.222.461c-.146.2-.276.3-.387.3h-5.839a3.583,3.583,0,0,0,.794,2.255,2.7,2.7,0,0,0,2.05.72,4.643,4.643,0,0,0,2.31-.59,2.4,2.4,0,0,1,.388-.185c.123,0,.263.123.416.369a1.243,1.243,0,0,1,.231.555c0,.245-.336.5-1.007.775a6.161,6.161,0,0,1-2.318.406,4.434,4.434,0,0,1-3.418-1.2m5.358-4.433q0-2.92-2.216-2.919-2.385,0-2.588,2.919Z" transform="translate(170.165 6.604)" fill="#7f8594"></path><path id="Path_11889" data-name="Path 11889" d="M454.282,25.99a5.253,5.253,0,0,1-1.109-3.667,5.612,5.612,0,0,1,1.09-3.741,3.861,3.861,0,0,1,3.1-1.275q3.917,0,3.917,4.822a.885.885,0,0,1-.222.461c-.146.2-.276.3-.387.3h-5.838a3.582,3.582,0,0,0,.794,2.255,2.7,2.7,0,0,0,2.05.72,4.643,4.643,0,0,0,2.31-.59,2.4,2.4,0,0,1,.388-.185c.123,0,.263.123.416.369a1.242,1.242,0,0,1,.231.555c0,.245-.336.5-1.007.775a6.161,6.161,0,0,1-2.318.406,4.433,4.433,0,0,1-3.418-1.2m5.358-4.433q0-2.92-2.216-2.919-2.385,0-2.588,2.919Z" transform="translate(172.915 6.604)" fill="#7f8594"></path><path id="Path_11890" data-name="Path 11890" d="M461.433,25.259V19.365h-.923c-.247,0-.37-.184-.37-.554V18.59q0-.555.37-.555h.923l.222-1.94c.025-.269.221-.406.591-.406h.185c.369,0,.554.137.554.406v1.94h1.551c.246,0,.37.185.37.555v.221c0,.37-.124.554-.37.554h-1.551v5.747q0,1.368,1,1.366a2.687,2.687,0,0,0,.535-.046,2.157,2.157,0,0,1,.26-.047c.11,0,.2.113.276.341a1.844,1.844,0,0,1,.111.526q0,.555-1.347.555a2.638,2.638,0,0,1-1.655-.564,2.37,2.37,0,0,1-.729-1.987" transform="translate(175.574 5.986)" fill="#7f8594"></path><path id="Path_11891" data-name="Path 11891" d="M481.321,23.11a.555.555,0,0,1-.851,0l-1.817-2.166-1.477-1.761a.555.555,0,0,1,.426-.912h6.587a.555.555,0,0,1,.425.912l-1.477,1.761Z" transform="translate(182.024 6.971)" fill="#7f8594"></path><path id="Path_11892" data-name="Path 11892" d="M522.451,20.573a1.543,1.543,0,1,1-1.542-1.542,1.542,1.542,0,0,1,1.542,1.542" transform="translate(198.172 7.262)" fill="#7f8594"></path><path id="Path_11893" data-name="Path 11893" d="M527.542,20.573A1.543,1.543,0,1,1,526,19.031a1.542,1.542,0,0,1,1.543,1.542" transform="translate(200.115 7.262)" fill="#7f8594"></path><path id="Path_11894" data-name="Path 11894" d="M532.309,20.573a1.542,1.542,0,1,1-1.542-1.542,1.542,1.542,0,0,1,1.542,1.542" transform="translate(201.934 7.262)" fill="#7f8594"></path><path id="Path_11895" data-name="Path 11895" d="M44.123,66.964V56.239H40.959q-.6,0-.6-.995v-.618q0-.993.6-.993H50.37c.4,0,.6.332.6.993v.618c0,.663-.2.995-.6.995H47.206V66.964q0,.636-1.194.636h-.7q-1.194,0-1.194-.636" transform="translate(15.401 20.465)" fill="#7f8594"></path><path id="Path_11896" data-name="Path 11896" d="M50.2,55.74Q49,55.74,49,55.1V53.492q0-.636,1.194-.637h.558q1.192,0,1.192.637V55.1q0,.638-1.192.637ZM49,67.261V58.048q0-.638,1.194-.637h.558q1.192,0,1.192.637v9.212q0,.636-1.192.636H50.2Q49,67.9,49,67.261" transform="translate(18.698 20.168)" fill="#7f8594"></path><path id="Path_11897" data-name="Path 11897" d="M56.993,65.117l.537-.08c.173,0,.318.2.438.587a3.359,3.359,0,0,1,.178.846q0,.974-1.909.975-2.905,0-2.905-3.223V59.208h-.318c-.4,0-.6-.333-.6-1v-.337c0-.665.2-1,.6-1h.318l.258-1.89q.1-.636,1.075-.637h.618c.663,0,.993.213.993.637v1.89h.975q.6,0,.6,1v.337c0,.663-.2,1-.6,1h-.975v5.052q0,.856.717.857" transform="translate(20 20.739)" fill="#7f8594"></path><path id="Path_11898" data-name="Path 11898" d="M61.463,65.688l.537-.08c.173,0,.318.2.438.587a3.359,3.359,0,0,1,.178.846q0,.974-1.909.975-2.905,0-2.905-3.223v-11.3q0-.638,1.194-.637h.558q1.192,0,1.192.637v11.34q0,.856.717.857" transform="translate(22.055 20.168)" fill="#7f8594"></path><path id="Path_11899" data-name="Path 11899" d="M63.06,65.386a5.792,5.792,0,0,1-1.283-4.048A5.453,5.453,0,0,1,63.06,57.38a4.7,4.7,0,0,1,3.522-1.315A3.79,3.79,0,0,1,69.865,57.5a6.121,6.121,0,0,1,1.046,3.7,1.349,1.349,0,0,1-.409.707c-.271.311-.474.467-.607.467H64.822a2.263,2.263,0,0,0,.676,1.612,2.238,2.238,0,0,0,1.473.477,4.785,4.785,0,0,0,1.71-.308q.817-.309.836-.309c.2,0,.421.2.667.587a1.947,1.947,0,0,1,.367.926q0,.657-1.243,1.044a7.875,7.875,0,0,1-2.338.388,5.045,5.045,0,0,1-3.91-1.4M68.045,60.4a2.643,2.643,0,0,0-.358-1.463,1.2,1.2,0,0,0-1.075-.546q-1.473,0-1.791,2.009Z" transform="translate(23.572 21.392)" fill="#7f8594"></path><path id="Path_11900" data-name="Path 11900" d="M40.434,91.092c0-.207.264-.314.794-.314h.184c.445,0,.691.1.741.294l2.346,9.091q.128.518.231,1.109c.068.394.1.6.1.611L47.51,91.092c.048-.207.289-.314.72-.314h.3c.431,0,.671.106.721.314l2.291,9.091.314,1.7,2.68-10.811q.073-.294.738-.294h.111c.531,0,.8.106.8.314a2.149,2.149,0,0,1-.055.258l-3.2,12.138c-.05.2-.3.3-.739.3h-.757c-.443,0-.689-.1-.739-.3L48.674,95.97l-.387-2.4-.39,2.4-2.013,7.518c-.05.2-.3.3-.739.3h-.757c-.443,0-.691-.1-.739-.3L40.489,91.35a1.879,1.879,0,0,1-.055-.258" transform="translate(15.428 34.638)" fill="#1d1e1c"></path><path id="Path_11901" data-name="Path 11901" d="M53.873,101.774a5.248,5.248,0,0,1-1.109-3.667,5.619,5.619,0,0,1,1.09-3.74,3.858,3.858,0,0,1,3.1-1.277q3.917,0,3.917,4.822a.892.892,0,0,1-.221.461c-.148.2-.278.3-.388.3H54.427a3.579,3.579,0,0,0,.794,2.253,2.7,2.7,0,0,0,2.052.72,4.641,4.641,0,0,0,2.309-.59,2.459,2.459,0,0,1,.388-.184c.123,0,.261.122.416.369a1.239,1.239,0,0,1,.231.554q0,.367-1.007.776a6.189,6.189,0,0,1-2.318.4,4.433,4.433,0,0,1-3.418-1.2m5.358-4.433q0-2.918-2.217-2.919-2.383,0-2.586,2.919Z" transform="translate(20.133 35.52)" fill="#1d1e1c"></path><path id="Path_11902" data-name="Path 11902" d="M60.373,103.633V90.517c0-.271.247-.408.739-.408h.075c.492,0,.739.137.739.408v4.655a4.425,4.425,0,0,1,2.771-.942,3.2,3.2,0,0,1,2.586,1.285,5.522,5.522,0,0,1,1.035,3.556v.167a5.932,5.932,0,0,1-.97,3.511,3.028,3.028,0,0,1-2.6,1.365,4.027,4.027,0,0,1-2.957-1.384l-.3,1.091c-.062.148-.228.221-.5.221h-.073q-.555,0-.555-.408m1.553-2.143a3.292,3.292,0,0,0,2.383,1.277q2.383,0,2.383-3.734a4.391,4.391,0,0,0-.619-2.531,2.106,2.106,0,0,0-1.8-.9h-.111a3.412,3.412,0,0,0-2.235.832Z" transform="translate(23.036 34.383)" fill="#1d1e1c"></path><path id="Path_11903" data-name="Path 11903" d="M71.191,103.633V90.517c0-.271.247-.408.739-.408H72c.492,0,.739.137.739.408v4.655a4.425,4.425,0,0,1,2.771-.942A3.2,3.2,0,0,1,78.1,95.514a5.522,5.522,0,0,1,1.035,3.556v.167a5.932,5.932,0,0,1-.97,3.511,3.028,3.028,0,0,1-2.6,1.365,4.027,4.027,0,0,1-2.957-1.384l-.3,1.091c-.062.148-.228.221-.5.221h-.073q-.555,0-.555-.408m1.553-2.143a3.292,3.292,0,0,0,2.383,1.277q2.383,0,2.383-3.734a4.391,4.391,0,0,0-.619-2.531,2.106,2.106,0,0,0-1.8-.9h-.111a3.412,3.412,0,0,0-2.235.832Z" transform="translate(27.164 34.383)" fill="#1d1e1c"></path><path id="Path_11904" data-name="Path 11904" d="M78.928,102.5V96.012a9.6,9.6,0,0,0-.093-1.608c-.086-.443-.13-.684-.13-.721,0-.145.117-.253.352-.321a2.023,2.023,0,0,1,.544-.1.611.611,0,0,1,.268.039.419.419,0,0,1,.138.119.836.836,0,0,1,.1.167,1.523,1.523,0,0,1,.073.221c.025.091.047.164.065.221a1.834,1.834,0,0,1,.055.24,1.9,1.9,0,0,0,.047.213,2.7,2.7,0,0,1,2.143-1.387,1.308,1.308,0,0,1,.794.206.611.611,0,0,1,.276.515,2.088,2.088,0,0,1-.111.655c-.073.229-.16.344-.258.344a1.63,1.63,0,0,1-.361-.1,2.053,2.053,0,0,0-.684-.1,1.469,1.469,0,0,0-.822.286,2.5,2.5,0,0,0-.627.564l-.222.275V102.5q0,.408-.739.408h-.073q-.74,0-.739-.408" transform="translate(30.032 35.52)" fill="#1d1e1c"></path><path id="Path_11905" data-name="Path 11905" d="M87.57,102.976a4,4,0,0,1-3.178-1.256,5.381,5.381,0,0,1-1.1-3.65A5.492,5.492,0,0,1,84.4,94.387a3.931,3.931,0,0,1,3.16-1.3,3.865,3.865,0,0,1,3.131,1.285,5.587,5.587,0,0,1,1.08,3.694,5.5,5.5,0,0,1-1.062,3.658,3.894,3.894,0,0,1-3.14,1.248m-2.023-2.208a2.263,2.263,0,0,0,1.977.877,2.312,2.312,0,0,0,1.995-.877,6.084,6.084,0,0,0,0-5.459,2.3,2.3,0,0,0-1.995-.888,2.269,2.269,0,0,0-1.977.877,6.263,6.263,0,0,0,0,5.47" transform="translate(31.782 35.52)" fill="#1d1e1c"></path><path id="Path_11906" data-name="Path 11906" d="M90.569,93.459c0-.21.264-.314.794-.314h.166q.665,0,.739.294l1.94,7.372,1.922-7.353c.05-.21.289-.314.72-.314h.2c.419,0,.658.1.72.314l1.941,7.353,1.92-7.372c.05-.2.326-.294.832-.294s.757.1.757.314a.866.866,0,0,1-.055.258l-2.476,8.867q-.075.3-.739.3h-.609q-.647,0-.72-.3l-1.7-6.724-1.737,6.724q-.075.3-.739.3h-.609c-.443,0-.691-.1-.739-.3L90.624,93.7a.869.869,0,0,1-.055-.24" transform="translate(34.558 35.541)" fill="#1d1e1c"></path><path id="Path_11907" data-name="Path 11907" d="M100.625,101.869a1.209,1.209,0,0,1,.231-.555c.153-.246.292-.37.416-.37a2.69,2.69,0,0,1,.3.175,3.66,3.66,0,0,0,.794.351,3.848,3.848,0,0,0,1.248.175,1.747,1.747,0,0,0,1.2-.416,1.424,1.424,0,0,0,.471-1.125A1.458,1.458,0,0,0,104.865,99a4.2,4.2,0,0,0-1.654-.747,4.178,4.178,0,0,1-1.792-.9,2.217,2.217,0,0,1-.554-1.652,2.369,2.369,0,0,1,.85-1.857,3.233,3.233,0,0,1,2.217-.75,5.461,5.461,0,0,1,1.68.24c.493.163.741.34.741.537a1.362,1.362,0,0,1-.213.618c-.142.254-.268.381-.38.381a1.955,1.955,0,0,1-.24-.113,2.963,2.963,0,0,0-1.412-.333,2.008,2.008,0,0,0-1.22.325,1,1,0,0,0-.434.841,1.049,1.049,0,0,0,.323.812,2.953,2.953,0,0,0,1.1.535,5.81,5.81,0,0,1,2.356,1.173,2.669,2.669,0,0,1,.618,1.922,2.728,2.728,0,0,1-.913,2.115,3.135,3.135,0,0,1-2.19.832,5.755,5.755,0,0,1-2.2-.379q-.922-.379-.923-.728" transform="translate(38.395 35.52)" fill="#1d1e1c"></path><path id="Path_11908" data-name="Path 11908" d="M107.523,101.774a5.248,5.248,0,0,1-1.109-3.667,5.619,5.619,0,0,1,1.09-3.74,3.858,3.858,0,0,1,3.1-1.277q3.917,0,3.917,4.822a.892.892,0,0,1-.221.461c-.148.2-.278.3-.388.3h-5.839a3.579,3.579,0,0,0,.794,2.253,2.7,2.7,0,0,0,2.052.72,4.641,4.641,0,0,0,2.309-.59,2.46,2.46,0,0,1,.388-.184c.123,0,.261.122.416.369a1.239,1.239,0,0,1,.231.554q0,.367-1.007.776a6.189,6.189,0,0,1-2.318.4,4.433,4.433,0,0,1-3.418-1.2m5.358-4.433q0-2.918-2.217-2.919-2.383,0-2.586,2.919Z" transform="translate(40.604 35.52)" fill="#1d1e1c"></path><path id="Path_11909" data-name="Path 11909" d="M114.152,102.5V96.012a9.6,9.6,0,0,0-.093-1.608c-.086-.443-.13-.684-.13-.721,0-.145.117-.253.352-.321a2.023,2.023,0,0,1,.544-.1.611.611,0,0,1,.268.039.419.419,0,0,1,.138.119.836.836,0,0,1,.1.167,1.523,1.523,0,0,1,.073.221c.025.091.047.164.065.221a1.835,1.835,0,0,1,.055.24,1.908,1.908,0,0,0,.047.213,2.7,2.7,0,0,1,2.143-1.387,1.308,1.308,0,0,1,.794.206.611.611,0,0,1,.276.515,2.087,2.087,0,0,1-.111.655c-.073.229-.16.344-.258.344a1.63,1.63,0,0,1-.361-.1,2.053,2.053,0,0,0-.684-.1,1.469,1.469,0,0,0-.822.286,2.5,2.5,0,0,0-.627.564l-.222.275V102.5q0,.408-.739.408h-.073q-.74,0-.739-.408" transform="translate(43.472 35.52)" fill="#1d1e1c"></path><path id="Path_11910" data-name="Path 11910" d="M122.2,102.5V96.012a9.594,9.594,0,0,0-.093-1.608q-.128-.665-.128-.721c0-.145.116-.253.351-.321a2.023,2.023,0,0,1,.544-.1.611.611,0,0,1,.268.039.423.423,0,0,1,.14.119.9.9,0,0,1,.1.167,1.5,1.5,0,0,1,.075.221c.023.091.046.164.065.221a2.093,2.093,0,0,1,.055.24,1.7,1.7,0,0,0,.046.213,3.646,3.646,0,0,1,2.762-1.387,3.165,3.165,0,0,1,2.328.8,2.946,2.946,0,0,1,.8,2.2V102.5c0,.272-.247.408-.739.408h-.073q-.74,0-.741-.408V96.233a1.742,1.742,0,0,0-.489-1.319,1.921,1.921,0,0,0-1.394-.472,2.9,2.9,0,0,0-2.328,1.292V102.5q0,.408-.741.408h-.073q-.74,0-.739-.408" transform="translate(46.544 35.52)" fill="#1d1e1c"></path><path id="Path_11911" data-name="Path 11911" d="M133.452,102.976a4,4,0,0,1-3.178-1.256,5.381,5.381,0,0,1-1.1-3.65,5.492,5.492,0,0,1,1.109-3.683,3.931,3.931,0,0,1,3.16-1.3,3.865,3.865,0,0,1,3.131,1.285,5.587,5.587,0,0,1,1.08,3.694,5.5,5.5,0,0,1-1.062,3.658,3.894,3.894,0,0,1-3.14,1.248m-2.023-2.208a2.263,2.263,0,0,0,1.977.877,2.312,2.312,0,0,0,1.995-.877,6.084,6.084,0,0,0,0-5.459,2.3,2.3,0,0,0-1.995-.888,2.269,2.269,0,0,0-1.977.877,6.263,6.263,0,0,0,0,5.47" transform="translate(49.289 35.52)" fill="#1d1e1c"></path><path id="Path_11912" data-name="Path 11912" d="M137.837,101.043V95.149h-.923c-.247,0-.37-.182-.37-.553v-.221c0-.37.123-.557.37-.557h.923l.222-1.94c.025-.269.221-.4.591-.4h.184q.555,0,.555.4v1.94h1.552c.246,0,.369.187.369.557V94.6c0,.37-.123.553-.369.553H139.39V100.9c0,.912.332,1.365,1,1.365a2.6,2.6,0,0,0,.535-.046,2.52,2.52,0,0,1,.26-.047c.111,0,.2.113.276.343a1.837,1.837,0,0,1,.112.526q0,.555-1.35.554a2.633,2.633,0,0,1-1.654-.562,2.375,2.375,0,0,1-.729-1.988" transform="translate(52.101 34.903)" fill="#1d1e1c"></path><path id="Path_11913" data-name="Path 11913" d="M142.524,92.014c-.492,0-.739-.138-.739-.408v-1.09c0-.269.247-.408.739-.408h.222c.492,0,.739.138.739.408v1.09c0,.269-.247.408-.739.408Zm-.665,11.619V94.71c0-.269.247-.4.739-.4h.075q.738,0,.738.4v8.924q0,.408-.738.408H142.6c-.492,0-.739-.135-.739-.408" transform="translate(54.1 34.383)" fill="#1d1e1c"></path><path id="Path_11914" data-name="Path 11914" d="M145.917,103.653V95.69h-.739c-.247,0-.37-.182-.37-.553v-.221c0-.37.123-.557.37-.557h.739V92.606a2.276,2.276,0,0,1,.85-2.107,2.891,2.891,0,0,1,1.534-.443q1.349,0,1.348.554a1.85,1.85,0,0,1-.111.528c-.075.227-.166.34-.276.34a1.742,1.742,0,0,1-.26-.046,3.359,3.359,0,0,0-.619-.046.878.878,0,0,0-.655.267,1.649,1.649,0,0,0-.26,1.1V94.36h1.608c.246,0,.369.187.369.557v.221c0,.37-.123.553-.369.553h-1.608v7.963c0,.272-.247.408-.739.408h-.073q-.74,0-.739-.408" transform="translate(55.254 34.362)" fill="#1d1e1c"></path><path id="Path_11915" data-name="Path 11915" d="M150.414,92.014c-.492,0-.739-.138-.739-.408v-1.09c0-.269.247-.408.739-.408h.222c.492,0,.739.138.739.408v1.09c0,.269-.247.408-.739.408Zm-.665,11.619V94.71c0-.269.247-.4.739-.4h.075q.738,0,.738.4v8.924q0,.408-.738.408h-.075c-.492,0-.739-.135-.739-.408" transform="translate(57.111 34.383)" fill="#1d1e1c"></path><path id="Path_11916" data-name="Path 11916" d="M152.751,97.989a6.76,6.76,0,0,1,.379-2.386,3.607,3.607,0,0,1,1.027-1.532,4.59,4.59,0,0,1,2.975-.98,6.593,6.593,0,0,1,1.922.26c.565.173.85.369.85.59a1.369,1.369,0,0,1-.214.622c-.141.25-.267.377-.379.377a.188.188,0,0,1-.065-.019l-.073-.026a.557.557,0,0,1-.064-.028,4.9,4.9,0,0,0-2.014-.445q-2.68,0-2.679,3.53a4.746,4.746,0,0,0,.656,2.828,2.592,2.592,0,0,0,2.206.865,4.594,4.594,0,0,0,2.088-.479,1.223,1.223,0,0,0,.12-.046.27.27,0,0,1,.084-.028c.122,0,.258.119.406.359a1.216,1.216,0,0,1,.222.583q0,.332-.869.637a6.1,6.1,0,0,1-2.032.3,4.522,4.522,0,0,1-3.419-1.181,5.38,5.38,0,0,1-1.126-3.8" transform="translate(58.285 35.52)" fill="#1d1e1c"></path><path id="Path_11917" data-name="Path 11917" d="M165.33,96.842v-.869q0-1.55-2.031-1.551a5.367,5.367,0,0,0-2.458.572,2.68,2.68,0,0,1-.424.2c-.124,0-.262-.123-.416-.369a1.219,1.219,0,0,1-.231-.557q0-.383,1.08-.785a7.571,7.571,0,0,1,2.6-.4,3.856,3.856,0,0,1,2.476.767,2.58,2.58,0,0,1,.96,2.135v4.139a9.8,9.8,0,0,0,.093,1.608c.086.456.13.7.13.72,0,.146-.117.254-.351.322a2.074,2.074,0,0,1-.546.1.687.687,0,0,1-.268-.037.379.379,0,0,1-.138-.13.834.834,0,0,1-.1-.175,1.6,1.6,0,0,1-.075-.229c-.023-.1-.046-.175-.064-.232a1.826,1.826,0,0,1-.057-.26,1.552,1.552,0,0,0-.046-.229,4.024,4.024,0,0,1-3.1,1.384,3.521,3.521,0,0,1-2.291-.7,2.6,2.6,0,0,1-.869-2.161,2.53,2.53,0,0,1,1.006-2.188,4.83,4.83,0,0,1,2.264-.888,28.216,28.216,0,0,1,2.863-.193m-4.471,3.27a1.366,1.366,0,0,0,1.571,1.517,3.416,3.416,0,0,0,1.563-.336,6.344,6.344,0,0,0,1.337-.941v-2.18a10.36,10.36,0,0,0-2.973.258,6.575,6.575,0,0,0-.739.332,1.39,1.39,0,0,0-.758,1.35" transform="translate(60.744 35.52)" fill="#1d1e1c"></path><path id="Path_11918" data-name="Path 11918" d="M167.617,101.043V95.149h-.923c-.247,0-.37-.182-.37-.553v-.221c0-.37.123-.557.37-.557h.923l.222-1.94c.025-.269.221-.4.591-.4h.185q.553,0,.554.4v1.94h1.551c.246,0,.37.187.37.557V94.6c0,.37-.124.553-.37.553H169.17V100.9c0,.912.332,1.365,1,1.365a2.588,2.588,0,0,0,.535-.046,2.52,2.52,0,0,1,.26-.047c.111,0,.2.113.276.343a1.825,1.825,0,0,1,.111.526q0,.555-1.347.554a2.636,2.636,0,0,1-1.655-.562,2.375,2.375,0,0,1-.729-1.988" transform="translate(63.464 34.903)" fill="#1d1e1c"></path><path id="Path_11919" data-name="Path 11919" d="M172.3,92.014c-.492,0-.739-.138-.739-.408v-1.09c0-.269.247-.408.739-.408h.222c.492,0,.739.138.739.408v1.09c0,.269-.247.408-.739.408Zm-.665,11.619V94.71c0-.269.247-.4.739-.4h.075q.738,0,.738.4v8.924q0,.408-.738.408h-.075c-.492,0-.739-.135-.739-.408" transform="translate(65.463 34.383)" fill="#1d1e1c"></path><path id="Path_11920" data-name="Path 11920" d="M178.959,102.976a4,4,0,0,1-3.178-1.256,5.388,5.388,0,0,1-1.1-3.65,5.492,5.492,0,0,1,1.109-3.683,3.93,3.93,0,0,1,3.158-1.3,3.872,3.872,0,0,1,3.133,1.285,5.6,5.6,0,0,1,1.08,3.694,5.5,5.5,0,0,1-1.064,3.658,3.894,3.894,0,0,1-3.14,1.248m-2.023-2.208a2.263,2.263,0,0,0,1.977.877,2.314,2.314,0,0,0,1.995-.877,6.084,6.084,0,0,0,0-5.459,2.306,2.306,0,0,0-1.995-.888,2.269,2.269,0,0,0-1.977.877,6.263,6.263,0,0,0,0,5.47" transform="translate(66.653 35.52)" fill="#1d1e1c"></path><path id="Path_11921" data-name="Path 11921" d="M182.767,102.5V96.012a9.6,9.6,0,0,0-.093-1.608q-.131-.665-.13-.721c0-.145.117-.253.352-.321a2.024,2.024,0,0,1,.543-.1.618.618,0,0,1,.269.039.419.419,0,0,1,.138.119.77.77,0,0,1,.1.167,1.507,1.507,0,0,1,.075.221c.025.091.046.164.065.221a2.093,2.093,0,0,1,.055.24c.019.1.035.175.046.213a3.65,3.65,0,0,1,2.762-1.387,3.169,3.169,0,0,1,2.329.8,2.945,2.945,0,0,1,.8,2.2V102.5q0,.408-.738.408h-.075c-.492,0-.739-.135-.739-.408V96.233a1.737,1.737,0,0,0-.49-1.319,1.919,1.919,0,0,0-1.394-.472,2.9,2.9,0,0,0-2.328,1.292V102.5c0,.272-.247.408-.739.408h-.075q-.738,0-.738-.408" transform="translate(69.653 35.52)" fill="#1d1e1c"></path><path id="Path_11922" data-name="Path 11922" d="M197.225,102.976a4,4,0,0,1-3.178-1.256,5.388,5.388,0,0,1-1.1-3.65,5.492,5.492,0,0,1,1.109-3.683,3.93,3.93,0,0,1,3.158-1.3,3.872,3.872,0,0,1,3.133,1.285,5.6,5.6,0,0,1,1.08,3.694,5.5,5.5,0,0,1-1.064,3.658,3.894,3.894,0,0,1-3.14,1.248m-2.023-2.208a2.263,2.263,0,0,0,1.977.877,2.313,2.313,0,0,0,1.995-.877,6.084,6.084,0,0,0,0-5.459,2.306,2.306,0,0,0-1.995-.888,2.269,2.269,0,0,0-1.977.877,6.263,6.263,0,0,0,0,5.47" transform="translate(73.622 35.52)" fill="#1d1e1c"></path><path id="Path_11923" data-name="Path 11923" d="M201.034,102.5V96.012a9.592,9.592,0,0,0-.093-1.608q-.131-.665-.13-.721c0-.145.117-.253.352-.321a2.024,2.024,0,0,1,.543-.1.618.618,0,0,1,.269.039.419.419,0,0,1,.138.119.768.768,0,0,1,.1.167,1.5,1.5,0,0,1,.075.221c.025.091.046.164.065.221a2.094,2.094,0,0,1,.055.24c.019.1.035.175.046.213a3.65,3.65,0,0,1,2.762-1.387,3.169,3.169,0,0,1,2.329.8,2.945,2.945,0,0,1,.8,2.2V102.5q0,.408-.738.408h-.075c-.492,0-.739-.135-.739-.408V96.233a1.737,1.737,0,0,0-.49-1.319,1.919,1.919,0,0,0-1.394-.472,2.9,2.9,0,0,0-2.328,1.292V102.5c0,.272-.247.408-.739.408h-.075q-.738,0-.738-.408" transform="translate(76.623 35.52)" fill="#1d1e1c"></path><path id="Path_11924" data-name="Path 11924" d="M212.324,101.774a5.248,5.248,0,0,1-1.109-3.667,5.611,5.611,0,0,1,1.09-3.74,3.862,3.862,0,0,1,3.1-1.277q3.917,0,3.917,4.822a.885.885,0,0,1-.222.461c-.146.2-.276.3-.387.3h-5.839a3.579,3.579,0,0,0,.794,2.253,2.7,2.7,0,0,0,2.05.72,4.643,4.643,0,0,0,2.31-.59,2.459,2.459,0,0,1,.388-.184c.123,0,.262.122.416.369a1.239,1.239,0,0,1,.231.554q0,.367-1.007.776a6.189,6.189,0,0,1-2.318.4,4.433,4.433,0,0,1-3.418-1.2m5.358-4.433q0-2.918-2.216-2.919-2.385,0-2.588,2.919Z" transform="translate(80.592 35.52)" fill="#1d1e1c"></path><path id="Path_11925" data-name="Path 11925" d="M217.969,93.459c0-.21.264-.314.793-.314h.149c.43,0,.677.1.739.294l2.476,7.483,2.476-7.483q.091-.294.822-.294c.486,0,.729.1.729.314a.913.913,0,0,1-.055.258l-2.976,8.867q-.091.3-.739.3h-.645c-.432,0-.678-.1-.741-.3L218.024,93.7a.868.868,0,0,1-.055-.24" transform="translate(83.17 35.541)" fill="#1d1e1c"></path><path id="Path_11926" data-name="Path 11926" d="M226.017,101.774a5.248,5.248,0,0,1-1.109-3.667,5.611,5.611,0,0,1,1.09-3.74,3.862,3.862,0,0,1,3.1-1.277q3.917,0,3.917,4.822a.885.885,0,0,1-.222.461c-.146.2-.276.3-.387.3h-5.839a3.579,3.579,0,0,0,.794,2.253,2.7,2.7,0,0,0,2.05.72,4.643,4.643,0,0,0,2.31-.59,2.46,2.46,0,0,1,.388-.184c.123,0,.263.122.416.369a1.239,1.239,0,0,1,.231.554q0,.367-1.007.776a6.189,6.189,0,0,1-2.318.4,4.433,4.433,0,0,1-3.418-1.2m5.358-4.433q0-2.918-2.216-2.919-2.385,0-2.588,2.919Z" transform="translate(85.817 35.52)" fill="#1d1e1c"></path><path id="Path_11927" data-name="Path 11927" d="M232.645,102.5V96.012a9.635,9.635,0,0,0-.091-1.608q-.131-.665-.13-.721c0-.145.117-.253.351-.321a2.032,2.032,0,0,1,.544-.1.622.622,0,0,1,.269.039.433.433,0,0,1,.138.119.9.9,0,0,1,.1.167,1.511,1.511,0,0,1,.075.221c.025.091.046.164.065.221a2.093,2.093,0,0,1,.055.24,1.7,1.7,0,0,0,.046.213,2.7,2.7,0,0,1,2.143-1.387,1.308,1.308,0,0,1,.794.206.613.613,0,0,1,.278.515,2.09,2.09,0,0,1-.112.655c-.072.229-.159.344-.257.344a1.63,1.63,0,0,1-.361-.1,2.064,2.064,0,0,0-.684-.1,1.469,1.469,0,0,0-.822.286,2.5,2.5,0,0,0-.629.564l-.221.275V102.5c0,.272-.247.408-.739.408h-.075c-.492,0-.739-.135-.739-.408" transform="translate(88.685 35.52)" fill="#1d1e1c"></path><path id="Path_11928" data-name="Path 11928" d="M236.516,93.459c0-.21.265-.314.794-.314h.149q.609,0,.739.294l2.512,6.67,2.456-6.67q.093-.294.823-.294c.486,0,.729.1.729.314a.835.835,0,0,1-.057.258L239.916,106.3c-.1.256-.387.385-.868.385h-.278c-.406,0-.611-.1-.611-.294q0-.056,1.645-4.063L236.573,93.7a.886.886,0,0,1-.057-.24" transform="translate(90.246 35.541)" fill="#1d1e1c"></path><path id="Path_11929" data-name="Path 11929" d="M250.929,102.976a4,4,0,0,1-3.178-1.256,5.388,5.388,0,0,1-1.1-3.65,5.492,5.492,0,0,1,1.109-3.683,3.93,3.93,0,0,1,3.158-1.3,3.872,3.872,0,0,1,3.133,1.285,5.6,5.6,0,0,1,1.08,3.694,5.5,5.5,0,0,1-1.064,3.658,3.894,3.894,0,0,1-3.14,1.248m-2.023-2.208a2.263,2.263,0,0,0,1.977.877,2.313,2.313,0,0,0,1.995-.877,6.084,6.084,0,0,0,0-5.459,2.306,2.306,0,0,0-1.995-.888,2.269,2.269,0,0,0-1.977.877,6.263,6.263,0,0,0,0,5.47" transform="translate(94.114 35.52)" fill="#1d1e1c"></path><path id="Path_11930" data-name="Path 11930" d="M254.791,102.5V96.012A9.636,9.636,0,0,0,254.7,94.4q-.131-.665-.13-.721c0-.145.117-.253.351-.321a2.032,2.032,0,0,1,.544-.1.622.622,0,0,1,.269.039.433.433,0,0,1,.138.119.9.9,0,0,1,.1.167,1.5,1.5,0,0,1,.075.221c.025.091.046.164.065.221a2.093,2.093,0,0,1,.055.24,1.707,1.707,0,0,0,.046.213,2.7,2.7,0,0,1,2.143-1.387,1.308,1.308,0,0,1,.794.206.613.613,0,0,1,.278.515,2.091,2.091,0,0,1-.112.655c-.072.229-.159.344-.257.344a1.63,1.63,0,0,1-.361-.1,2.063,2.063,0,0,0-.684-.1,1.469,1.469,0,0,0-.822.286,2.5,2.5,0,0,0-.629.564l-.221.275V102.5c0,.272-.247.408-.739.408h-.075c-.492,0-.739-.135-.739-.408" transform="translate(97.135 35.52)" fill="#1d1e1c"></path><path id="Path_11931" data-name="Path 11931" d="M265.638,102.73a4.029,4.029,0,0,1-2.957,1.384,3.026,3.026,0,0,1-2.6-1.366,5.939,5.939,0,0,1-.97-3.511V99.07a5.525,5.525,0,0,1,1.035-3.556,3.2,3.2,0,0,1,2.586-1.285,4.425,4.425,0,0,1,2.771.942V90.517c0-.269.247-.408.739-.408h.075c.493,0,.738.138.738.408v10.753a9.767,9.767,0,0,0,.094,1.608q.128.684.129.721c0,.145-.117.253-.351.321a2.01,2.01,0,0,1-.544.1.657.657,0,0,1-.268-.037.372.372,0,0,1-.139-.13.888.888,0,0,1-.1-.175,1.4,1.4,0,0,1-.075-.229c-.025-.1-.046-.175-.065-.232a1.841,1.841,0,0,1-.055-.258,1.72,1.72,0,0,0-.046-.229m-4.9-3.7q0,3.736,2.4,3.734a3.273,3.273,0,0,0,2.365-1.277V96.428a3.408,3.408,0,0,0-2.235-.83h-.111a2.1,2.1,0,0,0-1.8.9,4.394,4.394,0,0,0-.619,2.531" transform="translate(98.87 34.383)" fill="#1d1e1c"></path><path id="Path_11932" data-name="Path 11932" d="M267.821,101.774a5.248,5.248,0,0,1-1.109-3.667,5.611,5.611,0,0,1,1.09-3.74,3.862,3.862,0,0,1,3.1-1.277q3.917,0,3.917,4.822a.885.885,0,0,1-.222.461c-.146.2-.276.3-.387.3h-5.839a3.579,3.579,0,0,0,.794,2.253,2.7,2.7,0,0,0,2.05.72,4.643,4.643,0,0,0,2.31-.59,2.459,2.459,0,0,1,.388-.184c.123,0,.263.122.416.369a1.24,1.24,0,0,1,.231.554q0,.367-1.007.776a6.189,6.189,0,0,1-2.318.4,4.433,4.433,0,0,1-3.418-1.2m5.358-4.433q0-2.918-2.216-2.919-2.385,0-2.588,2.919Z" transform="translate(101.768 35.52)" fill="#1d1e1c"></path><path id="Path_11933" data-name="Path 11933" d="M274.449,102.5V96.012a9.635,9.635,0,0,0-.091-1.608q-.131-.665-.13-.721c0-.145.117-.253.351-.321a2.032,2.032,0,0,1,.544-.1.622.622,0,0,1,.269.039.433.433,0,0,1,.138.119.9.9,0,0,1,.1.167,1.5,1.5,0,0,1,.075.221c.025.091.046.164.065.221a2.092,2.092,0,0,1,.055.24,1.7,1.7,0,0,0,.046.213,2.7,2.7,0,0,1,2.143-1.387,1.308,1.308,0,0,1,.794.206.613.613,0,0,1,.278.515,2.091,2.091,0,0,1-.112.655c-.072.229-.159.344-.257.344a1.629,1.629,0,0,1-.361-.1,2.064,2.064,0,0,0-.684-.1,1.469,1.469,0,0,0-.822.286,2.5,2.5,0,0,0-.629.564l-.221.275V102.5c0,.272-.247.408-.739.408h-.075c-.492,0-.739-.135-.739-.408" transform="translate(104.636 35.52)" fill="#1d1e1c"></path><path id="Path_11934" data-name="Path 11934" d="M41.531,135.072V123.249a.491.491,0,0,1,.554-.557h3.307a4.687,4.687,0,0,1,3.077.888,3.045,3.045,0,0,1,.452,4.139,2.645,2.645,0,0,1-1.422,1.053v.072a2.757,2.757,0,0,1,.812.336,4.873,4.873,0,0,1,.877.6,2.994,2.994,0,0,1,.9,2.135q0,3.716-4.823,3.714H42.085a.489.489,0,0,1-.554-.554m1.626-6.8H45.3a2.671,2.671,0,0,0,1.829-.629,2.019,2.019,0,0,0,.72-1.6,1.738,1.738,0,0,0-.627-1.46,3.258,3.258,0,0,0-1.995-.488h-2.07Zm0,5.95h2.7a2.615,2.615,0,0,0,1.884-.637,2.263,2.263,0,0,0,.666-1.71,1.948,1.948,0,0,0-.729-1.636,3.458,3.458,0,0,0-2.135-.561H43.157Z" transform="translate(15.847 46.815)" fill="#1d1e1c"></path><path id="Path_11935" data-name="Path 11935" d="M50.066,123.9c-.492,0-.738-.138-.738-.408v-1.09c0-.269.246-.408.738-.408h.222c.493,0,.739.138.739.408v1.09c0,.269-.246.408-.739.408ZM49.4,135.521V126.6q0-.4.739-.4h.073q.74,0,.741.4v8.924c0,.274-.247.409-.741.409H50.14c-.493,0-.739-.135-.739-.409" transform="translate(18.822 46.55)" fill="#1d1e1c"></path><path id="Path_11936" data-name="Path 11936" d="M52.163,136.253q0-1.515,2.088-2.255a1.639,1.639,0,0,1-1.183-1.542q0-1.044,1.405-1.527a2.815,2.815,0,0,1-1.248-1.116,3.142,3.142,0,0,1-.435-1.634,3,3,0,0,1,.97-2.291,3.84,3.84,0,0,1,2.726-.909,6.265,6.265,0,0,1,1.219.112h3.179c.246,0,.369.187.369.557v.221c0,.37-.123.551-.369.551H59.59a2.689,2.689,0,0,1,.609,1.759,2.955,2.955,0,0,1-.98,2.27,3.863,3.863,0,0,1-2.734.906H56.3q-1.587.077-1.589.776,0,.39.647.582a9.632,9.632,0,0,0,1.561.307c.609.072,1.22.178,1.829.312a3.214,3.214,0,0,1,1.561.823,2.133,2.133,0,0,1,.647,1.616,2.44,2.44,0,0,1-1.228,2.078,5.878,5.878,0,0,1-3.307.823,7.324,7.324,0,0,1-3.168-.546,1.926,1.926,0,0,1-1.09-1.875m1.607-.169q0,1.26,2.771,1.259a4.106,4.106,0,0,0,2-.428,1.224,1.224,0,0,0,.767-1.051.793.793,0,0,0-.426-.739,7.9,7.9,0,0,0-2.512-.629q-.481-.073-.757-.131a5.049,5.049,0,0,0-1.285.723,1.268,1.268,0,0,0-.564,1m.647-7.918q0,1.859,2.079,1.858t2.078-1.858q0-1.853-2.078-1.855t-2.079,1.855" transform="translate(19.904 47.688)" fill="#1d1e1c"></path><path id="Path_11937" data-name="Path 11937" d="M62.98,129.246a7.36,7.36,0,0,1,1.46-4.94,5.292,5.292,0,0,1,4.24-1.692,5.28,5.28,0,0,1,4.24,1.7,7.365,7.365,0,0,1,1.459,4.932,8.242,8.242,0,0,1-.951,4.23,4.412,4.412,0,0,1-2.763,2.089v.073l3.64,1.147a.331.331,0,0,1,.26.312,2.191,2.191,0,0,1-.25.758c-.167.356-.341.537-.528.537q-.147,0-3.287-1.239t-4.029-1.608q-3.49-1.384-3.493-6.3m1.683-.008a6.145,6.145,0,0,0,1.043,3.853,3.979,3.979,0,0,0,5.949-.011,7.6,7.6,0,0,0-.01-7.7,3.936,3.936,0,0,0-5.939-.008,6.22,6.22,0,0,0-1.043,3.87" transform="translate(24.031 46.785)" fill="#1d1e1c"></path><path id="Path_11938" data-name="Path 11938" d="M73,131.851v-6.412q0-.4.739-.4h.073q.74,0,.741.4V131.7a1.745,1.745,0,0,0,.489,1.322,1.936,1.936,0,0,0,1.394.471,2.893,2.893,0,0,0,2.328-1.295v-6.763q0-.4.741-.4h.073c.492,0,.739.135.739.4V132a9.789,9.789,0,0,0,.093,1.608c.086.457.128.7.128.721,0,.145-.116.254-.351.321a2.022,2.022,0,0,1-.544.1.65.65,0,0,1-.268-.039.377.377,0,0,1-.14-.128.964.964,0,0,1-.1-.175,1.492,1.492,0,0,1-.075-.229c-.025-.1-.046-.175-.065-.232a1.871,1.871,0,0,1-.055-.26,1.72,1.72,0,0,0-.046-.229,3.656,3.656,0,0,1-2.762,1.384,3.175,3.175,0,0,1-2.328-.793,2.951,2.951,0,0,1-.8-2.2" transform="translate(27.853 47.709)" fill="#1d1e1c"></path><path id="Path_11939" data-name="Path 11939" d="M81.287,133.663A5.248,5.248,0,0,1,80.178,130a5.619,5.619,0,0,1,1.09-3.74,3.858,3.858,0,0,1,3.1-1.277q3.917,0,3.917,4.822a.892.892,0,0,1-.221.461c-.148.2-.278.3-.388.3H81.841a3.579,3.579,0,0,0,.794,2.253,2.7,2.7,0,0,0,2.052.72,4.641,4.641,0,0,0,2.309-.59,2.461,2.461,0,0,1,.388-.184c.123,0,.261.122.416.369a1.239,1.239,0,0,1,.231.554q0,.367-1.007.776a6.189,6.189,0,0,1-2.318.4,4.433,4.433,0,0,1-3.418-1.2m5.358-4.433q0-2.918-2.217-2.919-2.383,0-2.586,2.919Z" transform="translate(30.593 47.688)" fill="#1d1e1c"></path><path id="Path_11940" data-name="Path 11940" d="M87.915,134.383V127.9a9.572,9.572,0,0,0-.093-1.608c-.086-.443-.13-.684-.13-.721,0-.145.117-.253.352-.322a2.066,2.066,0,0,1,.544-.1.611.611,0,0,1,.268.039.4.4,0,0,1,.138.119.838.838,0,0,1,.1.167,1.523,1.523,0,0,1,.073.221c.025.091.047.164.065.221a1.836,1.836,0,0,1,.055.24,1.91,1.91,0,0,0,.047.213,2.7,2.7,0,0,1,2.143-1.388,1.308,1.308,0,0,1,.794.207.611.611,0,0,1,.276.515,2.088,2.088,0,0,1-.111.655c-.073.229-.16.344-.258.344a1.63,1.63,0,0,1-.361-.1,2.051,2.051,0,0,0-.684-.1,1.471,1.471,0,0,0-.822.287,2.5,2.5,0,0,0-.627.564l-.222.275v6.761c0,.274-.246.409-.739.409h-.073c-.493,0-.739-.135-.739-.409" transform="translate(33.461 47.688)" fill="#1d1e1c"></path><path id="Path_11941" data-name="Path 11941" d="M91.786,125.348c0-.21.264-.314.794-.314h.148q.609,0,.739.294L95.98,132l2.456-6.67q.093-.294.822-.294c.486,0,.729.1.729.314a.866.866,0,0,1-.055.258l-4.748,12.583c-.1.256-.387.385-.868.385h-.278c-.406,0-.609-.1-.609-.294q0-.056,1.644-4.063l-3.233-8.629a.87.87,0,0,1-.055-.24" transform="translate(35.022 47.709)" fill="#1d1e1c"></path><path id="Path_11942" data-name="Path 11942" d="M107.976,128.731v-.869q0-1.55-2.032-1.551a5.371,5.371,0,0,0-2.458.572,2.617,2.617,0,0,1-.424.2c-.123,0-.262-.123-.416-.369a1.235,1.235,0,0,1-.231-.557q0-.383,1.08-.785a7.571,7.571,0,0,1,2.6-.4,3.853,3.853,0,0,1,2.476.767,2.58,2.58,0,0,1,.96,2.135v4.139a9.961,9.961,0,0,0,.093,1.608q.131.684.13.72c0,.146-.117.254-.351.322a2.065,2.065,0,0,1-.544.1.7.7,0,0,1-.269-.037.39.39,0,0,1-.138-.13.975.975,0,0,1-.1-.175,1.625,1.625,0,0,1-.073-.229c-.025-.1-.046-.175-.065-.232a1.683,1.683,0,0,1-.055-.26,2.056,2.056,0,0,0-.046-.229,4.025,4.025,0,0,1-3.1,1.384,3.521,3.521,0,0,1-2.291-.7,2.609,2.609,0,0,1-.869-2.161,2.527,2.527,0,0,1,1.007-2.188,4.819,4.819,0,0,1,2.264-.888,28.16,28.16,0,0,1,2.863-.193M103.505,132a1.366,1.366,0,0,0,1.571,1.517,3.411,3.411,0,0,0,1.561-.336,6.315,6.315,0,0,0,1.339-.941v-2.18a10.38,10.38,0,0,0-2.975.258,6.692,6.692,0,0,0-.739.332,1.391,1.391,0,0,0-.757,1.35" transform="translate(38.859 47.688)" fill="#1d1e1c"></path><path id="Path_11943" data-name="Path 11943" d="M109.686,134.383V127.9a9.574,9.574,0,0,0-.093-1.608q-.128-.665-.128-.721c0-.145.116-.253.351-.322a2.066,2.066,0,0,1,.544-.1.611.611,0,0,1,.268.039.407.407,0,0,1,.14.119.9.9,0,0,1,.1.167,1.505,1.505,0,0,1,.075.221c.023.091.046.164.065.221a2.1,2.1,0,0,1,.055.24,1.7,1.7,0,0,0,.046.213,3.643,3.643,0,0,1,2.762-1.388,3.166,3.166,0,0,1,2.328.8,2.944,2.944,0,0,1,.8,2.2v6.41c0,.274-.247.409-.739.409h-.073c-.493,0-.741-.135-.741-.409v-6.261a1.742,1.742,0,0,0-.489-1.319,1.921,1.921,0,0,0-1.394-.473,2.9,2.9,0,0,0-2.328,1.292v6.761c0,.274-.247.409-.741.409h-.073c-.493,0-.739-.135-.739-.409" transform="translate(41.768 47.688)" fill="#1d1e1c"></path><path id="Path_11944" data-name="Path 11944" d="M123.141,134.618A4.029,4.029,0,0,1,120.185,136a3.027,3.027,0,0,1-2.6-1.366,5.929,5.929,0,0,1-.97-3.511v-.167a5.525,5.525,0,0,1,1.035-3.556,3.2,3.2,0,0,1,2.586-1.285,4.425,4.425,0,0,1,2.771.942V122.4c0-.269.246-.408.739-.408h.075c.492,0,.739.138.739.408v10.753a9.8,9.8,0,0,0,.093,1.608q.128.684.128.721c0,.145-.117.253-.351.321a2.008,2.008,0,0,1-.546.1.653.653,0,0,1-.267-.037.368.368,0,0,1-.138-.13.833.833,0,0,1-.1-.175,1.4,1.4,0,0,1-.075-.229c-.025-.1-.046-.175-.064-.232a1.624,1.624,0,0,1-.057-.258,1.72,1.72,0,0,0-.046-.229m-4.9-3.7q0,3.736,2.4,3.734a3.273,3.273,0,0,0,2.364-1.277v-5.062a3.41,3.41,0,0,0-2.235-.83h-.111a2.1,2.1,0,0,0-1.8.9,4.394,4.394,0,0,0-.619,2.531" transform="translate(44.498 46.55)" fill="#1d1e1c"></path><path id="Path_11945" data-name="Path 11945" d="M133.906,134.618A4.029,4.029,0,0,1,130.95,136a3.027,3.027,0,0,1-2.6-1.366,5.929,5.929,0,0,1-.97-3.511v-.167a5.525,5.525,0,0,1,1.035-3.556,3.2,3.2,0,0,1,2.586-1.285,4.425,4.425,0,0,1,2.771.942V122.4c0-.269.246-.408.739-.408h.075c.492,0,.739.138.739.408v10.753a9.8,9.8,0,0,0,.093,1.608q.128.684.128.721c0,.145-.117.253-.351.321a2.008,2.008,0,0,1-.546.1.653.653,0,0,1-.267-.037.369.369,0,0,1-.138-.13.833.833,0,0,1-.1-.175,1.394,1.394,0,0,1-.075-.229c-.025-.1-.046-.175-.064-.232a1.621,1.621,0,0,1-.057-.258,1.725,1.725,0,0,0-.046-.229m-4.9-3.7q0,3.736,2.4,3.734a3.273,3.273,0,0,0,2.364-1.277v-5.062a3.41,3.41,0,0,0-2.235-.83h-.111a2.1,2.1,0,0,0-1.8.9,4.395,4.395,0,0,0-.619,2.531" transform="translate(48.605 46.55)" fill="#1d1e1c"></path><path id="Path_11946" data-name="Path 11946" d="M141.033,128.731v-.869q0-1.55-2.032-1.551a5.371,5.371,0,0,0-2.458.572,2.617,2.617,0,0,1-.424.2c-.123,0-.262-.123-.416-.369a1.234,1.234,0,0,1-.231-.557q0-.383,1.08-.785a7.571,7.571,0,0,1,2.6-.4,3.853,3.853,0,0,1,2.476.767,2.58,2.58,0,0,1,.96,2.135v4.139a9.961,9.961,0,0,0,.093,1.608q.131.684.13.72c0,.146-.117.254-.351.322a2.065,2.065,0,0,1-.544.1.7.7,0,0,1-.269-.037.39.39,0,0,1-.138-.13.974.974,0,0,1-.1-.175,1.625,1.625,0,0,1-.073-.229c-.025-.1-.046-.175-.065-.232a1.686,1.686,0,0,1-.055-.26,2.06,2.06,0,0,0-.046-.229,4.025,4.025,0,0,1-3.1,1.384,3.521,3.521,0,0,1-2.291-.7A2.609,2.609,0,0,1,134.9,132a2.527,2.527,0,0,1,1.007-2.188,4.819,4.819,0,0,1,2.264-.888,28.16,28.16,0,0,1,2.863-.193M136.562,132a1.366,1.366,0,0,0,1.571,1.517,3.411,3.411,0,0,0,1.561-.336,6.315,6.315,0,0,0,1.339-.941v-2.18a10.38,10.38,0,0,0-2.975.258,6.691,6.691,0,0,0-.739.332,1.391,1.391,0,0,0-.757,1.35" transform="translate(51.473 47.688)" fill="#1d1e1c"></path><path id="Path_11947" data-name="Path 11947" d="M143.32,132.931v-5.894H142.4c-.247,0-.37-.182-.37-.553v-.221c0-.37.123-.557.37-.557h.923l.222-1.94c.025-.269.221-.4.591-.4h.185q.553,0,.554.4v1.94h1.551c.246,0,.37.187.37.557v.221c0,.37-.124.553-.37.553h-1.551v5.749c0,.912.332,1.365,1,1.365a2.588,2.588,0,0,0,.535-.046,2.521,2.521,0,0,1,.26-.047c.111,0,.2.113.276.343a1.825,1.825,0,0,1,.111.526q0,.555-1.347.554a2.636,2.636,0,0,1-1.655-.562,2.375,2.375,0,0,1-.729-1.988" transform="translate(54.193 47.071)" fill="#1d1e1c"></path><path id="Path_11948" data-name="Path 11948" d="M152.894,128.731v-.869q0-1.55-2.031-1.551a5.367,5.367,0,0,0-2.458.572,2.681,2.681,0,0,1-.424.2c-.124,0-.262-.123-.416-.369a1.218,1.218,0,0,1-.231-.557q0-.383,1.08-.785a7.571,7.571,0,0,1,2.6-.4,3.856,3.856,0,0,1,2.476.767,2.58,2.58,0,0,1,.96,2.135v4.139a9.8,9.8,0,0,0,.093,1.608c.086.456.13.7.13.72,0,.146-.117.254-.351.322a2.073,2.073,0,0,1-.546.1.687.687,0,0,1-.268-.037.379.379,0,0,1-.138-.13.833.833,0,0,1-.1-.175,1.6,1.6,0,0,1-.075-.229c-.023-.1-.046-.175-.064-.232a1.828,1.828,0,0,1-.057-.26,1.557,1.557,0,0,0-.046-.229,4.024,4.024,0,0,1-3.1,1.384,3.521,3.521,0,0,1-2.291-.7,2.6,2.6,0,0,1-.869-2.161,2.53,2.53,0,0,1,1.006-2.188,4.83,4.83,0,0,1,2.264-.888,28.216,28.216,0,0,1,2.863-.193M148.423,132a1.366,1.366,0,0,0,1.571,1.517,3.417,3.417,0,0,0,1.563-.336,6.344,6.344,0,0,0,1.337-.941v-2.18a10.362,10.362,0,0,0-2.973.258,6.579,6.579,0,0,0-.739.332,1.39,1.39,0,0,0-.758,1.35" transform="translate(55.999 47.688)" fill="#1d1e1c"></path><path id="Path_11949" data-name="Path 11949" d="M157.071,133.757a1.225,1.225,0,0,1,.231-.555c.155-.246.293-.37.417-.37a2.687,2.687,0,0,1,.3.175,3.657,3.657,0,0,0,.794.351,3.844,3.844,0,0,0,1.246.175,1.744,1.744,0,0,0,1.2-.416,1.42,1.42,0,0,0,.471-1.125,1.457,1.457,0,0,0-.416-1.109,4.175,4.175,0,0,0-1.654-.747,4.194,4.194,0,0,1-1.792-.9,2.222,2.222,0,0,1-.554-1.652,2.373,2.373,0,0,1,.85-1.857,3.233,3.233,0,0,1,2.217-.75,5.47,5.47,0,0,1,1.681.24c.493.163.739.34.739.537a1.346,1.346,0,0,1-.213.618c-.141.254-.268.381-.379.381a1.955,1.955,0,0,1-.24-.113,2.968,2.968,0,0,0-1.413-.333,2,2,0,0,0-1.219.325,1,1,0,0,0-.435.841,1.045,1.045,0,0,0,.325.812,2.945,2.945,0,0,0,1.1.535A5.81,5.81,0,0,1,162.679,130a2.669,2.669,0,0,1,.619,1.922,2.729,2.729,0,0,1-.915,2.115,3.134,3.134,0,0,1-2.188.832,5.75,5.75,0,0,1-2.2-.379q-.924-.379-.924-.728" transform="translate(59.933 47.688)" fill="#1d1e1c"></path><path id="Path_11950" data-name="Path 11950" d="M163.913,132.931v-5.894h-.923c-.247,0-.37-.182-.37-.553v-.221c0-.37.123-.557.37-.557h.923l.222-1.94c.025-.269.221-.4.591-.4h.185q.553,0,.554.4v1.94h1.552c.246,0,.37.187.37.557v.221c0,.37-.124.553-.37.553h-1.552v5.749c0,.912.332,1.365,1,1.365a2.588,2.588,0,0,0,.535-.046,2.52,2.52,0,0,1,.26-.047c.111,0,.2.113.276.343a1.826,1.826,0,0,1,.111.526q0,.555-1.347.554a2.636,2.636,0,0,1-1.655-.562,2.375,2.375,0,0,1-.729-1.988" transform="translate(62.05 47.071)" fill="#1d1e1c"></path><path id="Path_11951" data-name="Path 11951" d="M167.7,131.851v-6.412c0-.269.247-.4.739-.4h.075q.738,0,.738.4V131.7a1.746,1.746,0,0,0,.49,1.322,1.938,1.938,0,0,0,1.394.471,2.9,2.9,0,0,0,2.329-1.295v-6.763q0-.4.738-.4h.075c.492,0,.739.135.739.4V132a9.828,9.828,0,0,0,.091,1.608c.087.457.13.7.13.721,0,.145-.117.254-.351.321a2.032,2.032,0,0,1-.544.1.663.663,0,0,1-.269-.039.382.382,0,0,1-.137-.128.986.986,0,0,1-.1-.175,1.533,1.533,0,0,1-.072-.229c-.026-.1-.047-.175-.065-.232a1.4,1.4,0,0,1-.055-.26,2.228,2.228,0,0,0-.047-.229,3.654,3.654,0,0,1-2.762,1.384,3.175,3.175,0,0,1-2.328-.793,2.951,2.951,0,0,1-.8-2.2" transform="translate(63.989 47.709)" fill="#1d1e1c"></path><path id="Path_11952" data-name="Path 11952" d="M181.364,134.618A4.029,4.029,0,0,1,178.408,136a3.026,3.026,0,0,1-2.6-1.366,5.939,5.939,0,0,1-.97-3.511v-.167a5.525,5.525,0,0,1,1.035-3.556,3.2,3.2,0,0,1,2.586-1.285,4.425,4.425,0,0,1,2.771.942V122.4c0-.269.247-.408.739-.408h.075c.493,0,.738.138.738.408v10.753a9.762,9.762,0,0,0,.094,1.608q.128.684.129.721c0,.145-.117.253-.351.321a2.009,2.009,0,0,1-.544.1.656.656,0,0,1-.268-.037.371.371,0,0,1-.14-.13.887.887,0,0,1-.1-.175,1.4,1.4,0,0,1-.075-.229c-.025-.1-.046-.175-.065-.232a1.839,1.839,0,0,1-.055-.258,1.721,1.721,0,0,0-.046-.229m-4.9-3.7q0,3.736,2.4,3.734a3.273,3.273,0,0,0,2.365-1.277v-5.062a3.407,3.407,0,0,0-2.235-.83h-.111a2.1,2.1,0,0,0-1.8.9,4.394,4.394,0,0,0-.619,2.531" transform="translate(66.714 46.55)" fill="#1d1e1c"></path><path id="Path_11953" data-name="Path 11953" d="M183.6,123.9c-.492,0-.739-.138-.739-.408v-1.09c0-.269.247-.408.739-.408h.222c.492,0,.739.138.739.408v1.09c0,.269-.247.408-.739.408Zm-.665,11.618V126.6c0-.269.247-.4.739-.4h.075q.738,0,.738.4v8.924c0,.274-.246.409-.738.409h-.075c-.492,0-.739-.135-.739-.409" transform="translate(69.775 46.55)" fill="#1d1e1c"></path><path id="Path_11954" data-name="Path 11954" d="M190.258,134.865a4,4,0,0,1-3.178-1.256,5.39,5.39,0,0,1-1.1-3.65,5.492,5.492,0,0,1,1.109-3.683,3.931,3.931,0,0,1,3.158-1.3,3.873,3.873,0,0,1,3.133,1.286,5.6,5.6,0,0,1,1.08,3.694,5.5,5.5,0,0,1-1.064,3.658,3.894,3.894,0,0,1-3.14,1.248m-2.023-2.209a2.26,2.26,0,0,0,1.977.879,2.311,2.311,0,0,0,1.995-.879,4.61,4.61,0,0,0,.647-2.726,4.659,4.659,0,0,0-.647-2.731,2.306,2.306,0,0,0-1.995-.888,2.272,2.272,0,0,0-1.977.876,6.263,6.263,0,0,0,0,5.47" transform="translate(70.964 47.688)" fill="#1d1e1c"></path><path id="Path_11955" data-name="Path 11955" d="M197.966,123.9c-.492,0-.739-.138-.739-.408v-1.09c0-.269.247-.408.739-.408h.222c.492,0,.739.138.739.408v1.09c0,.269-.247.408-.739.408Zm-.665,11.618V126.6c0-.269.247-.4.739-.4h.075q.738,0,.738.4v8.924c0,.274-.246.409-.738.409h-.075c-.492,0-.739-.135-.739-.409" transform="translate(75.255 46.55)" fill="#1d1e1c"></path><path id="Path_11956" data-name="Path 11956" d="M200.82,134.383V127.9a9.574,9.574,0,0,0-.093-1.608q-.131-.665-.13-.721c0-.145.117-.253.352-.322a2.067,2.067,0,0,1,.543-.1.618.618,0,0,1,.269.039.4.4,0,0,1,.138.119.768.768,0,0,1,.1.167,1.5,1.5,0,0,1,.075.221c.025.091.046.164.065.221a2.1,2.1,0,0,1,.055.24c.019.1.035.175.046.213A3.647,3.647,0,0,1,205,124.979a3.169,3.169,0,0,1,2.329.8,2.943,2.943,0,0,1,.8,2.2v6.41c0,.274-.246.409-.738.409h-.075c-.492,0-.739-.135-.739-.409v-6.261a1.737,1.737,0,0,0-.49-1.319,1.919,1.919,0,0,0-1.394-.473,2.9,2.9,0,0,0-2.328,1.292v6.761c0,.274-.247.409-.739.409h-.075c-.492,0-.738-.135-.738-.409" transform="translate(76.541 47.688)" fill="#1d1e1c"></path><path id="Path_11957" data-name="Path 11957" d="M208.846,132.931v-5.894h-.924c-.246,0-.37-.182-.37-.553v-.221c0-.37.124-.557.37-.557h.924l.221-1.94q.037-.4.591-.4h.185q.553,0,.554.4v1.94h1.552c.246,0,.372.187.372.557v.221c0,.37-.126.553-.372.553H210.4v5.749c0,.912.333,1.365,1,1.365a2.579,2.579,0,0,0,.535-.046,2.522,2.522,0,0,1,.26-.047c.111,0,.2.113.276.343a1.826,1.826,0,0,1,.111.526q0,.555-1.346.554a2.631,2.631,0,0,1-1.655-.562,2.371,2.371,0,0,1-.729-1.988" transform="translate(79.194 47.071)" fill="#1d1e1c"></path><path id="Path_11958" data-name="Path 11958" d="M213.474,133.663A5.248,5.248,0,0,1,212.365,130a5.611,5.611,0,0,1,1.09-3.74,3.862,3.862,0,0,1,3.1-1.277q3.917,0,3.917,4.822a.885.885,0,0,1-.222.461c-.146.2-.276.3-.387.3h-5.839a3.579,3.579,0,0,0,.794,2.253,2.7,2.7,0,0,0,2.05.72,4.643,4.643,0,0,0,2.31-.59,2.462,2.462,0,0,1,.388-.184c.123,0,.263.122.416.369a1.239,1.239,0,0,1,.231.554q0,.367-1.007.776a6.189,6.189,0,0,1-2.318.4,4.433,4.433,0,0,1-3.418-1.2m5.358-4.433q0-2.918-2.216-2.919-2.385,0-2.588,2.919Z" transform="translate(81.031 47.688)" fill="#1d1e1c"></path><path id="Path_11959" data-name="Path 11959" d="M219.293,136.253q0-1.515,2.088-2.255a1.641,1.641,0,0,1-1.183-1.542q0-1.044,1.4-1.527a2.812,2.812,0,0,1-1.246-1.116,3.142,3.142,0,0,1-.435-1.634,3,3,0,0,1,.97-2.291,3.837,3.837,0,0,1,2.726-.909,6.289,6.289,0,0,1,1.22.112h3.178c.246,0,.369.187.369.557v.221c0,.37-.123.551-.369.551H226.72a2.689,2.689,0,0,1,.609,1.759,2.963,2.963,0,0,1-.978,2.27,3.867,3.867,0,0,1-2.736.906h-.185q-1.587.077-1.589.776,0,.39.648.582a9.583,9.583,0,0,0,1.56.307c.611.072,1.22.178,1.829.312a3.23,3.23,0,0,1,1.563.823,2.137,2.137,0,0,1,.645,1.616,2.44,2.44,0,0,1-1.228,2.078,5.878,5.878,0,0,1-3.307.823,7.324,7.324,0,0,1-3.168-.546,1.926,1.926,0,0,1-1.09-1.875m1.607-.169q0,1.26,2.771,1.259a4.1,4.1,0,0,0,2-.428,1.224,1.224,0,0,0,.767-1.051.793.793,0,0,0-.426-.739,7.913,7.913,0,0,0-2.512-.629q-.481-.073-.758-.131a5.04,5.04,0,0,0-1.283.723,1.268,1.268,0,0,0-.564,1m.647-7.918q0,1.859,2.079,1.858t2.078-1.858q0-1.853-2.078-1.855t-2.079,1.855" transform="translate(83.675 47.688)" fill="#1d1e1c"></path><path id="Path_11960" data-name="Path 11960" d="M227.4,134.383V127.9a9.609,9.609,0,0,0-.091-1.608q-.131-.665-.13-.721c0-.145.117-.253.351-.322a2.075,2.075,0,0,1,.544-.1.622.622,0,0,1,.269.039.416.416,0,0,1,.138.119.9.9,0,0,1,.1.167,1.511,1.511,0,0,1,.075.221c.025.091.046.164.065.221a2.093,2.093,0,0,1,.055.24,1.7,1.7,0,0,0,.046.213,2.7,2.7,0,0,1,2.143-1.388,1.308,1.308,0,0,1,.794.207.613.613,0,0,1,.278.515,2.09,2.09,0,0,1-.112.655c-.072.229-.159.344-.257.344a1.631,1.631,0,0,1-.361-.1,2.062,2.062,0,0,0-.684-.1,1.471,1.471,0,0,0-.822.287,2.505,2.505,0,0,0-.629.564l-.221.275v6.761c0,.274-.247.409-.739.409h-.075c-.492,0-.739-.135-.739-.409" transform="translate(86.685 47.688)" fill="#1d1e1c"></path><path id="Path_11961" data-name="Path 11961" d="M237.823,128.731v-.869q0-1.55-2.031-1.551a5.367,5.367,0,0,0-2.458.572,2.683,2.683,0,0,1-.424.2c-.124,0-.263-.123-.416-.369a1.218,1.218,0,0,1-.231-.557q0-.383,1.08-.785a7.571,7.571,0,0,1,2.6-.4,3.856,3.856,0,0,1,2.476.767,2.58,2.58,0,0,1,.96,2.135v4.139a9.8,9.8,0,0,0,.093,1.608c.086.456.13.7.13.72,0,.146-.117.254-.351.322a2.073,2.073,0,0,1-.546.1.687.687,0,0,1-.268-.037.379.379,0,0,1-.138-.13.834.834,0,0,1-.1-.175,1.6,1.6,0,0,1-.075-.229c-.023-.1-.046-.175-.064-.232a1.831,1.831,0,0,1-.057-.26,1.557,1.557,0,0,0-.046-.229,4.024,4.024,0,0,1-3.1,1.384,3.521,3.521,0,0,1-2.291-.7A2.6,2.6,0,0,1,231.69,132a2.53,2.53,0,0,1,1.006-2.188,4.83,4.83,0,0,1,2.264-.888,28.217,28.217,0,0,1,2.863-.193M233.352,132a1.366,1.366,0,0,0,1.571,1.517,3.417,3.417,0,0,0,1.563-.336,6.344,6.344,0,0,0,1.337-.941v-2.18a10.362,10.362,0,0,0-2.973.258,6.58,6.58,0,0,0-.739.332,1.39,1.39,0,0,0-.758,1.35" transform="translate(88.405 47.688)" fill="#1d1e1c"></path><path id="Path_11962" data-name="Path 11962" d="M240.11,132.931v-5.894h-.923c-.247,0-.37-.182-.37-.553v-.221c0-.37.123-.557.37-.557h.923l.222-1.94c.025-.269.221-.4.591-.4h.185q.553,0,.554.4v1.94h1.552c.246,0,.37.187.37.557v.221c0,.37-.124.553-.37.553h-1.552v5.749c0,.912.332,1.365,1,1.365a2.588,2.588,0,0,0,.535-.046,2.52,2.52,0,0,1,.26-.047c.111,0,.2.113.276.343a1.825,1.825,0,0,1,.111.526q0,.555-1.347.554a2.636,2.636,0,0,1-1.655-.562,2.375,2.375,0,0,1-.729-1.988" transform="translate(91.124 47.071)" fill="#1d1e1c"></path><path id="Path_11963" data-name="Path 11963" d="M244.8,123.9c-.49,0-.738-.138-.738-.408v-1.09c0-.269.247-.408.738-.408h.224c.49,0,.738.138.738.408v1.09c0,.269-.247.408-.738.408Zm-.663,11.618V126.6q0-.4.738-.4h.075q.738,0,.738.4v8.924c0,.274-.246.409-.738.409h-.075c-.492,0-.738-.135-.738-.409" transform="translate(93.125 46.55)" fill="#1d1e1c"></path><path id="Path_11964" data-name="Path 11964" d="M251.452,134.865a4,4,0,0,1-3.178-1.256,5.39,5.39,0,0,1-1.1-3.65,5.492,5.492,0,0,1,1.109-3.683,3.931,3.931,0,0,1,3.158-1.3,3.873,3.873,0,0,1,3.133,1.286,5.6,5.6,0,0,1,1.08,3.694,5.5,5.5,0,0,1-1.064,3.658,3.894,3.894,0,0,1-3.14,1.248m-2.023-2.209a2.26,2.26,0,0,0,1.977.879,2.311,2.311,0,0,0,1.995-.879,4.61,4.61,0,0,0,.647-2.726,4.659,4.659,0,0,0-.647-2.731,2.306,2.306,0,0,0-1.995-.888,2.272,2.272,0,0,0-1.977.876,6.263,6.263,0,0,0,0,5.47" transform="translate(94.314 47.688)" fill="#1d1e1c"></path><path id="Path_11965" data-name="Path 11965" d="M255.26,134.383V127.9a9.574,9.574,0,0,0-.093-1.608q-.131-.665-.13-.721c0-.145.117-.253.352-.322a2.067,2.067,0,0,1,.543-.1.618.618,0,0,1,.269.039.4.4,0,0,1,.138.119.77.77,0,0,1,.1.167,1.5,1.5,0,0,1,.075.221c.025.091.046.164.065.221a2.093,2.093,0,0,1,.055.24c.019.1.035.175.046.213a3.647,3.647,0,0,1,2.762-1.388,3.169,3.169,0,0,1,2.329.8,2.943,2.943,0,0,1,.8,2.2v6.41c0,.274-.246.409-.738.409h-.075c-.492,0-.739-.135-.739-.409v-6.261a1.737,1.737,0,0,0-.49-1.319,1.919,1.919,0,0,0-1.394-.473,2.9,2.9,0,0,0-2.328,1.292v6.761c0,.274-.247.409-.739.409H256c-.492,0-.738-.135-.738-.409" transform="translate(97.314 47.688)" fill="#1d1e1c"></path><path id="Path_11966" data-name="Path 11966" d="M41,161.079q0-6.578,5.986-6.576a7.44,7.44,0,0,1,2.429.379q1.1.379,1.1.765a1.465,1.465,0,0,1-.231.667c-.155.269-.286.4-.4.4a2.415,2.415,0,0,1-.4-.2,5.445,5.445,0,0,0-1.025-.4,4.872,4.872,0,0,0-1.442-.2,4.086,4.086,0,0,0-3.288,1.238,6,6,0,0,0-1.053,3.926,6.073,6.073,0,0,0,1.044,3.935,3.968,3.968,0,0,0,3.223,1.246,5.255,5.255,0,0,0,1.571-.229,6.075,6.075,0,0,0,1.145-.461,2.371,2.371,0,0,1,.461-.232c.112,0,.247.135.406.408a1.391,1.391,0,0,1,.24.591q0,.425-1.155.877a7.291,7.291,0,0,1-2.669.453,5.792,5.792,0,0,1-4.5-1.6Q41,164.462,41,161.079" transform="translate(15.643 58.953)" fill="#1d1e1c"></path><path id="Path_11967" data-name="Path 11967" d="M49.514,163.742v-6.412q0-.408.739-.408h.073q.74,0,.741.408v6.264a1.739,1.739,0,0,0,.489,1.319,1.924,1.924,0,0,0,1.394.471,2.9,2.9,0,0,0,2.328-1.292v-6.763q0-.408.741-.408h.073c.492,0,.739.135.739.408v6.557a9.8,9.8,0,0,0,.093,1.61c.086.456.128.695.128.72,0,.148-.116.257-.351.323a2.139,2.139,0,0,1-.544.1.651.651,0,0,1-.268-.039.377.377,0,0,1-.14-.128,1.191,1.191,0,0,1-.1-.175,1.49,1.49,0,0,1-.075-.232c-.025-.1-.046-.175-.065-.229a2.077,2.077,0,0,1-.055-.26,1.8,1.8,0,0,0-.046-.232,3.65,3.65,0,0,1-2.762,1.387,3.165,3.165,0,0,1-2.328-.8,2.945,2.945,0,0,1-.8-2.2" transform="translate(18.893 59.876)" fill="#1d1e1c"></path><path id="Path_11968" data-name="Path 11968" d="M56.429,165.646a1.187,1.187,0,0,1,.231-.553c.153-.249.29-.37.414-.37a2.283,2.283,0,0,1,.3.175,3.866,3.866,0,0,0,2.042.526,1.751,1.751,0,0,0,1.2-.416,1.435,1.435,0,0,0,.471-1.127,1.462,1.462,0,0,0-.417-1.109,4.225,4.225,0,0,0-1.654-.747,4.17,4.17,0,0,1-1.792-.9,2.228,2.228,0,0,1-.553-1.654,2.371,2.371,0,0,1,.848-1.857,3.232,3.232,0,0,1,2.217-.747,5.372,5.372,0,0,1,1.68.24c.495.16.742.337.742.535a1.376,1.376,0,0,1-.214.62c-.141.251-.268.379-.379.379a1.937,1.937,0,0,1-.24-.111,2.97,2.97,0,0,0-1.412-.333,2,2,0,0,0-1.221.325.992.992,0,0,0-.434.839,1.045,1.045,0,0,0,.323.812,2.947,2.947,0,0,0,1.1.537,5.742,5.742,0,0,1,2.354,1.173,2.664,2.664,0,0,1,.618,1.922,2.731,2.731,0,0,1-.913,2.115,3.142,3.142,0,0,1-2.19.832,5.74,5.74,0,0,1-2.2-.381q-.922-.375-.923-.728" transform="translate(21.531 59.856)" fill="#1d1e1c"></path><path id="Path_11969" data-name="Path 11969" d="M63.271,164.822v-5.894h-.923q-.371,0-.37-.555v-.221c0-.37.123-.554.37-.554h.923l.222-1.94c.025-.269.221-.408.591-.408h.184c.37,0,.555.138.555.408v1.94h1.551c.246,0,.369.184.369.554v.221q0,.555-.369.555H64.824v5.746q0,1.368,1,1.368a2.807,2.807,0,0,0,.535-.046,1.882,1.882,0,0,1,.26-.047c.111,0,.2.113.276.34a1.874,1.874,0,0,1,.112.526q0,.555-1.35.557A2.635,2.635,0,0,1,64,166.808a2.365,2.365,0,0,1-.729-1.985" transform="translate(23.649 59.239)" fill="#1d1e1c"></path><path id="Path_11970" data-name="Path 11970" d="M71.069,166.755a3.988,3.988,0,0,1-3.178-1.259,5.373,5.373,0,0,1-1.1-3.647,5.5,5.5,0,0,1,1.109-3.686,3.938,3.938,0,0,1,3.16-1.293,3.856,3.856,0,0,1,3.131,1.285,5.582,5.582,0,0,1,1.08,3.694,5.5,5.5,0,0,1-1.062,3.658,3.894,3.894,0,0,1-3.14,1.248m-2.023-2.208a2.269,2.269,0,0,0,1.977.877,2.319,2.319,0,0,0,1.995-.877,6.09,6.09,0,0,0,0-5.461,2.3,2.3,0,0,0-1.995-.886,2.263,2.263,0,0,0-1.977.877,6.263,6.263,0,0,0,0,5.47" transform="translate(25.486 59.856)" fill="#1d1e1c"></path><path id="Path_11971" data-name="Path 11971" d="M74.863,166.274v-6.484a9.572,9.572,0,0,0-.093-1.608c-.086-.443-.13-.684-.13-.721q0-.222.352-.323a2.125,2.125,0,0,1,.544-.1.661.661,0,0,1,.268.037.4.4,0,0,1,.138.122.822.822,0,0,1,.1.164,1.472,1.472,0,0,1,.073.221c.025.094.047.167.065.221a1.686,1.686,0,0,1,.055.243,1.813,1.813,0,0,0,.047.21A3.62,3.62,0,0,1,79.1,156.87a2.553,2.553,0,0,1,2.642,1.534,3.786,3.786,0,0,1,2.937-1.534,3.408,3.408,0,0,1,1.884.535,2.156,2.156,0,0,1,.739.942,3.745,3.745,0,0,1,.278,1.516v6.412c0,.269-.247.4-.739.4h-.075q-.74,0-.739-.4v-6.263a1.828,1.828,0,0,0-.452-1.311,1.727,1.727,0,0,0-1.322-.481,3.133,3.133,0,0,0-2.273,1.274,2.926,2.926,0,0,1,.019.388v6.393c0,.269-.247.4-.739.4h-.073q-.74,0-.739-.4v-6.263a1.828,1.828,0,0,0-.453-1.311,1.546,1.546,0,0,0-1.183-.481,2.6,2.6,0,0,0-1.293.312,2.689,2.689,0,0,0-.822.648l-.276.314v6.781q0,.4-.741.4H75.6q-.74,0-.739-.4" transform="translate(28.48 59.856)" fill="#1d1e1c"></path><path id="Path_11972" data-name="Path 11972" d="M86.85,165.554a5.257,5.257,0,0,1-1.109-3.667,5.622,5.622,0,0,1,1.09-3.743,3.857,3.857,0,0,1,3.1-1.274q3.917,0,3.917,4.822a.892.892,0,0,1-.221.461c-.148.2-.278.294-.388.294H87.4A3.587,3.587,0,0,0,88.2,164.7a2.7,2.7,0,0,0,2.052.72,4.641,4.641,0,0,0,2.309-.59,2.346,2.346,0,0,1,.388-.186c.123,0,.261.124.416.369a1.246,1.246,0,0,1,.231.557c0,.245-.336.5-1.007.774a6.133,6.133,0,0,1-2.318.408,4.434,4.434,0,0,1-3.418-1.2m5.358-4.433q0-2.922-2.217-2.919-2.383,0-2.586,2.919Z" transform="translate(32.716 59.857)" fill="#1d1e1c"></path><path id="Path_11973" data-name="Path 11973" d="M93.478,166.274v-6.484a9.574,9.574,0,0,0-.093-1.608c-.086-.443-.13-.684-.13-.721q0-.222.352-.323a2.125,2.125,0,0,1,.544-.1.661.661,0,0,1,.268.037.4.4,0,0,1,.138.122.821.821,0,0,1,.1.164,1.648,1.648,0,0,1,.073.221c.025.094.047.167.065.221a1.9,1.9,0,0,1,.055.243,1.813,1.813,0,0,0,.047.21,2.7,2.7,0,0,1,2.143-1.384,1.328,1.328,0,0,1,.794.2.616.616,0,0,1,.276.518,2.113,2.113,0,0,1-.111.655c-.073.228-.16.341-.258.341a1.558,1.558,0,0,1-.361-.1,2.049,2.049,0,0,0-.684-.1,1.49,1.49,0,0,0-.822.286,2.55,2.55,0,0,0-.627.564l-.222.278v6.763q0,.4-.739.4h-.073q-.74,0-.739-.4" transform="translate(35.583 59.856)" fill="#1d1e1c"></path><path id="Path_11974" data-name="Path 11974" d="M97.79,164.126v-1.22c0-.269.246-.408.739-.408h.314c.493,0,.739.138.739.408v1.22q0,.4-.739.4h-.314q-.74,0-.739-.4" transform="translate(37.313 62.004)" fill="#1d1e1c"></path><path id="Path_11975" data-name="Path 11975" d="M101.658,155.79q-.738,0-.738-.408v-1.09q0-.4.738-.4h.222q.74,0,.739.4v1.09q0,.408-.739.408Zm-.665,11.622v-8.924q0-.408.739-.408h.073q.74,0,.741.408v8.924q0,.4-.741.4h-.073q-.74,0-.739-.4" transform="translate(38.508 58.718)" fill="#1d1e1c"></path><path id="Path_11976" data-name="Path 11976" d="M108.312,166.755a3.988,3.988,0,0,1-3.178-1.259,5.373,5.373,0,0,1-1.1-3.647,5.5,5.5,0,0,1,1.109-3.686,3.938,3.938,0,0,1,3.16-1.293,3.856,3.856,0,0,1,3.131,1.285,5.582,5.582,0,0,1,1.08,3.694,5.5,5.5,0,0,1-1.062,3.658,3.894,3.894,0,0,1-3.14,1.248m-2.023-2.208a2.269,2.269,0,0,0,1.977.877,2.319,2.319,0,0,0,1.995-.877,6.089,6.089,0,0,0,0-5.461,2.3,2.3,0,0,0-1.995-.886,2.263,2.263,0,0,0-1.977.877,6.263,6.263,0,0,0,0,5.47" transform="translate(39.696 59.856)" fill="#1d1e1c"></path><path id="Path_11977" data-name="Path 11977" d="M115.416,167.157V154.964q0-.408.739-.408h.148c.492,0,.739.135.739.408v12.194c0,.269-.247.4-.739.4h-.148q-.74,0-.739-.4" transform="translate(44.039 58.973)" fill="#1d1e1c"></path><path id="Path_11978" data-name="Path 11978" d="M119.1,166.274v-6.484a9.573,9.573,0,0,0-.093-1.608q-.128-.665-.128-.721c0-.148.116-.256.351-.323a2.125,2.125,0,0,1,.544-.1.661.661,0,0,1,.268.037.4.4,0,0,1,.14.122.879.879,0,0,1,.1.164,1.624,1.624,0,0,1,.075.221c.023.094.046.167.065.221a2.168,2.168,0,0,1,.055.243,1.623,1.623,0,0,0,.046.21,3.652,3.652,0,0,1,2.762-1.384,3.176,3.176,0,0,1,2.328.794,2.948,2.948,0,0,1,.8,2.2v6.412c0,.269-.247.4-.739.4H125.6q-.74,0-.741-.4v-6.263a1.753,1.753,0,0,0-.489-1.322,1.932,1.932,0,0,0-1.394-.47,2.89,2.89,0,0,0-2.328,1.292v6.763q0,.4-.741.4h-.073q-.74,0-.739-.4" transform="translate(45.36 59.856)" fill="#1d1e1c"></path><path id="Path_11979" data-name="Path 11979" d="M127.126,164.822v-5.894H126.2q-.371,0-.37-.555v-.221c0-.37.123-.554.37-.554h.923l.222-1.94c.025-.269.221-.408.591-.408h.184c.37,0,.555.138.555.408v1.94h1.552c.246,0,.369.184.369.554v.221q0,.555-.369.555h-1.552v5.746q0,1.368,1,1.368a2.807,2.807,0,0,0,.535-.046,1.882,1.882,0,0,1,.26-.047c.111,0,.2.113.276.34a1.874,1.874,0,0,1,.112.526q0,.555-1.35.557a2.635,2.635,0,0,1-1.654-.565,2.365,2.365,0,0,1-.729-1.985" transform="translate(48.014 59.239)" fill="#1d1e1c"></path><path id="Path_11980" data-name="Path 11980" d="M131.755,165.554a5.257,5.257,0,0,1-1.109-3.667,5.622,5.622,0,0,1,1.09-3.743,3.857,3.857,0,0,1,3.1-1.274q3.917,0,3.917,4.822a.892.892,0,0,1-.221.461c-.148.2-.278.294-.388.294h-5.839a3.587,3.587,0,0,0,.794,2.256,2.7,2.7,0,0,0,2.052.72,4.641,4.641,0,0,0,2.309-.59,2.345,2.345,0,0,1,.388-.186c.123,0,.261.124.416.369a1.246,1.246,0,0,1,.231.557c0,.245-.336.5-1.007.774a6.133,6.133,0,0,1-2.318.408,4.433,4.433,0,0,1-3.418-1.2m5.358-4.433q0-2.922-2.217-2.919-2.383,0-2.586,2.919Z" transform="translate(49.85 59.857)" fill="#1d1e1c"></path><path id="Path_11981" data-name="Path 11981" d="M137.574,168.139q0-1.515,2.088-2.253a1.64,1.64,0,0,1-1.183-1.543q0-1.044,1.405-1.525a2.794,2.794,0,0,1-1.248-1.118,3.124,3.124,0,0,1-.435-1.634,3,3,0,0,1,.97-2.291,3.851,3.851,0,0,1,2.726-.9,6.187,6.187,0,0,1,1.22.111h3.178c.246,0,.369.184.369.554v.221q0,.555-.369.555H145a2.67,2.67,0,0,1,.609,1.755,2.964,2.964,0,0,1-.978,2.271,3.874,3.874,0,0,1-2.736.908h-.185q-1.587.073-1.589.774c0,.26.216.453.647.583a9.355,9.355,0,0,0,1.561.305c.609.075,1.22.178,1.829.315a3.226,3.226,0,0,1,1.563.821,2.141,2.141,0,0,1,.645,1.616,2.442,2.442,0,0,1-1.228,2.081,5.878,5.878,0,0,1-3.307.821,7.263,7.263,0,0,1-3.168-.546,1.923,1.923,0,0,1-1.09-1.875m1.607-.166q0,1.256,2.771,1.256a4.123,4.123,0,0,0,2-.424,1.228,1.228,0,0,0,.767-1.053.791.791,0,0,0-.426-.739,7.827,7.827,0,0,0-2.512-.629q-.481-.073-.757-.13a4.846,4.846,0,0,0-1.285.721,1.268,1.268,0,0,0-.564,1m.647-7.916q0,1.857,2.079,1.857t2.078-1.857q0-1.857-2.078-1.857t-2.079,1.857" transform="translate(52.494 59.856)" fill="#1d1e1c"></path><path id="Path_11982" data-name="Path 11982" d="M145.685,166.274v-6.484a9.613,9.613,0,0,0-.091-1.608q-.131-.665-.13-.721c0-.148.117-.256.351-.323a2.135,2.135,0,0,1,.544-.1.674.674,0,0,1,.269.037.411.411,0,0,1,.138.122.878.878,0,0,1,.1.164,1.622,1.622,0,0,1,.075.221c.025.094.046.167.065.221a2.171,2.171,0,0,1,.055.243,1.625,1.625,0,0,0,.046.21,2.705,2.705,0,0,1,2.143-1.384,1.328,1.328,0,0,1,.794.2.617.617,0,0,1,.278.518,2.117,2.117,0,0,1-.112.655c-.072.228-.159.341-.257.341a1.558,1.558,0,0,1-.361-.1,2.061,2.061,0,0,0-.684-.1,1.49,1.49,0,0,0-.822.286,2.559,2.559,0,0,0-.629.564l-.221.278v6.763c0,.269-.247.4-.739.4h-.075c-.492,0-.739-.135-.739-.4" transform="translate(55.504 59.856)" fill="#1d1e1c"></path><path id="Path_11983" data-name="Path 11983" d="M156.1,160.621v-.869q0-1.554-2.031-1.551a5.367,5.367,0,0,0-2.458.572,2.8,2.8,0,0,1-.424.2c-.124,0-.262-.12-.416-.369a1.211,1.211,0,0,1-.231-.554q0-.388,1.08-.785a7.571,7.571,0,0,1,2.6-.4,3.856,3.856,0,0,1,2.476.767,2.576,2.576,0,0,1,.96,2.135v4.136a9.779,9.779,0,0,0,.093,1.608c.086.456.13.7.13.72,0,.149-.117.257-.351.325a2.2,2.2,0,0,1-.546.1.687.687,0,0,1-.268-.037.379.379,0,0,1-.138-.13,1,1,0,0,1-.1-.175,1.659,1.659,0,0,1-.075-.232c-.023-.1-.046-.175-.064-.229a2.027,2.027,0,0,1-.057-.26,1.621,1.621,0,0,0-.046-.232,4.017,4.017,0,0,1-3.1,1.387,3.537,3.537,0,0,1-2.291-.7,2.612,2.612,0,0,1-.869-2.161,2.535,2.535,0,0,1,1.006-2.191,4.826,4.826,0,0,1,2.264-.886,28.216,28.216,0,0,1,2.863-.193m-4.471,3.27q0,1.513,1.571,1.514a3.417,3.417,0,0,0,1.563-.333,6.448,6.448,0,0,0,1.337-.941v-2.18a10.5,10.5,0,0,0-2.973.256,6.621,6.621,0,0,0-.739.334,1.388,1.388,0,0,0-.758,1.35" transform="translate(57.224 59.856)" fill="#1d1e1c"></path><path id="Path_11984" data-name="Path 11984" d="M158.391,164.822v-5.894h-.923q-.371,0-.37-.555v-.221c0-.37.123-.554.37-.554h.923l.222-1.94c.025-.269.221-.408.591-.408h.185c.369,0,.554.138.554.408v1.94H161.5c.246,0,.37.184.37.554v.221c0,.37-.124.555-.37.555h-1.551v5.746q0,1.368,1,1.368a2.8,2.8,0,0,0,.535-.046,1.882,1.882,0,0,1,.26-.047c.111,0,.2.113.276.34a1.861,1.861,0,0,1,.111.526q0,.555-1.347.557a2.639,2.639,0,0,1-1.655-.565,2.365,2.365,0,0,1-.729-1.985" transform="translate(59.943 59.239)" fill="#1d1e1c"></path><path id="Path_11985" data-name="Path 11985" d="M163.079,155.79c-.492,0-.739-.135-.739-.408v-1.09c0-.269.247-.4.739-.4h.222c.492,0,.739.135.739.4v1.09c0,.272-.247.408-.739.408Zm-.665,11.622v-8.924c0-.272.247-.408.739-.408h.075q.738,0,.738.408v8.924q0,.4-.738.4h-.075c-.492,0-.739-.135-.739-.4" transform="translate(61.943 58.718)" fill="#1d1e1c"></path><path id="Path_11986" data-name="Path 11986" d="M169.733,166.755a3.988,3.988,0,0,1-3.178-1.259,5.38,5.38,0,0,1-1.1-3.647,5.5,5.5,0,0,1,1.109-3.686,3.937,3.937,0,0,1,3.158-1.293,3.864,3.864,0,0,1,3.133,1.285,5.59,5.59,0,0,1,1.08,3.694,5.5,5.5,0,0,1-1.064,3.658,3.894,3.894,0,0,1-3.14,1.248m-2.023-2.208a2.269,2.269,0,0,0,1.977.877,2.321,2.321,0,0,0,1.995-.877,6.089,6.089,0,0,0,0-5.461,2.3,2.3,0,0,0-1.995-.886,2.263,2.263,0,0,0-1.977.877,6.263,6.263,0,0,0,0,5.47" transform="translate(63.132 59.856)" fill="#1d1e1c"></path><path id="Path_11987" data-name="Path 11987" d="M173.542,166.274v-6.484a9.574,9.574,0,0,0-.093-1.608q-.131-.665-.13-.721,0-.222.352-.323a2.127,2.127,0,0,1,.543-.1.669.669,0,0,1,.269.037.4.4,0,0,1,.138.122.754.754,0,0,1,.1.164,1.627,1.627,0,0,1,.075.221c.025.094.046.167.065.221a2.167,2.167,0,0,1,.055.243c.019.1.035.175.046.21a3.656,3.656,0,0,1,2.762-1.384,3.179,3.179,0,0,1,2.329.794,2.947,2.947,0,0,1,.8,2.2v6.412q0,.4-.738.4h-.075c-.492,0-.739-.135-.739-.4v-6.263a1.748,1.748,0,0,0-.49-1.322,1.93,1.93,0,0,0-1.394-.47,2.89,2.89,0,0,0-2.328,1.292v6.763c0,.269-.247.4-.739.4h-.075q-.738,0-.738-.4" transform="translate(66.133 59.856)" fill="#1d1e1c"></path><path id="Path_11988" data-name="Path 11988" d="M63.52,199.684a.866.866,0,0,1,.055-.258l4.378-12.138c.061-.2.308-.3.739-.3h.535q.647,0,.741.3l4.378,12.156a.613.613,0,0,1,.055.24c0,.21-.265.314-.794.314h-.148q-.647,0-.739-.3l-1.09-3.03H66.2l-1.053,3.03q-.093.3-.739.3h-.093c-.529,0-.793-.1-.793-.314m3.2-4.415h4.415l-1.94-5.506-.24-1.072-.3,1.072Z" transform="translate(24.237 71.35)"></path><path id="Path_11989" data-name="Path 11989" d="M78.773,198.942a4.026,4.026,0,0,1-2.957,1.386,3.029,3.029,0,0,1-2.6-1.368,5.926,5.926,0,0,1-.97-3.511v-.166a5.522,5.522,0,0,1,1.035-3.556,3.191,3.191,0,0,1,2.586-1.285,4.417,4.417,0,0,1,2.771.942v-4.656c0-.269.246-.406.739-.406h.075c.492,0,.739.137.739.406v10.753a9.79,9.79,0,0,0,.093,1.608q.128.684.128.721c0,.146-.117.254-.351.322a2.064,2.064,0,0,1-.546.1.653.653,0,0,1-.267-.037.368.368,0,0,1-.138-.13.909.909,0,0,1-.1-.175,1.417,1.417,0,0,1-.075-.231c-.025-.1-.046-.175-.064-.231a1.7,1.7,0,0,1-.057-.258,1.757,1.757,0,0,0-.046-.231m-4.9-3.7q0,3.734,2.4,3.733a3.27,3.27,0,0,0,2.364-1.275v-5.062a3.4,3.4,0,0,0-2.235-.832H76.3a2.1,2.1,0,0,0-1.8.9,4.391,4.391,0,0,0-.619,2.531" transform="translate(27.569 71.095)"></path><path id="Path_11990" data-name="Path 11990" d="M86.329,198.942a4.026,4.026,0,0,1-2.957,1.386,3.029,3.029,0,0,1-2.6-1.368,5.926,5.926,0,0,1-.97-3.511v-.166a5.522,5.522,0,0,1,1.035-3.556,3.191,3.191,0,0,1,2.586-1.285,4.417,4.417,0,0,1,2.771.942v-4.656c0-.269.246-.406.739-.406h.075c.492,0,.739.137.739.406v10.753a9.788,9.788,0,0,0,.093,1.608q.128.684.128.721c0,.146-.117.254-.351.322a2.064,2.064,0,0,1-.546.1.653.653,0,0,1-.267-.037.369.369,0,0,1-.138-.13.909.909,0,0,1-.1-.175,1.419,1.419,0,0,1-.075-.231c-.025-.1-.046-.175-.064-.231a1.7,1.7,0,0,1-.057-.258,1.757,1.757,0,0,0-.046-.231m-4.9-3.7q0,3.734,2.4,3.733A3.27,3.27,0,0,0,86.2,197.7v-5.062a3.4,3.4,0,0,0-2.235-.832h-.111a2.1,2.1,0,0,0-1.8.9,4.391,4.391,0,0,0-.619,2.531" transform="translate(30.452 71.095)"></path><path id="Path_11991" data-name="Path 11991" d="M91.141,198.709v-6.484a9.585,9.585,0,0,0-.093-1.608c-.086-.443-.13-.684-.13-.721,0-.146.117-.254.352-.322a2.08,2.08,0,0,1,.544-.1.632.632,0,0,1,.268.039.408.408,0,0,1,.138.12.829.829,0,0,1,.1.166,1.58,1.58,0,0,1,.073.221c.025.093.047.166.065.221a1.865,1.865,0,0,1,.055.242,1.861,1.861,0,0,0,.047.211,2.7,2.7,0,0,1,2.143-1.386,1.318,1.318,0,0,1,.794.2.612.612,0,0,1,.276.517,2.1,2.1,0,0,1-.111.655c-.073.228-.16.343-.258.343a1.594,1.594,0,0,1-.361-.1,2.05,2.05,0,0,0-.684-.1,1.479,1.479,0,0,0-.822.286,2.522,2.522,0,0,0-.627.564l-.222.276v6.763q0,.406-.739.406h-.073q-.74,0-.739-.406" transform="translate(34.692 72.232)"></path><path id="Path_11992" data-name="Path 11992" d="M99.783,199.19a3.992,3.992,0,0,1-3.178-1.257,5.377,5.377,0,0,1-1.1-3.649,5.5,5.5,0,0,1,1.109-3.685,3.935,3.935,0,0,1,3.16-1.295,3.86,3.86,0,0,1,3.131,1.285,5.585,5.585,0,0,1,1.08,3.694,5.5,5.5,0,0,1-1.062,3.658,3.894,3.894,0,0,1-3.14,1.248m-2.023-2.208a2.266,2.266,0,0,0,1.977.877,2.315,2.315,0,0,0,1.995-.877,6.086,6.086,0,0,0,0-5.46,2.3,2.3,0,0,0-1.995-.887,2.266,2.266,0,0,0-1.977.877,6.263,6.263,0,0,0,0,5.47" transform="translate(36.442 72.232)"></path><path id="Path_11993" data-name="Path 11993" d="M102.782,189.673c0-.21.262-.315.793-.315h.167c.443,0,.688.1.738.3l1.94,7.372,1.922-7.353c.05-.21.289-.315.72-.315h.2c.419,0,.658.105.72.315l1.941,7.353,1.92-7.372c.05-.2.326-.3.833-.3s.756.105.756.315a.883.883,0,0,1-.055.258L112.9,198.8q-.073.3-.738.3h-.611q-.647,0-.72-.3l-1.7-6.724L107.4,198.8c-.048.2-.3.3-.738.3h-.611c-.443,0-.691-.1-.739-.3l-2.476-8.885a.863.863,0,0,1-.054-.24" transform="translate(39.218 72.253)"></path><path id="Path_11994" data-name="Path 11994" d="M44.924,193.941a.4.4,0,0,1-.33-.117.71.71,0,0,1-.1-.437v-.149q0-.723.427-.724H48.74V188.7q0-.425.64-.426h.149q.64,0,.64.426v3.817h3.794q.427,0,.427.64v.148q0,.64-.427.64H50.168v3.817q0,.425-.64.426h-.149q-.64,0-.64-.426v-3.817Z" transform="translate(16.979 71.838)"></path></g></g></g></svg>