<svg xmlns="http://www.w3.org/2000/svg" xmlns:xlink="http://www.w3.org/1999/xlink" width="724.778" height="530.777" viewBox="0 0 724.778 530.777"><defs><clipPath id="clip-path"><rect id="Rectangle_20017" data-name="Rectangle 20017" width="405.266" height="361.404" rx="2.105" fill="none"></rect></clipPath><clipPath id="clip-path-2"><rect id="Rectangle_20018" data-name="Rectangle 20018" width="405.266" height="361.404" fill="none"></rect></clipPath><clipPath id="clip-path-6"><path id="Rectangle_20059" data-name="Rectangle 20059" d="M2.106,0H424.751a2.105,2.105,0,0,1,2.105,2.105V369.9a2.105,2.105,0,0,1-2.105,2.105H2.106A2.106,2.106,0,0,1,0,369.9V2.106A2.106,2.106,0,0,1,2.106,0Z" fill="none"></path></clipPath><clipPath id="clip-path-7"><rect id="Rectangle_20061" data-name="Rectangle 20061" width="426.856" height="372.006" fill="none"></rect></clipPath></defs><g id="Group_35364" data-name="Group 35364" transform="translate(-109.111 -11987.111)"><g id="Group_34537" data-name="Group 34537" transform="translate(0 -267)"><g id="Rectangle_20095" data-name="Rectangle 20095" transform="translate(147 12292)" fill="rgba(112,112,112,0.4)" stroke="#707070" stroke-width="1"><rect width="405" height="362" stroke="none"></rect><rect x="0.5" y="0.5" width="404" height="361" fill="none"></rect></g><g id="Group_34526" data-name="Group 34526" transform="translate(146.734 12287.622)"><g id="Group_34517" data-name="Group 34517"><g id="Group_34516" data-name="Group 34516" clip-path="url(#clip-path)"><rect id="Rectangle_19988" data-name="Rectangle 19988" width="405.266" height="263.227" transform="translate(0 98.177)" fill="#fff"></rect><rect id="Rectangle_19989" data-name="Rectangle 19989" width="405.266" height="3.462" transform="translate(0 94.714)" fill="#fff"></rect><rect id="Rectangle_19990" data-name="Rectangle 19990" width="405.266" height="3.462" transform="translate(0 91.252)" fill="#fff"></rect><rect id="Rectangle_19991" data-name="Rectangle 19991" width="405.266" height="3.462" transform="translate(0 87.788)" fill="#fff"></rect><rect id="Rectangle_19992" data-name="Rectangle 19992" width="405.266" height="3.462" transform="translate(0 84.325)" fill="#fff"></rect><rect id="Rectangle_19993" data-name="Rectangle 19993" width="405.266" height="3.462" transform="translate(0 80.863)" fill="#fff"></rect><rect id="Rectangle_19994" data-name="Rectangle 19994" width="405.266" height="3.462" transform="translate(0 77.398)" fill="#f7f7f7"></rect><rect id="Rectangle_19995" data-name="Rectangle 19995" width="405.266" height="3.462" transform="translate(0 73.936)" fill="#f7f7f7"></rect><rect id="Rectangle_19996" data-name="Rectangle 19996" width="405.266" height="3.462" transform="translate(0 70.473)" fill="#f6f6f6"></rect><rect id="Rectangle_19997" data-name="Rectangle 19997" width="405.266" height="3.462" transform="translate(0 67.009)" fill="#f5f5f6"></rect><rect id="Rectangle_19998" data-name="Rectangle 19998" width="405.266" height="3.462" transform="translate(0 63.547)" fill="#f4f5f5"></rect><rect id="Rectangle_19999" data-name="Rectangle 19999" width="405.266" height="3.462" transform="translate(0 60.084)" fill="#f4f4f4"></rect><rect id="Rectangle_20000" data-name="Rectangle 20000" width="405.266" height="3.462" transform="translate(0 56.62)" fill="#f3f3f3"></rect><rect id="Rectangle_20001" data-name="Rectangle 20001" width="405.266" height="3.462" transform="translate(0 53.157)" fill="#f2f2f3"></rect><rect id="Rectangle_20002" data-name="Rectangle 20002" width="405.266" height="3.462" transform="translate(0 49.693)" fill="#f1f0f2"></rect><rect id="Rectangle_20003" data-name="Rectangle 20003" width="405.266" height="3.462" transform="translate(0 46.23)" fill="#efeff0"></rect><rect id="Rectangle_20004" data-name="Rectangle 20004" width="405.266" height="3.462" transform="translate(0 42.768)" fill="#eeeeef"></rect><rect id="Rectangle_20005" data-name="Rectangle 20005" width="405.266" height="3.462" transform="translate(0 39.304)" fill="#edeced"></rect><rect id="Rectangle_20006" data-name="Rectangle 20006" width="405.266" height="3.462" transform="translate(0 35.841)" fill="#ececed"></rect><rect id="Rectangle_20007" data-name="Rectangle 20007" width="405.266" height="3.462" transform="translate(0 32.379)" fill="#ebebec"></rect><rect id="Rectangle_20008" data-name="Rectangle 20008" width="405.266" height="3.462" transform="translate(0 28.914)" fill="#eaeaea"></rect><rect id="Rectangle_20009" data-name="Rectangle 20009" width="405.266" height="3.462" transform="translate(0 25.452)" fill="#e9e9ea"></rect><rect id="Rectangle_20010" data-name="Rectangle 20010" width="405.266" height="3.462" transform="translate(0 21.989)" fill="#e8e8e9"></rect><rect id="Rectangle_20011" data-name="Rectangle 20011" width="405.266" height="3.462" transform="translate(0 18.525)" fill="#e7e7e8"></rect><rect id="Rectangle_20012" data-name="Rectangle 20012" width="405.266" height="3.462" transform="translate(0 15.063)" fill="#e5e6e7"></rect><rect id="Rectangle_20013" data-name="Rectangle 20013" width="405.266" height="3.462" transform="translate(0 11.6)" fill="#e4e5e6"></rect><rect id="Rectangle_20014" data-name="Rectangle 20014" width="405.266" height="3.462" transform="translate(0 8.136)" fill="#e3e3e4"></rect><rect id="Rectangle_20015" data-name="Rectangle 20015" width="405.266" height="3.462" transform="translate(0 4.673)" fill="#e1e2e4"></rect><rect id="Rectangle_20016" data-name="Rectangle 20016" width="405.266" height="4.673" fill="#e1e2e4"></rect></g></g><g id="Group_34519" data-name="Group 34519"><g id="Group_34518" data-name="Group 34518" clip-path="url(#clip-path-2)"><path id="Path_11214" data-name="Path 11214" d="M405.266,9.071H0V3.9A3.9,3.9,0,0,1,3.9,0H401.369a3.9,3.9,0,0,1,3.9,3.9Z" fill="#c1c8cd"></path></g></g><text id="User_should_be_able_to_change_" data-name="User should be able to change " transform="translate(25.364 41.109)" fill="#1d1e1c" font-size="23" font-family="Asap-Regular, Asap"><tspan x="0" y="0">User should be able to change </tspan></text><text id="his_email" data-name="his email" transform="translate(25.364 68.11)" fill="#1d1e1c" font-size="24" font-family="Asap-Regular, Asap"><tspan x="0" y="0">his email</tspan></text><text id="Departamento:" transform="translate(27.007 181.559)" fill="#7f8594" font-size="17" font-family="Asap-Regular, Asap"><tspan x="0" y="0">Departamento:</tspan></text><text id="Time_on_board:_" data-name="Time on board: " transform="translate(27.007 226.248)" fill="#7f8594" font-size="17" font-family="Asap-Regular, Asap"><tspan x="0" y="0">Time on board: </tspan></text><text id="_1_d" data-name="1 d" transform="translate(169.312 226.248)" font-size="17" font-family="Asap-Regular, Asap"><tspan x="0" y="0">1 d</tspan></text><text id="Time_on_column:_" data-name="Time on column: " transform="translate(27.007 270.938)" fill="#7f8594" font-size="17" font-family="Asap-Regular, Asap"><tspan x="0" y="0">Time on column: </tspan></text><text id="_1_d-2" data-name="1 d" transform="translate(183.814 270.938)" font-size="17" font-family="Asap-Regular, Asap"><tspan x="0" y="0">1 d</tspan></text><g id="Group_34521" data-name="Group 34521"><g id="Group_34520" data-name="Group 34520" clip-path="url(#clip-path-2)"><path id="Path_11215" data-name="Path 11215" d="M105.254,91.442H29.267A15.57,15.57,0,0,1,13.7,75.872v-.58a15.57,15.57,0,0,1,15.57-15.57h75.987a15.57,15.57,0,0,1,15.57,15.57v.58a15.57,15.57,0,0,1-15.57,15.57" transform="translate(11.664 50.859)" fill="#d8dde2"></path></g></g><text id="BACKLOG" transform="translate(40.795 129.926)" fill="#1d1e1c" font-size="16" font-family="Asap-Bold, Asap" font-weight="700"><tspan x="0" y="0">BACKLOG</tspan></text><g id="Group_34523" data-name="Group 34523"><g id="Group_34522" data-name="Group 34522" clip-path="url(#clip-path-2)"><rect id="Rectangle_20020" data-name="Rectangle 20020" width="12.728" height="12.728" transform="translate(27.005 315.414)" fill="#3883ca"></rect></g></g><text id="Backlog_Smat_Tools_-_Epic_1:_Logi..." data-name="Backlog Smat Tools - Epic 1: Logi..." transform="translate(45.95 328.771)" fill="#7f8594" font-size="21" font-family="Asap-Regular, Asap"><tspan x="0" y="0">Backlog Smat Tools - Epic 1: Logi...</tspan></text><g id="Group_34525" data-name="Group 34525"><g id="Group_34524" data-name="Group 34524" clip-path="url(#clip-path-2)"><path id="Path_11216" data-name="Path 11216" d="M189.235,119.5H112.016a14.321,14.321,0,0,1-14.322-14.32v-1.37a14.322,14.322,0,0,1,14.322-14.322h77.219a14.32,14.32,0,0,1,14.32,14.322v1.37a14.32,14.32,0,0,1-14.32,14.32" transform="translate(83.195 76.208)" fill="#381b60"></path><path id="Path_11217" data-name="Path 11217" d="M107.228,106.57V94.153a.514.514,0,0,1,.583-.581h3.472a4.932,4.932,0,0,1,3.231.931,3.2,3.2,0,0,1,.476,4.348,2.78,2.78,0,0,1-1.494,1.1v.078a2.845,2.845,0,0,1,.854.35,5.11,5.11,0,0,1,.92.63,2.9,2.9,0,0,1,.65.924,2.971,2.971,0,0,1,.293,1.316q0,3.9-5.066,3.9h-3.335a.516.516,0,0,1-.583-.583m1.707-7.14h2.252a2.821,2.821,0,0,0,1.92-.657,2.135,2.135,0,0,0,.755-1.679,1.825,1.825,0,0,0-.657-1.533,3.431,3.431,0,0,0-2.1-.513h-2.174Zm0,6.249h2.833a2.746,2.746,0,0,0,1.979-.67,2.365,2.365,0,0,0,.7-1.794,2.047,2.047,0,0,0-.765-1.718,3.626,3.626,0,0,0-2.242-.591h-2.5Z" transform="translate(91.314 79.685)" fill="#fff"></path><path id="Path_11218" data-name="Path 11218" d="M107.228,106.57V94.153a.514.514,0,0,1,.583-.581h3.472a4.932,4.932,0,0,1,3.231.931,3.2,3.2,0,0,1,.476,4.348,2.78,2.78,0,0,1-1.494,1.1v.078a2.845,2.845,0,0,1,.854.35,5.11,5.11,0,0,1,.92.63,2.9,2.9,0,0,1,.65.924,2.971,2.971,0,0,1,.293,1.316q0,3.9-5.066,3.9h-3.335A.516.516,0,0,1,107.228,106.57Zm1.707-7.14h2.252a2.821,2.821,0,0,0,1.92-.657,2.135,2.135,0,0,0,.755-1.679,1.825,1.825,0,0,0-.657-1.533,3.431,3.431,0,0,0-2.1-.513h-2.174Zm0,6.249h2.833a2.746,2.746,0,0,0,1.979-.67,2.365,2.365,0,0,0,.7-1.794,2.047,2.047,0,0,0-.765-1.718,3.626,3.626,0,0,0-2.242-.591h-2.5Z" transform="translate(91.314 79.685)" fill="none" stroke="#fff" stroke-miterlimit="10" stroke-width="0.5"></path><path id="Path_11219" data-name="Path 11219" d="M119.38,99.3V98.39q0-1.63-2.133-1.631a5.606,5.606,0,0,0-2.581.6,2.847,2.847,0,0,1-.446.213c-.13,0-.274-.128-.435-.389a1.284,1.284,0,0,1-.244-.581c0-.272.38-.546,1.135-.824a7.941,7.941,0,0,1,2.727-.417,4.034,4.034,0,0,1,2.6.8,2.707,2.707,0,0,1,1.009,2.24v4.348a10.286,10.286,0,0,0,.1,1.687c.091.48.135.731.135.757,0,.156-.122.268-.368.341a2.253,2.253,0,0,1-.572.106.7.7,0,0,1-.281-.039.394.394,0,0,1-.144-.135,1.176,1.176,0,0,1-.107-.185,1.342,1.342,0,0,1-.078-.243c-.028-.1-.048-.185-.068-.243a1.838,1.838,0,0,1-.057-.27,1.838,1.838,0,0,0-.05-.243,4.223,4.223,0,0,1-3.257,1.453,3.716,3.716,0,0,1-2.407-.735,2.752,2.752,0,0,1-.911-2.272,2.648,2.648,0,0,1,1.057-2.3,5.015,5.015,0,0,1,2.376-.931,29.219,29.219,0,0,1,3.007-.2m-4.7,3.433q0,1.591,1.652,1.591a3.575,3.575,0,0,0,1.637-.348,6.767,6.767,0,0,0,1.407-.989V100.7a10.863,10.863,0,0,0-3.122.272,6.591,6.591,0,0,0-.778.348,1.46,1.46,0,0,0-.8,1.416" transform="translate(96.178 81.212)" fill="#fff"></path><path id="Path_11220" data-name="Path 11220" d="M119.38,99.3V98.39q0-1.63-2.133-1.631a5.606,5.606,0,0,0-2.581.6,2.847,2.847,0,0,1-.446.213c-.13,0-.274-.128-.435-.389a1.284,1.284,0,0,1-.244-.581c0-.272.38-.546,1.135-.824a7.941,7.941,0,0,1,2.727-.417,4.034,4.034,0,0,1,2.6.8,2.707,2.707,0,0,1,1.009,2.24v4.348a10.286,10.286,0,0,0,.1,1.687c.091.48.135.731.135.757,0,.156-.122.268-.368.341a2.253,2.253,0,0,1-.572.106.7.7,0,0,1-.281-.039.394.394,0,0,1-.144-.135,1.176,1.176,0,0,1-.107-.185,1.342,1.342,0,0,1-.078-.243c-.028-.1-.048-.185-.068-.243a1.838,1.838,0,0,1-.057-.27,1.838,1.838,0,0,0-.05-.243,4.223,4.223,0,0,1-3.257,1.453,3.716,3.716,0,0,1-2.407-.735,2.752,2.752,0,0,1-.911-2.272,2.648,2.648,0,0,1,1.057-2.3,5.015,5.015,0,0,1,2.376-.931A29.219,29.219,0,0,1,119.38,99.3Zm-4.7,3.433q0,1.591,1.652,1.591a3.575,3.575,0,0,0,1.637-.348,6.767,6.767,0,0,0,1.407-.989V100.7a10.863,10.863,0,0,0-3.122.272,6.591,6.591,0,0,0-.778.348A1.46,1.46,0,0,0,114.684,102.736Z" transform="translate(96.178 81.212)" fill="none" stroke="#fff" stroke-miterlimit="10" stroke-width="0.5"></path><path id="Path_11221" data-name="Path 11221" d="M118.682,100.505a7.03,7.03,0,0,1,.4-2.5,3.753,3.753,0,0,1,1.076-1.609,4.824,4.824,0,0,1,3.124-1.028,6.906,6.906,0,0,1,2.018.27c.6.181.892.389.892.62a1.443,1.443,0,0,1-.222.652c-.15.265-.283.4-.4.4a.192.192,0,0,1-.067-.019c-.033-.013-.061-.022-.078-.03a.416.416,0,0,1-.07-.03,5.169,5.169,0,0,0-2.115-.465q-2.814,0-2.813,3.705a5,5,0,0,0,.689,2.97,2.721,2.721,0,0,0,2.318.911,4.847,4.847,0,0,0,2.192-.5,1.269,1.269,0,0,0,.126-.05.338.338,0,0,1,.087-.028q.2,0,.428.378a1.278,1.278,0,0,1,.233.611q0,.35-.913.668a6.447,6.447,0,0,1-2.133.32,4.741,4.741,0,0,1-3.59-1.241,5.659,5.659,0,0,1-1.183-4" transform="translate(101.068 81.212)" fill="#fff"></path><path id="Path_11222" data-name="Path 11222" d="M118.682,100.505a7.03,7.03,0,0,1,.4-2.5,3.753,3.753,0,0,1,1.076-1.609,4.824,4.824,0,0,1,3.124-1.028,6.906,6.906,0,0,1,2.018.27c.6.181.892.389.892.62a1.443,1.443,0,0,1-.222.652c-.15.265-.283.4-.4.4a.192.192,0,0,1-.067-.019c-.033-.013-.061-.022-.078-.03a.416.416,0,0,1-.07-.03,5.169,5.169,0,0,0-2.115-.465q-2.814,0-2.813,3.705a5,5,0,0,0,.689,2.97,2.721,2.721,0,0,0,2.318.911,4.847,4.847,0,0,0,2.192-.5,1.269,1.269,0,0,0,.126-.05.338.338,0,0,1,.087-.028q.2,0,.428.378a1.278,1.278,0,0,1,.233.611q0,.35-.913.668a6.447,6.447,0,0,1-2.133.32,4.741,4.741,0,0,1-3.59-1.241A5.659,5.659,0,0,1,118.682,100.505Z" transform="translate(101.068 81.212)" fill="none" stroke="#fff" stroke-miterlimit="10" stroke-width="0.5"></path><path id="Path_11223" data-name="Path 11223" d="M124.2,107.229V93.455q0-.428.776-.428h.078q.775,0,.776.428v8.671h.078l3.705-4.423c.143-.18.487-.27,1.029-.27h.078c.452,0,.678.083.678.252a.6.6,0,0,1-.194.389l-3.609,4.266,4,4.736a.535.535,0,0,1,.174.309c0,.181-.283.27-.854.27h-.078c-.555,0-.905-.081-1.046-.25l-3.881-4.6h-.078v4.423c0,.285-.259.426-.776.426h-.078c-.517,0-.776-.141-.776-.426" transform="translate(105.771 79.221)" fill="#fff"></path><path id="Path_11224" data-name="Path 11224" d="M124.2,107.229V93.455q0-.428.776-.428h.078q.775,0,.776.428v8.671h.078l3.705-4.423c.143-.18.487-.27,1.029-.27h.078c.452,0,.678.083.678.252a.6.6,0,0,1-.194.389l-3.609,4.266,4,4.736a.535.535,0,0,1,.174.309c0,.181-.283.27-.854.27h-.078c-.555,0-.905-.081-1.046-.25l-3.881-4.6h-.078v4.423c0,.285-.259.426-.776.426h-.078C124.463,107.655,124.2,107.514,124.2,107.229Z" transform="translate(105.771 79.221)" fill="none" stroke="#fff" stroke-miterlimit="10" stroke-width="0.5"></path><path id="Path_11225" data-name="Path 11225" d="M130.419,104.483a5.522,5.522,0,0,1-1.165-3.851A5.9,5.9,0,0,1,130.4,96.7a4.054,4.054,0,0,1,3.261-1.339q4.111,0,4.114,5.062a.935.935,0,0,1-.233.487c-.156.206-.293.309-.407.309H131a3.758,3.758,0,0,0,.835,2.366,2.829,2.829,0,0,0,2.153.757,4.851,4.851,0,0,0,2.424-.622,2.5,2.5,0,0,1,.409-.193c.128,0,.274.13.435.389a1.275,1.275,0,0,1,.243.581q0,.389-1.055.815a6.461,6.461,0,0,1-2.437.426,4.657,4.657,0,0,1-3.588-1.259m5.627-4.657q0-3.066-2.329-3.066-2.5,0-2.716,3.066Z" transform="translate(110.071 81.211)" fill="#fff"></path><path id="Path_11226" data-name="Path 11226" d="M130.419,104.483a5.522,5.522,0,0,1-1.165-3.851A5.9,5.9,0,0,1,130.4,96.7a4.054,4.054,0,0,1,3.261-1.339q4.111,0,4.114,5.062a.935.935,0,0,1-.233.487c-.156.206-.293.309-.407.309H131a3.758,3.758,0,0,0,.835,2.366,2.829,2.829,0,0,0,2.153.757,4.851,4.851,0,0,0,2.424-.622,2.5,2.5,0,0,1,.409-.193c.128,0,.274.13.435.389a1.275,1.275,0,0,1,.243.581q0,.389-1.055.815a6.461,6.461,0,0,1-2.437.426A4.657,4.657,0,0,1,130.419,104.483Zm5.627-4.657q0-3.066-2.329-3.066-2.5,0-2.716,3.066Z" transform="translate(110.071 81.211)" fill="none" stroke="#fff" stroke-miterlimit="10" stroke-width="0.5"></path><path id="Path_11227" data-name="Path 11227" d="M135.334,105.239v-6.81a10.072,10.072,0,0,0-.1-1.687c-.091-.467-.135-.718-.135-.757,0-.156.122-.268.368-.341a2.253,2.253,0,0,1,.572-.106.731.731,0,0,1,.281.039.4.4,0,0,1,.144.128.8.8,0,0,1,.107.172,1.484,1.484,0,0,1,.078.233c.028.1.048.176.069.233a1.693,1.693,0,0,1,.057.252,1.958,1.958,0,0,0,.05.224,3.832,3.832,0,0,1,2.9-1.455,3.333,3.333,0,0,1,2.444.833,3.1,3.1,0,0,1,.844,2.309v6.732c0,.285-.257.426-.776.426h-.078c-.517,0-.774-.141-.774-.426V98.662a1.829,1.829,0,0,0-.517-1.387,2.026,2.026,0,0,0-1.465-.494,3.044,3.044,0,0,0-2.444,1.357v7.1c0,.285-.259.426-.776.426h-.078c-.517,0-.776-.141-.776-.426" transform="translate(115.05 81.211)" fill="#fff"></path><path id="Path_11228" data-name="Path 11228" d="M135.334,105.239v-6.81a10.072,10.072,0,0,0-.1-1.687c-.091-.467-.135-.718-.135-.757,0-.156.122-.268.368-.341a2.253,2.253,0,0,1,.572-.106.731.731,0,0,1,.281.039.4.4,0,0,1,.144.128.8.8,0,0,1,.107.172,1.484,1.484,0,0,1,.078.233c.028.1.048.176.069.233a1.693,1.693,0,0,1,.057.252,1.958,1.958,0,0,0,.05.224,3.832,3.832,0,0,1,2.9-1.455,3.333,3.333,0,0,1,2.444.833,3.1,3.1,0,0,1,.844,2.309v6.732c0,.285-.257.426-.776.426h-.078c-.517,0-.774-.141-.774-.426V98.662a1.829,1.829,0,0,0-.517-1.387,2.026,2.026,0,0,0-1.465-.494,3.044,3.044,0,0,0-2.444,1.357v7.1c0,.285-.259.426-.776.426h-.078C135.594,105.664,135.334,105.524,135.334,105.239Z" transform="translate(115.05 81.211)" fill="none" stroke="#fff" stroke-miterlimit="10" stroke-width="0.5"></path><path id="Path_11229" data-name="Path 11229" d="M147.555,106.281a4.232,4.232,0,0,1-3.1,1.453,3.178,3.178,0,0,1-2.727-1.437,6.222,6.222,0,0,1-1.018-3.685v-.174a5.785,5.785,0,0,1,1.087-3.735,3.351,3.351,0,0,1,2.716-1.35,4.631,4.631,0,0,1,2.911.991v-4.89c0-.283.259-.428.776-.428h.078c.517,0,.776.144.776.428v11.293a10.556,10.556,0,0,0,.1,1.687c.091.48.137.731.137.757,0,.156-.122.267-.368.339a2.2,2.2,0,0,1-.574.107.685.685,0,0,1-.28-.039.376.376,0,0,1-.146-.137,1.085,1.085,0,0,1-.107-.183,1.507,1.507,0,0,1-.078-.243c-.026-.1-.048-.185-.067-.243a1.585,1.585,0,0,1-.059-.27,1.652,1.652,0,0,0-.048-.243m-5.142-3.881q0,3.919,2.522,3.918a3.447,3.447,0,0,0,2.485-1.337V99.663a3.583,3.583,0,0,0-2.348-.872h-.117a2.2,2.2,0,0,0-1.891.95,4.6,4.6,0,0,0-.652,2.659" transform="translate(119.824 79.221)" fill="#fff"></path><path id="Path_11230" data-name="Path 11230" d="M147.555,106.281a4.232,4.232,0,0,1-3.1,1.453,3.178,3.178,0,0,1-2.727-1.437,6.222,6.222,0,0,1-1.018-3.685v-.174a5.785,5.785,0,0,1,1.087-3.735,3.351,3.351,0,0,1,2.716-1.35,4.631,4.631,0,0,1,2.911.991v-4.89c0-.283.259-.428.776-.428h.078c.517,0,.776.144.776.428v11.293a10.556,10.556,0,0,0,.1,1.687c.091.48.137.731.137.757,0,.156-.122.267-.368.339a2.2,2.2,0,0,1-.574.107.685.685,0,0,1-.28-.039.376.376,0,0,1-.146-.137,1.085,1.085,0,0,1-.107-.183,1.507,1.507,0,0,1-.078-.243c-.026-.1-.048-.185-.067-.243a1.585,1.585,0,0,1-.059-.27A1.652,1.652,0,0,0,147.555,106.281Zm-5.142-3.881q0,3.919,2.522,3.918a3.447,3.447,0,0,0,2.485-1.337V99.663a3.583,3.583,0,0,0-2.348-.872h-.117a2.2,2.2,0,0,0-1.891.95A4.6,4.6,0,0,0,142.413,102.4Z" transform="translate(119.824 79.221)" fill="none" stroke="#fff" stroke-miterlimit="10" stroke-width="0.5"></path></g></g></g></g><g id="Group_34536" data-name="Group 34536" transform="translate(0 -267)"><g id="Rectangle_20094" data-name="Rectangle 20094" transform="translate(369 12375)" fill="rgba(112,112,112,0.4)" stroke="#707070" stroke-width="1"><rect width="427" height="372" stroke="none"></rect><rect x="0.5" y="0.5" width="426" height="371" fill="none"></rect></g><g id="Group_34531" data-name="Group 34531" transform="translate(368.714 12372.794)"><g id="Group_34528" data-name="Group 34528" transform="translate(0 -0.001)"><g id="Group_34527" data-name="Group 34527" clip-path="url(#clip-path-6)"><rect id="Rectangle_20023" data-name="Rectangle 20023" width="426.856" height="270.949" transform="translate(0 101.059)" fill="#fff"></rect><rect id="Rectangle_20024" data-name="Rectangle 20024" width="426.856" height="2.832" transform="translate(0 98.229)" fill="#fff"></rect><rect id="Rectangle_20025" data-name="Rectangle 20025" width="426.856" height="2.832" transform="translate(0 95.397)" fill="#fff"></rect><rect id="Rectangle_20026" data-name="Rectangle 20026" width="426.856" height="2.832" transform="translate(0 92.566)" fill="#f6f7fc"></rect><rect id="Rectangle_20027" data-name="Rectangle 20027" width="426.856" height="2.832" transform="translate(0 89.736)" fill="#f6f7fc"></rect><rect id="Rectangle_20028" data-name="Rectangle 20028" width="426.856" height="2.832" transform="translate(0 86.904)" fill="#f5f7f7"></rect><rect id="Rectangle_20029" data-name="Rectangle 20029" width="426.856" height="2.832" transform="translate(0 84.074)" fill="#f4f6f7"></rect><rect id="Rectangle_20030" data-name="Rectangle 20030" width="426.856" height="2.832" transform="translate(0 81.243)" fill="#f2f6f7"></rect><rect id="Rectangle_20031" data-name="Rectangle 20031" width="426.856" height="2.832" transform="translate(0 78.413)" fill="#f2f6f7"></rect><rect id="Rectangle_20032" data-name="Rectangle 20032" width="426.856" height="2.832" transform="translate(0 75.581)" fill="#f1f5f7"></rect><rect id="Rectangle_20033" data-name="Rectangle 20033" width="426.856" height="2.832" transform="translate(0 72.751)" fill="#f0f5f7"></rect><rect id="Rectangle_20034" data-name="Rectangle 20034" width="426.856" height="2.832" transform="translate(0 69.92)" fill="#eff5f7"></rect><rect id="Rectangle_20035" data-name="Rectangle 20035" width="426.856" height="2.832" transform="translate(0 67.09)" fill="#eff4f7"></rect><rect id="Rectangle_20036" data-name="Rectangle 20036" width="426.856" height="2.832" transform="translate(0 64.258)" fill="#eef3f6"></rect><rect id="Rectangle_20037" data-name="Rectangle 20037" width="426.856" height="2.832" transform="translate(0 61.428)" fill="#edf3f6"></rect><rect id="Rectangle_20038" data-name="Rectangle 20038" width="426.856" height="2.832" transform="translate(0 58.597)" fill="#ecf3f7"></rect><rect id="Rectangle_20039" data-name="Rectangle 20039" width="426.856" height="2.832" transform="translate(0 55.767)" fill="#ebf2f6"></rect><rect id="Rectangle_20040" data-name="Rectangle 20040" width="426.856" height="2.832" transform="translate(0 52.935)" fill="#eaf2f6"></rect><rect id="Rectangle_20041" data-name="Rectangle 20041" width="426.856" height="2.832" transform="translate(0 50.105)" fill="#e9f2f4"></rect><rect id="Rectangle_20042" data-name="Rectangle 20042" width="426.856" height="2.832" transform="translate(0 47.273)" fill="#e8f1f5"></rect><rect id="Rectangle_20043" data-name="Rectangle 20043" width="426.856" height="2.832" transform="translate(0 44.442)" fill="#e8f1f3"></rect><rect id="Rectangle_20044" data-name="Rectangle 20044" width="426.856" height="2.832" transform="translate(0 41.612)" fill="#e6f1f4"></rect><rect id="Rectangle_20045" data-name="Rectangle 20045" width="426.856" height="2.832" transform="translate(0 38.78)" fill="#e5f0f4"></rect><rect id="Rectangle_20046" data-name="Rectangle 20046" width="426.856" height="2.832" transform="translate(0 35.95)" fill="#e5f0f4"></rect><rect id="Rectangle_20047" data-name="Rectangle 20047" width="426.856" height="2.832" transform="translate(0 33.119)" fill="#e4eff3"></rect><rect id="Rectangle_20048" data-name="Rectangle 20048" width="426.856" height="2.832" transform="translate(0 30.289)" fill="#e3eff3"></rect><rect id="Rectangle_20049" data-name="Rectangle 20049" width="426.856" height="2.832" transform="translate(0 27.457)" fill="#e2eef3"></rect><rect id="Rectangle_20050" data-name="Rectangle 20050" width="426.856" height="2.832" transform="translate(0 24.627)" fill="#e1eef3"></rect><rect id="Rectangle_20051" data-name="Rectangle 20051" width="426.856" height="2.832" transform="translate(0 21.796)" fill="#e0edf3"></rect><rect id="Rectangle_20052" data-name="Rectangle 20052" width="426.856" height="2.832" transform="translate(0 18.966)" fill="#dfedf3"></rect><rect id="Rectangle_20053" data-name="Rectangle 20053" width="426.856" height="2.832" transform="translate(0 16.134)" fill="#deedf3"></rect><rect id="Rectangle_20054" data-name="Rectangle 20054" width="426.856" height="2.832" transform="translate(0 13.304)" fill="#ddecf2"></rect><rect id="Rectangle_20055" data-name="Rectangle 20055" width="426.856" height="2.832" transform="translate(0 10.473)" fill="#dbecf2"></rect><rect id="Rectangle_20056" data-name="Rectangle 20056" width="426.856" height="2.832" transform="translate(0 7.643)" fill="#dbecf2"></rect><rect id="Rectangle_20057" data-name="Rectangle 20057" width="426.856" height="2.832" transform="translate(0 4.811)" fill="#d9eaf1"></rect><rect id="Rectangle_20058" data-name="Rectangle 20058" width="426.856" height="4.809" transform="translate(0 0.002)" fill="#d9eaf1"></rect></g></g><g id="Group_34530" data-name="Group 34530" transform="translate(0 0.001)"><g id="Group_34529" data-name="Group 34529" clip-path="url(#clip-path-7)"><path id="Path_11231" data-name="Path 11231" d="M426.856,9.552H0V4.105A4.105,4.105,0,0,1,4.105,0H422.75a4.105,4.105,0,0,1,4.105,4.105Z" fill="#57bad0"></path><path id="Path_11232" data-name="Path 11232" d="M12.623,36.134V18.65a.714.714,0,0,1,.807-.805h5.461a8.1,8.1,0,0,1,3.819.915A3.71,3.71,0,0,1,24.3,20.386a5.5,5.5,0,0,1,.593,2.621,6.357,6.357,0,0,1-.47,2.57A4.552,4.552,0,0,1,23.289,27.2a5.488,5.488,0,0,1-1.519.913,6.844,6.844,0,0,1-2.609.54h-4.17v7.477q0,.591-1.077.591H13.7c-.716,0-1.077-.2-1.077-.591m2.368-9.523h4.195a3.664,3.664,0,0,0,2.018-.644,2.581,2.581,0,0,0,.887-1.09,4.1,4.1,0,0,0,.349-1.761A2.8,2.8,0,0,0,21.366,20.6a4.538,4.538,0,0,0-2.557-.712H14.991Z" transform="translate(11.995 16.957)" fill="#1d1e1c"></path><path id="Path_11233" data-name="Path 11233" d="M20.711,33.894V24.453a14.046,14.046,0,0,0-.135-2.34q-.19-.968-.189-1.047c0-.215.172-.374.513-.472a3.124,3.124,0,0,1,.792-.148.945.945,0,0,1,.39.055.6.6,0,0,1,.2.176,1.188,1.188,0,0,1,.148.242,2.5,2.5,0,0,1,.105.322c.037.135.07.242.1.324a2.29,2.29,0,0,1,.08.347,2.745,2.745,0,0,0,.068.312A3.933,3.933,0,0,1,25.9,20.2a1.93,1.93,0,0,1,1.158.3.894.894,0,0,1,.4.753,3.1,3.1,0,0,1-.16.956c-.109.332-.234.5-.376.5a2.359,2.359,0,0,1-.525-.148,3.022,3.022,0,0,0-1-.148,2.166,2.166,0,0,0-1.2.415,3.692,3.692,0,0,0-.915.821l-.324.4v9.845c0,.394-.357.591-1.077.591h-.105q-1.077,0-1.077-.591" transform="translate(19.372 19.197)" fill="#1d1e1c"></path><path id="Path_11234" data-name="Path 11234" d="M31.344,34.591a5.813,5.813,0,0,1-4.626-1.829,7.833,7.833,0,0,1-1.6-5.312,8.007,8.007,0,0,1,1.615-5.365,5.724,5.724,0,0,1,4.6-1.88,5.62,5.62,0,0,1,4.558,1.868,8.134,8.134,0,0,1,1.574,5.377,8.014,8.014,0,0,1-1.547,5.328,5.675,5.675,0,0,1-4.571,1.814M28.4,31.377a3.294,3.294,0,0,0,2.879,1.277,3.37,3.37,0,0,0,2.9-1.277,6.73,6.73,0,0,0,.94-3.967,6.8,6.8,0,0,0-.94-3.98,3.354,3.354,0,0,0-2.9-1.291A3.294,3.294,0,0,0,28.4,23.416a6.892,6.892,0,0,0-.917,3.98,6.9,6.9,0,0,0,.917,3.98" transform="translate(23.867 19.198)" fill="#1d1e1c"></path><path id="Path_11235" data-name="Path 11235" d="M34.48,36.868V25.276H33.4q-.535,0-.536-.807v-.322q0-.807.536-.807H34.48V20.784q0-2.314,1.238-3.066a4.173,4.173,0,0,1,2.231-.646c1.309,0,1.964.267,1.964.807a2.725,2.725,0,0,1-.162.764q-.161.5-.4.5a3.246,3.246,0,0,1-.376-.066,4.678,4.678,0,0,0-.9-.066,1.263,1.263,0,0,0-.954.39,2.388,2.388,0,0,0-.378,1.6v2.34h2.34q.538,0,.538.807v.322q0,.807-.538.807h-2.34V36.868c0,.394-.357.591-1.077.591h-.105q-1.077,0-1.077-.591" transform="translate(31.231 16.223)" fill="#1d1e1c"></path><path id="Path_11236" data-name="Path 11236" d="M38.962,19.9c-.716,0-1.075-.2-1.075-.593V17.72c0-.394.359-.593,1.075-.593h.324c.716,0,1.077.2,1.077.593v1.586c0,.4-.361.593-1.077.593Zm-.967,16.918V23.826c0-.394.359-.593,1.077-.593h.105c.72,0,1.077.2,1.077.593v12.99c0,.394-.357.591-1.077.591h-.105q-1.077,0-1.077-.591" transform="translate(36.001 16.275)" fill="#1d1e1c"></path><path id="Path_11237" data-name="Path 11237" d="M41.473,33.8V17.72c0-.394.359-.593,1.077-.593h.105c.72,0,1.077.2,1.077.593V33.589q0,1.989,1.453,1.989a4.041,4.041,0,0,0,.78-.066,3.5,3.5,0,0,1,.376-.068c.162,0,.294.168.4.5a2.712,2.712,0,0,1,.162.764c0,.54-.655.807-1.964.807a3.826,3.826,0,0,1-2.407-.821,3.446,3.446,0,0,1-1.063-2.89" transform="translate(39.409 16.275)" fill="#1d1e1c"></path><path id="Path_11238" data-name="Path 11238" d="M46.809,32.844Q45.194,31.1,45.2,27.5a8.174,8.174,0,0,1,1.586-5.447A5.621,5.621,0,0,1,51.3,20.2q5.7,0,5.7,7.019a1.28,1.28,0,0,1-.324.671c-.215.289-.4.431-.566.431h-8.5a5.2,5.2,0,0,0,1.156,3.282,3.93,3.93,0,0,0,2.984,1.049,6.77,6.77,0,0,0,3.364-.862,3.467,3.467,0,0,1,.564-.267c.179,0,.38.179.6.536a1.793,1.793,0,0,1,.335.807q0,.538-1.465,1.129a8.972,8.972,0,0,1-3.374.593,6.465,6.465,0,0,1-4.977-1.747m7.8-6.455q0-4.251-3.226-4.251-3.472,0-3.766,4.251Z" transform="translate(42.946 19.197)" fill="#1d1e1c"></path><path id="Path_11239" data-name="Path 11239" d="M55.69,34.949a1.849,1.849,0,0,1,.363-.887c.242-.376.433-.566.577-.566a3.284,3.284,0,0,1,.673.337,9.233,9.233,0,0,0,1.667.685,7.982,7.982,0,0,0,2.459.349A3.4,3.4,0,0,0,63.8,33.98a2.909,2.909,0,0,0,.983-2.258,2.778,2.778,0,0,0-.9-2.178A6.648,6.648,0,0,0,61.7,28.266q-1.278-.471-2.568-1.008a5.422,5.422,0,0,1-2.192-1.669,4.466,4.466,0,0,1-.9-2.877,4.427,4.427,0,0,1,1.642-3.59,6.567,6.567,0,0,1,4.328-1.359,9.282,9.282,0,0,1,2.824.486q1.507.486,1.508,1.156a1.934,1.934,0,0,1-.337.86c-.224.376-.4.566-.523.566a1.868,1.868,0,0,1-.568-.269,6.03,6.03,0,0,0-2.957-.755,3.877,3.877,0,0,0-2.529.768,2.727,2.727,0,0,0-.94,2.245,2.558,2.558,0,0,0,1.747,2.313q.755.351,1.695.686a19.438,19.438,0,0,1,1.868.78,9.23,9.23,0,0,1,1.695,1.036,4.347,4.347,0,0,1,1.252,1.613,5.49,5.49,0,0,1,.484,2.368A4.888,4.888,0,0,1,65.613,35.5a5.967,5.967,0,0,1-4.088,1.414,11.234,11.234,0,0,1-4.156-.673q-1.679-.673-1.679-1.291" transform="translate(52.918 16.878)" fill="#1d1e1c"></path><path id="Path_11240" data-name="Path 11240" d="M62.792,27.33a9.81,9.81,0,0,1,.552-3.469,5.253,5.253,0,0,1,1.494-2.233,6.7,6.7,0,0,1,4.33-1.424,9.649,9.649,0,0,1,2.8.374q1.237.377,1.236.86a1.981,1.981,0,0,1-.308.9c-.207.369-.39.554-.552.554a.311.311,0,0,1-.094-.027c-.047-.02-.08-.033-.107-.043a.365.365,0,0,1-.1-.039,7.141,7.141,0,0,0-2.931-.646q-3.9,0-3.9,5.139a6.906,6.906,0,0,0,.956,4.113,3.77,3.77,0,0,0,3.214,1.264,6.7,6.7,0,0,0,3.038-.7,1.46,1.46,0,0,0,.176-.068.455.455,0,0,1,.121-.041c.179,0,.376.176.593.527a1.769,1.769,0,0,1,.322.848q0,.483-1.264.926a8.968,8.968,0,0,1-2.959.445,6.564,6.564,0,0,1-4.975-1.722q-1.644-1.72-1.642-5.541" transform="translate(59.667 19.198)" fill="#1d1e1c"></path><path id="Path_11241" data-name="Path 11241" d="M70.163,33.894V24.453a14.046,14.046,0,0,0-.135-2.34q-.19-.968-.189-1.047c0-.215.172-.374.513-.472a3.124,3.124,0,0,1,.792-.148.944.944,0,0,1,.39.055.6.6,0,0,1,.2.176,1.187,1.187,0,0,1,.148.242,2.493,2.493,0,0,1,.105.322c.037.135.07.242.1.324a2.291,2.291,0,0,1,.08.347,2.743,2.743,0,0,0,.068.312A3.933,3.933,0,0,1,75.352,20.2a1.93,1.93,0,0,1,1.158.3.894.894,0,0,1,.4.753,3.1,3.1,0,0,1-.16.956c-.109.332-.234.5-.376.5a2.359,2.359,0,0,1-.525-.148,3.022,3.022,0,0,0-1-.148,2.166,2.166,0,0,0-1.2.415,3.692,3.692,0,0,0-.915.821l-.324.4v9.845c0,.394-.357.591-1.077.591h-.105q-1.077,0-1.077-.591" transform="translate(66.363 19.197)" fill="#1d1e1c"></path><path id="Path_11242" data-name="Path 11242" d="M76.182,32.844Q74.567,31.1,74.569,27.5a8.173,8.173,0,0,1,1.586-5.447A5.621,5.621,0,0,1,80.673,20.2q5.7,0,5.7,7.019a1.28,1.28,0,0,1-.324.671c-.215.289-.4.431-.566.431h-8.5a5.208,5.208,0,0,0,1.156,3.282,3.93,3.93,0,0,0,2.984,1.049,6.77,6.77,0,0,0,3.364-.862,3.469,3.469,0,0,1,.564-.267c.179,0,.38.179.6.536A1.793,1.793,0,0,1,86,32.87q0,.538-1.465,1.129a8.972,8.972,0,0,1-3.374.593,6.468,6.468,0,0,1-4.977-1.747m7.8-6.455q0-4.251-3.228-4.251-3.472,0-3.766,4.251Z" transform="translate(70.857 19.197)" fill="#1d1e1c"></path><path id="Path_11243" data-name="Path 11243" d="M83.615,32.844Q82,31.1,82,27.5a8.174,8.174,0,0,1,1.586-5.447A5.621,5.621,0,0,1,88.106,20.2q5.7,0,5.7,7.019a1.28,1.28,0,0,1-.324.671c-.215.289-.4.431-.566.431h-8.5a5.2,5.2,0,0,0,1.156,3.282,3.93,3.93,0,0,0,2.984,1.049,6.77,6.77,0,0,0,3.364-.862,3.468,3.468,0,0,1,.564-.267c.179,0,.38.179.6.536a1.793,1.793,0,0,1,.335.807q0,.538-1.465,1.129a8.973,8.973,0,0,1-3.374.593,6.465,6.465,0,0,1-4.977-1.747m7.8-6.455q0-4.251-3.226-4.251-3.472,0-3.766,4.251Z" transform="translate(77.92 19.197)" fill="#1d1e1c"></path><path id="Path_11244" data-name="Path 11244" d="M90.018,33.894V24.453a14.1,14.1,0,0,0-.133-2.34q-.19-.968-.189-1.047c0-.215.17-.374.511-.472A3.121,3.121,0,0,1,91,20.445a.944.944,0,0,1,.39.055.635.635,0,0,1,.2.176,1.27,1.27,0,0,1,.146.242,2.2,2.2,0,0,1,.107.322c.035.135.068.242.094.324a2.507,2.507,0,0,1,.082.347,2.885,2.885,0,0,0,.066.312A5.316,5.316,0,0,1,96.11,20.2,4.616,4.616,0,0,1,99.5,21.359a4.294,4.294,0,0,1,1.172,3.2v9.334c0,.394-.361.591-1.077.591h-.109q-1.074,0-1.075-.591V24.774a2.534,2.534,0,0,0-.712-1.921,2.811,2.811,0,0,0-2.032-.686,4.215,4.215,0,0,0-3.388,1.882v9.845q0,.591-1.077.591h-.107c-.716,0-1.077-.2-1.077-.591" transform="translate(85.231 19.197)" fill="#1d1e1c"></path><path id="Path_11245" data-name="Path 11245" d="M96.84,32.977a1.79,1.79,0,0,1,.337-.805c.222-.359.425-.538.6-.538a3.631,3.631,0,0,1,.429.254,5.622,5.622,0,0,0,1.158.513,5.691,5.691,0,0,0,1.816.255,2.541,2.541,0,0,0,1.747-.607,2.078,2.078,0,0,0,.686-1.638,2.126,2.126,0,0,0-.607-1.615,6.113,6.113,0,0,0-2.407-1.088A6.11,6.11,0,0,1,98,26.4,3.241,3.241,0,0,1,97.191,24a3.458,3.458,0,0,1,1.234-2.7,4.7,4.7,0,0,1,3.23-1.09,7.949,7.949,0,0,1,2.448.349c.718.234,1.075.493,1.075.78a1.971,1.971,0,0,1-.308.9c-.207.369-.39.55-.552.55a2.57,2.57,0,0,1-.349-.16,4.324,4.324,0,0,0-2.058-.486,2.912,2.912,0,0,0-1.777.474,1.461,1.461,0,0,0-.632,1.223,1.526,1.526,0,0,0,.47,1.182,4.335,4.335,0,0,0,1.6.78A8.413,8.413,0,0,1,105,27.5a3.869,3.869,0,0,1,.9,2.8,3.973,3.973,0,0,1-1.33,3.079,4.573,4.573,0,0,1-3.187,1.211,8.44,8.44,0,0,1-3.2-.552q-1.346-.553-1.344-1.063" transform="translate(92.02 19.197)" fill="#1d1e1c"></path><path id="Path_11246" data-name="Path 11246" d="M106.507,30.674V18.409q0-.591,1.077-.591h.215c.716,0,1.077.2,1.077.591V30.754a3.6,3.6,0,0,0,1.41,2.918,6.129,6.129,0,0,0,7.128,0,3.591,3.591,0,0,0,1.412-2.918V18.409q0-.591,1.077-.591h.216q1.074,0,1.075.591V30.674a5.666,5.666,0,0,1-1.909,4.558,9.9,9.9,0,0,1-10.878,0,5.677,5.677,0,0,1-1.9-4.558" transform="translate(101.206 16.931)" fill="#1d1e1c"></path><path id="Path_11247" data-name="Path 11247" d="M116.52,36.16V18.407c0-.394.357-.589,1.075-.589h.215c.718,0,1.077.2,1.077.589V36.16q0,.591-1.077.591h-.215c-.718,0-1.075-.2-1.075-.591" transform="translate(110.72 16.931)" fill="#1d1e1c"></path><path id="Path_11248" data-name="Path 11248" d="M128.291,17.8h.109c.429,0,.646.181.646.538a1.182,1.182,0,0,1-.082.4l-8.339,19.391a.911.911,0,0,1-.887.618h-.105c-.468,0-.7-.179-.7-.536a1.029,1.029,0,0,1,.08-.4l8.339-19.393a.95.95,0,0,1,.94-.618" transform="translate(113.012 16.917)" fill="#1d1e1c"></path><path id="Path_11249" data-name="Path 11249" d="M125.317,30.674V18.409q0-.591,1.077-.591h.214c.716,0,1.077.2,1.077.591V30.754a3.6,3.6,0,0,0,1.41,2.918,6.129,6.129,0,0,0,7.128,0,3.591,3.591,0,0,0,1.412-2.918V18.409q0-.591,1.077-.591h.216q1.074,0,1.075.591V30.674a5.666,5.666,0,0,1-1.909,4.558,9.9,9.9,0,0,1-10.878,0,5.677,5.677,0,0,1-1.9-4.558" transform="translate(119.079 16.931)" fill="#1d1e1c"></path><path id="Path_11250" data-name="Path 11250" d="M134.268,36.293a.923.923,0,0,1,.215-.484l6.026-8.928-5.381-8.123a.923.923,0,0,1-.215-.484q0-.459,1.238-.458h.376a1.323,1.323,0,0,1,1.156.4l4.3,6.485,4.437-6.51c.162-.25.55-.376,1.158-.376h.16q1.237,0,1.238.458a1.5,1.5,0,0,1-.215.484l-5.379,7.986,6.05,9.065a.913.913,0,0,1,.216.484q0,.456-1.238.456h-.431c-.591,0-.977-.133-1.156-.4l-4.948-7.4-5,7.425q-.24.374-1.156.374h-.215q-1.237,0-1.238-.456" transform="translate(127.585 16.93)" fill="#1d1e1c"></path><path id="Path_11251" data-name="Path 11251" d="M11.621,109.706V95.721a.58.58,0,0,1,.655-.657H16.69A6.684,6.684,0,0,1,21.6,96.887q1.846,1.825,1.845,5.837T21.6,108.548a6.7,6.7,0,0,1-4.907,1.814H12.276a.58.58,0,0,1-.655-.655m1.923-1.006h2.994a4.661,4.661,0,0,0,3.561-1.441,6.457,6.457,0,0,0,1.355-4.534A6.508,6.508,0,0,0,20.1,98.177a4.649,4.649,0,0,0-3.561-1.453H13.544Z" transform="translate(11.043 90.332)" fill="#7f8594"></path><path id="Path_11252" data-name="Path 11252" d="M20.248,107.25a6.222,6.222,0,0,1-1.311-4.337,6.652,6.652,0,0,1,1.289-4.425A4.572,4.572,0,0,1,23.9,96.98q4.631,0,4.632,5.7a1.051,1.051,0,0,1-.263.546c-.174.232-.328.349-.458.349H20.9a4.236,4.236,0,0,0,.938,2.666,3.194,3.194,0,0,0,2.428.852,5.507,5.507,0,0,0,2.73-.7,2.694,2.694,0,0,1,.458-.218c.144,0,.308.144.491.435a1.445,1.445,0,0,1,.273.657c0,.293-.4.6-1.192.917a7.251,7.251,0,0,1-2.742.482,5.247,5.247,0,0,1-4.043-1.422m6.338-5.244q0-3.452-2.623-3.454-2.82,0-3.058,3.454Z" transform="translate(17.994 92.153)" fill="#7f8594"></path><path id="Path_11253" data-name="Path 11253" d="M27.289,112.605c0,.32-.294.482-.876.482h-.088c-.581,0-.874-.162-.874-.482V100.432a10.993,10.993,0,0,0-.111-1.9c-.1-.525-.152-.809-.152-.854,0-.172.14-.3.415-.38a2.5,2.5,0,0,1,.646-.119.754.754,0,0,1,.316.043.494.494,0,0,1,.164.14.943.943,0,0,1,.121.2,1.872,1.872,0,0,1,.088.263c.027.107.055.2.076.261a2.1,2.1,0,0,1,.066.285c.021.123.041.207.053.252a4.763,4.763,0,0,1,3.5-1.64A3.582,3.582,0,0,1,33.7,98.6a7.02,7.02,0,0,1,1.147,4.152v.2a6.527,6.527,0,0,1-1.223,4.2,3.779,3.779,0,0,1-3.06,1.519,5.208,5.208,0,0,1-3.276-1.114Zm2.643-5.55h.131a2.485,2.485,0,0,0,2.13-1.071,5.369,5.369,0,0,0,.733-3.081,6.137,6.137,0,0,0-.7-3.181A2.334,2.334,0,0,0,30.1,98.575a3.874,3.874,0,0,0-2.806,1.509v5.985a4.011,4.011,0,0,0,2.643.985" transform="translate(23.935 92.153)" fill="#7f8594"></path><path id="Path_11254" data-name="Path 11254" d="M38.587,101.419v-1.03q0-1.834-2.4-1.835a6.342,6.342,0,0,0-2.908.677,3.09,3.09,0,0,1-.5.242c-.144,0-.308-.146-.49-.437a1.472,1.472,0,0,1-.273-.655c0-.306.427-.614,1.277-.93a8.959,8.959,0,0,1,3.07-.47,4.55,4.55,0,0,1,2.929.907,3.055,3.055,0,0,1,1.135,2.526v4.9a11.421,11.421,0,0,0,.111,1.9c.1.54.152.823.152.854q0,.26-.415.38a2.507,2.507,0,0,1-.644.121.793.793,0,0,1-.318-.043.463.463,0,0,1-.164-.154,1.092,1.092,0,0,1-.119-.207,1.555,1.555,0,0,1-.088-.273c-.029-.117-.057-.207-.076-.275a1.776,1.776,0,0,1-.066-.3,2.323,2.323,0,0,0-.055-.275,4.758,4.758,0,0,1-3.672,1.64,4.175,4.175,0,0,1-2.709-.829,3.1,3.1,0,0,1-1.028-2.559,2.984,2.984,0,0,1,1.194-2.588,5.668,5.668,0,0,1,2.676-1.049,33.012,33.012,0,0,1,3.388-.228M33.3,105.284q0,1.793,1.857,1.792A4.051,4.051,0,0,0,37,106.684a7.593,7.593,0,0,0,1.586-1.116v-2.578a12.361,12.361,0,0,0-3.52.3,7.93,7.93,0,0,0-.874.4,1.638,1.638,0,0,0-.9,1.593" transform="translate(29.771 92.153)" fill="#7f8594"></path><path id="Path_11255" data-name="Path 11255" d="M38.024,108.1v-7.672a11.412,11.412,0,0,0-.111-1.9c-.1-.525-.152-.809-.152-.854,0-.174.14-.3.415-.38a2.52,2.52,0,0,1,.644-.121.751.751,0,0,1,.318.045.493.493,0,0,1,.164.14.942.942,0,0,1,.121.2,2.571,2.571,0,0,1,.088.263c.027.107.055.2.076.261a2.156,2.156,0,0,1,.064.285,2.356,2.356,0,0,0,.055.252,3.2,3.2,0,0,1,2.535-1.64,1.561,1.561,0,0,1,.94.242.729.729,0,0,1,.33.61,2.506,2.506,0,0,1-.133.776c-.088.271-.191.4-.306.4a1.907,1.907,0,0,1-.427-.121,2.422,2.422,0,0,0-.807-.119,1.745,1.745,0,0,0-.973.339,2.97,2.97,0,0,0-.743.665l-.263.328v8q0,.48-.874.48H38.9q-.875,0-.874-.48" transform="translate(35.881 92.153)" fill="#7f8594"></path><path id="Path_11256" data-name="Path 11256" d="M42.934,106.943v-6.97h-1.1c-.291,0-.435-.218-.435-.655v-.263c0-.437.144-.655.435-.655h1.1l.259-2.3c.029-.32.263-.48.7-.48h.216c.439,0,.657.16.657.48v2.3H46.6c.291,0,.437.218.437.655v.263c0,.437-.146.655-.437.655H44.767v6.8q0,1.618,1.18,1.617a3.264,3.264,0,0,0,.634-.055,2.675,2.675,0,0,1,.3-.055c.133,0,.242.135.33.406a2.232,2.232,0,0,1,.131.622q0,.655-1.6.655a3.114,3.114,0,0,1-1.956-.667,2.8,2.8,0,0,1-.86-2.35" transform="translate(39.342 90.864)" fill="#7f8594"></path><path id="Path_11257" data-name="Path 11257" d="M52.626,101.419v-1.03q0-1.834-2.4-1.835a6.342,6.342,0,0,0-2.908.677,3.09,3.09,0,0,1-.5.242c-.144,0-.308-.146-.49-.437a1.471,1.471,0,0,1-.273-.655c0-.306.427-.614,1.277-.93a8.959,8.959,0,0,1,3.07-.47,4.55,4.55,0,0,1,2.929.907,3.055,3.055,0,0,1,1.135,2.526v4.9a11.42,11.42,0,0,0,.111,1.9c.1.54.152.823.152.854q0,.26-.415.38a2.507,2.507,0,0,1-.644.121.793.793,0,0,1-.318-.043.463.463,0,0,1-.164-.154,1.092,1.092,0,0,1-.119-.207,1.556,1.556,0,0,1-.088-.273c-.029-.117-.057-.207-.076-.275a1.777,1.777,0,0,1-.066-.3,2.321,2.321,0,0,0-.055-.275,4.758,4.758,0,0,1-3.672,1.64,4.175,4.175,0,0,1-2.709-.829,3.1,3.1,0,0,1-1.028-2.559,2.984,2.984,0,0,1,1.194-2.588,5.668,5.668,0,0,1,2.676-1.049,33.011,33.011,0,0,1,3.388-.228m-5.289,3.865q0,1.793,1.857,1.792a4.051,4.051,0,0,0,1.847-.392,7.593,7.593,0,0,0,1.586-1.116v-2.578a12.361,12.361,0,0,0-3.52.3,7.929,7.929,0,0,0-.874.4,1.638,1.638,0,0,0-.9,1.593" transform="translate(43.111 92.153)" fill="#7f8594"></path><path id="Path_11258" data-name="Path 11258" d="M52.006,108.1v-7.672a11.467,11.467,0,0,0-.109-1.9q-.152-.787-.152-.854,0-.26.415-.38a2.52,2.52,0,0,1,.644-.121.741.741,0,0,1,.316.045.481.481,0,0,1,.166.14,1.143,1.143,0,0,1,.121.2,2.569,2.569,0,0,1,.088.263c.027.107.053.2.076.261a2.527,2.527,0,0,1,.064.285,2.352,2.352,0,0,0,.055.252,4.279,4.279,0,0,1,3.321-1.64A3.02,3.02,0,0,1,60.137,98.8,4.47,4.47,0,0,1,63.61,96.98a4.018,4.018,0,0,1,2.229.634,2.549,2.549,0,0,1,.874,1.114,4.431,4.431,0,0,1,.328,1.792V108.1q0,.48-.874.48h-.088q-.875,0-.874-.48V100.7a2.168,2.168,0,0,0-.536-1.552,2.043,2.043,0,0,0-1.562-.568,3.7,3.7,0,0,0-2.687,1.509,3.7,3.7,0,0,1,.021.458V108.1q0,.48-.874.48H59.48q-.875,0-.874-.48V100.7a2.168,2.168,0,0,0-.536-1.552,1.827,1.827,0,0,0-1.4-.568,3.1,3.1,0,0,0-1.531.372,3.2,3.2,0,0,0-.973.764l-.328.372V108.1q0,.48-.874.48H52.88q-.875,0-.874-.48" transform="translate(49.169 92.153)" fill="#7f8594"></path><path id="Path_11259" data-name="Path 11259" d="M62.356,107.25a6.222,6.222,0,0,1-1.311-4.337,6.652,6.652,0,0,1,1.289-4.425,4.572,4.572,0,0,1,3.672-1.508q4.631,0,4.632,5.7a1.051,1.051,0,0,1-.263.546c-.174.232-.328.349-.458.349h-6.9a4.236,4.236,0,0,0,.938,2.666,3.194,3.194,0,0,0,2.428.852,5.507,5.507,0,0,0,2.73-.7,2.694,2.694,0,0,1,.458-.218c.144,0,.308.144.491.435a1.445,1.445,0,0,1,.273.657c0,.293-.4.6-1.192.917a7.251,7.251,0,0,1-2.742.482,5.247,5.247,0,0,1-4.043-1.422m6.338-5.244q0-3.452-2.623-3.454-2.82,0-3.058,3.454Z" transform="translate(58.007 92.153)" fill="#7f8594"></path><path id="Path_11260" data-name="Path 11260" d="M67.56,108.1v-7.672a11.2,11.2,0,0,0-.111-1.9c-.1-.525-.152-.809-.152-.854,0-.174.14-.3.415-.38a2.518,2.518,0,0,1,.646-.121.746.746,0,0,1,.316.045.494.494,0,0,1,.164.14.942.942,0,0,1,.121.2,2.166,2.166,0,0,1,.088.263c.027.107.055.2.076.261a2.454,2.454,0,0,1,.066.285,2.511,2.511,0,0,0,.053.252,4.322,4.322,0,0,1,3.269-1.64,3.75,3.75,0,0,1,2.752.94,3.494,3.494,0,0,1,.952,2.6V108.1q0,.48-.876.48h-.086c-.581,0-.874-.16-.874-.48V100.7a2.081,2.081,0,0,0-.579-1.564,2.288,2.288,0,0,0-1.65-.556A3.431,3.431,0,0,0,69.4,100.1v8c0,.32-.293.48-.874.48h-.088q-.875,0-.874-.48" transform="translate(63.947 92.153)" fill="#7f8594"></path><path id="Path_11261" data-name="Path 11261" d="M74.653,106.943v-6.97H73.559c-.291,0-.435-.218-.435-.655v-.263c0-.437.144-.655.435-.655h1.094l.261-2.3c.029-.32.263-.48.7-.48h.216c.439,0,.657.16.657.48v2.3h1.835c.291,0,.437.218.437.655v.263c0,.437-.146.655-.437.655H76.488v6.8q0,1.618,1.18,1.617a3.264,3.264,0,0,0,.634-.055,2.675,2.675,0,0,1,.3-.055c.133,0,.242.135.33.406a2.231,2.231,0,0,1,.131.622q0,.655-1.6.655a3.114,3.114,0,0,1-1.956-.667,2.8,2.8,0,0,1-.862-2.35" transform="translate(69.484 90.864)" fill="#7f8594"></path><path id="Path_11262" data-name="Path 11262" d="M82.216,108.672a4.725,4.725,0,0,1-3.758-1.486,6.363,6.363,0,0,1-1.3-4.316,6.51,6.51,0,0,1,1.311-4.361,4.653,4.653,0,0,1,3.739-1.529,4.563,4.563,0,0,1,3.7,1.519,6.6,6.6,0,0,1,1.279,4.37,6.5,6.5,0,0,1-1.256,4.326,4.608,4.608,0,0,1-3.715,1.476m-2.393-2.611a2.681,2.681,0,0,0,2.338,1.038,2.743,2.743,0,0,0,2.36-1.038,5.469,5.469,0,0,0,.764-3.224,5.531,5.531,0,0,0-.764-3.235,2.731,2.731,0,0,0-2.36-1.049,2.677,2.677,0,0,0-2.338,1.039,7.411,7.411,0,0,0,0,6.469" transform="translate(73.317 92.153)" fill="#7f8594"></path><path id="Path_11263" data-name="Path 11263" d="M84.361,99.428q-.875,0-.874-.48V97.507q0-.483.874-.482h.372c.581,0,.874.16.874.482v1.441c0,.32-.293.48-.874.48Zm-.874,8.634v-1.443q0-.48.874-.48h.372c.581,0,.874.16.874.48v1.443c0,.32-.293.48-.874.48h-.372q-.875,0-.874-.48" transform="translate(79.332 92.196)" fill="#7f8594"></path><path id="Path_11264" data-name="Path 11264" d="M15.392,134.059v-13.2H11.2c-.293,0-.439-.216-.439-.655v-.347c0-.439.146-.657.439-.657H21.445c.291,0,.437.218.437.657v.347c0,.439-.146.655-.437.655H17.315v13.2q0,.48-.874.48h-.176q-.875,0-.874-.48" transform="translate(10.223 113.265)" fill="#7f8594"></path><path id="Path_11265" data-name="Path 11265" d="M18.534,120.865q-.875,0-.874-.48V119.1q0-.48.874-.48H18.8q.875,0,.874.48v1.289q0,.48-.874.48Zm-.786,13.747V124.057q0-.483.874-.482h.088q.875,0,.874.482v10.555q0,.48-.874.48h-.088q-.875,0-.874-.48" transform="translate(16.781 112.712)" fill="#7f8594"></path><path id="Path_11266" data-name="Path 11266" d="M20.734,132.238v-7.672a11.468,11.468,0,0,0-.109-1.9q-.152-.787-.152-.854,0-.26.415-.38a2.521,2.521,0,0,1,.644-.121.74.74,0,0,1,.316.045.48.48,0,0,1,.166.14,1.143,1.143,0,0,1,.121.2,2.568,2.568,0,0,1,.088.263c.027.107.053.2.076.261a2.43,2.43,0,0,1,.064.285,2.352,2.352,0,0,0,.055.252,4.279,4.279,0,0,1,3.321-1.64,3.02,3.02,0,0,1,3.126,1.816,4.47,4.47,0,0,1,3.473-1.816,4.018,4.018,0,0,1,2.229.634,2.549,2.549,0,0,1,.874,1.114,4.431,4.431,0,0,1,.328,1.792v7.584q0,.48-.874.48h-.088q-.875,0-.874-.48v-7.409a2.168,2.168,0,0,0-.536-1.552,2.043,2.043,0,0,0-1.562-.568,3.7,3.7,0,0,0-2.687,1.509,3.7,3.7,0,0,1,.021.458v7.561q0,.48-.874.48h-.088q-.875,0-.874-.48v-7.409a2.168,2.168,0,0,0-.536-1.552,1.827,1.827,0,0,0-1.4-.568,3.1,3.1,0,0,0-1.531.373,3.175,3.175,0,0,0-.973.764l-.328.372v8.019q0,.48-.874.48h-.088q-.875,0-.874-.48" transform="translate(19.454 115.086)" fill="#7f8594"></path><path id="Path_11267" data-name="Path 11267" d="M31.084,131.384a6.222,6.222,0,0,1-1.311-4.337,6.652,6.652,0,0,1,1.289-4.425,4.572,4.572,0,0,1,3.672-1.508q4.631,0,4.632,5.7a1.051,1.051,0,0,1-.263.546c-.174.232-.328.349-.458.349h-6.9a4.236,4.236,0,0,0,.938,2.666,3.194,3.194,0,0,0,2.428.852,5.507,5.507,0,0,0,2.73-.7,2.7,2.7,0,0,1,.458-.218c.144,0,.308.144.491.435a1.445,1.445,0,0,1,.273.657c0,.293-.4.6-1.192.917a7.251,7.251,0,0,1-2.742.482,5.247,5.247,0,0,1-4.043-1.422m6.338-5.244q0-3.452-2.623-3.454-2.82,0-3.058,3.454Z" transform="translate(28.291 115.086)" fill="#7f8594"></path><path id="Path_11268" data-name="Path 11268" d="M43.561,132.806A4.725,4.725,0,0,1,39.8,131.32,6.363,6.363,0,0,1,38.5,127a6.51,6.51,0,0,1,1.311-4.361,4.653,4.653,0,0,1,3.739-1.529,4.564,4.564,0,0,1,3.7,1.519A6.6,6.6,0,0,1,48.532,127a6.5,6.5,0,0,1-1.256,4.326,4.608,4.608,0,0,1-3.715,1.476m-2.393-2.611a2.681,2.681,0,0,0,2.338,1.038,2.743,2.743,0,0,0,2.36-1.038,5.469,5.469,0,0,0,.764-3.224,5.531,5.531,0,0,0-.764-3.235,2.731,2.731,0,0,0-2.36-1.049,2.678,2.678,0,0,0-2.338,1.039,7.411,7.411,0,0,0,0,6.469" transform="translate(36.586 115.086)" fill="#7f8594"></path><path id="Path_11269" data-name="Path 11269" d="M45.353,132.238v-7.672a11.2,11.2,0,0,0-.111-1.9c-.1-.525-.152-.809-.152-.854,0-.174.14-.3.415-.38a2.519,2.519,0,0,1,.646-.121.746.746,0,0,1,.316.045.493.493,0,0,1,.164.14.943.943,0,0,1,.121.2,2.165,2.165,0,0,1,.088.263c.027.107.055.2.076.261a2.359,2.359,0,0,1,.066.285,2.505,2.505,0,0,0,.053.252,4.322,4.322,0,0,1,3.269-1.64,3.75,3.75,0,0,1,2.752.94,3.494,3.494,0,0,1,.952,2.6v7.584q0,.48-.876.48h-.086c-.581,0-.874-.16-.874-.48v-7.409a2.081,2.081,0,0,0-.579-1.564,2.288,2.288,0,0,0-1.65-.556,3.431,3.431,0,0,0-2.754,1.529v8c0,.32-.293.48-.874.48h-.088q-.875,0-.874-.48" transform="translate(42.846 115.086)" fill="#7f8594"></path><path id="Path_11270" data-name="Path 11270" d="M54.144,134.612V119.1q0-.48.874-.48h.088q.875,0,.874.48V124.6a5.221,5.221,0,0,1,3.278-1.114,3.774,3.774,0,0,1,3.06,1.519,6.531,6.531,0,0,1,1.223,4.2v.2a7.016,7.016,0,0,1-1.147,4.152,3.588,3.588,0,0,1-3.07,1.617,4.757,4.757,0,0,1-3.5-1.64l-.351,1.289q-.108.263-.591.263H54.8q-.655,0-.655-.48m1.835-2.535a3.89,3.89,0,0,0,2.818,1.506q2.82,0,2.82-4.411a5.193,5.193,0,0,0-.731-2.994,2.485,2.485,0,0,0-2.132-1.073h-.133a4.015,4.015,0,0,0-2.643.985Z" transform="translate(51.449 112.712)" fill="#7f8594"></path><path id="Path_11271" data-name="Path 11271" d="M65.242,132.806a4.725,4.725,0,0,1-3.758-1.486,6.363,6.363,0,0,1-1.3-4.316,6.51,6.51,0,0,1,1.311-4.361,4.653,4.653,0,0,1,3.739-1.529,4.564,4.564,0,0,1,3.7,1.519A6.6,6.6,0,0,1,70.213,127a6.5,6.5,0,0,1-1.256,4.326,4.608,4.608,0,0,1-3.715,1.476m-2.393-2.611a2.681,2.681,0,0,0,2.338,1.038,2.743,2.743,0,0,0,2.36-1.038,5.469,5.469,0,0,0,.764-3.224,5.531,5.531,0,0,0-.764-3.235,2.731,2.731,0,0,0-2.36-1.049,2.678,2.678,0,0,0-2.338,1.039,7.411,7.411,0,0,0,0,6.469" transform="translate(57.187 115.086)" fill="#7f8594"></path><path id="Path_11272" data-name="Path 11272" d="M73.747,125.552v-1.03q0-1.834-2.4-1.835a6.343,6.343,0,0,0-2.908.677,3.089,3.089,0,0,1-.5.242c-.144,0-.308-.146-.49-.437a1.472,1.472,0,0,1-.273-.655c0-.306.427-.614,1.277-.93a8.96,8.96,0,0,1,3.07-.47,4.549,4.549,0,0,1,2.929.907,3.055,3.055,0,0,1,1.135,2.526v4.9a11.421,11.421,0,0,0,.111,1.9c.1.54.152.823.152.854q0,.26-.415.38a2.5,2.5,0,0,1-.644.121.793.793,0,0,1-.318-.043.463.463,0,0,1-.164-.154,1.091,1.091,0,0,1-.119-.207,1.559,1.559,0,0,1-.088-.273c-.029-.117-.057-.207-.076-.275a1.776,1.776,0,0,1-.066-.3,2.325,2.325,0,0,0-.055-.275,4.758,4.758,0,0,1-3.672,1.64,4.174,4.174,0,0,1-2.709-.829,3.1,3.1,0,0,1-1.028-2.559,2.984,2.984,0,0,1,1.194-2.588,5.668,5.668,0,0,1,2.676-1.049,33.016,33.016,0,0,1,3.388-.228m-5.289,3.865q0,1.793,1.857,1.792a4.051,4.051,0,0,0,1.847-.392,7.592,7.592,0,0,0,1.586-1.116v-2.578a12.361,12.361,0,0,0-3.52.3,7.934,7.934,0,0,0-.874.4,1.638,1.638,0,0,0-.9,1.593" transform="translate(63.181 115.085)" fill="#7f8594"></path><path id="Path_11273" data-name="Path 11273" d="M73.185,132.238v-7.672a11.411,11.411,0,0,0-.111-1.9c-.1-.525-.152-.809-.152-.854,0-.174.14-.3.415-.38a2.521,2.521,0,0,1,.644-.121.751.751,0,0,1,.318.045.493.493,0,0,1,.164.14.943.943,0,0,1,.121.2,2.57,2.57,0,0,1,.088.263c.027.107.055.2.076.261a2.085,2.085,0,0,1,.064.285,2.352,2.352,0,0,0,.055.252,3.2,3.2,0,0,1,2.535-1.64,1.56,1.56,0,0,1,.94.242.729.729,0,0,1,.33.61,2.506,2.506,0,0,1-.133.776c-.088.271-.191.4-.306.4a1.907,1.907,0,0,1-.427-.121,2.422,2.422,0,0,0-.807-.119,1.745,1.745,0,0,0-.973.339,2.97,2.97,0,0,0-.743.665l-.263.328v8q0,.48-.874.48h-.086q-.875,0-.874-.48" transform="translate(69.292 115.086)" fill="#7f8594"></path><path id="Path_11274" data-name="Path 11274" d="M84.445,133.539a4.76,4.76,0,0,1-3.5,1.64,3.581,3.581,0,0,1-3.07-1.617,7,7,0,0,1-1.147-4.152v-.2a6.535,6.535,0,0,1,1.223-4.2,3.776,3.776,0,0,1,3.06-1.519,5.225,5.225,0,0,1,3.278,1.114V119.1q0-.48.874-.48h.086q.875,0,.874.48v12.717a11.432,11.432,0,0,0,.111,1.9c.1.538.152.823.152.854,0,.172-.138.3-.415.38a2.5,2.5,0,0,1-.644.119.8.8,0,0,1-.318-.041.465.465,0,0,1-.164-.154,1.06,1.06,0,0,1-.121-.209,1.936,1.936,0,0,1-.088-.271c-.027-.117-.055-.209-.076-.275a2.326,2.326,0,0,1-.064-.3c-.023-.138-.041-.23-.055-.275m-5.792-4.368q0,4.414,2.841,4.413a3.883,3.883,0,0,0,2.8-1.508v-5.987a4.025,4.025,0,0,0-2.646-.985h-.131a2.482,2.482,0,0,0-2.13,1.073,5.178,5.178,0,0,0-.733,2.994" transform="translate(72.913 112.712)" fill="#7f8594"></path><path id="Path_11275" data-name="Path 11275" d="M83.925,123.562q-.875,0-.874-.48v-1.441q0-.483.874-.482H84.3c.581,0,.874.16.874.482v1.441c0,.32-.293.48-.874.48Zm-.874,8.634v-1.443q0-.48.874-.48H84.3c.581,0,.874.16.874.48V132.2c0,.32-.293.48-.874.48h-.372q-.875,0-.874-.48" transform="translate(78.917 115.128)" fill="#7f8594"></path><path id="Path_11276" data-name="Path 11276" d="M87.9,133.86V133.6c0-.435.146-.655.439-.655h3.8V121.162l-3.869.657c-.129,0-.236-.123-.316-.371a2.316,2.316,0,0,1-.119-.712.449.449,0,0,1,.392-.447l5.071-1.116a.862.862,0,0,1,.47.131.382.382,0,0,1,.207.328v13.308h3.233c.293,0,.439.22.439.655v.263q0,.655-.439.655h-8.87q-.439,0-.439-.655" transform="translate(83.464 113.243)"></path><path id="Path_11277" data-name="Path 11277" d="M104.368,133.539a4.76,4.76,0,0,1-3.5,1.64,3.581,3.581,0,0,1-3.07-1.617,7,7,0,0,1-1.147-4.152v-.2a6.535,6.535,0,0,1,1.223-4.2,3.776,3.776,0,0,1,3.06-1.519,5.225,5.225,0,0,1,3.278,1.114V119.1q0-.48.874-.48h.086q.875,0,.874.48v12.717a11.433,11.433,0,0,0,.111,1.9c.1.538.152.823.152.854,0,.172-.138.3-.415.38a2.5,2.5,0,0,1-.644.119.8.8,0,0,1-.318-.041.465.465,0,0,1-.164-.154,1.061,1.061,0,0,1-.121-.209,1.94,1.94,0,0,1-.088-.271c-.027-.117-.055-.209-.076-.275a2.329,2.329,0,0,1-.064-.3c-.023-.138-.041-.23-.055-.275m-5.792-4.368q0,4.414,2.841,4.413a3.883,3.883,0,0,0,2.8-1.508v-5.987a4.025,4.025,0,0,0-2.646-.985h-.131a2.482,2.482,0,0,0-2.13,1.073,5.178,5.178,0,0,0-.733,2.994" transform="translate(91.844 112.712)"></path><path id="Path_11278" data-name="Path 11278" d="M15.392,158.191v-13.2H11.2c-.293,0-.439-.216-.439-.655v-.347c0-.439.146-.657.439-.657H21.445c.291,0,.437.218.437.657v.347c0,.439-.146.655-.437.655H17.315v13.2q0,.483-.874.482h-.176q-.875,0-.874-.482" transform="translate(10.223 136.198)" fill="#7f8594"></path><path id="Path_11279" data-name="Path 11279" d="M18.534,145q-.875,0-.874-.48V143.23q0-.48.874-.48H18.8q.875,0,.874.48v1.289q0,.48-.874.48Zm-.786,13.745V148.191q0-.483.874-.482h.088q.875,0,.874.482v10.553q0,.483-.874.482h-.088q-.875,0-.874-.482" transform="translate(16.781 135.645)" fill="#7f8594"></path><path id="Path_11280" data-name="Path 11280" d="M20.734,156.37V148.7a11.467,11.467,0,0,0-.109-1.9q-.152-.787-.152-.854c0-.174.138-.3.415-.38a2.521,2.521,0,0,1,.644-.121.741.741,0,0,1,.316.045.48.48,0,0,1,.166.14,1.142,1.142,0,0,1,.121.2,2.569,2.569,0,0,1,.088.263c.027.107.053.2.076.261a2.43,2.43,0,0,1,.064.285,2.355,2.355,0,0,0,.055.252,4.279,4.279,0,0,1,3.321-1.64,3.02,3.02,0,0,1,3.126,1.816,4.47,4.47,0,0,1,3.473-1.816,4.018,4.018,0,0,1,2.229.634A2.549,2.549,0,0,1,35.441,147a4.431,4.431,0,0,1,.328,1.792v7.582q0,.483-.874.482h-.088q-.875,0-.874-.482v-7.407a2.168,2.168,0,0,0-.536-1.552,2.043,2.043,0,0,0-1.562-.568,3.7,3.7,0,0,0-2.687,1.509,3.7,3.7,0,0,1,.021.458v7.559q0,.483-.874.482h-.088q-.875,0-.874-.482v-7.407a2.168,2.168,0,0,0-.536-1.552,1.827,1.827,0,0,0-1.4-.568,3.1,3.1,0,0,0-1.531.373,3.2,3.2,0,0,0-.973.764l-.328.372v8.017q0,.483-.874.482h-.088q-.875,0-.874-.482" transform="translate(19.454 138.018)" fill="#7f8594"></path><path id="Path_11281" data-name="Path 11281" d="M31.084,155.518a6.222,6.222,0,0,1-1.311-4.337,6.652,6.652,0,0,1,1.289-4.425,4.572,4.572,0,0,1,3.672-1.508q4.631,0,4.632,5.7a1.051,1.051,0,0,1-.263.546c-.174.232-.328.349-.458.349h-6.9a4.235,4.235,0,0,0,.938,2.666,3.194,3.194,0,0,0,2.428.852,5.507,5.507,0,0,0,2.73-.7,2.7,2.7,0,0,1,.458-.218c.144,0,.308.144.491.435a1.445,1.445,0,0,1,.273.657c0,.293-.4.6-1.192.917a7.252,7.252,0,0,1-2.742.482,5.247,5.247,0,0,1-4.043-1.422m6.338-5.244q0-3.452-2.623-3.454-2.82,0-3.058,3.454Z" transform="translate(28.291 138.018)" fill="#7f8594"></path><path id="Path_11282" data-name="Path 11282" d="M43.561,156.94a4.725,4.725,0,0,1-3.758-1.486,6.363,6.363,0,0,1-1.3-4.316,6.51,6.51,0,0,1,1.311-4.361,4.653,4.653,0,0,1,3.739-1.529,4.563,4.563,0,0,1,3.7,1.519,6.6,6.6,0,0,1,1.279,4.37,6.5,6.5,0,0,1-1.256,4.326,4.608,4.608,0,0,1-3.715,1.476m-2.393-2.611a2.681,2.681,0,0,0,2.338,1.038,2.744,2.744,0,0,0,2.36-1.038,5.469,5.469,0,0,0,.764-3.224,5.531,5.531,0,0,0-.764-3.235,2.731,2.731,0,0,0-2.36-1.049,2.677,2.677,0,0,0-2.338,1.039,7.411,7.411,0,0,0,0,6.469" transform="translate(36.586 138.018)" fill="#7f8594"></path><path id="Path_11283" data-name="Path 11283" d="M45.353,156.37V148.7a11.2,11.2,0,0,0-.111-1.9c-.1-.525-.152-.809-.152-.854,0-.174.14-.3.415-.38a2.518,2.518,0,0,1,.646-.121.747.747,0,0,1,.316.045.493.493,0,0,1,.164.14.942.942,0,0,1,.121.2,2.166,2.166,0,0,1,.088.263c.027.107.055.2.076.261a2.36,2.36,0,0,1,.066.285,2.509,2.509,0,0,0,.053.252,4.323,4.323,0,0,1,3.269-1.64,3.758,3.758,0,0,1,2.752.938,3.5,3.5,0,0,1,.952,2.6v7.582q0,.483-.876.482h-.086c-.581,0-.874-.16-.874-.482v-7.407a2.081,2.081,0,0,0-.579-1.564,2.288,2.288,0,0,0-1.65-.556,3.431,3.431,0,0,0-2.754,1.529v8c0,.322-.293.482-.874.482h-.088q-.875,0-.874-.482" transform="translate(42.846 138.018)" fill="#7f8594"></path><path id="Path_11284" data-name="Path 11284" d="M53.774,151.039a7.941,7.941,0,0,1,.447-2.818,4.264,4.264,0,0,1,1.215-1.816,5.444,5.444,0,0,1,3.516-1.158,7.83,7.83,0,0,1,2.272.306c.671.2,1.006.437,1.006.7a1.592,1.592,0,0,1-.252.731c-.168.3-.316.449-.447.449a.279.279,0,0,1-.078-.021l-.086-.033a.486.486,0,0,1-.078-.033,5.82,5.82,0,0,0-2.381-.525q-3.168,0-3.169,4.175a5.611,5.611,0,0,0,.776,3.341,3.062,3.062,0,0,0,2.611,1.03,5.456,5.456,0,0,0,2.469-.57c.043-.014.092-.033.142-.055a.348.348,0,0,1,.1-.031c.146,0,.306.14.482.425a1.427,1.427,0,0,1,.263.688q0,.392-1.03.755a7.254,7.254,0,0,1-2.4.359,5.341,5.341,0,0,1-4.041-1.4,6.374,6.374,0,0,1-1.334-4.5" transform="translate(51.097 138.017)" fill="#7f8594"></path><path id="Path_11285" data-name="Path 11285" d="M64.3,156.94a4.725,4.725,0,0,1-3.758-1.486,6.363,6.363,0,0,1-1.3-4.316,6.51,6.51,0,0,1,1.311-4.361,4.653,4.653,0,0,1,3.739-1.529,4.563,4.563,0,0,1,3.7,1.519,6.6,6.6,0,0,1,1.279,4.37,6.5,6.5,0,0,1-1.256,4.326A4.608,4.608,0,0,1,64.3,156.94m-2.393-2.611a2.681,2.681,0,0,0,2.338,1.038,2.744,2.744,0,0,0,2.36-1.038,5.469,5.469,0,0,0,.764-3.224,5.531,5.531,0,0,0-.764-3.235,2.731,2.731,0,0,0-2.36-1.049,2.677,2.677,0,0,0-2.338,1.039,7.411,7.411,0,0,0,0,6.469" transform="translate(56.293 138.018)" fill="#7f8594"></path><path id="Path_11286" data-name="Path 11286" d="M65.92,156.3V143.23q0-.48.874-.48h.088q.875,0,.874.48v12.893q0,1.618,1.18,1.617a3.264,3.264,0,0,0,.634-.055,2.6,2.6,0,0,1,.306-.055c.131,0,.24.135.328.406a2.179,2.179,0,0,1,.133.622c0,.437-.534.655-1.6.655a3.114,3.114,0,0,1-1.956-.667,2.8,2.8,0,0,1-.862-2.35" transform="translate(62.639 135.645)" fill="#7f8594"></path><path id="Path_11287" data-name="Path 11287" d="M69.17,153.356v-7.582c0-.322.289-.482.872-.482h.088q.875,0,.874.482v7.407a2.078,2.078,0,0,0,.579,1.564,2.3,2.3,0,0,0,1.652.556,3.423,3.423,0,0,0,2.752-1.529v-8c0-.322.293-.482.874-.482h.088q.875,0,.876.482v7.758a11.473,11.473,0,0,0,.109,1.9c.1.54.152.823.152.854q0,.26-.415.38a2.518,2.518,0,0,1-.646.121.794.794,0,0,1-.316-.043.463.463,0,0,1-.164-.154,1.094,1.094,0,0,1-.119-.207,1.365,1.365,0,0,1-.088-.273c-.029-.115-.057-.207-.076-.275a1.733,1.733,0,0,1-.066-.3,2.184,2.184,0,0,0-.055-.273,4.323,4.323,0,0,1-3.269,1.638,3.753,3.753,0,0,1-2.752-.94,3.487,3.487,0,0,1-.95-2.6" transform="translate(65.727 138.06)" fill="#7f8594"></path><path id="Path_11288" data-name="Path 11288" d="M75.649,156.37V148.7a11.47,11.47,0,0,0-.109-1.9q-.152-.787-.152-.854c0-.174.138-.3.415-.38a2.521,2.521,0,0,1,.644-.121.741.741,0,0,1,.316.045.48.48,0,0,1,.166.14,1.141,1.141,0,0,1,.121.2,2.573,2.573,0,0,1,.088.263c.027.107.053.2.076.261a2.429,2.429,0,0,1,.064.285,2.35,2.35,0,0,0,.055.252,4.279,4.279,0,0,1,3.321-1.64,3.02,3.02,0,0,1,3.126,1.816,4.47,4.47,0,0,1,3.473-1.816,4.018,4.018,0,0,1,2.229.634A2.549,2.549,0,0,1,90.356,147a4.431,4.431,0,0,1,.328,1.792v7.582q0,.483-.874.482h-.088q-.875,0-.874-.482v-7.407a2.168,2.168,0,0,0-.536-1.552,2.043,2.043,0,0,0-1.562-.568,3.7,3.7,0,0,0-2.687,1.509,3.693,3.693,0,0,1,.021.458v7.559q0,.483-.874.482h-.088q-.875,0-.874-.482v-7.407a2.168,2.168,0,0,0-.536-1.552,1.827,1.827,0,0,0-1.4-.568,3.1,3.1,0,0,0-1.531.373,3.2,3.2,0,0,0-.973.764l-.328.372v8.017q0,.483-.874.482h-.088q-.875,0-.874-.482" transform="translate(71.636 138.018)" fill="#7f8594"></path><path id="Path_11289" data-name="Path 11289" d="M85.164,156.37V148.7a11.2,11.2,0,0,0-.111-1.9c-.1-.525-.152-.809-.152-.854,0-.174.14-.3.415-.38a2.518,2.518,0,0,1,.646-.121.746.746,0,0,1,.316.045.493.493,0,0,1,.164.14.941.941,0,0,1,.121.2,2.163,2.163,0,0,1,.088.263c.027.107.055.2.076.261a2.36,2.36,0,0,1,.066.285,2.509,2.509,0,0,0,.053.252,4.322,4.322,0,0,1,3.269-1.64,3.758,3.758,0,0,1,2.752.938,3.5,3.5,0,0,1,.952,2.6v7.582q0,.483-.876.482h-.086c-.581,0-.874-.16-.874-.482v-7.407A2.081,2.081,0,0,0,91.4,147.4a2.288,2.288,0,0,0-1.65-.556A3.431,3.431,0,0,0,87,148.372v8c0,.322-.293.482-.874.482h-.088q-.875,0-.874-.482" transform="translate(80.675 138.018)" fill="#7f8594"></path><path id="Path_11290" data-name="Path 11290" d="M91.759,147.7q-.875,0-.874-.48v-1.441q0-.483.874-.482h.372c.581,0,.874.16.874.482v1.441c0,.32-.293.48-.874.48Zm-.874,8.632v-1.441q0-.48.874-.48h.372c.581,0,.874.16.874.48v1.441c0,.322-.293.482-.874.482h-.372q-.875,0-.874-.482" transform="translate(86.361 138.061)" fill="#7f8594"></path><path id="Path_11291" data-name="Path 11291" d="M95.734,157.994v-.263c0-.435.146-.655.439-.655h3.8V145.3l-3.869.657c-.129,0-.236-.123-.316-.371a2.316,2.316,0,0,1-.119-.712.449.449,0,0,1,.392-.447l5.071-1.116a.861.861,0,0,1,.47.131.382.382,0,0,1,.207.328v13.308h3.233c.293,0,.439.22.439.655v.263q0,.655-.439.655h-8.87q-.439,0-.439-.655" transform="translate(90.908 136.176)"></path><path id="Path_11292" data-name="Path 11292" d="M112.2,157.673a4.76,4.76,0,0,1-3.5,1.64,3.586,3.586,0,0,1-3.07-1.617,7,7,0,0,1-1.147-4.152v-.2a6.531,6.531,0,0,1,1.223-4.2,3.771,3.771,0,0,1,3.06-1.519,5.225,5.225,0,0,1,3.278,1.114V143.23q0-.48.874-.48h.086q.875,0,.874.48v12.717a11.448,11.448,0,0,0,.111,1.9c.1.538.152.823.152.854q0,.257-.415.38a2.5,2.5,0,0,1-.644.119.8.8,0,0,1-.318-.041.465.465,0,0,1-.164-.154,1.062,1.062,0,0,1-.121-.209,2.026,2.026,0,0,1-.088-.271c-.027-.119-.055-.209-.076-.275a2.3,2.3,0,0,1-.064-.306,2.753,2.753,0,0,0-.055-.273m-5.792-4.37q0,4.417,2.841,4.413a3.88,3.88,0,0,0,2.8-1.506v-5.987a4.017,4.017,0,0,0-2.646-.987h-.131a2.486,2.486,0,0,0-2.13,1.073,5.186,5.186,0,0,0-.733,2.994" transform="translate(99.288 135.645)"></path><rect id="Rectangle_20060" data-name="Rectangle 20060" width="13.406" height="13.406" transform="translate(27.157 338.902)" fill="#3883ca"></rect><path id="Path_11293" data-name="Path 11293" d="M25.341,188.6V173.348a.632.632,0,0,1,.716-.716h4.267a6.038,6.038,0,0,1,3.969,1.145,3.922,3.922,0,0,1,.583,5.34,3.4,3.4,0,0,1-1.835,1.359v.094A3.433,3.433,0,0,1,34.09,181a6.177,6.177,0,0,1,1.131.774,3.539,3.539,0,0,1,.8,1.133,3.676,3.676,0,0,1,.357,1.621q0,4.789-6.219,4.792h-4.1a.632.632,0,0,1-.716-.716m2.1-8.774H30.2a3.464,3.464,0,0,0,2.36-.809,2.617,2.617,0,0,0,.928-2.061,2.237,2.237,0,0,0-.811-1.884,4.187,4.187,0,0,0-2.572-.632h-2.67Zm0,7.678h3.479a3.378,3.378,0,0,0,2.432-.823,2.914,2.914,0,0,0,.858-2.206,2.5,2.5,0,0,0-.942-2.11,4.454,4.454,0,0,0-2.754-.725H27.439Z" transform="translate(24.08 164.039)" fill="#7f8594"></path><path id="Path_11294" data-name="Path 11294" d="M39.917,179.561v-1.119q0-2-2.623-2a6.874,6.874,0,0,0-3.169.739,3.416,3.416,0,0,1-.55.261c-.156,0-.337-.158-.532-.476a1.549,1.549,0,0,1-.3-.714q0-.5,1.4-1.014a9.684,9.684,0,0,1,3.347-.513,4.964,4.964,0,0,1,3.194.989,3.324,3.324,0,0,1,1.238,2.754v5.34a12.588,12.588,0,0,0,.121,2.073c.111.589.17.9.17.932,0,.189-.154.33-.456.417a2.7,2.7,0,0,1-.7.131.858.858,0,0,1-.343-.049.474.474,0,0,1-.179-.166,1.207,1.207,0,0,1-.131-.228,1.688,1.688,0,0,1-.1-.3c-.033-.125-.06-.224-.086-.3a2.659,2.659,0,0,1-.07-.334,2.36,2.36,0,0,0-.059-.3,5.2,5.2,0,0,1-4.006,1.788,4.549,4.549,0,0,1-2.955-.907A3.375,3.375,0,0,1,32,183.782a3.262,3.262,0,0,1,1.3-2.824,6.191,6.191,0,0,1,2.923-1.145q1.618-.2,3.694-.252m-5.767,4.22q0,1.954,2.024,1.954a4.4,4.4,0,0,0,2.015-.429,8.146,8.146,0,0,0,1.728-1.215V181.28a13.335,13.335,0,0,0-3.838.333,8.207,8.207,0,0,0-.952.427,1.791,1.791,0,0,0-.977,1.742" transform="translate(30.408 166.026)" fill="#7f8594"></path><path id="Path_11295" data-name="Path 11295" d="M38.7,181.04a8.669,8.669,0,0,1,.488-3.076,4.643,4.643,0,0,1,1.324-1.979,5.943,5.943,0,0,1,3.836-1.262,8.457,8.457,0,0,1,2.481.333q1.1.333,1.1.761a1.741,1.741,0,0,1-.273.8c-.183.326-.347.488-.49.488a.238.238,0,0,1-.082-.021c-.041-.016-.072-.029-.1-.037a.554.554,0,0,1-.084-.035,6.338,6.338,0,0,0-2.6-.571q-3.458,0-3.456,4.554a6.13,6.13,0,0,0,.846,3.647,3.347,3.347,0,0,0,2.849,1.119,5.942,5.942,0,0,0,2.693-.62,1.466,1.466,0,0,0,.154-.06.448.448,0,0,1,.109-.035c.158,0,.333.156.523.464a1.57,1.57,0,0,1,.287.753c0,.285-.374.56-1.119.823a7.994,7.994,0,0,1-2.623.392,5.83,5.83,0,0,1-4.411-1.525Q38.7,184.423,38.7,181.04" transform="translate(36.775 166.026)" fill="#7f8594"></path><path id="Path_11296" data-name="Path 11296" d="M45.144,189.448V172.522c0-.349.316-.525.952-.525h.1c.636,0,.952.176.952.525v10.656h.1l4.556-5.435q.263-.333,1.262-.333h.1c.556,0,.833.1.833.308a.738.738,0,0,1-.236.478l-4.433,5.244,4.909,5.818a.661.661,0,0,1,.215.382q0,.333-1.047.334h-.1q-1.027,0-1.287-.312l-4.768-5.648h-.1v5.435c0,.349-.316.525-.952.525h-.1c-.636,0-.952-.176-.952-.525" transform="translate(42.897 163.436)" fill="#7f8594"></path><path id="Path_11297" data-name="Path 11297" d="M51.364,186.778V172.522q0-.524.954-.525h.1q.954,0,.954.525v14.065q0,1.764,1.287,1.765a3.357,3.357,0,0,0,.692-.06,3.274,3.274,0,0,1,.333-.06c.142,0,.263.148.357.443a2.384,2.384,0,0,1,.144.679q0,.714-1.742.716a3.4,3.4,0,0,1-2.134-.729,3.051,3.051,0,0,1-.942-2.561" transform="translate(48.807 163.436)" fill="#7f8594"></path><path id="Path_11298" data-name="Path 11298" d="M60.183,187.475a5.155,5.155,0,0,1-4.1-1.621,6.954,6.954,0,0,1-1.418-4.708,7.11,7.11,0,0,1,1.43-4.757,5.082,5.082,0,0,1,4.078-1.667,4.982,4.982,0,0,1,4.039,1.656,7.2,7.2,0,0,1,1.4,4.768,7.1,7.1,0,0,1-1.371,4.72,5.029,5.029,0,0,1-4.053,1.609m-2.611-2.849a2.922,2.922,0,0,0,2.553,1.133,2.986,2.986,0,0,0,2.574-1.133,7.844,7.844,0,0,0,0-7.042,2.974,2.974,0,0,0-2.574-1.145,2.926,2.926,0,0,0-2.553,1.131,8.094,8.094,0,0,0,0,7.056" transform="translate(51.943 166.026)" fill="#7f8594"></path><path id="Path_11299" data-name="Path 11299" d="M61.363,189.264q0-1.954,2.693-2.91a2.113,2.113,0,0,1-1.527-1.989q0-1.349,1.812-1.968a3.654,3.654,0,0,1-1.609-1.441,4.06,4.06,0,0,1-.56-2.11,3.877,3.877,0,0,1,1.25-2.957,4.965,4.965,0,0,1,3.518-1.166,8.038,8.038,0,0,1,1.574.142h4.1c.316,0,.476.238.476.714v.287c0,.478-.16.716-.476.716H70.944a3.445,3.445,0,0,1,.786,2.264,3.834,3.834,0,0,1-1.262,2.933,5,5,0,0,1-3.528,1.166H66.7q-2.048.1-2.05,1,0,.5.835.751a12.183,12.183,0,0,0,2.015.392q1.182.143,2.36.406a4.181,4.181,0,0,1,2.015,1.061,2.752,2.752,0,0,1,.835,2.085,3.142,3.142,0,0,1-1.586,2.683,7.569,7.569,0,0,1-4.267,1.061,9.42,9.42,0,0,1-4.09-.7,2.482,2.482,0,0,1-1.4-2.418m2.073-.216q0,1.624,3.575,1.621a5.3,5.3,0,0,0,2.586-.548,1.584,1.584,0,0,0,.991-1.357,1.021,1.021,0,0,0-.548-.954A10.119,10.119,0,0,0,66.8,187c-.413-.064-.739-.121-.977-.168a6.4,6.4,0,0,0-1.658.928,1.636,1.636,0,0,0-.725,1.287m.835-10.213q0,2.393,2.682,2.4t2.682-2.4q0-2.4-2.682-2.4t-2.682,2.4" transform="translate(58.309 166.026)" fill="#7f8594"></path><path id="Path_11300" data-name="Path 11300" d="M71.007,187.792a1.64,1.64,0,0,1,.322-.786c.215-.333.384-.5.513-.5a3.057,3.057,0,0,1,.595.3,8.312,8.312,0,0,0,1.478.608,7.048,7.048,0,0,0,2.18.31,3.033,3.033,0,0,0,2.1-.786,2.6,2.6,0,0,0,.87-2,2.471,2.471,0,0,0-.8-1.931,5.955,5.955,0,0,0-1.933-1.131q-1.132-.418-2.278-.893a4.853,4.853,0,0,1-1.942-1.48,4.318,4.318,0,0,1,.655-5.732,5.836,5.836,0,0,1,3.84-1.205,8.254,8.254,0,0,1,2.5.429c.889.289,1.336.628,1.336,1.028a1.694,1.694,0,0,1-.3.761c-.2.333-.351.5-.464.5a1.709,1.709,0,0,1-.5-.238,5.336,5.336,0,0,0-2.619-.669,3.436,3.436,0,0,0-2.243.681,2.416,2.416,0,0,0-.835,1.989,2.273,2.273,0,0,0,1.548,2.052q.67.31,1.5.607a17.461,17.461,0,0,1,1.658.692,8.3,8.3,0,0,1,1.5.919,3.859,3.859,0,0,1,1.108,1.43,4.838,4.838,0,0,1,.429,2.1,4.34,4.34,0,0,1-1.43,3.446,5.309,5.309,0,0,1-3.625,1.252,9.937,9.937,0,0,1-3.682-.6c-.993-.4-1.49-.78-1.49-1.145" transform="translate(67.473 163.97)" fill="#7f8594"></path><path id="Path_11301" data-name="Path 11301" d="M77.844,186.857v-8.368a12.314,12.314,0,0,0-.121-2.073c-.109-.571-.164-.883-.164-.93,0-.191.15-.33.452-.417a2.688,2.688,0,0,1,.7-.131.872.872,0,0,1,.345.047.531.531,0,0,1,.179.156,1,1,0,0,1,.131.214,2.089,2.089,0,0,1,.1.285c.033.121.059.215.084.289a2.278,2.278,0,0,1,.07.308,2.6,2.6,0,0,0,.06.273,4.671,4.671,0,0,1,3.623-1.786,3.291,3.291,0,0,1,3.409,1.978,4.887,4.887,0,0,1,3.789-1.978,4.377,4.377,0,0,1,2.432.692,2.777,2.777,0,0,1,.956,1.215,4.831,4.831,0,0,1,.357,1.954v8.273q0,.524-.954.525h-.1q-.954,0-.954-.525v-8.084a2.364,2.364,0,0,0-.585-1.691,2.223,2.223,0,0,0-1.7-.62,4.036,4.036,0,0,0-2.933,1.646,3.9,3.9,0,0,1,.023.5v8.248q0,.524-.954.525H86q-.957,0-.956-.525v-8.084a2.363,2.363,0,0,0-.583-1.691,2,2,0,0,0-1.527-.62,3.362,3.362,0,0,0-1.667.406,3.462,3.462,0,0,0-1.061.835l-.359.406v8.749q0,.524-.952.525h-.1q-.954,0-.954-.525" transform="translate(73.699 166.026)" fill="#7f8594"></path><path id="Path_11302" data-name="Path 11302" d="M95.545,179.561v-1.119q0-2-2.623-2a6.888,6.888,0,0,0-3.171.739,3.445,3.445,0,0,1-.548.261c-.158,0-.337-.158-.534-.476a1.571,1.571,0,0,1-.3-.714q0-.5,1.4-1.014a9.7,9.7,0,0,1,3.349-.513,4.967,4.967,0,0,1,3.194.989,3.329,3.329,0,0,1,1.238,2.754v5.34a12.589,12.589,0,0,0,.121,2.073c.111.589.168.9.168.932,0,.189-.152.33-.454.417a2.715,2.715,0,0,1-.7.131.869.869,0,0,1-.345-.049.484.484,0,0,1-.177-.166,1.344,1.344,0,0,1-.133-.228,2.1,2.1,0,0,1-.1-.3c-.031-.125-.059-.224-.084-.3a2.66,2.66,0,0,1-.07-.334,2.362,2.362,0,0,0-.059-.3,5.2,5.2,0,0,1-4.006,1.788,4.546,4.546,0,0,1-2.955-.907,3.369,3.369,0,0,1-1.123-2.789,3.262,3.262,0,0,1,1.3-2.824,6.192,6.192,0,0,1,2.921-1.145q1.621-.2,3.7-.252m-5.769,4.22q0,1.954,2.026,1.954a4.39,4.39,0,0,0,2.013-.429,8.154,8.154,0,0,0,1.73-1.215V181.28a13.325,13.325,0,0,0-3.838.333,8.225,8.225,0,0,0-.954.427,1.791,1.791,0,0,0-.977,1.742" transform="translate(83.267 166.026)" fill="#7f8594"></path><path id="Path_11303" data-name="Path 11303" d="M95.813,185.593v-7.6H94.622c-.318,0-.476-.238-.476-.718v-.285q0-.714.476-.714h1.192l.287-2.5c.031-.349.287-.525.763-.525H97.1q.717,0,.716.525v2.5h2q.477,0,.476.714v.285c0,.48-.158.718-.476.718h-2V185.4q0,1.764,1.287,1.765a3.383,3.383,0,0,0,.692-.06,3.278,3.278,0,0,1,.333-.06c.142,0,.263.148.357.443a2.384,2.384,0,0,1,.144.679q0,.714-1.742.716a3.4,3.4,0,0,1-2.134-.729,3.051,3.051,0,0,1-.942-2.561" transform="translate(89.46 164.621)" fill="#7f8594"></path><path id="Path_11304" data-name="Path 11304" d="M106.108,188.844v-14.4h-4.577q-.48,0-.48-.714v-.38q0-.717.48-.718h11.179q.477,0,.476.718v.38q0,.714-.476.714H108.2v14.4q0,.524-.952.525h-.191c-.636,0-.952-.176-.952-.525" transform="translate(96.021 164.039)" fill="#7f8594"></path><path id="Path_11305" data-name="Path 11305" d="M113.71,187.475a5.155,5.155,0,0,1-4.1-1.621,6.954,6.954,0,0,1-1.418-4.708,7.109,7.109,0,0,1,1.43-4.757,5.082,5.082,0,0,1,4.078-1.667,4.982,4.982,0,0,1,4.039,1.656,7.2,7.2,0,0,1,1.4,4.768,7.1,7.1,0,0,1-1.371,4.72,5.029,5.029,0,0,1-4.053,1.609m-2.611-2.849a2.922,2.922,0,0,0,2.553,1.133,2.986,2.986,0,0,0,2.574-1.133,7.844,7.844,0,0,0,0-7.042,2.974,2.974,0,0,0-2.574-1.145,2.926,2.926,0,0,0-2.553,1.131,8.094,8.094,0,0,0,0,7.056" transform="translate(102.806 166.026)" fill="#7f8594"></path><path id="Path_11306" data-name="Path 11306" d="M120.665,187.475a5.155,5.155,0,0,1-4.1-1.621,6.954,6.954,0,0,1-1.418-4.708,7.11,7.11,0,0,1,1.429-4.757,5.082,5.082,0,0,1,4.078-1.667,4.982,4.982,0,0,1,4.039,1.656,7.2,7.2,0,0,1,1.4,4.768,7.1,7.1,0,0,1-1.371,4.72,5.029,5.029,0,0,1-4.053,1.609m-2.611-2.849a2.922,2.922,0,0,0,2.553,1.133,2.986,2.986,0,0,0,2.574-1.133,7.844,7.844,0,0,0,0-7.042,2.974,2.974,0,0,0-2.574-1.145,2.926,2.926,0,0,0-2.553,1.131,8.094,8.094,0,0,0,0,7.056" transform="translate(109.415 166.026)" fill="#7f8594"></path><path id="Path_11307" data-name="Path 11307" d="M122.431,186.778V172.522q0-.524.954-.525h.1q.954,0,.954.525v14.065q0,1.764,1.287,1.765a3.357,3.357,0,0,0,.692-.06,3.276,3.276,0,0,1,.333-.06c.142,0,.263.148.357.443a2.385,2.385,0,0,1,.144.679q0,.714-1.742.716a3.4,3.4,0,0,1-2.134-.729,3.051,3.051,0,0,1-.942-2.561" transform="translate(116.337 163.436)" fill="#7f8594"></path><path id="Path_11308" data-name="Path 11308" d="M125.486,186.046a1.585,1.585,0,0,1,.3-.714c.2-.318.378-.478.536-.478a3.374,3.374,0,0,1,.38.226,4.9,4.9,0,0,0,1.026.452,5.057,5.057,0,0,0,1.611.228,2.252,2.252,0,0,0,1.548-.538,1.834,1.834,0,0,0,.606-1.453,1.89,1.89,0,0,0-.534-1.43,5.419,5.419,0,0,0-2.136-.967,5.425,5.425,0,0,1-2.313-1.155,2.881,2.881,0,0,1-.714-2.136,3.072,3.072,0,0,1,1.1-2.4,4.172,4.172,0,0,1,2.859-.963,7.009,7.009,0,0,1,2.171.31q.951.31.952.69a1.755,1.755,0,0,1-.275.8c-.181.326-.343.488-.488.488a2.306,2.306,0,0,1-.31-.142,3.828,3.828,0,0,0-1.822-.429,2.6,2.6,0,0,0-1.576.417,1.3,1.3,0,0,0-.56,1.084,1.348,1.348,0,0,0,.417,1.049,3.8,3.8,0,0,0,1.418.69,7.433,7.433,0,0,1,3.04,1.515,3.439,3.439,0,0,1,.8,2.479,3.531,3.531,0,0,1-1.178,2.73,4.066,4.066,0,0,1-2.828,1.071,7.469,7.469,0,0,1-2.836-.488q-1.191-.489-1.192-.942" transform="translate(119.24 166.026)" fill="#7f8594"></path><path id="Path_11309" data-name="Path 11309" d="M134.054,179.189q-.477,0-.476-.714v-.24q0-.714.476-.714h4.507q.477,0,.476.714v.24q0,.714-.476.714Z" transform="translate(126.929 168.686)" fill="#7f8594"></path><path id="Path_11310" data-name="Path 11310" d="M141.07,188.6V173.349a.632.632,0,0,1,.716-.716h8.32q.477,0,.476.716v.38q0,.714-.476.714h-6.937v5.435h6.223c.316,0,.476.238.476.718v.38c0,.476-.16.716-.476.716h-6.223v5.816h6.962c.316,0,.476.24.476.716v.38c0,.478-.16.716-.476.716h-8.345a.632.632,0,0,1-.716-.716" transform="translate(134.048 164.04)" fill="#7f8594"></path><path id="Path_11311" data-name="Path 11311" d="M149.751,191.766q0,.527-.954.527h-.1q-.954,0-.954-.527V178.489a12.469,12.469,0,0,0-.117-2.075c-.113-.571-.168-.881-.168-.928,0-.191.15-.33.452-.417a2.7,2.7,0,0,1,.7-.131.883.883,0,0,1,.347.047.57.57,0,0,1,.179.156,1.044,1.044,0,0,1,.131.213,2.124,2.124,0,0,1,.1.287q.047.178.082.287a2.072,2.072,0,0,1,.072.31,2.176,2.176,0,0,0,.06.273,5.192,5.192,0,0,1,3.815-1.786,3.907,3.907,0,0,1,3.349,1.765A7.635,7.635,0,0,1,158,181.016v.214a7.132,7.132,0,0,1-1.336,4.589,4.123,4.123,0,0,1-3.339,1.656,5.7,5.7,0,0,1-3.575-1.215Zm2.884-6.053h.144a2.717,2.717,0,0,0,2.325-1.168,5.876,5.876,0,0,0,.8-3.36,6.676,6.676,0,0,0-.762-3.471,2.54,2.54,0,0,0-2.325-1.25,4.238,4.238,0,0,0-3.064,1.646v6.531a4.4,4.4,0,0,0,2.884,1.073" transform="translate(140.123 166.026)" fill="#7f8594"></path><path id="Path_11312" data-name="Path 11312" d="M155.58,174.454q-.954,0-.954-.527v-1.406q0-.524.954-.525h.287q.954,0,.954.525v1.406q0,.527-.954.527Zm-.858,14.993V177.933q0-.524.954-.525h.1q.951,0,.952.525v11.514q0,.524-.952.525h-.1q-.954,0-.954-.525" transform="translate(146.93 163.436)" fill="#7f8594"></path><path id="Path_11313" data-name="Path 11313" d="M157.438,181.04a8.626,8.626,0,0,1,.488-3.076,4.622,4.622,0,0,1,1.322-1.979,5.943,5.943,0,0,1,3.836-1.262,8.457,8.457,0,0,1,2.481.333q1.1.333,1.1.761a1.741,1.741,0,0,1-.273.8c-.183.326-.347.488-.49.488a.238.238,0,0,1-.082-.021c-.041-.016-.072-.029-.1-.037a.556.556,0,0,1-.084-.035,6.338,6.338,0,0,0-2.6-.571q-3.458,0-3.456,4.554a6.13,6.13,0,0,0,.846,3.647,3.347,3.347,0,0,0,2.849,1.119,5.942,5.942,0,0,0,2.693-.62,1.465,1.465,0,0,0,.154-.06.448.448,0,0,1,.109-.035c.158,0,.333.156.523.464a1.57,1.57,0,0,1,.287.753c0,.285-.374.56-1.119.823a7.994,7.994,0,0,1-2.623.392,5.83,5.83,0,0,1-4.411-1.525q-1.454-1.527-1.451-4.911" transform="translate(149.602 166.026)" fill="#7f8594"></path><path id="Path_11314" data-name="Path 11314" d="M166.223,188.627v-.285q0-.717.478-.716h4.148v-12.85l-4.22.718c-.142,0-.259-.136-.345-.406a2.512,2.512,0,0,1-.131-.776.494.494,0,0,1,.429-.489l5.531-1.215a.95.95,0,0,1,.511.142.421.421,0,0,1,.226.359v14.517h3.528q.477,0,.478.716v.285q0,.717-.478.716H166.7q-.477,0-.478-.716" transform="translate(157.883 164.017)" fill="#7f8594"></path><path id="Path_11315" data-name="Path 11315" d="M173.78,177.393c-.636,0-.954-.174-.954-.525V175.3q0-.524.954-.525h.406c.634,0,.956.176.956.525v1.572c0,.351-.322.525-.956.525Zm-.954,9.418v-1.574q0-.524.954-.525h.406c.634,0,.956.176.956.525v1.574c0,.349-.322.525-.956.525h-.406q-.954,0-.954-.525" transform="translate(164.224 166.073)" fill="#7f8594"></path><path id="Path_11316" data-name="Path 11316" d="M178.742,188.627V173.135q0-.527.954-.527h.191q.954,0,.954.527v14.4H187.4c.32,0,.478.24.478.716v.38c0,.478-.158.716-.478.716h-7.937a.632.632,0,0,1-.716-.716" transform="translate(169.845 164.017)" fill="#7f8594"></path><path id="Path_11317" data-name="Path 11317" d="M189.664,187.475a5.155,5.155,0,0,1-4.1-1.621,6.954,6.954,0,0,1-1.418-4.708,7.109,7.109,0,0,1,1.43-4.757,5.082,5.082,0,0,1,4.078-1.667,4.982,4.982,0,0,1,4.039,1.656,7.2,7.2,0,0,1,1.4,4.768,7.1,7.1,0,0,1-1.371,4.72,5.029,5.029,0,0,1-4.053,1.609m-2.611-2.849a2.922,2.922,0,0,0,2.553,1.133,2.986,2.986,0,0,0,2.574-1.133,7.844,7.844,0,0,0,0-7.042,2.974,2.974,0,0,0-2.574-1.145,2.926,2.926,0,0,0-2.553,1.131,8.094,8.094,0,0,0,0,7.056" transform="translate(174.979 166.026)" fill="#7f8594"></path><path id="Path_11318" data-name="Path 11318" d="M190.844,189.264q0-1.954,2.693-2.91a2.113,2.113,0,0,1-1.527-1.989q0-1.349,1.812-1.968a3.654,3.654,0,0,1-1.609-1.441,4.06,4.06,0,0,1-.56-2.11,3.877,3.877,0,0,1,1.25-2.957,4.965,4.965,0,0,1,3.518-1.166,8.038,8.038,0,0,1,1.574.142h4.1c.316,0,.476.238.476.714v.287c0,.478-.16.716-.476.716h-1.669a3.445,3.445,0,0,1,.786,2.264,3.834,3.834,0,0,1-1.262,2.933,5,5,0,0,1-3.528,1.166h-.24q-2.048.1-2.05,1,0,.5.835.751a12.185,12.185,0,0,0,2.015.392q1.182.143,2.36.406a4.18,4.18,0,0,1,2.015,1.061,2.751,2.751,0,0,1,.835,2.085,3.142,3.142,0,0,1-1.586,2.683,7.569,7.569,0,0,1-4.267,1.061,9.42,9.42,0,0,1-4.09-.7,2.482,2.482,0,0,1-1.4-2.418m2.073-.216q0,1.624,3.575,1.621a5.3,5.3,0,0,0,2.586-.548,1.584,1.584,0,0,0,.991-1.357,1.021,1.021,0,0,0-.548-.954,10.119,10.119,0,0,0-3.243-.809c-.413-.064-.739-.121-.977-.168a6.4,6.4,0,0,0-1.658.928,1.636,1.636,0,0,0-.725,1.287m.835-10.213q0,2.393,2.682,2.4t2.682-2.4q0-2.4-2.682-2.4t-2.682,2.4" transform="translate(181.345 166.026)" fill="#7f8594"></path><path id="Path_11319" data-name="Path 11319" d="M199.119,174.454q-.954,0-.954-.527v-1.406q0-.524.954-.525h.287q.954,0,.954.525v1.406q0,.527-.954.527Zm-.858,14.993V177.933q0-.524.954-.525h.1q.951,0,.952.525v11.514q0,.524-.952.525h-.1q-.954,0-.954-.525" transform="translate(188.302 163.436)" fill="#7f8594"></path><path id="Path_11320" data-name="Path 11320" d="M200.964,181.967v-1.574q0-.524.954-.525h.406c.634,0,.956.176.956.525v1.574c0,.349-.322.525-.956.525h-.406q-.954,0-.954-.525" transform="translate(190.961 170.916)" fill="#7f8594"></path><path id="Path_11321" data-name="Path 11321" d="M203.384,181.967v-1.574q0-.524.954-.525h.406c.634,0,.956.176.956.525v1.574c0,.349-.322.525-.956.525h-.406q-.954,0-.954-.525" transform="translate(193.261 170.916)" fill="#7f8594"></path><path id="Path_11322" data-name="Path 11322" d="M205.8,181.967v-1.574q0-.524.954-.525h.406c.634,0,.956.176.956.525v1.574c0,.349-.322.525-.956.525h-.406q-.954,0-.954-.525" transform="translate(195.56 170.916)" fill="#7f8594"></path><path id="Path_11323" data-name="Path 11323" d="M91.615,97.9H28.642A18.107,18.107,0,0,1,10.534,79.795V79.12A18.108,18.108,0,0,1,28.642,61.012H91.615A18.106,18.106,0,0,1,109.721,79.12v.675A18.106,18.106,0,0,1,91.615,97.9" transform="translate(10.01 57.975)" fill="#57bad0"></path><path id="Path_11324" data-name="Path 11324" d="M20.258,66.642c0-.3.415-.449,1.246-.449h.671c.683,0,1.082.2,1.207.591l2.98,9.554h.082l3.062-9.554c.137-.4.538-.591,1.2-.591h.634c.817,0,1.225.148,1.225.449a1.224,1.224,0,0,1-.062.367L28.1,80.135c-.1.285-.478.429-1.143.429H25.892c-.667,0-1.047-.144-1.143-.429L20.338,67.008a1.929,1.929,0,0,1-.08-.367" transform="translate(19.25 62.898)" fill="#fff"></path><path id="Path_11325" data-name="Path 11325" d="M27.387,79.687V67.03a.721.721,0,0,1,.815-.817h7.473c.408,0,.61.341.61,1.02v.632c0,.683-.2,1.022-.61,1.022H30.531v2.96h4.593c.41,0,.612.341.612,1.022V73.5c0,.683-.2,1.022-.612,1.022H30.531V77.83H35.7q.611,0,.61,1.02v.634c0,.679-.2,1.02-.61,1.02H28.2a.722.722,0,0,1-.815-.817" transform="translate(26.024 62.917)" fill="#fff"></path><path id="Path_11326" data-name="Path 11326" d="M33.1,79.891V67.031a.721.721,0,0,1,.815-.817H37.9q5.081,0,5.082,3.836a3.2,3.2,0,0,1-.644,1.993A3.775,3.775,0,0,1,40.594,73.3v.082a1.931,1.931,0,0,1,.8.685,5.252,5.252,0,0,1,.673,1.194l1.8,4.491a1.253,1.253,0,0,1,.1.388c0,.273-.41.408-1.227.408H41.9q-1.021,0-1.184-.427L39.1,76.137a2.525,2.525,0,0,0-.745-.95,2.371,2.371,0,0,0-1.316-.275h-.8v4.979c0,.437-.41.653-1.227.653h-.692c-.817,0-1.225-.216-1.225-.653m3.144-7.7h1.939a1.459,1.459,0,0,0,1.1-.511,1.758,1.758,0,0,0,.468-1.234,1.462,1.462,0,0,0-.46-1.143,1.791,1.791,0,0,0-1.254-.419h-1.8Z" transform="translate(31.455 62.918)" fill="#fff"></path><path id="Path_11327" data-name="Path 11327" d="M39.425,79.921V66.857q0-.676,1.227-.675h.714q1.226,0,1.225.675V79.921c0,.449-.408.675-1.225.675h-.714c-.817,0-1.227-.226-1.227-.675" transform="translate(37.463 62.888)" fill="#fff"></path><path id="Path_11328" data-name="Path 11328" d="M42.44,79.892V67.03a.722.722,0,0,1,.815-.817h6.82q.611,0,.612,1.022v.632c0,.683-.2,1.02-.612,1.02H45.584v2.984h4.349q.611,0,.61,1.02v.632q0,1.021-.61,1.022H45.584v5.348c0,.437-.41.653-1.227.653h-.692c-.817,0-1.225-.216-1.225-.653" transform="translate(40.328 62.917)" fill="#fff"></path><path id="Path_11329" data-name="Path 11329" d="M51.187,79.911V73.664l-4.062-6.553a1.238,1.238,0,0,1-.2-.511c0-.273.435-.408,1.307-.408h.88q1,0,1.225.386l2.49,4.369,2.51-4.369q.225-.386,1.225-.386h.735c.858,0,1.287.135,1.287.408a1.063,1.063,0,0,1-.185.511l-4.062,6.613v6.186c0,.437-.408.653-1.225.653h-.694c-.815,0-1.225-.216-1.225-.653" transform="translate(44.585 62.898)" fill="#fff"></path><path id="Path_11330" data-name="Path 11330" d="M162.479,124.092H104.364a15.083,15.083,0,0,1-15.083-15.083v-1.443a15.083,15.083,0,0,1,15.083-15.085h58.115a15.083,15.083,0,0,1,15.083,15.085v1.443a15.083,15.083,0,0,1-15.083,15.083" transform="translate(84.837 87.878)" fill="#fd9902"></path><path id="Path_11331" data-name="Path 11331" d="M96.88,110.255V97.176a.542.542,0,0,1,.614-.612h4.127a6.242,6.242,0,0,1,4.587,1.706q1.726,1.705,1.728,5.457t-1.728,5.445a6.26,6.26,0,0,1-4.587,1.7H97.494a.543.543,0,0,1-.614-.614m1.8-.938h2.8a4.363,4.363,0,0,0,3.331-1.35,7.754,7.754,0,0,0,0-8.491,4.341,4.341,0,0,0-3.331-1.357h-2.8Z" transform="translate(92.058 91.758)" fill="#fff"></path><path id="Path_11332" data-name="Path 11332" d="M96.88,110.255V97.176a.542.542,0,0,1,.614-.612h4.127a6.242,6.242,0,0,1,4.587,1.706q1.726,1.705,1.728,5.457t-1.728,5.445a6.26,6.26,0,0,1-4.587,1.7H97.494A.543.543,0,0,1,96.88,110.255Zm1.8-.938h2.8a4.363,4.363,0,0,0,3.331-1.35,7.754,7.754,0,0,0,0-8.491,4.341,4.341,0,0,0-3.331-1.357h-2.8Z" transform="translate(92.058 91.758)" fill="none" stroke="#fff" stroke-miterlimit="10" stroke-width="0.5"></path><path id="Path_11333" data-name="Path 11333" d="M104.949,107.961a5.816,5.816,0,0,1-1.227-4.056,6.211,6.211,0,0,1,1.205-4.138,4.27,4.27,0,0,1,3.434-1.41q4.329,0,4.333,5.332a.985.985,0,0,1-.246.513c-.164.216-.308.326-.429.326h-6.459a3.958,3.958,0,0,0,.88,2.492,2.979,2.979,0,0,0,2.268.8,5.109,5.109,0,0,0,2.553-.655,2.634,2.634,0,0,1,.431-.2c.135,0,.289.137.458.41a1.343,1.343,0,0,1,.255.612q0,.41-1.112.858a6.805,6.805,0,0,1-2.566.449,4.905,4.905,0,0,1-3.78-1.326m5.927-4.9q0-3.23-2.453-3.23-2.636,0-2.861,3.23Z" transform="translate(98.559 93.46)" fill="#fff"></path><path id="Path_11334" data-name="Path 11334" d="M104.949,107.961a5.816,5.816,0,0,1-1.227-4.056,6.211,6.211,0,0,1,1.205-4.138,4.27,4.27,0,0,1,3.434-1.41q4.329,0,4.333,5.332a.985.985,0,0,1-.246.513c-.164.216-.308.326-.429.326h-6.459a3.958,3.958,0,0,0,.88,2.492,2.979,2.979,0,0,0,2.268.8,5.109,5.109,0,0,0,2.553-.655,2.634,2.634,0,0,1,.431-.2c.135,0,.289.137.458.41a1.343,1.343,0,0,1,.255.612q0,.41-1.112.858a6.805,6.805,0,0,1-2.566.449A4.905,4.905,0,0,1,104.949,107.961Zm5.927-4.9q0-3.23-2.453-3.23-2.636,0-2.861,3.23Z" transform="translate(98.559 93.46)" fill="none" stroke="#fff" stroke-miterlimit="10" stroke-width="0.5"></path><path id="Path_11335" data-name="Path 11335" d="M109.16,108.063a1.335,1.335,0,0,1,.255-.612c.17-.273.324-.41.458-.41a2.768,2.768,0,0,1,.328.193,4.168,4.168,0,0,0,.878.388,4.288,4.288,0,0,0,1.379.2,1.939,1.939,0,0,0,1.33-.46,1.58,1.58,0,0,0,.521-1.246,1.613,1.613,0,0,0-.46-1.227,4.619,4.619,0,0,0-1.827-.827,4.607,4.607,0,0,1-1.983-.993,2.454,2.454,0,0,1-.612-1.827,2.633,2.633,0,0,1,.94-2.056,3.579,3.579,0,0,1,2.451-.827,6.011,6.011,0,0,1,1.861.265q.816.266.817.595a1.485,1.485,0,0,1-.236.683c-.156.281-.294.419-.419.419a2.2,2.2,0,0,1-.265-.121,3.282,3.282,0,0,0-1.562-.371,2.226,2.226,0,0,0-1.35.359,1.108,1.108,0,0,0-.48.93,1.153,1.153,0,0,0,.359.9,3.283,3.283,0,0,0,1.215.593,6.381,6.381,0,0,1,2.605,1.3,2.945,2.945,0,0,1,.685,2.126,3.03,3.03,0,0,1-1.012,2.34,3.479,3.479,0,0,1-2.42.919,6.374,6.374,0,0,1-2.434-.419q-1.021-.415-1.02-.805" transform="translate(103.727 93.459)" fill="#fff"></path><path id="Path_11336" data-name="Path 11336" d="M109.16,108.063a1.335,1.335,0,0,1,.255-.612c.17-.273.324-.41.458-.41a2.768,2.768,0,0,1,.328.193,4.168,4.168,0,0,0,.878.388,4.288,4.288,0,0,0,1.379.2,1.939,1.939,0,0,0,1.33-.46,1.58,1.58,0,0,0,.521-1.246,1.613,1.613,0,0,0-.46-1.227,4.619,4.619,0,0,0-1.827-.827,4.607,4.607,0,0,1-1.983-.993,2.454,2.454,0,0,1-.612-1.827,2.633,2.633,0,0,1,.94-2.056,3.579,3.579,0,0,1,2.451-.827,6.011,6.011,0,0,1,1.861.265q.816.266.817.595a1.485,1.485,0,0,1-.236.683c-.156.281-.294.419-.419.419a2.2,2.2,0,0,1-.265-.121,3.282,3.282,0,0,0-1.562-.371,2.226,2.226,0,0,0-1.35.359,1.108,1.108,0,0,0-.48.93,1.153,1.153,0,0,0,.359.9,3.283,3.283,0,0,0,1.215.593,6.381,6.381,0,0,1,2.605,1.3,2.945,2.945,0,0,1,.685,2.126,3.03,3.03,0,0,1-1.012,2.34,3.479,3.479,0,0,1-2.42.919,6.374,6.374,0,0,1-2.434-.419Q109.159,108.453,109.16,108.063Z" transform="translate(103.727 93.459)" fill="none" stroke="#fff" stroke-miterlimit="10" stroke-width="0.5"></path><path id="Path_11337" data-name="Path 11337" d="M114.849,98.123c-.544,0-.817-.148-.817-.449V96.469q0-.45.817-.45h.244c.544,0,.819.15.819.45v1.205c0,.3-.275.449-.819.449Zm-.737,12.854v-9.87q0-.448.819-.449h.082q.816,0,.817.449v9.87c0,.3-.273.449-.817.449h-.082c-.546,0-.819-.148-.819-.449" transform="translate(108.356 91.24)" fill="#fff"></path><path id="Path_11338" data-name="Path 11338" d="M114.849,98.123c-.544,0-.817-.148-.817-.449V96.469q0-.45.817-.45h.244c.544,0,.819.15.819.45v1.205c0,.3-.275.449-.819.449Zm-.737,12.854v-9.87q0-.448.819-.449h.082q.816,0,.817.449v9.87c0,.3-.273.449-.817.449h-.082C114.385,111.426,114.112,111.278,114.112,110.977Z" transform="translate(108.356 91.24)" fill="none" stroke="#fff" stroke-miterlimit="10" stroke-width="0.5"></path><path id="Path_11339" data-name="Path 11339" d="M116.918,108.757v-7.173a10.608,10.608,0,0,0-.1-1.777c-.1-.491-.142-.757-.142-.8,0-.164.129-.283.388-.359a2.373,2.373,0,0,1,.6-.111.769.769,0,0,1,.3.041.422.422,0,0,1,.152.135.838.838,0,0,1,.113.181,1.558,1.558,0,0,1,.082.246c.029.1.051.185.072.246a1.781,1.781,0,0,1,.06.265,2.053,2.053,0,0,0,.053.236,4.036,4.036,0,0,1,3.054-1.533,3.511,3.511,0,0,1,2.574.878,3.269,3.269,0,0,1,.889,2.432v7.091c0,.3-.271.449-.817.449h-.082c-.544,0-.815-.148-.815-.449v-6.927a1.927,1.927,0,0,0-.544-1.461,2.134,2.134,0,0,0-1.543-.521,3.206,3.206,0,0,0-2.574,1.43v7.479c0,.3-.273.449-.817.449h-.082c-.544,0-.817-.148-.817-.449" transform="translate(110.865 93.46)" fill="#fff"></path><path id="Path_11340" data-name="Path 11340" d="M116.918,108.757v-7.173a10.608,10.608,0,0,0-.1-1.777c-.1-.491-.142-.757-.142-.8,0-.164.129-.283.388-.359a2.373,2.373,0,0,1,.6-.111.769.769,0,0,1,.3.041.422.422,0,0,1,.152.135.838.838,0,0,1,.113.181,1.558,1.558,0,0,1,.082.246c.029.1.051.185.072.246a1.781,1.781,0,0,1,.06.265,2.053,2.053,0,0,0,.053.236,4.036,4.036,0,0,1,3.054-1.533,3.511,3.511,0,0,1,2.574.878,3.269,3.269,0,0,1,.889,2.432v7.091c0,.3-.271.449-.817.449h-.082c-.544,0-.815-.148-.815-.449v-6.927a1.927,1.927,0,0,0-.544-1.461,2.134,2.134,0,0,0-1.543-.521,3.206,3.206,0,0,0-2.574,1.43v7.479c0,.3-.273.449-.817.449h-.082C117.191,109.205,116.918,109.057,116.918,108.757Z" transform="translate(110.865 93.46)" fill="none" stroke="#fff" stroke-miterlimit="10" stroke-width="0.5"></path><path id="Path_11341" data-name="Path 11341" d="M122.089,110.821q0-1.676,2.307-2.492a1.814,1.814,0,0,1-1.307-1.706q0-1.156,1.552-1.687a3.126,3.126,0,0,1-1.379-1.234,3.479,3.479,0,0,1-.48-1.81,3.313,3.313,0,0,1,1.073-2.533,4.245,4.245,0,0,1,3.015-1,6.876,6.876,0,0,1,1.348.123h3.514c.273,0,.41.2.41.612v.246c0,.408-.137.614-.41.614H130.3a2.956,2.956,0,0,1,.673,1.94,3.278,3.278,0,0,1-1.08,2.514,4.3,4.3,0,0,1-3.025,1h-.207q-1.755.079-1.755.856c0,.289.238.5.714.644a10.552,10.552,0,0,0,1.728.337q1.012.123,2.022.349a3.571,3.571,0,0,1,1.728.909,2.366,2.366,0,0,1,.714,1.788,2.689,2.689,0,0,1-1.357,2.3,6.492,6.492,0,0,1-3.659.911,8.029,8.029,0,0,1-3.5-.6,2.128,2.128,0,0,1-1.205-2.073m1.777-.183q0,1.39,3.066,1.389a4.552,4.552,0,0,0,2.217-.47,1.353,1.353,0,0,0,.846-1.164.877.877,0,0,0-.468-.817,8.7,8.7,0,0,0-2.781-.694c-.353-.055-.632-.1-.837-.142a5.345,5.345,0,0,0-1.42.8,1.4,1.4,0,0,0-.624,1.1m.716-8.757q0,2.054,2.3,2.054t2.3-2.054q0-2.054-2.3-2.056t-2.3,2.056" transform="translate(116.012 93.459)" fill="#fff"></path><path id="Path_11342" data-name="Path 11342" d="M122.089,110.821q0-1.676,2.307-2.492a1.814,1.814,0,0,1-1.307-1.706q0-1.156,1.552-1.687a3.126,3.126,0,0,1-1.379-1.234,3.479,3.479,0,0,1-.48-1.81,3.313,3.313,0,0,1,1.073-2.533,4.245,4.245,0,0,1,3.015-1,6.876,6.876,0,0,1,1.348.123h3.514c.273,0,.41.2.41.612v.246c0,.408-.137.614-.41.614H130.3a2.956,2.956,0,0,1,.673,1.94,3.278,3.278,0,0,1-1.08,2.514,4.3,4.3,0,0,1-3.025,1h-.207q-1.755.079-1.755.856c0,.289.238.5.714.644a10.552,10.552,0,0,0,1.728.337q1.012.123,2.022.349a3.571,3.571,0,0,1,1.728.909,2.366,2.366,0,0,1,.714,1.788,2.689,2.689,0,0,1-1.357,2.3,6.492,6.492,0,0,1-3.659.911,8.029,8.029,0,0,1-3.5-.6A2.128,2.128,0,0,1,122.089,110.821Zm1.777-.183q0,1.39,3.066,1.389a4.552,4.552,0,0,0,2.217-.47,1.353,1.353,0,0,0,.846-1.164.877.877,0,0,0-.468-.817,8.7,8.7,0,0,0-2.781-.694c-.353-.055-.632-.1-.837-.142a5.345,5.345,0,0,0-1.42.8A1.4,1.4,0,0,0,123.866,110.638Zm.716-8.757q0,2.054,2.3,2.054t2.3-2.054q0-2.054-2.3-2.056T124.581,101.881Z" transform="translate(116.012 93.459)" fill="none" stroke="#fff" stroke-miterlimit="10" stroke-width="0.5"></path></g></g></g></g></g></svg>