<svg xmlns="http://www.w3.org/2000/svg" width="1251.755" height="268.348" viewBox="0 0 1251.755 268.348"><g id="Group_21873" data-name="Group 21873" transform="translate(-3657.064 -2311.549)" opacity="0.7"><g id="Group_21856" data-name="Group 21856" transform="translate(3820.021 2347.194)"><path id="Path_6098" data-name="Path 6098" d="M4582.635,2537.5H3858.548a102.106,102.106,0,0,1,0-204.213h724.087a102.106,102.106,0,1,1,0,204.213Zm-724.087-199.293a97.187,97.187,0,0,0,0,194.374h724.087a97.187,97.187,0,1,0,0-194.374Z" transform="translate(-3756.443 -2333.287)" fill="#d6d6d6"></path></g><g id="Group_21860" data-name="Group 21860" transform="translate(3657.064 2400.963)"><g id="Group_21857" data-name="Group 21857" transform="translate(7.269 8.832)"><rect id="Rectangle_12645" data-name="Rectangle 12645" width="325.915" height="71.294" rx="21.739" fill="#d8e3fd"></rect></g><g id="Group_21858" data-name="Group 21858" transform="translate(75.985 26.104)"><path id="Path_6099" data-name="Path 6099" d="M3712.994,2387.965a2.4,2.4,0,0,0-.8-1.794,3.122,3.122,0,0,0-2.25-.763,3.32,3.32,0,0,0-1.945.5,1.588,1.588,0,0,0-.712,1.366,1.84,1.84,0,0,0,.171.8,1.644,1.644,0,0,0,.6.64,4.586,4.586,0,0,0,1.131.5,14.518,14.518,0,0,0,1.784.42,9.076,9.076,0,0,1,4.13,1.648,4.141,4.141,0,0,1,1.427,3.419V2395a5.335,5.335,0,0,1-.43,2.178,4.567,4.567,0,0,1-1.241,1.659,5.674,5.674,0,0,1-1.968,1.059,9.507,9.507,0,0,1-5.6-.111,5.978,5.978,0,0,1-2.151-1.328,5.608,5.608,0,0,1-1.305-1.993,6.852,6.852,0,0,1-.441-2.5v-.74h3.245v.592a3.391,3.391,0,0,0,.9,2.471,3.742,3.742,0,0,0,2.791.922,3.209,3.209,0,0,0,2.191-.639,1.985,1.985,0,0,0,.713-1.524,2.239,2.239,0,0,0-.147-.8,1.719,1.719,0,0,0-.518-.689,3.55,3.55,0,0,0-1.009-.552,8.769,8.769,0,0,0-1.622-.418,16.333,16.333,0,0,1-2.386-.578,6.619,6.619,0,0,1-1.883-.948,4.081,4.081,0,0,1-1.243-1.474,4.834,4.834,0,0,1-.441-2.166v-.146a4.464,4.464,0,0,1,.43-1.956,4.733,4.733,0,0,1,1.205-1.563,5.584,5.584,0,0,1,1.869-1.033,7.676,7.676,0,0,1,2.448-.368,7.845,7.845,0,0,1,2.7.43,5.8,5.8,0,0,1,1.981,1.167,4.941,4.941,0,0,1,1.205,1.7,5.153,5.153,0,0,1,.406,2.018v.886h-3.248Z" transform="translate(-3703.403 -2381.766)"></path><path id="Path_6100" data-name="Path 6100" d="M3713,2387.584h3.616v-5.018h3.1v5.018h4.4v2.953h-4.4v5.557c0,.492.223.74.665.74h3.3v2.949h-5.166a1.826,1.826,0,0,1-1.366-.541,1.891,1.891,0,0,1-.528-1.376v-7.33H3713Z" transform="translate(-3697.262 -2381.633)"></path><path id="Path_6101" data-name="Path 6101" d="M3730.653,2396.19a3.177,3.177,0,0,1-1.379,1.636,4.261,4.261,0,0,1-2.064.479,5.234,5.234,0,0,1-2.079-.417,4.924,4.924,0,0,1-1.709-1.23,6.018,6.018,0,0,1-1.169-1.969,7.485,7.485,0,0,1-.432-2.63v-.393a7.579,7.579,0,0,1,.42-2.607,6.061,6.061,0,0,1,1.131-1.968,4.9,4.9,0,0,1,1.66-1.243,4.84,4.84,0,0,1,2.03-.431,4.331,4.331,0,0,1,2.1.444,3.087,3.087,0,0,1,1.266,1.376h.444v-1.476h3.1v8.51c0,.492.22.74.664.74h.468v2.949h-2.116a1.924,1.924,0,0,1-1.366-.49,1.67,1.67,0,0,1-.528-1.281Zm-2.754-.835a2.779,2.779,0,0,0,2.164-.9,3.511,3.511,0,0,0,.812-2.446v-.295a3.514,3.514,0,0,0-.812-2.448,3.061,3.061,0,0,0-4.329,0,3.515,3.515,0,0,0-.812,2.448v.295a3.511,3.511,0,0,0,.812,2.446A2.777,2.777,0,0,0,3727.9,2395.355Z" transform="translate(-3691.62 -2379.809)"></path><path id="Path_6102" data-name="Path 6102" d="M3731.326,2385.761h5.167v1.771h.443a2.975,2.975,0,0,1,1.167-1.562,3.466,3.466,0,0,1,1.98-.554,3.883,3.883,0,0,1,2.925,1.145,4.833,4.833,0,0,1,1.109,3.479v.541l-3.2.3v-.344a2.393,2.393,0,0,0-.518-1.611,1.926,1.926,0,0,0-1.548-.6,1.992,1.992,0,0,0-1.624.712,3.114,3.114,0,0,0-.592,2.041v3.937h2.8v2.949h-8.412v-2.949h2.51v-6.3h-2.216Z" transform="translate(-3685.728 -2379.809)"></path><path id="Path_6103" data-name="Path 6103" d="M3740.541,2387.584h3.616v-5.018h3.1v5.018h4.4v2.953h-4.4v5.557c0,.492.223.74.665.74h3.3v2.949h-5.164a1.822,1.822,0,0,1-1.366-.541,1.887,1.887,0,0,1-.53-1.376v-7.33h-3.616Z" transform="translate(-3679.644 -2381.633)"></path><path id="Path_6104" data-name="Path 6104" d="M3768.072,2387.965a2.4,2.4,0,0,0-.8-1.794,3.122,3.122,0,0,0-2.25-.763,3.318,3.318,0,0,0-1.945.5,1.588,1.588,0,0,0-.711,1.366,1.837,1.837,0,0,0,.17.8,1.653,1.653,0,0,0,.6.64,4.613,4.613,0,0,0,1.132.5,14.518,14.518,0,0,0,1.784.42,9.081,9.081,0,0,1,4.131,1.648,4.141,4.141,0,0,1,1.426,3.419V2395a5.314,5.314,0,0,1-.429,2.178,4.574,4.574,0,0,1-1.241,1.659,5.682,5.682,0,0,1-1.968,1.059,9.5,9.5,0,0,1-5.6-.111,5.976,5.976,0,0,1-2.153-1.328,5.614,5.614,0,0,1-1.305-1.993,6.852,6.852,0,0,1-.441-2.5v-.74h3.246v.592a3.392,3.392,0,0,0,.9,2.471,3.743,3.743,0,0,0,2.791.922,3.2,3.2,0,0,0,2.19-.639,1.982,1.982,0,0,0,.714-1.524,2.234,2.234,0,0,0-.147-.8,1.714,1.714,0,0,0-.519-.689,3.535,3.535,0,0,0-1.008-.552,8.743,8.743,0,0,0-1.622-.418,16.364,16.364,0,0,1-2.386-.578,6.643,6.643,0,0,1-1.883-.948,4.056,4.056,0,0,1-1.241-1.474,4.807,4.807,0,0,1-.443-2.166v-.146a4.464,4.464,0,0,1,.43-1.956,4.75,4.75,0,0,1,1.2-1.563,5.606,5.606,0,0,1,1.87-1.033,7.67,7.67,0,0,1,2.448-.368,7.849,7.849,0,0,1,2.7.43,5.784,5.784,0,0,1,1.98,1.167,4.9,4.9,0,0,1,1.206,1.7,5.131,5.131,0,0,1,.407,2.018v.886h-3.248Z" transform="translate(-3668.167 -2381.766)"></path><path id="Path_6105" data-name="Path 6105" d="M3771,2402.88h-3.1v-17.119h3.1v1.771h.444a3.6,3.6,0,0,1,1.425-1.562,4.629,4.629,0,0,1,2.386-.554,5.15,5.15,0,0,1,2.054.42,4.9,4.9,0,0,1,1.7,1.217,5.987,5.987,0,0,1,1.156,1.956,7.479,7.479,0,0,1,.43,2.63v.444a7.776,7.776,0,0,1-.418,2.657,5.91,5.91,0,0,1-1.131,1.954,4.624,4.624,0,0,1-1.685,1.205,5.4,5.4,0,0,1-2.1.4,5.5,5.5,0,0,1-1.451-.17,3.858,3.858,0,0,1-1.069-.468,3.2,3.2,0,0,1-.762-.677,5.037,5.037,0,0,1-.528-.8H3771Zm3.249-7.525a3.169,3.169,0,0,0,2.347-.9,3.3,3.3,0,0,0,.9-2.446v-.295a3.3,3.3,0,0,0-.9-2.448,3.175,3.175,0,0,0-2.347-.9,3.129,3.129,0,0,0-2.35.921,3.328,3.328,0,0,0-.9,2.424v.295a3.325,3.325,0,0,0,.9,2.422A3.128,3.128,0,0,0,3774.247,2395.355Z" transform="translate(-3662.14 -2379.809)"></path><path id="Path_6106" data-name="Path 6106" d="M3777.226,2385.761h5.165v1.771h.443a2.976,2.976,0,0,1,1.167-1.562,3.473,3.473,0,0,1,1.981-.554,3.888,3.888,0,0,1,2.927,1.145,4.832,4.832,0,0,1,1.106,3.479v.541l-3.2.3v-.344a2.39,2.39,0,0,0-.517-1.611,1.928,1.928,0,0,0-1.55-.6,1.991,1.991,0,0,0-1.623.712,3.122,3.122,0,0,0-.59,2.041v3.937h2.8v2.949h-8.412v-2.949h2.508v-6.3h-2.213Z" transform="translate(-3656.365 -2379.809)"></path><path id="Path_6107" data-name="Path 6107" d="M3786.784,2397.2h4.134v-6.3h-3.837v-2.953h6.936v9.25h3.542v2.949h-10.775Zm7.994-12.864a2.318,2.318,0,0,1-.184.922,2.24,2.24,0,0,1-.505.738,2.453,2.453,0,0,1-.75.492,2.3,2.3,0,0,1-1.807,0,2.531,2.531,0,0,1-.737-.492,2.231,2.231,0,0,1-.5-.738,2.409,2.409,0,0,1,0-1.845,2.231,2.231,0,0,1,.5-.738,2.53,2.53,0,0,1,.737-.492,2.3,2.3,0,0,1,1.807,0,2.453,2.453,0,0,1,.75.492,2.239,2.239,0,0,1,.505.738A2.317,2.317,0,0,1,3794.778,2384.335Z" transform="translate(-3650.06 -2381.997)"></path><path id="Path_6108" data-name="Path 6108" d="M3798.928,2397.961h-3.1v-12.2h3.1v1.82h.443a3.226,3.226,0,0,1,1.354-1.6,4.137,4.137,0,0,1,2.189-.567,4.809,4.809,0,0,1,1.66.284,3.712,3.712,0,0,1,1.364.872,4.03,4.03,0,0,1,.923,1.5,6.321,6.321,0,0,1,.332,2.166v7.721h-3.1v-6.936a3.117,3.117,0,0,0-.626-2.053,2.226,2.226,0,0,0-1.809-.751,2.377,2.377,0,0,0-2.053.923,4.088,4.088,0,0,0-.678,2.471Z" transform="translate(-3644.273 -2379.809)"></path><path id="Path_6109" data-name="Path 6109" d="M3804.8,2387.584h3.616v-5.018h3.1v5.018h4.4v2.953h-4.4v5.557c0,.492.222.74.665.74h3.3v2.949h-5.165a1.828,1.828,0,0,1-1.366-.541,1.894,1.894,0,0,1-.528-1.376v-7.33H3804.8Z" transform="translate(-3638.534 -2381.633)"></path></g><g id="Group_21859" data-name="Group 21859"><path id="Path_6110" data-name="Path 6110" d="M3949.791,2442.292H3695.17a38.107,38.107,0,0,1,0-76.214h254.621a38.107,38.107,0,0,1,0,76.214ZM3695.17,2371a33.188,33.188,0,0,0,0,66.375h254.621a33.188,33.188,0,0,0,0-66.375Z" transform="translate(-3657.064 -2366.078)" fill="#366fe7"></path></g></g><g id="Group_21864" data-name="Group 21864" transform="translate(4130.443 2311.549)"><g id="Group_21861" data-name="Group 21861" transform="translate(7.27 8.829)"><rect id="Rectangle_12646" data-name="Rectangle 12646" width="325.915" height="71.294" rx="21.739" fill="#d8e3fd"></rect></g><g id="Group_21862" data-name="Group 21862" transform="translate(68.901 26.102)"><path id="Path_6111" data-name="Path 6111" d="M3987.772,2328.037h12.4v3.1h-4.575v14.118h-3.247v-14.118h-4.575Z" transform="translate(-3987.772 -2327.102)"></path><path id="Path_6112" data-name="Path 6112" d="M3997.065,2331.232h5.167V2333h.443a2.972,2.972,0,0,1,1.167-1.561,3.469,3.469,0,0,1,1.981-.555,3.879,3.879,0,0,1,2.926,1.145,4.822,4.822,0,0,1,1.108,3.479v.541l-3.2.295V2336a2.4,2.4,0,0,0-.517-1.61,1.923,1.923,0,0,0-1.55-.6,1.994,1.994,0,0,0-1.623.713,3.124,3.124,0,0,0-.59,2.042v3.936h2.8v2.952h-8.412v-2.952h2.509v-6.3h-2.215Z" transform="translate(-3982.014 -2325.279)"></path><path id="Path_6113" data-name="Path 6113" d="M4014.752,2341.66a3.183,3.183,0,0,1-1.379,1.637,4.267,4.267,0,0,1-2.065.479,5.194,5.194,0,0,1-2.078-.418,4.906,4.906,0,0,1-1.708-1.23,5.977,5.977,0,0,1-1.169-1.968,7.509,7.509,0,0,1-.431-2.63v-.4a7.582,7.582,0,0,1,.42-2.606,6.057,6.057,0,0,1,1.13-1.969,4.833,4.833,0,0,1,3.689-1.673,4.351,4.351,0,0,1,2.1.443,3.083,3.083,0,0,1,1.265,1.377h.445v-1.476h3.1v8.511c0,.491.221.738.665.738h.467v2.952h-2.115a1.918,1.918,0,0,1-1.366-.492,1.668,1.668,0,0,1-.53-1.279Zm-2.756-.836a2.776,2.776,0,0,0,2.165-.9,3.507,3.507,0,0,0,.813-2.448v-.293a3.512,3.512,0,0,0-.813-2.45,3.061,3.061,0,0,0-4.328,0,3.521,3.521,0,0,0-.812,2.45v.293a3.515,3.515,0,0,0,.812,2.448A2.772,2.772,0,0,0,4012,2340.824Z" transform="translate(-3976.161 -2325.279)"></path><path id="Path_6114" data-name="Path 6114" d="M4027.825,2338.955a5.9,5.9,0,0,1-1.979,3.494,6.227,6.227,0,0,1-4.17,1.327,7.408,7.408,0,0,1-2.52-.418,5.927,5.927,0,0,1-2.03-1.205,5.5,5.5,0,0,1-1.353-1.943,6.657,6.657,0,0,1-.492-2.632v-.295a6.855,6.855,0,0,1,.492-2.657,5.894,5.894,0,0,1,1.365-2.015,6.005,6.005,0,0,1,2.041-1.281,7.029,7.029,0,0,1,2.5-.443,6.234,6.234,0,0,1,4.144,1.329,5.837,5.837,0,0,1,2.005,3.492l-3.05.788a3.187,3.187,0,0,0-.935-1.869,3,3,0,0,0-2.212-.786,3.234,3.234,0,0,0-1.256.245,3.108,3.108,0,0,0-1.032.7,3.352,3.352,0,0,0-.7,1.107,3.984,3.984,0,0,0-.257,1.462v.148a3.8,3.8,0,0,0,.257,1.44,3.008,3.008,0,0,0,.7,1.046,2.9,2.9,0,0,0,1.032.625,3.74,3.74,0,0,0,1.256.21,3.036,3.036,0,0,0,2.176-.714,3.406,3.406,0,0,0,.97-1.918Z" transform="translate(-3970.174 -2325.279)"></path><path id="Path_6115" data-name="Path 6115" d="M4028.551,2337.531h.588l3.249-4.476h3.395v.149l-3.936,5.582v.443l4.327,5.878v.148h-3.54l-3.5-4.772h-.588v4.772h-3.1v-17.217h3.1Z" transform="translate(-3963.667 -2327.102)"></path><path id="Path_6116" data-name="Path 6116" d="M4042.37,2328.037h5.706l.984,12.937v2.509h.59v-2.509l.983-12.937h5.707v17.217h-2.951v-11.509l.3-3.937h-.592l-1.279,15.447h-4.87l-1.328-15.447h-.59l.295,3.938v11.509h-2.951Z" transform="translate(-3952.843 -2327.102)"></path><path id="Path_6117" data-name="Path 6117" d="M4055.3,2338.34a2.392,2.392,0,0,0,.257,1,2.481,2.481,0,0,0,.641.787,3.073,3.073,0,0,0,.933.517,3.423,3.423,0,0,0,1.12.184,3.214,3.214,0,0,0,1.771-.407,2.446,2.446,0,0,0,.886-.969l2.656,1.474a5.286,5.286,0,0,1-.615.973,4.318,4.318,0,0,1-1.02.921,5.707,5.707,0,0,1-1.527.689,7.323,7.323,0,0,1-2.1.271,6.866,6.866,0,0,1-2.509-.441,5.575,5.575,0,0,1-1.956-1.281,5.776,5.776,0,0,1-1.279-2.042,7.7,7.7,0,0,1-.454-2.729v-.148a6.589,6.589,0,0,1,.48-2.558,5.779,5.779,0,0,1,1.315-1.966,6.059,6.059,0,0,1,1.957-1.268,6.291,6.291,0,0,1,2.4-.456,6.108,6.108,0,0,1,2.706.555,5.783,5.783,0,0,1,1.87,1.4,5.514,5.514,0,0,1,1.082,1.869,6.177,6.177,0,0,1,.344,1.979v1.648Zm2.927-4.648a2.934,2.934,0,0,0-1.918.6,2.746,2.746,0,0,0-.959,1.391h5.756a2.183,2.183,0,0,0-.923-1.429A3.228,3.228,0,0,0,4058.229,2333.691Z" transform="translate(-3946.615 -2325.279)"></path><path id="Path_6118" data-name="Path 6118" d="M4061.36,2333.054h3.615v-5.017h3.1v5.017h4.4v2.953h-4.4v5.557c0,.491.223.738.666.738h3.294v2.952h-5.164a1.825,1.825,0,0,1-1.366-.541,1.891,1.891,0,0,1-.528-1.377v-7.328h-3.615Z" transform="translate(-3940.694 -2327.102)"></path><path id="Path_6119" data-name="Path 6119" d="M4070.5,2331.232h5.166V2333h.444a2.968,2.968,0,0,1,1.167-1.561,3.467,3.467,0,0,1,1.98-.555,3.876,3.876,0,0,1,2.925,1.145,4.829,4.829,0,0,1,1.109,3.479v.541l-3.2.295V2336a2.392,2.392,0,0,0-.517-1.61,1.92,1.92,0,0,0-1.548-.6,2,2,0,0,0-1.625.713,3.124,3.124,0,0,0-.591,2.042v3.936h2.8v2.952h-8.412v-2.952h2.509v-6.3H4070.5Z" transform="translate(-3935.033 -2325.279)"></path><path id="Path_6120" data-name="Path 6120" d="M4080.064,2342.668h4.132v-6.3h-3.837v-2.953h6.936v9.248h3.542v2.951h-10.772Zm7.993-12.862a2.289,2.289,0,0,1-.185.921,2.226,2.226,0,0,1-.5.737,2.517,2.517,0,0,1-.75.494,2.305,2.305,0,0,1-.9.183,2.264,2.264,0,0,1-.91-.183,2.549,2.549,0,0,1-.738-.494,2.246,2.246,0,0,1-.5-.737,2.409,2.409,0,0,1,0-1.845,2.237,2.237,0,0,1,.5-.738,2.481,2.481,0,0,1,.738-.491,2.221,2.221,0,0,1,.91-.186,2.261,2.261,0,0,1,.9.186,2.452,2.452,0,0,1,.75.491,2.217,2.217,0,0,1,.5.738A2.278,2.278,0,0,1,4088.058,2329.806Z" transform="translate(-3928.728 -2327.467)"></path><path id="Path_6121" data-name="Path 6121" d="M4101.262,2338.955a5.9,5.9,0,0,1-1.979,3.494,6.219,6.219,0,0,1-4.17,1.327,7.422,7.422,0,0,1-2.52-.418,5.939,5.939,0,0,1-2.029-1.205,5.49,5.49,0,0,1-1.353-1.943,6.665,6.665,0,0,1-.492-2.632v-.295a6.864,6.864,0,0,1,.492-2.657,5.886,5.886,0,0,1,1.364-2.015,5.984,5.984,0,0,1,2.042-1.281,7.012,7.012,0,0,1,2.5-.443,6.243,6.243,0,0,1,4.146,1.329,5.848,5.848,0,0,1,2,3.492l-3.048.788a3.2,3.2,0,0,0-.935-1.869,3,3,0,0,0-2.213-.786,3.243,3.243,0,0,0-1.256.245,3.086,3.086,0,0,0-1.032.7,3.319,3.319,0,0,0-.7,1.107,3.934,3.934,0,0,0-.257,1.462v.148a3.757,3.757,0,0,0,.257,1.44,2.979,2.979,0,0,0,.7,1.046,2.876,2.876,0,0,0,1.032.625,3.751,3.751,0,0,0,1.256.21,3.032,3.032,0,0,0,2.175-.714,3.408,3.408,0,0,0,.973-1.918Z" transform="translate(-3923.191 -2325.279)"></path><path id="Path_6122" data-name="Path 6122" d="M4102.06,2334.675a.879.879,0,0,0,.615.849,9.184,9.184,0,0,0,2.24.431,5.834,5.834,0,0,1,3.048,1.117,3.084,3.084,0,0,1,1.183,2.573v.146a3.549,3.549,0,0,1-1.33,2.9,5.771,5.771,0,0,1-3.739,1.083,7.138,7.138,0,0,1-2.434-.367,5.647,5.647,0,0,1-1.675-.924,4.094,4.094,0,0,1-1.019-1.229,4.805,4.805,0,0,1-.481-1.317l2.854-.935a2.793,2.793,0,0,0,.825,1.377,2.736,2.736,0,0,0,1.93.59,2.567,2.567,0,0,0,1.587-.358,1.01,1.01,0,0,0,.43-.774.943.943,0,0,0-.111-.456,1.078,1.078,0,0,0-.406-.392,2.654,2.654,0,0,0-.8-.307,8.7,8.7,0,0,0-1.267-.2,6.354,6.354,0,0,1-3.283-1.073,3.073,3.073,0,0,1-1.218-2.643v-.148a3.173,3.173,0,0,1,.394-1.6,3.819,3.819,0,0,1,1.033-1.167,4.562,4.562,0,0,1,1.477-.726,6.109,6.109,0,0,1,1.721-.246,6.3,6.3,0,0,1,2,.284,4.769,4.769,0,0,1,1.438.738,4.212,4.212,0,0,1,.96,1.008,5.465,5.465,0,0,1,.567,1.069l-2.8,1.132a2.011,2.011,0,0,0-.762-1.044,2.392,2.392,0,0,0-1.4-.382,2,2,0,0,0-1.179.284A.833.833,0,0,0,4102.06,2334.675Z" transform="translate(-3916.954 -2325.279)"></path></g><g id="Group_21863" data-name="Group 21863"><path id="Path_6123" data-name="Path 6123" d="M4238.482,2387.76H3983.859a38.105,38.105,0,1,1,0-76.21h254.623a38.105,38.105,0,0,1,0,76.21Zm-254.623-71.291a33.186,33.186,0,1,0,0,66.372h254.623a33.186,33.186,0,0,0,0-66.372Z" transform="translate(-3945.753 -2311.549)" fill="#366fe7"></path></g></g><g id="Group_21868" data-name="Group 21868" transform="translate(4130.443 2499.773)"><g id="Group_21865" data-name="Group 21865" transform="translate(7.27 8.83)"><rect id="Rectangle_12647" data-name="Rectangle 12647" width="325.915" height="71.294" rx="21.739" fill="#d8e3fd"></rect></g><g id="Group_21866" data-name="Group 21866" transform="translate(122.054 26.104)"><path id="Path_6124" data-name="Path 6124" d="M4031.747,2460.043H4028.5v-5.165a1.45,1.45,0,0,0-.307-.959,1.266,1.266,0,0,0-1.021-.369h-3.739v6.494h-3.247v-17.218h6.592a6.776,6.776,0,0,1,2.336.369,4.711,4.711,0,0,1,1.684,1.022,4.4,4.4,0,0,1,1.034,1.511,4.75,4.75,0,0,1,.357,1.845v.59a3.72,3.72,0,0,1-.566,1.981,3.581,3.581,0,0,1-1.747,1.413V2452a2,2,0,0,1,1.869,2.091Zm-8.313-9.591h3.1a2.606,2.606,0,0,0,1.8-.555,1.99,1.99,0,0,0,.615-1.561v-.3a2.053,2.053,0,0,0-.615-1.487,2.4,2.4,0,0,0-1.8-.628h-3.1Z" transform="translate(-4020.187 -2441.891)"></path><path id="Path_6125" data-name="Path 6125" d="M4032.355,2453.128a2.371,2.371,0,0,0,.257,1,2.494,2.494,0,0,0,.64.787,3.089,3.089,0,0,0,.935.516,3.4,3.4,0,0,0,1.118.184,3.224,3.224,0,0,0,1.773-.407,2.451,2.451,0,0,0,.885-.969l2.656,1.474a5.27,5.27,0,0,1-.615.972,4.33,4.33,0,0,1-1.02.922,5.689,5.689,0,0,1-1.526.689,7.261,7.261,0,0,1-2.1.27,6.869,6.869,0,0,1-2.511-.441,5.574,5.574,0,0,1-1.954-1.281,5.736,5.736,0,0,1-1.279-2.042,7.69,7.69,0,0,1-.456-2.73v-.147a6.628,6.628,0,0,1,.48-2.558,5.775,5.775,0,0,1,1.317-1.966,6.033,6.033,0,0,1,1.957-1.268,6.294,6.294,0,0,1,2.4-.456,6.112,6.112,0,0,1,2.707.554,5.8,5.8,0,0,1,1.868,1.4,5.52,5.52,0,0,1,1.083,1.869,6.217,6.217,0,0,1,.344,1.979v1.648Zm2.927-4.648a2.937,2.937,0,0,0-1.919.6,2.749,2.749,0,0,0-.959,1.391h5.755a2.174,2.174,0,0,0-.923-1.427A3.218,3.218,0,0,0,4035.282,2448.48Z" transform="translate(-4014.449 -2440.068)"></path><path id="Path_6126" data-name="Path 6126" d="M4038.1,2445.886h3.345l2.88,10.724h.44l2.878-10.724h3.345l-3.493,12.2h-5.9Z" transform="translate(-4008.73 -2439.934)"></path><path id="Path_6127" data-name="Path 6127" d="M4047.936,2457.456h4.133v-6.295h-3.838v-2.953h6.937v9.248h3.542v2.951h-10.773Zm7.994-12.862a2.3,2.3,0,0,1-.185.922,2.213,2.213,0,0,1-.5.737,2.477,2.477,0,0,1-.749.493,2.293,2.293,0,0,1-.9.185,2.255,2.255,0,0,1-.91-.185,2.521,2.521,0,0,1-.737-.493,2.239,2.239,0,0,1-.505-.737,2.41,2.41,0,0,1,0-1.845,2.234,2.234,0,0,1,.505-.738,2.489,2.489,0,0,1,.737-.492,2.23,2.23,0,0,1,.91-.185,2.267,2.267,0,0,1,.9.185,2.448,2.448,0,0,1,.749.492,2.207,2.207,0,0,1,.5.738A2.3,2.3,0,0,1,4055.93,2444.594Z" transform="translate(-4002.434 -2442.256)"></path><path id="Path_6128" data-name="Path 6128" d="M4060.753,2449.464a.877.877,0,0,0,.615.849,9.121,9.121,0,0,0,2.238.432,5.824,5.824,0,0,1,3.048,1.116,3.079,3.079,0,0,1,1.182,2.573v.147a3.546,3.546,0,0,1-1.328,2.9,5.766,5.766,0,0,1-3.74,1.082,7.156,7.156,0,0,1-2.434-.367,5.666,5.666,0,0,1-1.674-.923,4.11,4.11,0,0,1-1.02-1.23,4.829,4.829,0,0,1-.481-1.317l2.855-.935a2.791,2.791,0,0,0,.825,1.378,2.728,2.728,0,0,0,1.928.59,2.577,2.577,0,0,0,1.587-.356,1.011,1.011,0,0,0,.432-.776.945.945,0,0,0-.112-.454,1.092,1.092,0,0,0-.406-.394,2.735,2.735,0,0,0-.8-.306,8.845,8.845,0,0,0-1.266-.2,6.335,6.335,0,0,1-3.283-1.073,3.073,3.073,0,0,1-1.22-2.643v-.147a3.143,3.143,0,0,1,.4-1.6,3.791,3.791,0,0,1,1.033-1.169,4.55,4.55,0,0,1,1.476-.727,6.122,6.122,0,0,1,1.722-.246,6.338,6.338,0,0,1,2,.284,4.783,4.783,0,0,1,1.438.738,4.19,4.19,0,0,1,.959,1.009,5.36,5.36,0,0,1,.567,1.07l-2.8,1.13a2.023,2.023,0,0,0-.763-1.045,2.391,2.391,0,0,0-1.4-.382,2,2,0,0,0-1.181.284A.839.839,0,0,0,4060.753,2449.464Z" transform="translate(-3996.533 -2440.068)"></path><path id="Path_6129" data-name="Path 6129" d="M4069.073,2453.128a2.394,2.394,0,0,0,.259,1,2.474,2.474,0,0,0,.64.787,3.083,3.083,0,0,0,.935.516,3.4,3.4,0,0,0,1.118.184,3.216,3.216,0,0,0,1.771-.407,2.434,2.434,0,0,0,.886-.969l2.656,1.474a5.091,5.091,0,0,1-.615.972,4.292,4.292,0,0,1-1.02.922,5.678,5.678,0,0,1-1.525.689,7.271,7.271,0,0,1-2.1.27,6.869,6.869,0,0,1-2.509-.441,5.578,5.578,0,0,1-1.954-1.281,5.728,5.728,0,0,1-1.279-2.042,7.679,7.679,0,0,1-.456-2.73v-.147a6.628,6.628,0,0,1,.48-2.558,5.747,5.747,0,0,1,1.317-1.966,6.042,6.042,0,0,1,1.955-1.268,6.3,6.3,0,0,1,2.4-.456,6.112,6.112,0,0,1,2.707.554,5.806,5.806,0,0,1,1.868,1.4,5.492,5.492,0,0,1,1.082,1.869,6.151,6.151,0,0,1,.345,1.979v1.648Zm2.929-4.648a2.935,2.935,0,0,0-1.919.6,2.743,2.743,0,0,0-.959,1.391h5.754a2.173,2.173,0,0,0-.921-1.427A3.223,3.223,0,0,0,4072,2448.48Z" transform="translate(-3990.958 -2440.068)"></path></g><g id="Group_21867" data-name="Group 21867"><path id="Path_6130" data-name="Path 6130" d="M4238.482,2502.551H3983.859a38.107,38.107,0,0,1,0-76.214h254.623a38.107,38.107,0,0,1,0,76.214Zm-254.623-71.295a33.188,33.188,0,0,0,0,66.376h254.623a33.188,33.188,0,0,0,0-66.376Z" transform="translate(-3945.753 -2426.337)" fill="#366fe7"></path></g></g><g id="Group_21872" data-name="Group 21872" transform="translate(4575.632 2400.963)"><g id="Group_21869" data-name="Group 21869" transform="translate(7.272 8.832)"><rect id="Rectangle_12648" data-name="Rectangle 12648" width="325.915" height="71.294" rx="21.739" fill="#d8e3fd"></rect></g><g id="Group_21870" data-name="Group 21870" transform="translate(69.37 26.104)"><path id="Path_6131" data-name="Path 6131" d="M4271.116,2399.784h-3.247v-5.165a1.455,1.455,0,0,0-.307-.959,1.265,1.265,0,0,0-1.02-.367h-3.74v6.491h-3.247v-17.217h6.592a6.822,6.822,0,0,1,2.337.369,4.769,4.769,0,0,1,1.685,1.022,4.4,4.4,0,0,1,1.032,1.512,4.747,4.747,0,0,1,.357,1.844v.591a3.713,3.713,0,0,1-.566,1.981,3.59,3.59,0,0,1-1.746,1.415v.441a2,2,0,0,1,1.87,2.092Zm-8.313-9.591h3.1a2.6,2.6,0,0,0,1.8-.554,1.994,1.994,0,0,0,.614-1.561v-.3a2.058,2.058,0,0,0-.614-1.487,2.407,2.407,0,0,0-1.8-.628h-3.1Z" transform="translate(-4259.556 -2381.633)"></path><path id="Path_6132" data-name="Path 6132" d="M4271.724,2392.869a2.391,2.391,0,0,0,.257,1,2.479,2.479,0,0,0,.641.787,3.013,3.013,0,0,0,.933.517,3.376,3.376,0,0,0,1.12.185,3.225,3.225,0,0,0,1.771-.406,2.459,2.459,0,0,0,.885-.971l2.657,1.474a5.279,5.279,0,0,1-.615.972,4.285,4.285,0,0,1-1.02.922,5.685,5.685,0,0,1-1.527.689,7.269,7.269,0,0,1-2.1.27,6.831,6.831,0,0,1-2.509-.441,5.6,5.6,0,0,1-1.956-1.279,5.758,5.758,0,0,1-1.279-2.042,7.691,7.691,0,0,1-.455-2.732v-.146a6.6,6.6,0,0,1,.48-2.56,5.745,5.745,0,0,1,1.316-1.966,6.041,6.041,0,0,1,1.956-1.267,6.289,6.289,0,0,1,2.4-.456,6.107,6.107,0,0,1,2.706.554,5.812,5.812,0,0,1,1.87,1.4,5.55,5.55,0,0,1,1.083,1.869,6.22,6.22,0,0,1,.344,1.979v1.647Zm2.927-4.648a2.933,2.933,0,0,0-1.919.6,2.758,2.758,0,0,0-.959,1.39h5.756a2.17,2.17,0,0,0-.923-1.427A3.218,3.218,0,0,0,4274.651,2388.221Z" transform="translate(-4253.817 -2379.809)"></path><path id="Path_6133" data-name="Path 6133" d="M4277.78,2387.584h3.618v-5.018h3.1v5.018h4.4v2.953h-4.4v5.557c0,.492.223.74.664.74h3.3v2.949h-5.164a1.823,1.823,0,0,1-1.366-.541,1.882,1.882,0,0,1-.528-1.376v-7.33h-3.618Z" transform="translate(-4247.898 -2381.633)"></path><path id="Path_6134" data-name="Path 6134" d="M4286.926,2385.761h5.164v1.771h.444a2.983,2.983,0,0,1,1.168-1.562,3.469,3.469,0,0,1,1.98-.554,3.888,3.888,0,0,1,2.927,1.145,4.839,4.839,0,0,1,1.107,3.479v.541l-3.2.3v-.344a2.4,2.4,0,0,0-.517-1.611,1.931,1.931,0,0,0-1.549-.6,1.994,1.994,0,0,0-1.624.712,3.117,3.117,0,0,0-.591,2.041v3.937h2.8v2.949h-8.412v-2.949h2.51v-6.3h-2.214Z" transform="translate(-4242.236 -2379.809)"></path><path id="Path_6135" data-name="Path 6135" d="M4308.592,2392.01a6.564,6.564,0,0,1-.518,2.693,5.735,5.735,0,0,1-1.4,1.968,6.161,6.161,0,0,1-2.029,1.218,7.111,7.111,0,0,1-4.8,0,6.128,6.128,0,0,1-2.03-1.218,5.732,5.732,0,0,1-1.4-1.968,6.588,6.588,0,0,1-.517-2.693v-.295a6.539,6.539,0,0,1,.517-2.67,5.841,5.841,0,0,1,1.4-1.979,6.03,6.03,0,0,1,2.03-1.23,7.061,7.061,0,0,1,4.8,0,6.062,6.062,0,0,1,2.029,1.23,5.845,5.845,0,0,1,1.4,1.979,6.515,6.515,0,0,1,.518,2.67Zm-6.346,3.345a3.544,3.544,0,0,0,1.255-.221,3.077,3.077,0,0,0,1.033-.641,3.016,3.016,0,0,0,.7-1.02,3.44,3.44,0,0,0,.259-1.366v-.492a3.443,3.443,0,0,0-.259-1.365,2.967,2.967,0,0,0-1.733-1.659,3.673,3.673,0,0,0-2.509,0,2.977,2.977,0,0,0-1.735,1.659,3.435,3.435,0,0,0-.257,1.365v.492a3.432,3.432,0,0,0,.257,1.366,3.014,3.014,0,0,0,.7,1.02,3.077,3.077,0,0,0,1.033.641A3.543,3.543,0,0,0,4302.246,2395.355Z" transform="translate(-4236.306 -2379.809)"></path><path id="Path_6136" data-name="Path 6136" d="M4309.3,2389.207a.878.878,0,0,0,.615.848,9.058,9.058,0,0,0,2.239.431,5.826,5.826,0,0,1,3.048,1.118,3.077,3.077,0,0,1,1.183,2.572v.147a3.546,3.546,0,0,1-1.33,2.9,5.755,5.755,0,0,1-3.739,1.082,7.152,7.152,0,0,1-2.434-.367,5.636,5.636,0,0,1-1.674-.923,4.108,4.108,0,0,1-1.02-1.23,4.8,4.8,0,0,1-.48-1.315l2.853-.936a2.776,2.776,0,0,0,.825,1.377,2.736,2.736,0,0,0,1.93.59,2.575,2.575,0,0,0,1.587-.356,1.012,1.012,0,0,0,.431-.776.96.96,0,0,0-.111-.454,1.1,1.1,0,0,0-.407-.394,2.724,2.724,0,0,0-.8-.307,8.786,8.786,0,0,0-1.268-.2,6.342,6.342,0,0,1-3.283-1.071,3.081,3.081,0,0,1-1.218-2.645v-.148a3.166,3.166,0,0,1,.393-1.6,3.846,3.846,0,0,1,1.034-1.169,4.619,4.619,0,0,1,1.478-.726,6.125,6.125,0,0,1,1.722-.246,6.358,6.358,0,0,1,2,.284,4.819,4.819,0,0,1,1.438.738,4.235,4.235,0,0,1,.959,1.009,5.333,5.333,0,0,1,.567,1.071l-2.8,1.129a2.029,2.029,0,0,0-.763-1.044,2.386,2.386,0,0,0-1.4-.382,2.015,2.015,0,0,0-1.181.284A.841.841,0,0,0,4309.3,2389.207Z" transform="translate(-4230.03 -2379.809)"></path><path id="Path_6137" data-name="Path 6137" d="M4317.417,2402.88h-3.1v-17.119h3.1v1.771h.444a3.6,3.6,0,0,1,1.425-1.562,4.63,4.63,0,0,1,2.386-.554,5.15,5.15,0,0,1,2.054.42,4.881,4.881,0,0,1,1.7,1.217,5.955,5.955,0,0,1,1.156,1.956,7.468,7.468,0,0,1,.431,2.63v.444a7.8,7.8,0,0,1-.417,2.657,5.973,5.973,0,0,1-1.133,1.954,4.606,4.606,0,0,1-1.684,1.205,5.4,5.4,0,0,1-2.1.4,5.5,5.5,0,0,1-1.452-.17,3.861,3.861,0,0,1-1.07-.468,3.175,3.175,0,0,1-.762-.677,4.935,4.935,0,0,1-.528-.8h-.444Zm3.249-7.525a3.174,3.174,0,0,0,2.347-.9,3.3,3.3,0,0,0,.9-2.446v-.295a3.3,3.3,0,0,0-.9-2.448,3.18,3.18,0,0,0-2.347-.9,3.129,3.129,0,0,0-2.35.921,3.328,3.328,0,0,0-.9,2.424v.295a3.325,3.325,0,0,0,.9,2.422A3.129,3.129,0,0,0,4320.666,2395.355Z" transform="translate(-4224.521 -2379.809)"></path><path id="Path_6138" data-name="Path 6138" d="M4326.8,2392.869a2.39,2.39,0,0,0,.257,1,2.514,2.514,0,0,0,.642.787,3.027,3.027,0,0,0,.933.517,3.367,3.367,0,0,0,1.12.185,3.219,3.219,0,0,0,1.771-.406,2.453,2.453,0,0,0,.886-.971l2.657,1.474a5.283,5.283,0,0,1-.616.972,4.279,4.279,0,0,1-1.019.922,5.727,5.727,0,0,1-1.528.689,7.279,7.279,0,0,1-2.1.27,6.836,6.836,0,0,1-2.509-.441,5.6,5.6,0,0,1-1.956-1.279,5.8,5.8,0,0,1-1.28-2.042,7.713,7.713,0,0,1-.454-2.732v-.146a6.6,6.6,0,0,1,.48-2.56,5.745,5.745,0,0,1,1.316-1.966,6.035,6.035,0,0,1,1.956-1.267,6.283,6.283,0,0,1,2.4-.456,6.11,6.11,0,0,1,2.706.554,5.831,5.831,0,0,1,1.869,1.4,5.516,5.516,0,0,1,1.082,1.869,6.18,6.18,0,0,1,.345,1.979v1.647Zm2.927-4.648a2.938,2.938,0,0,0-1.918.6,2.751,2.751,0,0,0-.959,1.39h5.755a2.171,2.171,0,0,0-.924-1.427A3.213,3.213,0,0,0,4329.729,2388.221Z" transform="translate(-4218.582 -2379.809)"></path><path id="Path_6139" data-name="Path 6139" d="M4345.221,2393.485a5.9,5.9,0,0,1-1.979,3.494,6.22,6.22,0,0,1-4.17,1.326,7.474,7.474,0,0,1-2.52-.417,5.9,5.9,0,0,1-2.028-1.207,5.507,5.507,0,0,1-1.353-1.941,6.668,6.668,0,0,1-.492-2.634v-.3a6.857,6.857,0,0,1,.492-2.656,5.861,5.861,0,0,1,3.406-3.294,6.985,6.985,0,0,1,2.5-.444,6.243,6.243,0,0,1,4.146,1.33,5.844,5.844,0,0,1,2,3.493l-3.048.785a3.21,3.21,0,0,0-.935-1.869,3.005,3.005,0,0,0-2.214-.785,3.267,3.267,0,0,0-1.255.244,3.091,3.091,0,0,0-1.032.7,3.343,3.343,0,0,0-.7,1.107,3.937,3.937,0,0,0-.258,1.463v.147a3.758,3.758,0,0,0,.258,1.44,2.975,2.975,0,0,0,.7,1.046,2.875,2.875,0,0,0,1.032.626,3.735,3.735,0,0,0,1.255.21,3.04,3.04,0,0,0,2.176-.715,3.407,3.407,0,0,0,.973-1.919Z" transform="translate(-4212.775 -2379.809)"></path><path id="Path_6140" data-name="Path 6140" d="M4342.039,2387.584h3.615v-5.018h3.1v5.018h4.4v2.953h-4.4v5.557c0,.492.223.74.664.74h3.3v2.949h-5.164a1.824,1.824,0,0,1-1.366-.541,1.889,1.889,0,0,1-.529-1.376v-7.33h-3.615Z" transform="translate(-4206.789 -2381.633)"></path><path id="Path_6141" data-name="Path 6141" d="M4351.563,2397.2h4.133v-6.3h-3.837v-2.953h6.937v9.25h3.541v2.949h-10.773Zm7.994-12.864a2.3,2.3,0,0,1-.185.922,2.251,2.251,0,0,1-.5.738,2.469,2.469,0,0,1-.749.492,2.266,2.266,0,0,1-.9.185,2.235,2.235,0,0,1-.911-.185,2.524,2.524,0,0,1-.737-.492,2.268,2.268,0,0,1-.5-.738,2.409,2.409,0,0,1,0-1.845,2.268,2.268,0,0,1,.5-.738,2.523,2.523,0,0,1,.737-.492,2.235,2.235,0,0,1,.911-.185,2.266,2.266,0,0,1,.9.185,2.468,2.468,0,0,1,.749.492,2.25,2.25,0,0,1,.5.738A2.3,2.3,0,0,1,4359.557,2384.335Z" transform="translate(-4200.694 -2381.997)"></path><path id="Path_6142" data-name="Path 6142" d="M4360.083,2385.627h3.345l2.88,10.724h.442l2.878-10.724h3.345l-3.492,12.2h-5.9Z" transform="translate(-4195.245 -2379.675)"></path><path id="Path_6143" data-name="Path 6143" d="M4372.7,2392.869a2.391,2.391,0,0,0,.258,1,2.474,2.474,0,0,0,.64.787,3.035,3.035,0,0,0,.935.517,3.364,3.364,0,0,0,1.118.185,3.219,3.219,0,0,0,1.771-.406,2.437,2.437,0,0,0,.885-.971l2.657,1.474a5.1,5.1,0,0,1-.615.972,4.294,4.294,0,0,1-1.02.922,5.7,5.7,0,0,1-1.525.689,7.286,7.286,0,0,1-2.1.27,6.838,6.838,0,0,1-2.509-.441,5.6,5.6,0,0,1-1.955-1.279,5.8,5.8,0,0,1-1.281-2.042,7.757,7.757,0,0,1-.454-2.732v-.146a6.631,6.631,0,0,1,.48-2.56,5.734,5.734,0,0,1,1.317-1.966,6.032,6.032,0,0,1,1.954-1.267,6.294,6.294,0,0,1,2.4-.456,6.108,6.108,0,0,1,2.707.554,5.832,5.832,0,0,1,1.868,1.4,5.493,5.493,0,0,1,1.083,1.869,6.193,6.193,0,0,1,.344,1.979v1.647Zm2.926-4.648a2.929,2.929,0,0,0-1.917.6,2.745,2.745,0,0,0-.959,1.39h5.754a2.171,2.171,0,0,0-.922-1.427A3.226,3.226,0,0,0,4375.626,2388.221Z" transform="translate(-4189.218 -2379.809)"></path></g><g id="Group_21871" data-name="Group 21871"><path id="Path_6144" data-name="Path 6144" d="M4509.979,2442.292H4255.358a38.107,38.107,0,0,1,0-76.214h254.622a38.107,38.107,0,0,1,0,76.214ZM4255.358,2371a33.188,33.188,0,0,0,0,66.375h254.622a33.188,33.188,0,0,0,0-66.375Z" transform="translate(-4217.251 -2366.078)" fill="#366fe7"></path></g></g></g></svg>