<svg xmlns="http://www.w3.org/2000/svg" width="1947" height="634" viewBox="0 0 1947 634"><g id="Group_35369" data-name="Group 35369" transform="translate(13 -2928)"><g id="Group_35368" data-name="Group 35368"><rect id="Rectangle_20447" data-name="Rectangle 20447" width="1947" height="634" rx="3" transform="translate(-13 2928)" fill="#edf5fa" opacity="0.997"></rect><text id="Iconography" transform="translate(1244 3348)" fill="#a2abbc" font-size="80" font-family="SpaceMono-Bold, Space Mono" font-weight="700" opacity="0.672"><tspan x="0" y="90">Iconography</tspan></text><g id="Group_35245" data-name="Group 35245" transform="translate(9645 -3471)"><g id="Group_35243" data-name="Group 35243" transform="translate(-8114.507 6585.471)"><g id="Group_365" data-name="Group 365" transform="translate(0.007 -0.471)"><rect id="Rectangle_607" data-name="Rectangle 607" width="56" height="56" rx="10" fill="#00a9e0"></rect><g id="check-mark" transform="translate(14.541 18.256)"><g id="Group_364" data-name="Group 364" transform="translate(0 0)"><path id="Path_509" data-name="Path 509" d="M88.979,90.877,74.927,104.93,68.5,98.505a1.94,1.94,0,0,0-2.743,2.744l7.8,7.8a1.94,1.94,0,0,0,2.743,0L91.722,93.621a1.94,1.94,0,0,0-2.744-2.744Z" transform="translate(-65.19 -90.309)" fill="#fff" stroke="#fff" stroke-width="1"></path></g></g></g></g><g id="Group_35228" data-name="Group 35228" transform="translate(-8908.642 6730)"><path id="Path_272" data-name="Path 272" d="M43.2,0H0" transform="translate(10.987)" fill="none" stroke="#1b365d" stroke-linecap="round" stroke-width="5"></path><line id="Line_6" data-name="Line 6" x1="55" transform="translate(-0.358 18.392)" fill="none" stroke="#1b365d" stroke-linecap="round" stroke-width="5"></line><line id="Line_7" data-name="Line 7" x1="43" transform="translate(11.642 36.392)" fill="none" stroke="#1b365d" stroke-linecap="round" stroke-width="5"></line></g><g id="calendar" transform="translate(-8644 6719)"><g id="Group_81" data-name="Group 81"><g id="Group_80" data-name="Group 80"><path id="Path_288" data-name="Path 288" d="M56.948,51.869a2.315,2.315,0,0,0,2.315-2.315V13.89A9.27,9.27,0,0,0,50,4.63H46.993V2.315a2.315,2.315,0,1,0-4.63,0V4.63H31.831V2.315a2.315,2.315,0,1,0-4.63,0V4.63H16.783V2.315a2.315,2.315,0,1,0-4.63,0V4.63H9.26A9.27,9.27,0,0,0,0,13.89V50a9.27,9.27,0,0,0,9.26,9.26H50A9.27,9.27,0,0,0,59.263,50a2.315,2.315,0,0,0-4.63,0A4.635,4.635,0,0,1,50,54.633H9.26A4.635,4.635,0,0,1,4.63,50V13.89A4.635,4.635,0,0,1,9.26,9.26h2.894v2.315a2.315,2.315,0,1,0,4.63,0V9.26H27.2v2.315a2.315,2.315,0,1,0,4.63,0V9.26H42.364v2.315a2.315,2.315,0,1,0,4.63,0V9.26H50a4.635,4.635,0,0,1,4.63,4.63V49.554A2.315,2.315,0,0,0,56.948,51.869Z" fill="#1b365d"></path></g></g></g><g id="arrow" transform="translate(-9034 6724)"><g id="Group_79" data-name="Group 79" transform="translate(0 0)"><path id="Path_284" data-name="Path 284" d="M53.7,52.333A4.085,4.085,0,0,0,53,52.28H12.687l.879-.409a8.176,8.176,0,0,0,2.31-1.635l11.3-11.3a4.231,4.231,0,0,0,.593-5.417,4.088,4.088,0,0,0-6.132-.531L1.2,53.425a4.088,4.088,0,0,0,0,5.782l0,0L21.64,79.651a4.088,4.088,0,0,0,6.132-.409,4.231,4.231,0,0,0-.593-5.417L15.9,62.5a8.176,8.176,0,0,0-2.044-1.492l-1.226-.552H52.772a4.231,4.231,0,0,0,4.313-3.434A4.088,4.088,0,0,0,53.7,52.333Z" transform="translate(0 -31.842)" fill="#1b365d"></path></g></g><g id="Group_35242" data-name="Group 35242" transform="translate(-8647 6580)"><g id="check" transform="translate(0 0)"><path id="Path_3898" data-name="Path 3898" d="M32.553,0A32.553,32.553,0,1,0,65.106,32.553,32.59,32.59,0,0,0,32.553,0Zm0,59.187A26.634,26.634,0,1,1,59.187,32.553,26.664,26.664,0,0,1,32.553,59.187Z" fill="#97d700"></path><path id="Path_3899" data-name="Path 3899" d="M106.987,103.138,90.246,119.878l-7.673-7.673a2.959,2.959,0,1,0-4.185,4.185l9.765,9.765a2.959,2.959,0,0,0,2.092.867h0a2.96,2.96,0,0,0,2.092-.867l18.833-18.833a2.959,2.959,0,0,0-4.185-4.185Z" transform="translate(-62.227 -82.094)" fill="#97d700"></path></g></g><g id="Group_35231" data-name="Group 35231" transform="translate(-8513.113 6714.995)"><g id="Ellipse_72" data-name="Ellipse 72" transform="translate(0.113 0.005)" fill="none" stroke="#1b365d" stroke-linecap="round" stroke-width="2" stroke-dasharray="8" opacity="0.3"><circle cx="33.669" cy="33.669" r="33.669" stroke="none"></circle><circle cx="33.669" cy="33.669" r="32.669" fill="none"></circle></g><g id="Group_205" data-name="Group 205" transform="translate(21.162 18.905)" opacity="0.3"><g id="Group_204" data-name="Group 204" transform="translate(0)"><path id="Path_3900" data-name="Path 3900" d="M17.538,12.258a12.415,12.415,0,0,0-1.436-.576,6.489,6.489,0,1,0-7.77,0,12.412,12.412,0,0,0-8.27,9.247,2.9,2.9,0,0,0,2.834,3.5H14.648a.954.954,0,0,0,0-1.909H2.9a.97.97,0,0,1-.763-.363,1,1,0,0,1-.2-.836,10.543,10.543,0,0,1,10.031-8.349q.126,0,.253,0t.255,0a10.4,10.4,0,0,1,4.249,1.009.954.954,0,0,0,.819-1.724Zm-5.091-1.194-.233,0-.231,0a4.581,4.581,0,1,1,.464,0Z" transform="translate(0)" fill="#1b365d"></path></g></g><g id="camera" transform="translate(37.918 33.391)" opacity="0.3"><g id="Group_207" data-name="Group 207" transform="translate(0 0)"><g id="Group_206" data-name="Group 206" transform="translate(0)"><path id="Path_3901" data-name="Path 3901" d="M11.375,46.243a1.265,1.265,0,0,0-.928-.391H8.59v-.022a1,1,0,0,0-.3-.727,1.023,1.023,0,0,0-.727-.3H4.206a1.031,1.031,0,0,0-1.04,1.029v.022H1.32a1.265,1.265,0,0,0-.928.391A1.33,1.33,0,0,0,0,47.171v5.57a1.265,1.265,0,0,0,.391.928,1.33,1.33,0,0,0,.928.391h9.127a1.265,1.265,0,0,0,.928-.391,1.33,1.33,0,0,0,.391-.928v-5.57A1.265,1.265,0,0,0,11.375,46.243Zm-.19,6.5h-.011a.726.726,0,0,1-.727.727H1.32a.726.726,0,0,1-.727-.727v-5.57a.726.726,0,0,1,.727-.727H3.479a.3.3,0,0,0,.3-.3v-.324a.421.421,0,0,1,.436-.436H7.561A.421.421,0,0,1,8,45.818v.324a.3.3,0,0,0,.3.3h2.159a.726.726,0,0,1,.727.727Z" transform="translate(0 -44.8)" fill="#1b365d" stroke="#1b365d" stroke-width="1"></path><path id="Path_3902" data-name="Path 3902" d="M114.319,130.8a2.318,2.318,0,1,0,1.641.679A2.324,2.324,0,0,0,114.319,130.8Zm1.282,3.611a1.821,1.821,0,0,1-2.565,0,1.8,1.8,0,0,1-.528-1.282,1.843,1.843,0,0,1,.528-1.282,1.8,1.8,0,0,1,1.282-.528,1.843,1.843,0,0,1,1.282.528,1.8,1.8,0,0,1,.528,1.282A1.764,1.764,0,0,1,115.6,134.411Z" transform="translate(-108.436 -128.489)" fill="#1b365d" stroke="#1b365d" stroke-width="1"></path></g></g></g></g><g id="information" transform="translate(-8253.122 6579)" opacity="0.65"><g id="Group_150" data-name="Group 150"><g id="Group_149" data-name="Group 149"><path id="Path_335" data-name="Path 335" d="M33.53,0a33.531,33.531,0,1,0,33.53,33.531A33.512,33.512,0,0,0,33.53,0Zm0,61.822A28.291,28.291,0,1,1,61.822,33.531,28.275,28.275,0,0,1,33.53,61.822Z" fill="#00a9e0"></path></g></g><g id="Group_152" data-name="Group 152" transform="translate(30.911 28.073)"><g id="Group_151" data-name="Group 151"><path id="Path_336" data-name="Path 336" d="M238.62,214.33a2.62,2.62,0,0,0-2.62,2.62v16.869a2.62,2.62,0,1,0,5.239,0V216.95A2.62,2.62,0,0,0,238.62,214.33Z" transform="translate(-236 -214.33)" fill="#00a9e0"></path></g></g><g id="Group_154" data-name="Group 154" transform="translate(29.994 17.792)"><g id="Group_153" data-name="Group 153"><ellipse id="Ellipse_33" data-name="Ellipse 33" cx="3.536" cy="3.536" rx="3.536" ry="3.536" fill="#00a9e0"></ellipse></g></g></g><g id="Group_183" data-name="Group 183" transform="translate(-8386.794 6715.288)"><text id="_" data-name="+" transform="translate(21.87 46.019)" fill="#1b365d" font-size="35" font-family="GothamRounded-Medium, Gotham Rounded" font-weight="500" opacity="0.3"><tspan x="0" y="0">+</tspan></text><g id="Ellipse_72-2" data-name="Ellipse 72" transform="translate(-0.206 -0.288)" fill="none" stroke="#1b365d" stroke-linecap="round" stroke-width="2" stroke-dasharray="8" opacity="0.3"><circle cx="33.383" cy="33.383" r="33.383" stroke="none"></circle><circle cx="33.383" cy="33.383" r="32.383" fill="none"></circle></g></g><g id="arrow-point-to-right" transform="translate(-9288 6724)"><path id="Path_276" data-name="Path 276" d="M124.662,27.522,103.126,49.058a3.507,3.507,0,1,1-4.96-4.96l19.056-19.056L98.166,5.987a3.507,3.507,0,0,1,4.96-4.96l21.536,21.536a3.507,3.507,0,0,1,0,4.959Z" transform="translate(-97.139 0)" fill="#1b365d"></path></g><g id="arrow-point-to-right-2" data-name="arrow-point-to-right" transform="translate(-9117.914 6734) rotate(90)"><path id="Path_276-2" data-name="Path 276" d="M124.662,27.522,103.126,49.058a3.507,3.507,0,1,1-4.96-4.96l19.056-19.056L98.166,5.987a3.507,3.507,0,0,1,4.96-4.96l21.536,21.536a3.507,3.507,0,0,1,0,4.959Z" transform="translate(-97.139 0)" fill="#1b365d"></path></g><g id="user_4_" data-name="user (4)" transform="translate(-8914 6580)"><g id="Group_70" data-name="Group 70" transform="translate(0)"><path id="Path_275" data-name="Path 275" d="M64.957,55.8a2.544,2.544,0,0,0-4.981,1.037,2.658,2.658,0,0,1-.539,2.228,2.584,2.584,0,0,1-2.035.967H7.72a2.585,2.585,0,0,1-2.035-.967,2.658,2.658,0,0,1-.539-2.228A28.106,28.106,0,0,1,31.887,34.583q.336.013.674.013t.677-.013A27.984,27.984,0,0,1,55.839,47a2.544,2.544,0,1,0,4.226-2.833A33.089,33.089,0,0,0,42.918,31.145a17.3,17.3,0,1,0-20.706.006A33.087,33.087,0,0,0,.165,55.8a7.728,7.728,0,0,0,7.555,9.32H57.4a7.729,7.729,0,0,0,7.555-9.32ZM20.351,17.3A12.21,12.21,0,1,1,33.179,29.493q-.309-.006-.618-.006t-.616.006A12.226,12.226,0,0,1,20.351,17.3Z" transform="translate(0)" fill="#00a9e0"></path></g></g><g id="swimmer" transform="translate(-9312 6583)"><path id="Path_277" data-name="Path 277" d="M2.853,105.386c29.038-8.254,39.651,8.426,71.883.013a2.238,2.238,0,0,0-1.131-4.332,65.958,65.958,0,0,1-16.78,2.27l-6.49-10.46a10.018,10.018,0,1,0-1.285-2.071l-8.88-14.312,13.178-3.8a6.623,6.623,0,0,0-3.673-12.727l-19.95,5.757A8.117,8.117,0,0,0,25.077,77.8l6.03,9.719c-4.347,2.7-18.134,11.248-18.28,11.349a66.259,66.259,0,0,0-11.2,2.207,2.239,2.239,0,0,0,1.224,4.306ZM54.117,82.791a5.56,5.56,0,1,1,.241,7.859A5.559,5.559,0,0,1,54.117,82.791ZM36.091,87.065l-7.21-11.621a3.642,3.642,0,0,1,2.086-5.422l19.95-5.757a2.146,2.146,0,1,1,1.19,4.124L36.089,73.012a2.24,2.24,0,0,0-1.281,3.331L51.416,103.11c-10.444-.877-18.931-4.027-29.677-4.505l13.63-8.457a2.238,2.238,0,0,0,.722-3.082Z" transform="translate(-0.001 -59.7)" fill="#ef60a3"></path><path id="Path_278" data-name="Path 278" d="M73.6,392.423c-30.838,8.05-41.659-8.606-71.977.013a2.239,2.239,0,0,0,1.224,4.307c29.038-8.255,39.651,8.426,71.883.013a2.238,2.238,0,1,0-1.131-4.332Z" transform="translate(0 -340.61)" fill="#ef60a3"></path></g><path id="audit" d="M44.3,5.391H34.134a8.087,8.087,0,0,0-15.248,0H8.586A8.1,8.1,0,0,0,.5,13.477V60.914A8.1,8.1,0,0,0,8.586,69H44.307a8.1,8.1,0,0,0,8.078-8.086V13.477A8.1,8.1,0,0,0,44.3,5.391ZM23.814,10.781v-2.7a2.7,2.7,0,1,1,5.391,0v2.7H34.6v5.256H18.424V10.781Zm23.18,50.133a2.7,2.7,0,0,1-2.69,2.7H8.586a2.7,2.7,0,0,1-2.7-2.7V13.477a2.7,2.7,0,0,1,2.7-2.7h4.447V21.428H39.986V10.781H44.3a2.7,2.7,0,0,1,2.7,2.7ZM36.78,31l3.987,3.628L23.5,53.6,12.1,42.569l3.748-3.875,7.407,7.165Zm0,0" transform="translate(-9168.5 6578)" fill="#f2a900"></path><g id="Group_131" data-name="Group 131" transform="translate(-9038 6580)"><path id="Path_302" data-name="Path 302" d="M63.4,22.359,42.774,1.737a5.925,5.925,0,0,0-8.361,0L1.726,34.425a5.925,5.925,0,0,0,0,8.36l2.543,2.543h0l17.09,17.09H18.994a1.357,1.357,0,0,0,0,2.713H46.129a1.357,1.357,0,1,0,0-2.713H31.7l31.7-31.7A5.919,5.919,0,0,0,63.4,22.359ZM61.478,28.8,28.79,61.488a3.175,3.175,0,0,1-2.257.931h-.01a3.174,3.174,0,0,1-2.256-.931L7.148,44.369,38.54,12.977a1.357,1.357,0,1,0-1.919-1.919L5.229,42.451,3.645,40.866a3.212,3.212,0,0,1,0-4.523L36.332,3.656a3.212,3.212,0,0,1,4.523,0L48.2,11,16.8,42.388a1.357,1.357,0,0,0,1.919,1.919L50.114,12.914,61.478,24.277A3.2,3.2,0,0,1,61.478,28.8Z" transform="translate(0 -0.011)" fill="#97d700"></path><path id="Path_303" data-name="Path 303" d="M173.651,305.338a1.357,1.357,0,0,0-1.919,0l-10.676,10.676a1.357,1.357,0,0,0,1.919,1.919l10.676-10.676A1.357,1.357,0,0,0,173.651,305.338Z" transform="translate(-140.223 -266.154)" fill="#97d700"></path><path id="Path_304" data-name="Path 304" d="M195.6,385.014l-4.379,4.379a1.357,1.357,0,1,0,1.919,1.919l4.379-4.379a1.357,1.357,0,1,0-1.919-1.919Z" transform="translate(-166.554 -335.696)" fill="#97d700"></path><path id="Path_305" data-name="Path 305" d="M253.377,353.339l-.576.576a1.357,1.357,0,1,0,1.918,1.919l.576-.575a1.357,1.357,0,0,0-1.918-1.919Z" transform="translate(-220.299 -308.05)" fill="#97d700"></path><path id="Path_306" data-name="Path 306" d="M351.682,161.066a1.357,1.357,0,0,0-1.919,0l-5.756,5.756a1.357,1.357,0,0,0,0,1.919l3.838,3.837a1.357,1.357,0,0,0,1.919,0l5.756-5.756a1.357,1.357,0,0,0,0-1.919ZM348.8,169.7l-1.919-1.919,3.837-3.837,1.919,1.919Z" transform="translate(-299.904 -140.234)" fill="#97d700"></path><path id="Path_307" data-name="Path 307" d="M311.03,57.616a1.352,1.352,0,0,0,.959-.4l.576-.576a1.357,1.357,0,1,0-1.919-1.918l-.576.576a1.357,1.357,0,0,0,.96,2.316Z" transform="translate(-270.283 -47.418)" fill="#97d700"></path><path id="Path_308" data-name="Path 308" d="M100.539,355.33l-.576.575a1.357,1.357,0,0,0,1.919,1.919l.576-.576a1.357,1.357,0,0,0-1.919-1.919Z" transform="translate(-86.902 -309.788)" fill="#97d700"></path></g><g id="reloj-de-pared" transform="translate(-8773 6719)"><g id="Group_109" data-name="Group 109" transform="translate(0)"><g id="Group_108" data-name="Group 108"><path id="Path_296" data-name="Path 296" d="M29.631,0A29.631,29.631,0,1,0,59.263,29.631,29.665,29.665,0,0,0,29.631,0Zm0,54.937A25.306,25.306,0,1,1,54.937,29.631,25.335,25.335,0,0,1,29.631,54.937Z" transform="translate(0)" fill="#1b365d"></path></g></g><g id="Group_111" data-name="Group 111" transform="translate(26.027 14.491)"><g id="Group_110" data-name="Group 110"><path id="Path_297" data-name="Path 297" d="M238.555,140.337h-9.372V127.36a2.163,2.163,0,0,0-4.326,0V142.5a2.163,2.163,0,0,0,2.163,2.163h11.535a2.163,2.163,0,1,0,0-4.326Z" transform="translate(-224.857 -125.197)" fill="#1b365d"></path></g></g></g><g id="Group_107" data-name="Group 107" transform="translate(-8772 6578)"><path id="escudo-con-estrella" d="M46.738,69a1.63,1.63,0,0,1-1.3-.649c-.068-.089-3.5-4.56-7.757-5.888-.659-.206-1.532-.4-2.543-.634-5.934-1.348-16.98-3.856-16.98-16.675A47.365,47.365,0,0,1,21.262,28C22.235,25.179,23,22.95,23,20.312a13.874,13.874,0,0,0-4.276-9.869,1.63,1.63,0,0,1,0-2.48L27.616.39a1.63,1.63,0,0,1,2.3.183C30,.666,32.235,3.131,36.9,3.131A9.222,9.222,0,0,0,42.328,1.5,8.092,8.092,0,0,1,46.738,0a8.092,8.092,0,0,1,4.41,1.5,9.222,9.222,0,0,0,5.429,1.634c4.664,0,6.9-2.465,7-2.57A1.644,1.644,0,0,1,65.86.39l8.887,7.574a1.63,1.63,0,0,1,0,2.48,14.045,14.045,0,0,0-4.276,9.869c0,2.638.769,4.867,1.742,7.688a47.365,47.365,0,0,1,3.1,17.153c0,12.819-11.046,15.327-16.98,16.675-1.011.23-1.884.428-2.543.634-4.3,1.343-7.722,5.842-7.756,5.888A1.628,1.628,0,0,1,46.738,69ZM22.158,9.324a17.078,17.078,0,0,1,4.106,10.988c0,3.184-.89,5.764-1.92,8.751a43.953,43.953,0,0,0-2.927,16.09c0,10.216,8.691,12.19,14.442,13.5,1.079.245,2.01.456,2.793.7a20.084,20.084,0,0,1,8.086,5.516,20.082,20.082,0,0,1,8.086-5.516c.783-.245,1.715-.456,2.793-.7,5.751-1.306,14.442-3.28,14.442-13.5a43.95,43.95,0,0,0-2.927-16.09c-1.03-2.987-1.92-5.567-1.92-8.751A17.078,17.078,0,0,1,71.318,9.324l-6.5-5.537a13.5,13.5,0,0,1-8.244,2.6A12.4,12.4,0,0,1,49.48,4.3,5.142,5.142,0,0,0,46.738,3.26,5.142,5.142,0,0,0,44,4.3,12.4,12.4,0,0,1,36.9,6.39a13.5,13.5,0,0,1-8.244-2.6ZM56.664,48.134a1.631,1.631,0,0,1-.758-.187l-9.167-4.82-9.167,4.82a1.63,1.63,0,0,1-2.365-1.718L36.957,36.02l-7.417-7.23a1.63,1.63,0,0,1,.9-2.78l10.249-1.489,4.584-9.288a1.63,1.63,0,0,1,2.923,0l4.584,9.288L63.033,26.01a1.63,1.63,0,0,1,.9,2.78L56.519,36.02,58.27,46.228a1.631,1.631,0,0,1-1.606,1.906Zm-9.926-8.479a1.629,1.629,0,0,1,.759.187l7,3.682-1.338-7.8a1.63,1.63,0,0,1,.469-1.443L59.3,28.762l-7.829-1.138a1.63,1.63,0,0,1-1.227-.892l-3.5-7.095-3.5,7.095a1.629,1.629,0,0,1-1.227.892L34.18,28.762l5.665,5.522a1.63,1.63,0,0,1,.469,1.443l-1.338,7.8,7-3.682A1.637,1.637,0,0,1,46.738,39.655Z" transform="translate(-18.157 0)" fill="#f2a900"></path><g id="Group_100" data-name="Group 100" transform="translate(39.147 17.25)"><g id="Group_89" data-name="Group 89" transform="translate(0 0)"><path id="Path_291" data-name="Path 291" d="M381.17,20.274a1.2,1.2,0,0,0-1.671.265l-1.27,1.748a1.2,1.2,0,1,0,1.936,1.406l1.27-1.748A1.2,1.2,0,0,0,381.17,20.274Z" transform="translate(-378.001 -20.045)" fill="#f2a900"></path></g></g><g id="Group_101" data-name="Group 101" transform="translate(13.867 17.243)"><g id="Group_91" data-name="Group 91" transform="translate(0 0)"><path id="Path_292" data-name="Path 292" d="M96.024,22.207l-1.27-1.748a1.2,1.2,0,0,0-1.936,1.406l1.27,1.748a1.2,1.2,0,1,0,1.936-1.406Z" transform="translate(-92.59 -19.966)" fill="#f2a900"></path></g></g><g id="Group_102" data-name="Group 102" transform="translate(9.418 37.46)"><g id="Group_93" data-name="Group 93" transform="translate(0)"><path id="Path_293" data-name="Path 293" d="M4.389,298.32a1.2,1.2,0,0,0-1.507-.768l-2.055.668a1.2,1.2,0,1,0,.739,2.275l2.055-.668A1.2,1.2,0,0,0,4.389,298.32Z" transform="translate(0 -297.493)" fill="#f2a900"></path></g></g><g id="Group_103" data-name="Group 103" transform="translate(27.145 49.387)"><g id="Group_95" data-name="Group 95"><path id="Path_294" data-name="Path 294" d="M243.7,456.786a1.2,1.2,0,0,0-1.2,1.2v2.161a1.2,1.2,0,0,0,2.393,0v-2.161A1.2,1.2,0,0,0,243.7,456.786Z" transform="translate(-242.499 -456.786)" fill="#f2a900"></path></g></g><g id="Group_104" data-name="Group 104" transform="translate(42.81 37.462)"><g id="Group_97" data-name="Group 97"><path id="Path_295" data-name="Path 295" d="M465.4,298.24l-2.055-.668a1.2,1.2,0,0,0-.739,2.276l2.055.668a1.2,1.2,0,0,0,.739-2.276Z" transform="translate(-461.783 -297.513)" fill="#f2a900"></path></g></g></g><g id="Group_122" data-name="Group 122" transform="translate(-8512.185 6580.081)"><circle id="Ellipse_31" data-name="Ellipse 31" cx="32.561" cy="32.561" r="32.561" transform="translate(0.185 -0.081)" fill="#97d700"></circle><g id="check-2" data-name="check" transform="translate(16.084 20.661)"><path id="Path_289" data-name="Path 289" d="M31.656,60.759l-17.2,17.2a3.265,3.265,0,0,1-4.616,0L.955,69.081a3.264,3.264,0,0,1,4.615-4.616l6.574,6.574,14.9-14.9a3.264,3.264,0,0,1,4.616,4.616Z" transform="translate(0 -55.188)" fill="#fff"></path></g></g><g id="Group_35244" data-name="Group 35244" transform="translate(1)"><circle id="Ellipse_31-2" data-name="Ellipse 31" cx="32.5" cy="32.5" r="32.5" transform="translate(-8388 6580)" fill="red"></circle><path id="close" d="M15.267,13.038,25.315,2.99A1.672,1.672,0,0,0,22.951.626L12.9,10.674,2.854.626A1.672,1.672,0,0,0,.49,2.99L10.539,13.038.49,23.087a1.672,1.672,0,1,0,2.364,2.364L12.9,15.4,22.951,25.451a1.672,1.672,0,1,0,2.364-2.364Zm0,0" transform="translate(-8368.756 6599.3)" fill="#fff" stroke="#fff" stroke-width="1"></path></g></g></g></g></svg>