<svg xmlns="http://www.w3.org/2000/svg" width="263.41" height="109.482" viewBox="0 0 263.41 109.482"><g id="Group_35372" data-name="Group 35372" transform="translate(-9068 11082.914)"><g id="Group_35371" data-name="Group 35371" transform="translate(9068 -11082.914)"><g id="Group_22029" data-name="Group 22029" transform="translate(0 0)"><path id="Path_6413" data-name="Path 6413" d="M3414.111,3905.927H3174.788c-6.038,0-10.931-6.217-10.931-13.886v-79.723c0-7.67,4.894-13.886,10.931-13.886h239.323c6.037,0,10.931,6.217,10.931,13.886v79.723C3425.042,3899.71,3420.148,3905.927,3414.111,3905.927Z" transform="translate(-3161.632 -3796.444)" fill="#cfdfff"></path><rect id="Rectangle_12686" data-name="Rectangle 12686" width="261.186" height="106.786" rx="12.444" fill="#fff"></rect><path id="Path_9165" data-name="Path 9165" d="M9.656,0H251.53a9.75,9.75,0,0,1,9.656,9.842v87.1a9.75,9.75,0,0,1-9.656,9.842H9.656A9.75,9.75,0,0,1,0,96.944V9.842A9.75,9.75,0,0,1,9.656,0Z" transform="translate(0.829 0.829)" fill="#f2f3fa"></path></g></g><text id="Product_Roadmaps_Design_New_Features_Develop_New_Features" data-name="Product Roadmaps Design New Features Develop New Features" transform="translate(9113 -11067.914)" fill="#4147fd" font-size="13" font-family="Montserrat-Regular, Montserrat"><tspan x="23.235" y="13">Product Roadmaps</tspan><tspan x="86.5" y="29"></tspan><tspan x="16.853" y="45">Design New Features</tspan><tspan x="86.5" y="61"></tspan><tspan x="13.121" y="77">Develop New Features</tspan></text></g></svg>