<svg xmlns="http://www.w3.org/2000/svg" width="1947" height="634" viewBox="0 0 1947 634"><g id="Group_35372" data-name="Group 35372" transform="translate(0 -2928)"><rect id="Rectangle_20447" data-name="Rectangle 20447" width="1947" height="634" rx="3" transform="translate(0 2928)" fill="#5389ad" opacity="0.997"></rect><text id="Iconography" transform="translate(1244 3348)" fill="#fff" font-size="80" font-family="SpaceMono-Bold, Space Mono" font-weight="700" opacity="0.672"><tspan x="0" y="90">Iconography</tspan></text><g id="Group_35201" data-name="Group 35201" transform="translate(5573.44 4413)"><g id="Group_35200" data-name="Group 35200"><g id="Group_35199" data-name="Group 35199"><path id="Path_12762" data-name="Path 12762" d="M82.5,223.915H25.7l13.546-13.546a3.04,3.04,0,1,0-4.3-4.3L16.212,224.808a3.04,3.04,0,0,0,0,4.3h0l18.744,18.744a3.04,3.04,0,0,0,4.3-4.3L25.708,230.006h56.8a3.039,3.039,0,1,0,.007-6.079h-.007Z" transform="translate(-4884.321 -1365.179)" fill="#fff"></path><g id="Group_35192" data-name="Group 35192" transform="translate(65.414 -641.062)"><path id="Path_12763" data-name="Path 12763" d="M228.548,454.534h-6.1a2.34,2.34,0,0,1-1.656-4l4.311-4.316a3.361,3.361,0,0,0,0-4.751l-5.5-5.5a3.44,3.44,0,0,0-4.751,0l-4.321,4.312a2.341,2.341,0,0,1-4-1.657v-6.1a3.362,3.362,0,0,0-3.347-3.357h-7.777a3.362,3.362,0,0,0-3.354,3.357v6.1a2.341,2.341,0,0,1-4,1.657l-4.315-4.316a3.44,3.44,0,0,0-4.751,0l-5.5,5.5a3.361,3.361,0,0,0,0,4.751l4.315,4.309a2.341,2.341,0,0,1-1.656,4h-6.1a3.361,3.361,0,0,0-3.357,3.357v7.776a3.362,3.362,0,0,0,3.357,3.357h6.1a2.341,2.341,0,0,1,1.656,4l-4.315,4.316a3.36,3.36,0,0,0,0,4.75l5.5,5.5a3.438,3.438,0,0,0,4.751,0l4.311-4.312a2.341,2.341,0,0,1,4,1.656v6.1a3.362,3.362,0,0,0,3.357,3.357h7.777a3.362,3.362,0,0,0,3.357-3.357v-6.1a2.341,2.341,0,0,1,4-1.656l4.311,4.312a3.44,3.44,0,0,0,4.751,0l5.5-5.5a3.36,3.36,0,0,0,0-4.75l-4.311-4.323a2.341,2.341,0,0,1,1.659-4h6.1a3.36,3.36,0,0,0,3.357-3.357v-7.766a3.362,3.362,0,0,0-3.361-3.354m.941,11.133a.941.941,0,0,1-.941.941h-6.1a4.757,4.757,0,0,0-3.364,8.117l4.312,4.312a.941.941,0,0,1,0,1.331l0,0-5.5,5.5a.941.941,0,0,1-1.331,0l0,0-4.309-4.311a4.756,4.756,0,0,0-8.117,3.363v6.1a.942.942,0,0,1-.942.941h-7.783a.941.941,0,0,1-.941-.941v-6.1a4.681,4.681,0,0,0-2.922-4.4,4.82,4.82,0,0,0-1.851-.376,4.69,4.69,0,0,0-3.335,1.406l-4.325,4.315a.941.941,0,0,1-1.331,0l0,0-5.5-5.5a.942.942,0,0,1,0-1.331l0,0,4.312-4.312a4.757,4.757,0,0,0-3.364-8.117h-6.1a.941.941,0,0,1-.941-.941v-7.779a.942.942,0,0,1,.941-.943h6.1a4.756,4.756,0,0,0,3.363-8.117l-4.315-4.315a.943.943,0,0,1,0-1.332l0,0,5.5-5.5a.942.942,0,0,1,1.332,0l0,0,4.312,4.312a4.756,4.756,0,0,0,8.117-3.364v-6.1a.941.941,0,0,1,.941-.941h7.777a.946.946,0,0,1,.941.941v6.1A4.757,4.757,0,0,0,212.244,442l4.312-4.312a.941.941,0,0,1,1.331,0l0,0,5.5,5.5a.942.942,0,0,1,0,1.331l0,0-4.306,4.308a4.758,4.758,0,0,0,3.364,8.118h6.1a.941.941,0,0,1,.941.941Z" transform="translate(-5098.985 -1087.985)" fill="#fff"></path><path id="Path_12764" data-name="Path 12764" d="M203.2,494.526h-7.777a3.493,3.493,0,0,1-3.485-3.484v-6.1a2.213,2.213,0,0,0-2.213-2.215h0a2.2,2.2,0,0,0-1.565.649l-4.312,4.312a3.556,3.556,0,0,1-4.928,0l-5.5-5.5a3.492,3.492,0,0,1,0-4.93l4.315-4.315a2.228,2.228,0,0,0,.649-1.567,2.215,2.215,0,0,0-2.213-2.213h-6.1a3.493,3.493,0,0,1-3.485-3.484V457.9a3.494,3.494,0,0,1,3.485-3.485h6.1a2.213,2.213,0,0,0,1.564-3.779l-4.315-4.309a3.492,3.492,0,0,1,0-4.931l5.5-5.5a3.56,3.56,0,0,1,4.929,0l4.317,4.317a2.2,2.2,0,0,0,1.565.649h0a2.215,2.215,0,0,0,2.212-2.214v-6.1a3.5,3.5,0,0,1,3.482-3.485H203.2a3.5,3.5,0,0,1,3.475,3.485v6.1a2.213,2.213,0,0,0,2.214,2.214h0a2.2,2.2,0,0,0,1.564-.649l4.323-4.312a3.562,3.562,0,0,1,4.928,0l5.5,5.5a3.492,3.492,0,0,1,0,4.93l-4.311,4.316a2.231,2.231,0,0,0-.65,1.566,2.215,2.215,0,0,0,2.214,2.213h6.1a3.494,3.494,0,0,1,3.489,3.482v7.767a3.494,3.494,0,0,1-3.485,3.485H222.46a2.225,2.225,0,0,0-1.565.649,2.211,2.211,0,0,0,0,3.13l4.311,4.321a3.493,3.493,0,0,1,0,4.932l-5.5,5.5a3.562,3.562,0,0,1-4.929,0l-4.313-4.315a2.2,2.2,0,0,0-1.565-.649h0a2.216,2.216,0,0,0-2.212,2.215v6.1a3.493,3.493,0,0,1-3.485,3.485M189.729,482.47a2.467,2.467,0,0,1,2.468,2.47v6.1a3.238,3.238,0,0,0,3.23,3.23H203.2a3.238,3.238,0,0,0,3.23-3.23v-6.1a2.471,2.471,0,0,1,2.467-2.47h0a2.45,2.45,0,0,1,1.746.724l4.311,4.311a3.3,3.3,0,0,0,4.572,0l5.494-5.494a3.237,3.237,0,0,0,0-4.57l-4.311-4.321a2.468,2.468,0,0,1,0-3.492,2.484,2.484,0,0,1,1.746-.723h6.106a3.239,3.239,0,0,0,3.23-3.23V457.9a3.239,3.239,0,0,0-3.233-3.226h-6.1a2.469,2.469,0,0,1-2.469-2.468,2.485,2.485,0,0,1,.724-1.747l4.311-4.315a3.237,3.237,0,0,0,0-4.57l-5.5-5.5a3.307,3.307,0,0,0-4.572,0l-4.319,4.31a2.449,2.449,0,0,1-1.745.723h0a2.469,2.469,0,0,1-2.469-2.469v-6.1a3.239,3.239,0,0,0-3.221-3.23h-7.776a3.239,3.239,0,0,0-3.226,3.23v6.1a2.471,2.471,0,0,1-2.467,2.469h0a2.451,2.451,0,0,1-1.746-.723l-4.315-4.316a3.307,3.307,0,0,0-4.572,0l-5.494,5.5a3.236,3.236,0,0,0,0,4.569l4.315,4.309a2.469,2.469,0,0,1-1.745,4.215h-6.1a3.239,3.239,0,0,0-3.23,3.23v7.777a3.237,3.237,0,0,0,3.23,3.229h6.1a2.469,2.469,0,0,1,2.468,2.468,2.482,2.482,0,0,1-.723,1.747l-4.315,4.316a3.237,3.237,0,0,0,0,4.57l5.5,5.5a3.3,3.3,0,0,0,4.572,0l4.309-4.31a2.458,2.458,0,0,1,1.746-.723Zm13.482,9.637h-7.784a1.07,1.07,0,0,1-1.069-1.069v-6.1a4.527,4.527,0,0,0-2.842-4.278,4.675,4.675,0,0,0-1.8-.367,4.6,4.6,0,0,0-3.243,1.367l-4.326,4.317a1.07,1.07,0,0,1-1.512,0l-5.5-5.5a1.071,1.071,0,0,1,0-1.512l4.316-4.315a4.629,4.629,0,0,0-3.274-7.9h-6.1a1.071,1.071,0,0,1-1.069-1.07V457.9a1.07,1.07,0,0,1,1.069-1.069h6.1a4.63,4.63,0,0,0,3.274-7.9l-4.316-4.315a1.071,1.071,0,0,1,0-1.512l5.5-5.5a1.072,1.072,0,0,1,1.513,0l4.315,4.316a4.629,4.629,0,0,0,7.9-3.274v-6.1a1.071,1.071,0,0,1,1.069-1.07H203.2a1.076,1.076,0,0,1,1.069,1.069v6.1a4.636,4.636,0,0,0,4.63,4.626h0a4.6,4.6,0,0,0,3.267-1.354l4.312-4.311a1.065,1.065,0,0,1,.755-.315h0a1.064,1.064,0,0,1,.755.312l5.5,5.5a1.068,1.068,0,0,1,0,1.512l-4.309,4.312a4.629,4.629,0,0,0,3.274,7.9h6.1a1.07,1.07,0,0,1,1.069,1.069v7.783a1.071,1.071,0,0,1-1.069,1.07h-6.1a4.629,4.629,0,0,0-3.274,7.9l4.312,4.311a1.072,1.072,0,0,1,0,1.513l-5.5,5.5a1.066,1.066,0,0,1-.756.314h0a1.059,1.059,0,0,1-.754-.312l-4.312-4.315a4.629,4.629,0,0,0-7.9,3.274v6.1a1.07,1.07,0,0,1-1.069,1.069m-13.5-12.071a4.923,4.923,0,0,1,1.9.386,4.781,4.781,0,0,1,3,4.516v6.1a.815.815,0,0,0,.814.814h7.784a.815.815,0,0,0,.814-.814v-6.1a4.884,4.884,0,0,1,8.335-3.455l4.309,4.312a.811.811,0,0,0,.576.24h0a.81.81,0,0,0,.574-.24l5.5-5.5a.816.816,0,0,0,0-1.155l-4.311-4.311a4.884,4.884,0,0,1,3.453-8.335h6.1a.816.816,0,0,0,.814-.815V457.9a.815.815,0,0,0-.814-.814h-6.1a4.884,4.884,0,0,1-3.453-8.335l4.3-4.309a.814.814,0,0,0,0-1.154l-5.5-5.5a.816.816,0,0,0-1.154,0l-4.312,4.312a4.854,4.854,0,0,1-3.448,1.428h0a4.891,4.891,0,0,1-4.885-4.882v-6.1a.82.82,0,0,0-.814-.815h-7.777a.816.816,0,0,0-.814.815v6.1a4.885,4.885,0,0,1-8.335,3.455l-4.311-4.312a.816.816,0,0,0-1.154,0l-5.5,5.5a.814.814,0,0,0,0,1.154l4.315,4.316a4.884,4.884,0,0,1-3.453,8.335h-6.1a.815.815,0,0,0-.814.814v7.779a.816.816,0,0,0,.814.815h6.1a4.884,4.884,0,0,1,3.453,8.335l-4.311,4.311a.816.816,0,0,0,0,1.154l5.5,5.5a.817.817,0,0,0,1.154,0l4.326-4.316a4.848,4.848,0,0,1,3.424-1.443" transform="translate(-5099 -1088)" fill="#fff"></path><path id="Path_12765" data-name="Path 12765" d="M196.8,448.408a10.868,10.868,0,1,0,10.868,10.868A10.868,10.868,0,0,0,196.8,448.408m0,19.32a8.442,8.442,0,1,1,8.442-8.442,8.442,8.442,0,0,1-8.442,8.442" transform="translate(-5096.484 -1085.484)" fill="#fff"></path><path id="Path_12766" data-name="Path 12766" d="M196.815,470.286a11,11,0,1,1,11-11,11.008,11.008,0,0,1-11,11m0-21.736a10.74,10.74,0,1,0,10.74,10.74,10.752,10.752,0,0,0-10.74-10.74m0,19.32h0a8.57,8.57,0,1,1,8.57-8.57,8.58,8.58,0,0,1-8.57,8.57m0-16.884a8.314,8.314,0,1,0,8.315,8.314,8.325,8.325,0,0,0-8.315-8.314" transform="translate(-5096.499 -1085.498)" fill="#fff"></path></g><g id="Group_35191" data-name="Group 35191" transform="translate(501.728 -504.248)"><path id="Path_12767" data-name="Path 12767" d="M197.834,336.293h18.371a1.086,1.086,0,0,0,1.15-1.019c0-.043,0-.087,0-.13V324.8a1.086,1.086,0,0,0-1.019-1.149.957.957,0,0,0-.131,0H197.834a1.086,1.086,0,0,0-1.15,1.019c0,.043,0,.087,0,.13v10.344a1.086,1.086,0,0,0,1.019,1.149.957.957,0,0,0,.131,0m1.149-10.344h16.09v8.045h-16.09Z" transform="translate(-5099 -1088)" fill="#fff"></path><path id="Path_12768" data-name="Path 12768" d="M166.831,321.364h9.194a1.15,1.15,0,1,0,0-2.3h-9.194a1.15,1.15,0,0,0,0,2.3" transform="translate(-5099 -1088)" fill="#fff"></path><path id="Path_12769" data-name="Path 12769" d="M180.609,321.364H189.8a1.15,1.15,0,1,0,0-2.3h-9.194a1.15,1.15,0,0,0,0,2.3" transform="translate(-5099 -1088)" fill="#fff"></path><path id="Path_12770" data-name="Path 12770" d="M166.831,325.958h14.941a1.15,1.15,0,0,0,0-2.3H166.831a1.15,1.15,0,0,0,0,2.3" transform="translate(-5099 -1088)" fill="#fff"></path><path id="Path_12771" data-name="Path 12771" d="M189.8,323.662h-3.448a1.15,1.15,0,0,0,0,2.3H189.8a1.15,1.15,0,0,0,0-2.3" transform="translate(-5099 -1088)" fill="#fff"></path><path id="Path_12772" data-name="Path 12772" d="M228.951,309.423a4.275,4.275,0,0,0-3.1-1.724l-2.755-.334v-5.519a4.6,4.6,0,0,0-4.6-4.6H165.685a4.6,4.6,0,0,0-4.6,4.6v36.74a4.6,4.6,0,0,0,3.29,4.4,4.468,4.468,0,0,0,4.06,4.554l53.049,5.982h.459a4.6,4.6,0,0,0,4.6-3.9l3.447-36.861a4.458,4.458,0,0,0-1.04-3.338m-65.564-4.135H220.8v6.9H163.387Zm2.3-5.747H218.5a2.3,2.3,0,0,1,2.3,2.3v1.149H163.387V301.84a2.3,2.3,0,0,1,2.3-2.293Zm-2.3,39.045V314.477H220.8v24.109a2.3,2.3,0,0,1-2.3,2.3H165.685a2.3,2.3,0,0,1-2.3-2.3m64.3-26.3-3.448,36.861a2.316,2.316,0,0,1-2.525,2.066l-52.934-5.968a2.321,2.321,0,0,1-2.069-2.066H218.5a4.6,4.6,0,0,0,4.6-4.6V309.537l2.64.23a1.962,1.962,0,0,1,1.494.8,2.324,2.324,0,0,1,.454,1.721Z" transform="translate(-5099 -1088)" fill="#fff"></path></g><g id="Group_35194" data-name="Group 35194" transform="translate(355.424 -923.26)"><path id="Path_12773" data-name="Path 12773" d="M211.856,717.7a2.875,2.875,0,1,0-2.381,5.234l.081.035a25.866,25.866,0,1,1-20.7,0,2.875,2.875,0,0,0-2.3-5.266,31.623,31.623,0,1,0,25.3,0Z" transform="translate(-5099 -1087.061)" fill="#fff"></path><path id="Path_12774" data-name="Path 12774" d="M195.884,741.88A2.875,2.875,0,0,0,198.76,739v-25.87a2.875,2.875,0,0,0-5.751,0V739A2.875,2.875,0,0,0,195.884,741.88Z" transform="translate(-5095.676 -1088)" fill="#fff"></path></g><path id="Path_12775" data-name="Path 12775" d="M230.083,173.778a2.8,2.8,0,0,0-2.255-1.922l-20.461-2.99a.2.2,0,0,1-.153-.112l-9.147-18.534a2.8,2.8,0,0,0-5.023,0L183.9,168.754a.2.2,0,0,1-.153.112l-20.467,2.99a2.8,2.8,0,0,0-2.295,3.516,3.09,3.09,0,0,0,.864,1.376l14.684,14.3a.2.2,0,0,1,.058.18L173.1,211.613a2.8,2.8,0,0,0,2.632,3.274,3.1,3.1,0,0,0,1.577-.4l18.151-9.546a.2.2,0,0,1,.189,0l18.295,9.621a2.8,2.8,0,0,0,3.926-1.49,3.084,3.084,0,0,0,.112-1.623l-3.466-20.21a.2.2,0,0,1,.059-.18l14.8-14.418a2.8,2.8,0,0,0,.712-2.867m-20.552,14.366a2.8,2.8,0,0,0-.807,2.48l2.731,15.926a.2.2,0,0,1-.294.214l-14.307-7.515a2.8,2.8,0,0,0-2.609,0l-14.306,7.523a.2.2,0,0,1-.295-.214l2.732-15.926a2.8,2.8,0,0,0-.808-2.479l-11.574-11.275a.2.2,0,0,1,.112-.347l15.9-2.324a3.006,3.006,0,0,0,2.259-1.643l7.106-14.395a.2.2,0,0,1,.364,0l7.106,14.395a3,3,0,0,0,2.259,1.643l15.9,2.324a.2.2,0,0,1,.112.347Z" transform="translate(-5167.882 -1448.66)" fill="#fff"></path><g id="Group_35190" data-name="Group 35190" transform="translate(-208.553 -230.926)"><path id="Path_12776" data-name="Path 12776" d="M184.71,82.92A4.818,4.818,0,0,1,180.2,79.8l-2.189-5.837a7.682,7.682,0,0,0-4.5-4.5l-5.838-2.193q-.15-.056-.3-.123a4.814,4.814,0,0,1-2.392-6.366l2.582-5.676a7.687,7.687,0,0,0,0-6.363l-2.582-5.678c-.046-.1-.087-.2-.124-.3a4.813,4.813,0,0,1,2.813-6.194l5.837-2.189a7.688,7.688,0,0,0,4.5-4.5l2.187-5.832a4.824,4.824,0,0,1,4.5-3.123h.005a4.8,4.8,0,0,1,1.985.429l5.677,2.583a7.7,7.7,0,0,0,6.365,0l5.676-2.581c.1-.045.2-.085.3-.123a4.81,4.81,0,0,1,6.2,2.81l2.187,5.838a7.676,7.676,0,0,0,4.5,4.5l5.837,2.192c.1.037.2.078.294.122a4.809,4.809,0,0,1,2.4,6.368l-2.579,5.675a7.682,7.682,0,0,0,0,6.364l2.581,5.677c.045.1.086.2.124.3a4.815,4.815,0,0,1-2.813,6.193l-5.837,2.189a7.683,7.683,0,0,0-4.5,4.5L210.9,79.8c-.037.1-.077.2-.12.293a4.818,4.818,0,0,1-6.369,2.4l-5.675-2.579a7.671,7.671,0,0,0-6.364,0l-5.678,2.582c-.1.045-.2.086-.3.123a4.8,4.8,0,0,1-1.686.307m0-58.976a1.815,1.815,0,0,0-.689.139,1.77,1.77,0,0,0-.992,1.022l-2.19,5.837a10.7,10.7,0,0,1-6.264,6.264L168.735,39.4a1.8,1.8,0,0,0-1.049,2.313c.015.04.031.078.048.115l2.579,5.672a10.7,10.7,0,0,1,0,8.861l-2.581,5.674a1.8,1.8,0,0,0,.894,2.374c.037.016.074.032.111.046l5.836,2.191a10.7,10.7,0,0,1,6.264,6.265l2.188,5.835a1.8,1.8,0,0,0,2.311,1.049c.037-.014.075-.03.112-.046l5.674-2.58a10.681,10.681,0,0,1,8.861,0l5.673,2.578a1.8,1.8,0,0,0,2.375-.894c.015-.034.031-.071.045-.109l2.193-5.837a10.691,10.691,0,0,1,6.264-6.264l5.836-2.189a1.8,1.8,0,0,0,1.048-2.311c-.014-.038-.03-.075-.047-.112l-2.579-5.674a10.7,10.7,0,0,1,0-8.86l2.578-5.674a1.795,1.795,0,0,0-.893-2.374c-.036-.016-.074-.032-.112-.046l-5.835-2.192a10.693,10.693,0,0,1-6.264-6.265L208.078,25.1a1.794,1.794,0,0,0-2.311-1.046c-.037.014-.074.029-.111.046l-5.675,2.58a10.707,10.707,0,0,1-8.859,0L185.447,24.1a1.808,1.808,0,0,0-.741-.16" transform="translate(-5099 -1088)" fill="#fff"></path><path id="Path_12777" data-name="Path 12777" d="M184.949,50.782h0a6.809,6.809,0,1,1,6.808-6.809,6.817,6.817,0,0,1-6.808,6.809m0-10.6a3.793,3.793,0,1,0,3.793,3.793,3.8,3.8,0,0,0-3.793-3.793" transform="translate(-5099 -1088)" fill="#fff"></path><path id="Path_12778" data-name="Path 12778" d="M206.428,66.682h0a6.809,6.809,0,1,1,6.809-6.809,6.817,6.817,0,0,1-6.809,6.809m0-10.6a3.793,3.793,0,1,0,3.793,3.792,3.8,3.8,0,0,0-3.793-3.792" transform="translate(-5099 -1088)" fill="#fff"></path><path id="Path_12779" data-name="Path 12779" d="M188.391,63.88a2.4,2.4,0,0,1-1.911-3.832l14.346-19.165a2.393,2.393,0,0,1,3.826,2.874L190.309,62.921a2.387,2.387,0,0,1-1.915.958Z" transform="translate(-5099 -1088)" fill="#fff"></path></g><g id="Group_35193" data-name="Group 35193" transform="translate(214.608 -774.727)"><path id="Path_12780" data-name="Path 12780" d="M195.551,626.044a30.159,30.159,0,1,1,30.159-30.159,30.193,30.193,0,0,1-30.159,30.159m0-57.3a27.143,27.143,0,1,0,27.143,27.143,27.173,27.173,0,0,0-27.143-27.143" transform="translate(-5099 -1088)" fill="#fff"></path><path id="Path_12781" data-name="Path 12781" d="M192.669,580.47a2.937,2.937,0,0,1,1.99-2.495,2.931,2.931,0,1,1,.939,5.734,2.906,2.906,0,0,1-2.929-3.239m2.858,7.464h0a2.16,2.16,0,0,1,2.16,2.16v21.693a2.16,2.16,0,1,1-4.32,0V590.094a2.16,2.16,0,0,1,2.16-2.16" transform="translate(-5099 -1088)" fill="#fff"></path></g><g id="Group_35196" data-name="Group 35196" transform="translate(653.622 -813.401)"><path id="Path_12782" data-name="Path 12782" d="M351.5,610.431a33.653,33.653,0,0,0-55.452,35.22,1.37,1.37,0,1,0,2.578-.929,30.913,30.913,0,1,1,51.487,10.791l-.2.207c-.117.125-.23.247-.352.368a30.95,30.95,0,0,1-43.721,0c-.064-.064-.126-.13-.189-.194v-.375c0-.276.005-.553.014-.829a1.724,1.724,0,0,1,.014-.273c0-.182.017-.365.032-.544,0-.108.018-.208.029-.323.014-.163.027-.327.045-.489.013-.114.029-.228.043-.342.019-.153.038-.308.06-.461.016-.116.037-.232.058-.348.025-.149.048-.3.077-.448s.045-.234.07-.349.058-.292.091-.437.056-.234.083-.352.068-.285.1-.426a3.349,3.349,0,0,1,.1-.34c.041-.11.079-.28.12-.415s.072-.232.109-.348.087-.275.135-.414.081-.229.122-.343.1-.272.15-.414.089-.226.132-.338.108-.265.162-.4.1-.224.145-.333.116-.261.176-.389.1-.219.157-.327.126-.257.191-.384.112-.207.168-.321.135-.251.207-.377l.178-.313c.06-.106.145-.246.219-.368l.189-.306c.076-.122.153-.242.232-.36l.207-.3c.08-.118.163-.237.247-.355s.138-.194.207-.29.172-.229.259-.345.145-.189.219-.282.182-.226.273-.338l.228-.274c.095-.112.191-.219.287-.329s.155-.176.237-.264.207-.207.3-.321l.244-.255c.1-.106.207-.207.317-.312s.165-.163.25-.243.222-.207.331-.3.168-.155.255-.229.232-.207.35-.3l.256-.208c.123-.1.247-.194.368-.292.088-.069.172-.136.259-.207.131-.1.263-.2.4-.29.083-.061.165-.123.25-.182.147-.1.3-.207.446-.3l.219-.149c.194-.126.393-.248.592-.37l.094-.059q.345-.207.7-.4l.247-.13c.157-.085.314-.168.474-.248.1-.052.207-.1.311-.15s.261-.126.394-.188a13.329,13.329,0,0,0,18.463,0A22.3,22.3,0,0,1,347.9,646.658a1.37,1.37,0,1,0,2.507-1.1,24.693,24.693,0,0,0-11.646-12.218,13.363,13.363,0,0,0-11.058-20.89,1.37,1.37,0,0,0,0,2.74,10.632,10.632,0,1,1-7.479,3.077,1.369,1.369,0,0,0-1.926-1.946,13.352,13.352,0,0,0-1.656,17.014l-.04.02-.316.164c-.162.085-.325.167-.485.255-.114.061-.224.126-.335.191-.15.085-.3.17-.448.256l-.34.207c-.141.088-.284.174-.414.263l-.338.224c-.135.091-.272.181-.414.274l-.333.238q-.2.14-.387.284l-.327.25q-.188.148-.373.3l-.319.261-.36.306-.309.272c-.117.106-.233.213-.348.321l-.3.282c-.114.11-.226.221-.338.333s-.191.191-.284.288-.219.232-.327.348-.182.2-.271.294-.208.244-.32.367-.172.2-.255.3-.207.258-.316.389c-.079.1-.158.192-.235.292-.109.141-.207.285-.322.429-.067.09-.137.18-.208.271-.135.186-.265.377-.4.567l-.1.149q-.242.363-.47.731c-.051.085-.1.172-.153.256-.1.163-.208.327-.294.495-.06.1-.116.208-.174.315-.082.151-.167.3-.246.453-.06.114-.116.228-.174.341-.075.147-.149.294-.219.443s-.112.238-.166.356-.135.294-.207.442-.1.247-.155.368-.124.3-.182.445-.1.25-.145.377-.112.3-.166.45-.089.256-.132.385-.1.3-.149.454-.081.258-.12.389-.089.308-.133.462-.073.261-.106.394-.079.312-.117.47-.061.263-.09.4-.069.322-.1.48-.053.263-.076.4c-.03.164-.056.33-.083.493-.021.13-.043.261-.062.391-.024.17-.045.342-.069.514-.016.126-.033.253-.047.381-.019.18-.035.36-.05.54-.011.12-.023.24-.032.36-.014.208-.024.414-.033.607,0,.1-.013.208-.017.3q-.016.455-.016.916c0,.331.01.644.024.99a1.468,1.468,0,0,0,.032.234v.018a1.394,1.394,0,0,0,.068.208v.021a1.448,1.448,0,0,0,.1.2l.04.033a1.386,1.386,0,0,0,.136.172v.013l.181.192c.136.147.273.293.414.435a33.693,33.693,0,0,0,47.6,0c.143-.143.279-.288.414-.435l.181-.192a33.648,33.648,0,0,0-.6-46.968Z" transform="translate(-5099.017 -1088.017)" fill="#fff"></path><path id="Path_12783" data-name="Path 12783" d="M327.679,668a33.76,33.76,0,0,1-23.918-9.869c-.143-.145-.281-.292-.418-.44l-.226-.256c-.033-.039-.064-.079-.094-.122l-.056-.057a1.568,1.568,0,0,1-.116-.221l-.014-.054a1.526,1.526,0,0,1-.064-.2l0-.059a1.157,1.157,0,0,1-.031-.227c-.014-.349-.025-.664-.025-1q0-.463.017-.922l.008-.121c0-.058.008-.117.008-.175.008-.2.019-.41.034-.619.005-.085.014-.17.021-.256l.01-.107c.014-.18.031-.361.05-.543.015-.132.032-.258.049-.386l.019-.148c.016-.124.032-.247.05-.368.012-.088.027-.175.042-.264l.041-.255c.021-.124.042-.248.063-.371.016-.092.033-.172.051-.265l.027-.134c.031-.161.071-.35.1-.484s.05-.221.082-.359c.047-.2.091-.375.125-.508s.064-.248.108-.4l.014-.051c.04-.141.083-.3.118-.412.04-.132.072-.24.121-.392s.107-.327.15-.456l.037-.109c.029-.087.058-.172.1-.279.053-.153.119-.325.167-.452s.087-.229.146-.379.131-.326.183-.449l.047-.117a2.748,2.748,0,0,1,.112-.26c.071-.145.152-.32.205-.437s.1-.208.167-.358.146-.3.221-.448l.051-.1c.042-.081.082-.162.125-.243.055-.107.114-.214.173-.321l.074-.134c.07-.13.121-.224.176-.319.061-.119.138-.243.215-.366l.235-.389q.229-.373.473-.737l.106-.152c.131-.191.262-.383.4-.57l.062-.082c.049-.063.1-.126.145-.19.069-.086.126-.164.183-.243s.094-.127.143-.191c.064-.084.131-.165.2-.248l.038-.046c.065-.077.132-.161.194-.237l.164-.2c.066-.079.125-.15.221-.255.06-.068.126-.143.185-.212s.092-.108.131-.153c.068-.075.127-.139.2-.216l.076-.08c.108-.117.235-.252.329-.35s.159-.163.256-.26l.031-.031c.113-.113.225-.225.34-.336l.3-.282c.116-.109.233-.217.351-.324l.994-.844c.125-.1.249-.2.377-.3l.328-.252c.136-.1.263-.2.391-.287l.334-.237c.148-.1.284-.186.418-.276l.338-.224c.113-.077.236-.154.359-.229l.4-.245c.114-.067.228-.132.342-.2l.177-.1c.089-.051.179-.1.272-.154s.218-.117.329-.173l.345-.179a13.518,13.518,0,0,1,1.785-17.072,1.529,1.529,0,0,1,1.083-.445h.008a1.539,1.539,0,0,1,1.075,2.633,10.424,10.424,0,0,0-.407,14.441,10.6,10.6,0,0,0,.811.812,10.466,10.466,0,1,0,6.973-18.281h-.016a1.54,1.54,0,1,1,0-3.08h.017a13.534,13.534,0,0,1,11.289,20.995,24.908,24.908,0,0,1,11.553,12.215,1.539,1.539,0,0,1-.789,2.03,1.544,1.544,0,0,1-2.03-.789,22.139,22.139,0,0,0-10.75-11.029,13.465,13.465,0,0,1-18.53,0l-.389.186c-.069.033-.137.065-.2.1-.159.08-.315.162-.47.247l-.248.131c-.233.128-.465.262-.694.4l-.09.057c-.2.122-.4.243-.59.368l-.216.147c-.151.1-.3.2-.443.3l-.249.182c-.131.094-.262.189-.391.287-.084.068-.17.136-.257.205l-.138.109c-.076.06-.153.12-.228.181l-.257.207c-.085.066-.181.15-.259.219l-.088.077c-.046.04-.084.075-.126.114l-.126.115c-.1.085-.215.2-.3.274s-.12.114-.167.16l-.111.108c-.108.1-.211.2-.313.309l-.243.254c-.057.068-.135.147-.2.219l-.1.1c-.075.081-.132.145-.219.245l-.045.05c-.086.1-.17.193-.255.293l-.5.607c-.073.091-.13.163-.216.277l-.079.1c-.064.086-.129.172-.177.238l-.66.941c-.075.114-.152.233-.227.353l-.188.305c-.073.12-.157.259-.216.363l-.179.314c-.081.141-.152.264-.2.367-.033.066-.062.121-.093.18l-.265.525c-.054.107-.1.2-.156.324s-.127.276-.174.385l-.046.1c-.031.07-.061.139-.1.227l-.057.139c-.038.091-.076.182-.1.256l-.048.121c-.025.062-.051.126-.083.214l-.15.414c-.046.127-.077.214-.12.34-.038.109-.076.229-.108.332l-.025.079c-.038.115-.069.212-.109.346-.016.051-.032.109-.047.166-.024.095-.05.188-.076.257a2.169,2.169,0,0,0-.078.257l-.017.066c-.037.139-.078.305-.1.422l-.082.351c-.021.092-.042.2-.06.291l-.03.144c-.025.116-.042.2-.07.347-.021.106-.038.21-.054.315l-.022.128c-.021.117-.041.23-.058.344-.021.144-.038.289-.056.433l-.018.141c-.01.075-.02.15-.029.225-.014.115-.023.23-.033.347l-.025.256a1.7,1.7,0,0,0-.015.191l0,.051c-.013.163-.027.329-.027.494a1.788,1.788,0,0,0-.014.273c-.01.281-.014.555-.014.829l.006.313.133.136a30.829,30.829,0,0,0,43.48,0c.112-.111.216-.223.322-.336l.224-.237a30.743,30.743,0,1,0-51.2-10.731,1.54,1.54,0,0,1-2.1,1.916,1.523,1.523,0,0,1-.794-.871,33.823,33.823,0,0,1,55.732-35.4l.192.192-.014,0A33.82,33.82,0,0,1,352.2,657.5l-.18.191c-.135.148-.273.294-.418.439A33.757,33.757,0,0,1,327.679,668M303.457,657.32l.135.144c.135.146.271.29.411.432a33.575,33.575,0,0,0,47.354,0c.141-.141.275-.284.408-.43l.182-.193a33.48,33.48,0,0,0-.592-46.732l-.191-.192.011,0a33.483,33.483,0,0,0-54.979,35.234,1.2,1.2,0,1,0,2.259-.814,31.083,31.083,0,1,1,51.769,10.851l-.2.207c-.134.144-.241.257-.356.372a31.171,31.171,0,0,1-43.961,0l-.238-.247V655.5q0-.417.014-.834a1.828,1.828,0,0,1,.017-.294c0-.147.012-.322.025-.495,0-.1.012-.175.021-.254l.024-.244c.01-.119.02-.238.033-.357.008-.077.019-.154.03-.231l.014-.112c.021-.172.038-.32.061-.465.016-.117.037-.235.059-.352l.02-.126c.018-.108.036-.217.058-.325.028-.15.045-.236.07-.353l.029-.139c.019-.1.042-.205.062-.3l.083-.351c.027-.12.07-.29.107-.433l.017-.065a2.777,2.777,0,0,1,.089-.292c.023-.06.044-.143.066-.225.016-.061.033-.123.05-.179.042-.135.073-.233.11-.349l.025-.08c.033-.1.073-.228.111-.339.043-.128.076-.216.113-.319l.159-.442c.034-.092.061-.16.089-.226l.045-.115c.03-.076.069-.17.107-.264l.057-.137c.037-.092.07-.164.1-.237l.044-.1c.049-.111.117-.264.178-.394s.1-.222.16-.331l.269-.534c.03-.055.057-.107.088-.169.054-.109.128-.238.2-.361l.192-.338c.06-.107.146-.249.221-.373l.189-.307c.078-.124.156-.245.235-.365l.665-.947c.049-.069.116-.158.183-.246l.078-.1c.089-.118.147-.191.223-.286l.5-.613c.087-.1.173-.2.26-.3l.031-.035c.1-.117.161-.182.239-.266.029-.033.065-.069.1-.107.063-.065.135-.137.194-.208l.251-.263c.107-.108.211-.211.322-.318l.108-.106.145-.139c.114-.107.235-.219.333-.306l.122-.11c.045-.042.086-.079.135-.122l.084-.074c.084-.073.185-.163.274-.23l.253-.2c.078-.062.154-.124.232-.184l.137-.108c.088-.069.172-.136.258-.207.135-.1.269-.2.4-.3l.253-.183c.149-.1.3-.21.452-.306l.216-.147c.2-.129.4-.252.6-.375l.092-.057c.235-.141.471-.276.71-.409l.249-.132q.236-.127.477-.249c.07-.036.143-.07.215-.1l.6-.286.084.081a13.127,13.127,0,0,0,18.229,0l.083-.081.106.05a22.478,22.478,0,0,1,11.024,11.249,1.2,1.2,0,0,0,2.216-.048,1.189,1.189,0,0,0-.02-.917,24.569,24.569,0,0,0-11.567-12.135l-.174-.087.109-.162A13.192,13.192,0,0,0,327.7,612.6a1.2,1.2,0,1,0,0,2.4,10.8,10.8,0,1,1-7.2,18.874,10.938,10.938,0,0,1-.837-.837,10.763,10.763,0,0,1,.422-14.911,1.2,1.2,0,0,0-.837-2.051h-.006a1.192,1.192,0,0,0-.843.347,13.178,13.178,0,0,0-1.635,16.8l.107.157-.684.356c-.108.056-.217.113-.323.171-.09.05-.178.1-.265.15l-.179.1c-.112.063-.225.127-.335.192l-.4.243c-.118.073-.237.147-.348.222l-.338.224c-.135.091-.272.181-.415.275l-.328.234c-.126.09-.252.183-.376.275l-.334.256c-.124.1-.247.194-.369.294l-.983.834c-.115.1-.23.21-.343.318l-.3.281c-.113.108-.224.219-.335.331l-.032.031c-.094.095-.167.167-.25.254s-.218.231-.325.347l-.075.08c-.07.075-.128.137-.194.211-.038.042-.08.092-.126.145-.061.073-.128.152-.193.222-.091.1-.147.166-.21.242l-.162.2c-.063.079-.132.165-.2.241l-.036.045c-.065.079-.13.159-.193.241-.047.06-.091.122-.136.182-.06.083-.122.167-.19.249-.042.06-.093.126-.145.191l-.06.077c-.131.182-.26.37-.39.56l-.1.15c-.159.238-.315.48-.465.723l-.236.391c-.072.116-.144.231-.206.349-.056.1-.107.191-.158.285l-.092.169c-.058.1-.116.208-.169.313-.043.081-.083.16-.123.239l-.051.1c-.074.145-.148.291-.218.439s-.111.237-.164.354-.136.3-.21.445c-.045.091-.072.163-.1.234l-.051.126c-.051.121-.123.293-.18.44s-.1.25-.145.375-.112.3-.165.447c-.038.107-.066.19-.095.275l-.037.109c-.042.126-.1.3-.148.449s-.08.258-.119.387-.077.267-.117.406l-.015.052c-.043.152-.071.258-.1.389s-.079.313-.116.468c-.041.174-.064.272-.09.392s-.068.32-.1.478l-.026.135c-.018.09-.034.166-.05.256-.022.123-.042.246-.061.368l-.042.255q-.022.129-.041.257c-.018.121-.033.241-.049.362l-.019.15c-.017.126-.033.25-.048.378-.018.177-.035.356-.049.535l-.01.111c-.008.082-.015.165-.022.247-.014.206-.024.412-.033.6,0,.06,0,.127-.01.193l-.006.109c-.012.3-.017.6-.017.909,0,.329.011.639.025.983a1.214,1.214,0,0,0,.027.205l0,.055c.01.021.03.081.055.14l.014.051a1.184,1.184,0,0,0,.064.12l.05.051a1.278,1.278,0,0,0,.119.15Z" transform="translate(-5099 -1088)" fill="#fff"></path></g><g id="Group_35195" data-name="Group 35195" transform="translate(508.433 -979.841)"><path id="Path_12784" data-name="Path 12784" d="M341.71,766.841a22.88,22.88,0,0,0-21.383,30.975L298.468,819.68a1.664,1.664,0,0,0-.489,1.178v11.963a1.668,1.668,0,0,0,1.656,1.665h9.86a1.666,1.666,0,0,0,1.176-.486l3.323-3.318a1.667,1.667,0,0,0,.488-1.179v-4.079h4.075a1.667,1.667,0,0,0,1.667-1.667v-1.633h1.633a1.667,1.667,0,0,0,1.667-1.667v-3.584h3.584a1.667,1.667,0,0,0,1.178-.488l5.3-5.3a22.864,22.864,0,1,0,8.122-44.242m0,42.394a19.393,19.393,0,0,1-7.84-1.637,1.665,1.665,0,0,0-1.834.332l-.016.014-5.6,5.6h-4.559a1.667,1.667,0,0,0-1.667,1.667v3.584h-1.633a1.667,1.667,0,0,0-1.667,1.667v1.633h-4.072a1.667,1.667,0,0,0-1.667,1.667V828.8l-2.353,2.35h-7.5V828.8l20.365-20.364a1.5,1.5,0,1,0-2.121-2.121l-18.244,18.243v-3.011l22.156-22.157.013-.014a1.668,1.668,0,0,0,.335-1.835,19.535,19.535,0,1,1,17.886,11.7Z" transform="translate(-5099 -1088)" fill="#fff"></path><path id="Path_12785" data-name="Path 12785" d="M348.669,776.5a6.241,6.241,0,1,0,6.242,6.241,6.242,6.242,0,0,0-6.242-6.241m0,9.149a2.908,2.908,0,1,1,2.908-2.908,2.908,2.908,0,0,1-2.908,2.908" transform="translate(-5099 -1088)" fill="#fff"></path></g><g id="Group_35198" data-name="Group 35198" transform="translate(-1194.417 -202.161)"><rect id="Rectangle_20538" data-name="Rectangle 20538" width="61.596" height="44.208" transform="translate(-3948.583 -950.353)" fill="none" stroke="#fff" stroke-miterlimit="10" stroke-width="5"></rect><rect id="Rectangle_20539" data-name="Rectangle 20539" width="26.447" height="12.197" transform="translate(-3911.304 -936.933)" fill="none" stroke="#fff" stroke-miterlimit="10" stroke-width="4"></rect><rect id="Rectangle_20540" data-name="Rectangle 20540" width="5.386" height="3.255" transform="translate(-3907.775 -932.462)" fill="#fff"></rect><path id="Path_12786" data-name="Path 12786" d="M1216.648,137.647l-16.192-16.486-13.837,16.486" transform="translate(-5109.408 -1088)" fill="none" stroke="#fff" stroke-miterlimit="10" stroke-width="4"></path><path id="Path_12787" data-name="Path 12787" d="M1186.5,133.776l-6.448-6.566-10.219,12.176" transform="translate(-5104.583 -1089.739)" fill="none" stroke="#fff" stroke-miterlimit="10" stroke-width="4"></path></g><path id="Path_12788" data-name="Path 12788" d="M1260.222,23.081l34.434,31.642,34.434-31.642Z" transform="translate(-5983.222 -1177.081)" fill="#fff"></path><g id="Group_35197" data-name="Group 35197" transform="translate(-364.906 -226.62)"><path id="Path_12789" data-name="Path 12789" d="M459.814,152.62H523.43a2.908,2.908,0,1,1,0,5.816H459.814a2.908,2.908,0,0,1,0-5.816" transform="translate(-5099 -1088)" fill="#fff"></path><path id="Path_12790" data-name="Path 12790" d="M459.814,173.262h52.245a2.908,2.908,0,0,1,0,5.816H459.814a2.908,2.908,0,0,1,0-5.816" transform="translate(-5099 -1088)" fill="#fff"></path><path id="Path_12791" data-name="Path 12791" d="M459.814,196.745H523.43a2.908,2.908,0,1,1,0,5.816H459.814a2.908,2.908,0,0,1,0-5.816" transform="translate(-5099 -1090.841)" fill="#fff"></path></g><path id="Path_12792" data-name="Path 12792" d="M1223.635,326.422l-15.4-15.4a21.477,21.477,0,1,0-3.191,3.191l15.4,15.4a2.256,2.256,0,0,0,3.191-3.191m-32.057-11.942a16.922,16.922,0,1,1,16.924-16.924,16.922,16.922,0,0,1-16.924,16.924" transform="translate(-5741.059 -1442.037)" fill="#fff"></path></g></g></g></g></svg>