<svg xmlns="http://www.w3.org/2000/svg" width="1360.76" height="252.312" viewBox="0 0 1360.76 252.312"><g id="Group_35373" data-name="Group 35373" transform="translate(-324.24 -14537.879)"><g id="Component_27_4" data-name="Component 27 &#x2013; 4" transform="translate(324.24 14572.4)"><text id="Unit_Testing_" data-name="Unit Testing " transform="translate(0 170.789)" fill="#f2f3fa" font-size="25" font-family="SpaceMono-Bold, Space Mono" font-weight="700"><tspan x="0" y="28">Unit Testing</tspan></text><g id="Group_19324" data-name="Group 19324" transform="translate(-794.12 -399.793)"><g id="Group_19321" data-name="Group 19321" transform="translate(813.12 399.793)"><g id="Group_19316" data-name="Group 19316" transform="translate(8.564 7.058)"><g id="Group_19315" data-name="Group 19315" opacity="0.5"><path id="Path_5281" data-name="Path 5281" d="M948.468,458.685H936.685a2.037,2.037,0,0,1-1.968-1.559,52.483,52.483,0,0,0-6.453-15.1,2.019,2.019,0,0,1,.264-2.511l8.486-8.49a2.025,2.025,0,0,0,0-2.862l-12.4-12.407a2.026,2.026,0,0,0-2.864,0l-8.7,8.7a2.025,2.025,0,0,1-2.48.289A52.383,52.383,0,0,0,895.69,418.7a2.044,2.044,0,0,1-1.591-1.979V404.293a2.022,2.022,0,0,0-2.022-2.026H874.536a2.022,2.022,0,0,0-2.022,2.026v12.563a2.039,2.039,0,0,1-1.57,1.974,52.4,52.4,0,0,0-14.71,6.118,2.042,2.042,0,0,1-2.5-.319l-8.872-8.877a2.022,2.022,0,0,0-2.861,0l-12.4,12.407a2.024,2.024,0,0,0,0,2.862l8.8,8.8a2.041,2.041,0,0,1,.311,2.508,52.44,52.44,0,0,0-6.268,14.8,2.038,2.038,0,0,1-1.97,1.559H818.144a2.024,2.024,0,0,0-2.022,2.026v17.547a2.024,2.024,0,0,0,2.022,2.026H830.18a2.038,2.038,0,0,1,1.978,1.6,52.47,52.47,0,0,0,6.1,15.191,2.043,2.043,0,0,1-.289,2.5l-8.371,8.373a2.024,2.024,0,0,0,0,2.863L842,523.217a2.022,2.022,0,0,0,2.861,0l8.153-8.157a2.037,2.037,0,0,1,2.534-.264,52.439,52.439,0,0,0,15.394,6.527,2.036,2.036,0,0,1,1.57,1.971v11.382a2.024,2.024,0,0,0,2.022,2.026h17.541a2.024,2.024,0,0,0,2.022-2.026V523.43a2.038,2.038,0,0,1,1.591-1.977,52.411,52.411,0,0,0,15.59-6.464,2.041,2.041,0,0,1,2.521.273l7.949,7.955a2.026,2.026,0,0,0,2.864,0l12.4-12.408a2.025,2.025,0,0,0,0-2.863l-8.031-8.037a2.035,2.035,0,0,1-.283-2.505A52.534,52.534,0,0,0,935,481.886a2.036,2.036,0,0,1,1.978-1.6h11.494a2.026,2.026,0,0,0,2.025-2.026V460.711A2.026,2.026,0,0,0,948.468,458.685ZM883.307,494.97a25.487,25.487,0,1,1,25.474-25.485A25.481,25.481,0,0,1,883.307,494.97Z" transform="translate(-816.122 -402.267)" fill="#366fe8"></path></g></g><g id="Group_19320" data-name="Group 19320"><g id="Group_19319" data-name="Group 19319"><g id="Group_19317" data-name="Group 19317"><path id="Path_5282" data-name="Path 5282" d="M890.678,537.417H873.122a3.554,3.554,0,0,1-3.549-3.553V522.47a.515.515,0,0,0-.409-.491,53.934,53.934,0,0,1-15.859-6.724.52.52,0,0,0-.65.052l-8.159,8.168a3.559,3.559,0,0,1-5.022,0l-12.415-12.423a3.561,3.561,0,0,1,0-5.024l8.377-8.381a.516.516,0,0,0,.06-.636,53.96,53.96,0,0,1-6.282-15.651.523.523,0,0,0-.5-.42H816.672a3.554,3.554,0,0,1-3.552-3.551V459.82a3.556,3.556,0,0,1,3.552-3.551h12.335a.517.517,0,0,0,.494-.409,54.078,54.078,0,0,1,6.454-15.239.522.522,0,0,0-.093-.63l-8.8-8.807a3.561,3.561,0,0,1,0-5.024l12.415-12.423a3.64,3.64,0,0,1,5.022,0l8.882,8.889a.531.531,0,0,0,.63.1,53.9,53.9,0,0,1,15.153-6.3.52.52,0,0,0,.412-.494V403.344a3.552,3.552,0,0,1,3.549-3.551h17.556a3.554,3.554,0,0,1,3.552,3.551v12.442a.518.518,0,0,0,.414.494,53.986,53.986,0,0,1,15.333,6.225.5.5,0,0,0,.622-.06l8.7-8.709a3.559,3.559,0,0,1,5.022,0l12.417,12.42a3.564,3.564,0,0,1,0,5.027l-8.495,8.5a.5.5,0,0,0-.052.62,53.919,53.919,0,0,1,6.645,15.561.515.515,0,0,0,.494.407h11.792a3.556,3.556,0,0,1,3.552,3.551v17.567a3.554,3.554,0,0,1-3.552,3.551h-11.5a.521.521,0,0,0-.5.42,53.888,53.888,0,0,1-6.484,15.984.516.516,0,0,0,.06.641l8.039,8.043a3.552,3.552,0,0,1,0,5.024l-12.412,12.423a3.562,3.562,0,0,1-5.022,0l-7.96-7.966a.522.522,0,0,0-.647-.055,53.857,53.857,0,0,1-16.056,6.659.518.518,0,0,0-.414.494v11.258A3.556,3.556,0,0,1,890.678,537.417ZM853,512.11a3.6,3.6,0,0,1,1.92.56,50.878,50.878,0,0,0,14.965,6.345,3.557,3.557,0,0,1,2.733,3.455v11.394a.5.5,0,0,0,.5.5h17.556a.5.5,0,0,0,.5-.5V522.606a3.562,3.562,0,0,1,2.766-3.466,50.864,50.864,0,0,0,15.153-6.28,3.555,3.555,0,0,1,4.4.491l7.96,7.964a.5.5,0,0,0,.712,0l12.412-12.423a.494.494,0,0,0,.148-.355.5.5,0,0,0-.148-.352l-8.039-8.043a3.571,3.571,0,0,1-.51-4.38,50.912,50.912,0,0,0,6.121-15.084,3.552,3.552,0,0,1,3.467-2.792h11.5a.5.5,0,0,0,.5-.5V459.82a.5.5,0,0,0-.5-.5H935.336a3.564,3.564,0,0,1-3.451-2.716,50.946,50.946,0,0,0-6.269-14.68,3.536,3.536,0,0,1,.475-4.4l8.495-8.5a.5.5,0,0,0,0-.71l-12.414-12.42a.5.5,0,0,0-.709,0l-8.7,8.709a3.551,3.551,0,0,1-4.343.521,50.819,50.819,0,0,0-14.466-5.873,3.558,3.558,0,0,1-2.769-3.466V403.344a.5.5,0,0,0-.5-.5H873.122a.5.5,0,0,0-.5.5v12.578a3.564,3.564,0,0,1-2.736,3.458,50.776,50.776,0,0,0-14.294,5.947,3.562,3.562,0,0,1-4.373-.543l-8.882-8.889a.5.5,0,0,0-.706,0l-12.417,12.42a.506.506,0,0,0,0,.71l8.806,8.807a3.551,3.551,0,0,1,.526,4.394,51.021,51.021,0,0,0-6.089,14.382,3.571,3.571,0,0,1-3.451,2.713H816.672a.5.5,0,0,0-.5.5v17.567a.5.5,0,0,0,.5.5h12.046a3.556,3.556,0,0,1,3.467,2.792,50.977,50.977,0,0,0,5.93,14.767,3.564,3.564,0,0,1-.524,4.358l-8.377,8.381a.5.5,0,0,0,0,.707l12.417,12.423a.5.5,0,0,0,.706,0l8.162-8.168A3.528,3.528,0,0,1,853,512.11Z" transform="translate(-813.12 -399.793)" fill="#f2f3fa"></path></g><g id="Group_19318" data-name="Group 19318" transform="translate(38.577 38.609)"><path id="Path_5283" data-name="Path 5283" d="M857.95,474.824a30.2,30.2,0,1,1,30.2-30.2A30.238,30.238,0,0,1,857.95,474.824Zm0-53.337a23.137,23.137,0,1,0,23.14,23.137A23.163,23.163,0,0,0,857.95,421.487Z" transform="translate(-827.747 -414.42)" fill="#f2f3fa"></path></g></g></g></g></g></g><g id="Component_28_4" data-name="Component 28 &#x2013; 4" transform="translate(811.5 14537.879)"><text id="Integration_Testing_" data-name="Integration Testing " transform="translate(0 205.311)" fill="#f2f3fa" font-size="25" font-family="SpaceMono-Bold, Space Mono" font-weight="700"><tspan x="0" y="28">Integration Testing</tspan></text><g id="Group_21829" data-name="Group 21829" transform="translate(-232.427 -883.476) rotate(45)"><g id="Group_21817" data-name="Group 21817" transform="translate(995.627 394.376)"><path id="Path_6081" data-name="Path 6081" d="M1009.378,414.645a1.779,1.779,0,0,1-1.556-.912A49.457,49.457,0,0,0,990.8,395.878a1.779,1.779,0,1,1,1.88-3.02A53.027,53.027,0,0,1,1010.93,412a1.779,1.779,0,0,1-1.552,2.646Z" transform="translate(-989.957 -392.588)" fill="#366fe7"></path></g><g id="Group_21818" data-name="Group 21818" transform="translate(993.947 466.834)"><path id="Path_6082" data-name="Path 6082" d="M990.094,483.67a1.779,1.779,0,0,1-.885-3.323,49.4,49.4,0,0,0,18.32-18.281,1.778,1.778,0,1,1,3.085,1.77,52.933,52.933,0,0,1-19.64,19.6A1.771,1.771,0,0,1,990.094,483.67Z" transform="translate(-988.313 -461.17)" fill="#366fe7"></path></g><g id="Group_21819" data-name="Group 21819" transform="translate(921.644 468.521)"><path id="Path_6083" data-name="Path 6083" d="M940.563,484.179a1.779,1.779,0,0,1-.848-.216,53,53,0,0,1-19.567-18.428,1.779,1.779,0,0,1,3.018-1.885,49.422,49.422,0,0,0,18.25,17.187,1.779,1.779,0,0,1-.853,3.342Z" transform="translate(-919.878 -462.813)" fill="#366fe7"></path></g><g id="Group_21820" data-name="Group 21820" transform="translate(920.284 392.683)"><path id="Path_6084" data-name="Path 6084" d="M920.349,414.676a1.779,1.779,0,0,1-1.552-2.644,52.761,52.761,0,0,1,21.172-20.853,1.778,1.778,0,1,1,1.684,3.133,49.222,49.222,0,0,0-19.748,19.451A1.779,1.779,0,0,1,920.349,414.676Z" transform="translate(-918.571 -390.965)" fill="#366fe7"></path></g><g id="Group_21821" data-name="Group 21821" transform="translate(948.43 366.55)" opacity="0.5"><circle id="Ellipse_631" data-name="Ellipse 631" cx="23.564" cy="23.564" r="23.564" fill="#366fe7"></circle></g><g id="Group_21822" data-name="Group 21822" transform="translate(948.43 475.863)" opacity="0.5"><circle id="Ellipse_632" data-name="Ellipse 632" cx="23.564" cy="23.564" r="23.564" fill="#366fe7"></circle></g><g id="Group_21823" data-name="Group 21823" transform="translate(1002.895 421.405)" opacity="0.5"><circle id="Ellipse_633" data-name="Ellipse 633" cx="23.564" cy="23.564" r="23.564" fill="#366fe7"></circle></g><g id="Group_21824" data-name="Group 21824" transform="translate(893.617 421.405)" opacity="0.5"><circle id="Ellipse_634" data-name="Ellipse 634" cx="23.564" cy="23.564" r="23.564" fill="#366fe7"></circle></g><g id="Group_21825" data-name="Group 21825" transform="translate(943.192 360.819)"><path id="Path_6085" data-name="Path 6085" d="M964.873,411.5a25.342,25.342,0,1,1,25.342-25.342A25.372,25.372,0,0,1,964.873,411.5Zm0-47.127a21.785,21.785,0,1,0,21.785,21.785A21.809,21.809,0,0,0,964.873,364.377Z" transform="translate(-939.53 -360.819)" fill="#f1f2f9"></path></g><g id="Group_21826" data-name="Group 21826" transform="translate(943.192 470.131)"><path id="Path_6086" data-name="Path 6086" d="M964.873,513.355a25.343,25.343,0,1,1,25.342-25.343A25.372,25.372,0,0,1,964.873,513.355Zm0-47.128a21.785,21.785,0,1,0,21.785,21.785A21.809,21.809,0,0,0,964.873,466.227Z" transform="translate(-939.53 -462.669)" fill="#f1f2f9"></path></g><g id="Group_21827" data-name="Group 21827" transform="translate(997.883 415.397)"><path id="Path_6087" data-name="Path 6087" d="M1015.8,462.429a25.342,25.342,0,1,1,25.342-25.342A25.371,25.371,0,0,1,1015.8,462.429Zm0-47.127a21.785,21.785,0,1,0,21.785,21.785A21.809,21.809,0,0,0,1015.8,415.3Z" transform="translate(-990.455 -411.744)" fill="#f1f2f9"></path></g><g id="Group_21828" data-name="Group 21828" transform="translate(888.605 415.397)"><path id="Path_6088" data-name="Path 6088" d="M913.947,462.429a25.342,25.342,0,1,1,25.343-25.342A25.371,25.371,0,0,1,913.947,462.429Zm0-47.127a21.785,21.785,0,1,0,21.785,21.785A21.809,21.809,0,0,0,913.947,415.3Z" transform="translate(-888.605 -411.744)" fill="#f1f2f9"></path></g></g></g><g id="Component_29_3" data-name="Component 29 &#x2013; 3" transform="translate(1349 14560.729)"><text id="Continuous_Integration_" data-name="Continuous Integration " transform="translate(0 182.462)" fill="#f2f3fa" font-size="25" font-family="SpaceMono-Bold, Space Mono" font-weight="700"><tspan x="0" y="28">Continuous Integration</tspan></text><g id="Group_21851" data-name="Group 21851" transform="matrix(0.966, -0.259, 0.259, 0.966, -905.828, 158.169)"><g id="Group_21833" data-name="Group 21833" transform="translate(998.102 152.481)"><g id="Group_21830" data-name="Group 21830" transform="translate(0 6.133)"><path id="Path_6089" data-name="Path 6089" d="M1000.374,209.66a2.269,2.269,0,0,1-2.209-2.8,66.981,66.981,0,0,1,45.344-48.145,2.27,2.27,0,0,1,1.328,4.341,62.423,62.423,0,0,0-42.258,44.868A2.271,2.271,0,0,1,1000.374,209.66Z" transform="translate(-998.102 -158.615)" fill="#366fe7"></path></g><g id="Group_21832" data-name="Group 21832" transform="translate(41.641)"><g id="Group_21831" data-name="Group 21831"><path id="Path_6090" data-name="Path 6090" d="M1045.2,170.11l11.566-10.257a1.418,1.418,0,0,0-.492-2.406l-14.665-4.891a1.418,1.418,0,0,0-1.838,1.63l3.1,15.147A1.418,1.418,0,0,0,1045.2,170.11Z" transform="translate(-1039.742 -152.481)" fill="#366fe7"></path></g></g></g><g id="Group_21837" data-name="Group 21837" transform="translate(1100.868 170.984)"><g id="Group_21834" data-name="Group 21834"><path id="Path_6091" data-name="Path 6091" d="M1125.636,240.517a2.268,2.268,0,0,1-2.2-2.821,62.459,62.459,0,0,0,1.854-15.136,61.649,61.649,0,0,0-19.539-45.274,2.27,2.27,0,0,1,3.114-3.3,66.145,66.145,0,0,1,20.965,48.577,67.009,67.009,0,0,1-1.989,16.238A2.271,2.271,0,0,1,1125.636,240.517Z" transform="translate(-1105.033 -173.365)" fill="#366fe7"></path></g><g id="Group_21836" data-name="Group 21836" transform="translate(12.071 59.277)"><g id="Group_21835" data-name="Group 21835"><path id="Path_6092" data-name="Path 6092" d="M1117.129,234.24l2.914,15.433a1.346,1.346,0,0,0,2.2.771l11.91-10.238a1.347,1.347,0,0,0-.433-2.292L1118.9,232.72A1.347,1.347,0,0,0,1117.129,234.24Z" transform="translate(-1117.105 -232.642)" fill="#366fe7"></path></g></g></g><g id="Group_21841" data-name="Group 21841" transform="translate(1006.133 250.533)"><g id="Group_21838" data-name="Group 21838" transform="translate(6.249 8.75)"><path id="Path_6093" data-name="Path 6093" d="M1063.067,289.319a66.149,66.149,0,0,1-48.523-20.908,2.27,2.27,0,1,1,3.3-3.119,62.314,62.314,0,0,0,64.453,16.459,2.27,2.27,0,0,1,1.4,4.318A66.687,66.687,0,0,1,1063.067,289.319Z" transform="translate(-1013.924 -264.582)" fill="#366fe7"></path></g><g id="Group_21840" data-name="Group 21840"><g id="Group_21839" data-name="Group 21839"><path id="Path_6094" data-name="Path 6094" d="M1024.305,261.973l-14.942-6.05a1.228,1.228,0,0,0-1.676,1.307l2.231,15.966a1.226,1.226,0,0,0,1.969.8l12.712-9.916A1.226,1.226,0,0,0,1024.305,261.973Z" transform="translate(-1007.675 -255.832)" fill="#366fe7"></path></g></g></g><g id="Group_21844" data-name="Group 21844" transform="translate(1057.82 139.157)"><g id="Group_21842" data-name="Group 21842" transform="translate(5.025 5.637)" opacity="0.5"><circle id="Ellipse_635" data-name="Ellipse 635" cx="20.08" cy="20.08" r="20.08" fill="#366fe7"></circle></g><g id="Group_21843" data-name="Group 21843"><path id="Path_6095" data-name="Path 6095" d="M1083.262,183.856a22.35,22.35,0,1,1,22.35-22.35A22.376,22.376,0,0,1,1083.262,183.856Zm0-40.159a17.809,17.809,0,1,0,17.81,17.809A17.829,17.829,0,0,0,1083.262,143.7Z" transform="translate(-1060.913 -139.157)" fill="#f1f2f9"></path></g></g><g id="Group_21847" data-name="Group 21847" transform="translate(1075.822 241.586)"><g id="Group_21845" data-name="Group 21845" transform="translate(5.025 5.638)" opacity="0.5"><circle id="Ellipse_636" data-name="Ellipse 636" cx="20.08" cy="20.08" r="20.08" fill="#366fe7"></circle></g><g id="Group_21846" data-name="Group 21846"><path id="Path_6096" data-name="Path 6096" d="M1102.336,291.584a22.35,22.35,0,1,1,22.35-22.35A22.375,22.375,0,0,1,1102.336,291.584Zm0-40.159a17.81,17.81,0,1,0,17.81,17.809A17.829,17.829,0,0,0,1102.336,251.425Z" transform="translate(-1079.987 -246.885)" fill="#f1f2f9"></path></g></g><g id="Group_21850" data-name="Group 21850" transform="translate(978.668 205.494)"><g id="Group_21848" data-name="Group 21848" transform="translate(0 5.025)" opacity="0.5"><circle id="Ellipse_637" data-name="Ellipse 637" cx="20.08" cy="20.08" r="20.08" fill="#366fe7"></circle></g><g id="Group_21849" data-name="Group 21849" transform="translate(1.098)"><path id="Path_6097" data-name="Path 6097" d="M1002.116,253.6a22.35,22.35,0,1,1,22.349-22.35A22.376,22.376,0,0,1,1002.116,253.6Zm0-40.159a17.809,17.809,0,1,0,17.809,17.809A17.829,17.829,0,0,0,1002.116,213.445Z" transform="translate(-979.766 -208.905)" fill="#f1f2f9"></path></g></g></g></g></g></svg>