<svg xmlns="http://www.w3.org/2000/svg" width="1947" height="634" viewBox="0 0 1947 634"><g id="Group_35363" data-name="Group 35363" transform="translate(0 -2928)"><rect id="Rectangle_20447" data-name="Rectangle 20447" width="1947" height="634" rx="3" transform="translate(0 2928)" fill="#6eb8c9" opacity="0.997"></rect><text id="Iconography" transform="translate(1244 3348)" fill="#fff" font-size="80" font-family="SpaceMono-Bold, Space Mono" font-weight="700" opacity="0.672"><tspan x="0" y="90">Iconography</tspan></text><g id="Group_35178" data-name="Group 35178" transform="translate(7141.474 3646)"><path id="Icono_-_location" data-name="Icono - location" d="M75.878,5.83A19.67,19.67,0,0,0,61.843,0H61.82C51.129-.215,41.75,9.2,41.97,19.887c.28,7.546,7.54,17.13,13.193,24.493a8.719,8.719,0,0,0,13.531-.21c4.194-5.212,13.25-17.747,12.977-24.283A19.79,19.79,0,0,0,75.878,5.83Zm-10.1,36.044a5.028,5.028,0,0,1-7.868,0C50.245,32.117,45.68,23.988,45.68,19.887A16.175,16.175,0,0,1,61.82,3.714h.023A16.164,16.164,0,0,1,77.96,19.887C77.96,24.033,73.52,32.047,65.779,41.874ZM61.924,27.738a7.893,7.893,0,0,1-7.885-7.885c.433-10.46,15.338-10.457,15.769,0A7.893,7.893,0,0,1,61.924,27.738Zm0-12.059A4.174,4.174,0,1,0,66.1,19.854,4.179,4.179,0,0,0,61.924,15.679Z" transform="translate(-7003.973 -401.504)" fill="#304251" stroke="#304251" stroke-width="0.5"></path><g id="Group_35173" data-name="Group 35173" transform="translate(-6507.839 -401.003)"><g id="Icono"><path id="Path_62" data-name="Path 62" d="M256.847,221.064A2.047,2.047,0,0,1,254.814,219V172.4a2.047,2.047,0,0,1,2.033-2.062h10a2.047,2.047,0,0,1,2.034,2.062V197.45h.035c1.39-2.878,4.96-6.611,11.855-6.611a2.063,2.063,0,0,1,0,4.125c-7.047,0-8.432,4.86-8.488,5.066a2.014,2.014,0,0,1-1.969,1.545h-3.466a2.048,2.048,0,0,1-2.034-2.062V174.466h-5.928V219a2.048,2.048,0,0,1-2.034,2.062" transform="translate(-253.497 -170.341)" fill="#304251"></path><path id="Path_63" data-name="Path 63" d="M313.8,223.463h-7.162a2.048,2.048,0,0,1-2.034-2.062v-3.543a1.589,1.589,0,1,0-3.178,0V221.4a2.048,2.048,0,0,1-2.034,2.062h-4.1a2.049,2.049,0,0,1-2.036-2.062v-2.252a3.191,3.191,0,1,0-6.382,0V221.4a2.048,2.048,0,0,1-2.035,2.062h-4.432a2.048,2.048,0,0,1-2.034-2.062v-3.988a1.6,1.6,0,0,0-1.589-1.61h-.06a1.6,1.6,0,0,0-1.589,1.61V221.4a2.035,2.035,0,1,1-4.07,0v-3.988a5.7,5.7,0,0,1,5.659-5.736h.06a5.7,5.7,0,0,1,5.658,5.736v1.924h.365v-.189a7.26,7.26,0,1,1,14.52,0v.189h.036v-1.48a5.659,5.659,0,1,1,11.316,0v1.48h3.092v-40.6h-5.928v23.17a2.047,2.047,0,0,1-2.033,2.062H300.34a2.04,2.04,0,0,1-1.975-1.567c-.05-.184-1.436-5.044-8.483-5.044a2.063,2.063,0,0,1,0-4.125c5.3,0,8.387,2.157,10.039,3.967a11.222,11.222,0,0,1,1.8,2.644h.054v-23.17a2.048,2.048,0,0,1,2.035-2.062h10a2.048,2.048,0,0,1,2.034,2.062V221.4a2.048,2.048,0,0,1-2.034,2.062" transform="translate(-262.612 -172.74)" fill="#304251"></path><path id="Path_64" data-name="Path 64" d="M266.295,197.412H253.847a2.063,2.063,0,0,1,0-4.125h12.448a2.063,2.063,0,0,1,0,4.125" transform="translate(-251.814 -183.213)" fill="#304251"></path><path id="Path_65" data-name="Path 65" d="M266.295,221.308H253.847a2.063,2.063,0,0,1,0-4.125h12.448a2.063,2.063,0,0,1,0,4.125" transform="translate(-251.814 -196.619)" fill="#304251"></path><path id="Path_66" data-name="Path 66" d="M353,197.412H340.556a2.063,2.063,0,0,1,0-4.125H353a2.063,2.063,0,0,1,0,4.125" transform="translate(-300.456 -183.213)" fill="#304251"></path><path id="Path_67" data-name="Path 67" d="M353,221.308H340.556a2.063,2.063,0,0,1,0-4.125H353a2.063,2.063,0,0,1,0,4.125" transform="translate(-300.456 -196.619)" fill="#304251"></path><path id="Path_68" data-name="Path 68" d="M313.616,244.224a1.445,1.445,0,1,0-1.432,1.642,1.488,1.488,0,0,0,1.432-1.642" transform="translate(-284.878 -210.868)" fill="#304251"></path></g></g><g id="Group_35172" data-name="Group 35172" transform="translate(-6661.088 -401.504)"><g id="Icono-2" data-name="Icono" transform="translate(0)"><g id="Group_71" data-name="Group 71"><g id="Group_70" data-name="Group 70"><path id="Path_119" data-name="Path 119" d="M118.021,22.172c1.116,0,2.021-1.225,2.021-2.737V2.737c0-1.512-.9-2.737-2.021-2.737S116,1.225,116,2.737v16.7C116,20.946,116.9,22.172,118.021,22.172Z" transform="translate(-108.423)" fill="#304251" stroke="#304251" stroke-width="0.3"></path><path id="Path_120" data-name="Path 120" d="M58.175,0a2.021,2.021,0,0,0-2.021,2.021V14.649a5.557,5.557,0,0,1-11.113,0V2.021a2.021,2.021,0,0,0-4.041,0V14.649a9.614,9.614,0,0,0,7.577,9.383V49.706a2.021,2.021,0,0,0,4.041,0V24.032A9.614,9.614,0,0,0,60.2,14.649V2.021A2.021,2.021,0,0,0,58.175,0Z" transform="translate(-41)" fill="#304251" stroke="#304251" stroke-width="0.3"></path><path id="Path_121" data-name="Path 121" d="M297.727,5.39C295.82,1.914,293.288,0,290.6,0s-5.223,1.914-7.129,5.39A20.214,20.214,0,0,0,281,14.649a9.614,9.614,0,0,0,7.577,9.383V49.706a2.021,2.021,0,1,0,4.041,0V24.032a9.614,9.614,0,0,0,7.577-9.383A20.214,20.214,0,0,0,297.727,5.39ZM290.6,20.206a5.563,5.563,0,0,1-5.557-5.557,16.232,16.232,0,0,1,1.97-7.316C288.125,5.3,289.5,4.041,290.6,4.041s2.472,1.261,3.586,3.292a16.23,16.23,0,0,1,1.97,7.316A5.563,5.563,0,0,1,290.6,20.206Z" transform="translate(-256.753)" fill="#304251" stroke="#304251" stroke-width="0.3"></path></g></g></g></g><g id="check" transform="translate(-6199.614 -534.109)"><path id="Path_123" data-name="Path 123" d="M42.194,62.614,19.263,85.543a4.351,4.351,0,0,1-6.152,0L1.274,73.705a4.35,4.35,0,0,1,6.152-6.153l8.763,8.763L36.042,56.462a4.35,4.35,0,0,1,6.153,6.152Z" transform="translate(0 -55.188)" fill="#fff"></path></g><path id="bird-house" d="M56.322,18.767,34.52,2.382a11.258,11.258,0,0,0-13.623,0L.243,18.775A2.1,2.1,0,0,0,2.8,22.114L6.272,18.86V36.14A11.243,11.243,0,0,0,17.5,47.369H37.917a11.243,11.243,0,0,0,11.23-11.23V18.767l4.633,3.348a2.1,2.1,0,0,0,2.542-3.348ZM44.943,36.139a7.034,7.034,0,0,1-7.026,7.026H17.5a7.034,7.034,0,0,1-7.026-7.026V15.646L23.448,5.724a7.045,7.045,0,0,1,8.526,0l12.969,9.848Z" transform="translate(-6054.918 -540.494)" fill="#fff" stroke="#fff" stroke-width="0.8"></path><g id="badge_1_" data-name="badge (1)" transform="translate(-5436.224 -538.443)"><path id="Path_124" data-name="Path 124" d="M16.637,47.985A6.235,6.235,0,0,1,10.8,43.94L9.313,39.981A2.242,2.242,0,0,0,8,38.673L4.046,37.188A6.236,6.236,0,0,1,.559,28.769l1.75-3.849a2.228,2.228,0,0,0,0-1.85L.559,19.217A6.236,6.236,0,0,1,4.046,10.8L8,9.314A2.242,2.242,0,0,0,9.313,8L10.8,4.047A6.236,6.236,0,0,1,19.216.56l3.849,1.75a2.221,2.221,0,0,0,1.85,0h0L28.766.56a6.236,6.236,0,0,1,8.418,3.487L38.67,8.006a2.242,2.242,0,0,0,1.31,1.308L43.937,10.8a6.236,6.236,0,0,1,3.487,8.418l-1.75,3.849a2.228,2.228,0,0,0,0,1.85l1.75,3.851a6.236,6.236,0,0,1-3.487,8.418l-3.959,1.486a2.242,2.242,0,0,0-1.308,1.31l-1.486,3.957a6.236,6.236,0,0,1-8.418,3.487l-3.849-1.75a2.221,2.221,0,0,0-1.85,0l-3.849,1.752a6.255,6.255,0,0,1-2.581.558ZM16.639,4a2.257,2.257,0,0,0-.858.172,2.217,2.217,0,0,0-1.24,1.282L13.058,9.408a6.237,6.237,0,0,1-3.649,3.649L5.452,14.541A2.24,2.24,0,0,0,4.2,17.564l1.75,3.849a6.232,6.232,0,0,1,0,5.161L4.2,30.421a2.239,2.239,0,0,0,1.252,3.021l3.957,1.486a6.231,6.231,0,0,1,3.649,3.649l1.484,3.957a2.239,2.239,0,0,0,3.021,1.252l3.849-1.75a6.224,6.224,0,0,1,5.161,0l3.847,1.748a2.239,2.239,0,0,0,3.021-1.252l1.486-3.957a6.231,6.231,0,0,1,3.649-3.649l3.957-1.484a2.239,2.239,0,0,0,1.252-3.021l-1.75-3.849a6.232,6.232,0,0,1,0-5.161l1.748-3.847a2.239,2.239,0,0,0-1.252-3.021l-3.957-1.486a6.231,6.231,0,0,1-3.649-3.649L33.443,5.451A2.239,2.239,0,0,0,30.422,4.2l-3.849,1.75a6.239,6.239,0,0,1-5.161,0L17.565,4.2a2.253,2.253,0,0,0-.926-.2Z" transform="translate(-0.001 -0.002)" fill="#304251" stroke="#304251" stroke-width="0.8"></path><path id="Path_125" data-name="Path 125" d="M10.776,14.551a3.776,3.776,0,1,1,3.776-3.775A3.779,3.779,0,0,1,10.776,14.551Z" transform="translate(5.664 7.553)" fill="#304251"></path><path id="Path_126" data-name="Path 126" d="M16.776,20.551a3.776,3.776,0,1,1,3.776-3.776A3.779,3.779,0,0,1,16.776,20.551Z" transform="translate(14.964 12.879)" fill="#304251"></path><path id="Path_127" data-name="Path 127" d="M9.886,25.878a1.888,1.888,0,0,1-1.508-3.02L19.7,7.755a1.888,1.888,0,0,1,3.02,2.265L11.4,25.122a1.884,1.884,0,0,1-1.512.755Z" transform="translate(8.439 7.553)" fill="#304251"></path></g><path id="compass" d="M28.088,8.549a6.02,6.02,0,1,0-10.923,0,22.627,22.627,0,1,0,10.923,0Zm-5.461-4.4A1.868,1.868,0,1,1,20.759,6.02,1.87,1.87,0,0,1,22.627,4.152Zm0,44.839A18.475,18.475,0,1,1,41.1,30.515,18.5,18.5,0,0,1,22.627,48.991ZM30.34,20.008,18.891,25.879a2.076,2.076,0,0,0-.9.9L12.12,38.229a2.078,2.078,0,0,0,2.794,2.794l11.449-5.871a2.076,2.076,0,0,0,.9-.9L33.135,22.8A2.078,2.078,0,0,0,30.34,20.008ZM23.874,31.762l-5.118,2.625,2.625-5.119L26.5,26.644Zm0,0" transform="translate(-5739.918 -543.603)" fill="#304251" stroke="#304251" stroke-width="0.5"></path><g id="taco" transform="translate(-5592.851 -535.186)"><g id="Group_73" data-name="Group 73" transform="translate(0 0)"><g id="Group_72" data-name="Group 72"><path id="Path_128" data-name="Path 128" d="M52.2,98.581a25.846,25.846,0,0,0-2.16-8.653,4.08,4.08,0,0,1,.365-1.083.77.77,0,0,0,.091-.137,7.294,7.294,0,0,0-3.129-10.366,1.536,1.536,0,0,0-.313-.173,4.055,4.055,0,0,1-2.464-3.4,7.315,7.315,0,0,0-8.813-6.539,1.074,1.074,0,0,0-.173.033,4.065,4.065,0,0,1-4-1.305,7.5,7.5,0,0,0-11.038.02A4.036,4.036,0,0,1,16.6,68.265a.8.8,0,0,0-.153-.026,7.306,7.306,0,0,0-8.833,6.578,3.968,3.968,0,0,1-2.464,3.348,1.511,1.511,0,0,0-.3.17A7.3,7.3,0,0,0,1.7,88.7a1.2,1.2,0,0,0,.085.124A4.411,4.411,0,0,1,2.2,89.879,26.211,26.211,0,0,0,0,98.7a4.9,4.9,0,0,0,4.894,4.894H47.312A4.9,4.9,0,0,0,52.207,98.7C52.207,98.656,52.207,98.62,52.2,98.581ZM4.115,83.689a4.04,4.04,0,0,1,2.291-2.477,1.652,1.652,0,0,0,.3-.166,7.2,7.2,0,0,0,4.157-6,4.06,4.06,0,0,1,4.956-3.606,1.352,1.352,0,0,0,.14.026,7.327,7.327,0,0,0,7.113-2.379,4.12,4.12,0,0,1,6.115.042,7.286,7.286,0,0,0,7.051,2.336,1.317,1.317,0,0,0,.157-.029,4.054,4.054,0,0,1,4.956,3.658,7.308,7.308,0,0,0,4.147,5.942,1.6,1.6,0,0,0,.31.173A4.057,4.057,0,0,1,48.1,83.686a3.947,3.947,0,0,1-.085,2.477,26.046,26.046,0,0,0-43.8.023A3.939,3.939,0,0,1,4.115,83.689Zm43.2,16.638H4.894A1.62,1.62,0,0,1,3.26,98.809a22.883,22.883,0,0,1,43.55-8.151c.01.029.023.055.036.085a22.681,22.681,0,0,1,2.1,8A1.634,1.634,0,0,1,47.312,100.327Z" transform="translate(0 -64.546)" fill="#304251" stroke="#304251" stroke-width="0.8"></path></g></g></g><g id="Icono-3" data-name="Icono" transform="translate(-5892.314 -543.603)"><path id="Path_116" data-name="Path 116" d="M94.685,12.455a6.219,6.219,0,0,1,5.91,4.259c1.5,4.5,7.981,5.606,10.955,1.455a6.017,6.017,0,0,0,.828-5.5A18.692,18.692,0,0,0,92.857.088C83.152,1.013,76,9.653,76,19.4V42.763A10.391,10.391,0,0,0,86.381,53.142h16.607a10.391,10.391,0,0,0,10.379-10.379V35.29a10.391,10.391,0,0,0-10.379-10.379h-7.86a6.528,6.528,0,0,1-6.585-5.167,6.23,6.23,0,0,1,6.141-7.289ZM84.446,20.41a10.682,10.682,0,0,0,10.683,8.652h7.86a6.235,6.235,0,0,1,6.228,6.228v7.473a6.235,6.235,0,0,1-6.228,6.228H86.381a6.235,6.235,0,0,1-6.228-6.228V19.4c0-7.81,5.753-14.476,13.1-15.176q.715-.068,1.42-.068a14.5,14.5,0,0,1,13.777,9.853,1.911,1.911,0,0,1-.272,1.744,2.147,2.147,0,0,1-3.641-.348A10.383,10.383,0,0,0,84.446,20.41Z" transform="translate(-76.002 0)" fill="#304251"></path><path id="Path_117" data-name="Path 117" d="M198.485,400.97h9.931a2.483,2.483,0,1,0,0-4.966h-9.931a2.483,2.483,0,1,0,0,4.966Z" transform="translate(-184.768 -357.262)" fill="#304251"></path><path id="Path_118" data-name="Path 118" d="M196,318.487a2.483,2.483,0,0,0,2.483,2.483h9.931a2.483,2.483,0,1,0,0-4.966h-9.931A2.483,2.483,0,0,0,196,318.487Z" transform="translate(-184.768 -283.75)" fill="#304251"></path></g><g id="Group_35176" data-name="Group 35176" transform="translate(-6196.609 -391.051)"><g id="equalizer" transform="translate(51.372 0) rotate(90)"><g id="Group_378" data-name="Group 378" transform="translate(18.768 10.343)"><g id="Group_377" data-name="Group 377"><path id="Path_513" data-name="Path 513" d="M8.288,0a8.288,8.288,0,1,0,8.288,8.288A8.3,8.3,0,0,0,8.288,0Zm0,12.466a4.178,4.178,0,1,1,4.178-4.178A4.183,4.183,0,0,1,8.288,12.466Z" fill="#304251"></path></g></g><g id="Group_380" data-name="Group 380" transform="translate(25.001 22.877)"><g id="Group_379" data-name="Group 379"><path id="Path_514" data-name="Path 514" d="M2.055,0A2.055,2.055,0,0,0,0,2.055V26.439a2.055,2.055,0,0,0,4.11,0V2.055A2.055,2.055,0,0,0,2.055,0Z" fill="#304251"></path></g></g><g id="Group_382" data-name="Group 382" transform="translate(25.001 0)"><g id="Group_381" data-name="Group 381"><path id="Path_515" data-name="Path 515" d="M2.055,0A2.055,2.055,0,0,0,0,2.055V12.4a2.055,2.055,0,1,0,4.11,0V2.055A2.055,2.055,0,0,0,2.055,0Z" fill="#304251"></path></g></g><g id="Group_390" data-name="Group 390" transform="translate(0 24.453)"><g id="Group_389" data-name="Group 389"><path id="Path_519" data-name="Path 519" d="M8.288,0a8.288,8.288,0,1,0,8.288,8.288A8.3,8.3,0,0,0,8.288,0Zm0,12.467a4.179,4.179,0,1,1,4.178-4.179A4.183,4.183,0,0,1,8.288,12.467Z" fill="#304251"></path></g></g><g id="Group_392" data-name="Group 392" transform="translate(6.233 36.919)"><g id="Group_391" data-name="Group 391"><path id="Path_520" data-name="Path 520" d="M2.055,0A2.055,2.055,0,0,0,0,2.055V12.4a2.055,2.055,0,1,0,4.11,0V2.055A2.055,2.055,0,0,0,2.055,0Z" fill="#304251"></path></g></g><g id="Group_394" data-name="Group 394" transform="translate(6.233 0)"><g id="Group_393" data-name="Group 393"><path id="Path_521" data-name="Path 521" d="M2.055,0A2.055,2.055,0,0,0,0,2.055V26.439a2.055,2.055,0,1,0,4.11,0V2.055A2.055,2.055,0,0,0,2.055,0Z" fill="#304251"></path></g></g></g></g><g id="bed" transform="translate(-5903.834 -397.695)"><path id="Path_134" data-name="Path 134" d="M50.921,76.324V65.392A6.4,6.4,0,0,0,44.529,59H10.63a6.4,6.4,0,0,0-6.392,6.392V76.324A6.4,6.4,0,0,0,0,82.342V95.054a2.155,2.155,0,0,0,2.155,2.155H4.237v2.083a2.155,2.155,0,1,0,4.309,0V97.209H46.612v2.083a2.155,2.155,0,1,0,4.309,0V97.209H53a2.155,2.155,0,0,0,2.155-2.155V82.342A6.4,6.4,0,0,0,50.921,76.324ZM4.309,92.9V88.734h46.54V92.9Zm0-8.475V82.342a2.085,2.085,0,0,1,2.083-2.083H48.766a2.085,2.085,0,0,1,2.083,2.083v2.083ZM33.9,75.95H21.259V71.784H33.9V75.95ZM10.63,63.309h33.9a2.085,2.085,0,0,1,2.083,2.083V75.95h-8.4v-6.32a2.155,2.155,0,0,0-2.155-2.155H19.1a2.155,2.155,0,0,0-2.155,2.155v6.32h-8.4V65.392A2.085,2.085,0,0,1,10.63,63.309Z" transform="translate(0 -59)" fill="#304251"></path></g><g id="desk-bell" transform="translate(-6055.5 -399.476)"><path id="Path_142" data-name="Path 142" d="M54.565,95.926H43.918V91.489h6.654a2.218,2.218,0,0,0,2.218-2.218,24.386,24.386,0,0,0-22.181-24.3V60.436h2.218a2.218,2.218,0,1,0,0-4.436H23.955a2.218,2.218,0,1,0,0,4.436h2.218v4.537a24.386,24.386,0,0,0-22.181,24.3,2.218,2.218,0,0,0,2.218,2.218h6.654v4.436H2.218a2.218,2.218,0,1,0,0,4.436H54.565a2.218,2.218,0,1,0,0-4.436ZM28.391,69.309a19.992,19.992,0,0,1,19.84,17.745H8.551A19.993,19.993,0,0,1,28.391,69.309ZM17.3,91.489H39.482v4.436H17.3Z" transform="translate(0 -56)" fill="#304251" stroke="#304251" stroke-width="0.5"></path></g><g id="wi-fi" transform="translate(-5592.851 -395.914)"><g id="Group_93" data-name="Group 93" transform="translate(0 0)"><ellipse id="Ellipse_10" data-name="Ellipse 10" cx="5.874" cy="5.874" rx="5.874" ry="5.874" transform="translate(19.384 26.089)" fill="#304251"></ellipse><path id="Path_143" data-name="Path 143" d="M33.983,13.227c-.087-.09-.179-.169-.269-.252l-.264-.249A1.285,1.285,0,0,0,33.3,12.6a19.162,19.162,0,0,0-26.467.622l-.85.852L4.809,15.254a3.688,3.688,0,0,0,5.215,5.215l2.029-2.029a11.837,11.837,0,0,1,16.715,0l1.465,1.419a3.658,3.658,0,0,0,6.232-2.593A3.591,3.591,0,0,0,35.4,14.69Z" transform="translate(5.312 4.584)" fill="#304251"></path><path id="Path_144" data-name="Path 144" d="M49.3,13.12l-1.22-1.22s-.007-.012-.017-.015l-.964-.968a3.475,3.475,0,0,0-.547-.438,31.976,31.976,0,0,0-43.192,1c-.058.053-.123.09-.182.148l-2.2,2.206a3.363,3.363,0,0,0,4.757,4.755l2.2-2.2a.286.286,0,0,1,.041-.048,25.243,25.243,0,0,1,34.835-.191l1.734,1.736A3.363,3.363,0,0,0,49.3,13.12Z" transform="translate(0 -2.569)" fill="#304251"></path></g></g><g id="swimming-pool" transform="translate(-5739.918 -399.476)"><path id="Path_145" data-name="Path 145" d="M8.655,36.887A9.534,9.534,0,0,0,.645,39.593a2.2,2.2,0,0,0,3.112,3.112,5.149,5.149,0,0,1,7.274,0,9.556,9.556,0,0,0,13.5,0,5.149,5.149,0,0,1,7.275,0,9.54,9.54,0,0,0,13.5,0,5.149,5.149,0,0,1,7.274,0,2.2,2.2,0,0,0,3.112-3.112,9.557,9.557,0,0,0-13.5,0,5.149,5.149,0,0,1-7.274,0,9.489,9.489,0,0,0-4.549-2.535c-.007-27.785.015-26.25-.018-26.839A10.861,10.861,0,0,0,19.511,0a2.2,2.2,0,1,0,0,4.4,6.456,6.456,0,0,1,6.444,6.074c.019.329.008.384.011,2.508H13.056c-.005-2.074.012-2.238-.018-2.763A10.861,10.861,0,0,0,2.2,0a2.2,2.2,0,1,0,0,4.4,6.456,6.456,0,0,1,6.444,6.073C8.665,10.834,8.651,9.181,8.655,36.887Zm12.762,2.706a5.15,5.15,0,0,1-7.274,0,9.637,9.637,0,0,0-1.087-.935V30.367H25.966v6.692A9.489,9.489,0,0,0,21.417,39.593Zm4.549-22.209v8.582H13.056V17.384Zm0,0" transform="translate(0 0)" fill="#304251" stroke="#304251" stroke-width="0.5"></path></g><g id="hamster" transform="translate(-5436.224 -403.038)"><path id="Path_511" data-name="Path 511" d="M24.617,0A13.617,13.617,0,1,0,38.233,13.617,13.632,13.632,0,0,0,24.617,0Zm6.812,10.284L24.1,18.663a2.094,2.094,0,0,1-3.056.1l-4.19-4.19a2.095,2.095,0,1,1,2.962-2.962l2.606,2.606,5.857-6.7a2.1,2.1,0,1,1,3.153,2.761Z" transform="translate(12.043)" fill="#304251"></path><path id="Path_512" data-name="Path 512" d="M41.855,27.363a18.128,18.128,0,0,1-4.148.754,11.746,11.746,0,0,1-2.577,7.269l-1.885,2.346a7.906,7.906,0,0,1-6.2,2.975,1.9,1.9,0,0,1-1.571-.838l-2.158-3.247,3.038-3.163a3.141,3.141,0,0,0-2.262-5.321H17.806a3.141,3.141,0,0,0-2.262,5.321l3.038,3.163-2.158,3.247a1.9,1.9,0,0,1-1.571.838,7.906,7.906,0,0,1-6.2-2.975L6.766,35.386A11.781,11.781,0,0,1,4.19,28.075a8.6,8.6,0,0,1,3.142-6.683,12.075,12.075,0,0,0,3.6-5.111,10.662,10.662,0,0,1,7.939-6.787,16.5,16.5,0,0,1,.754-4.336A14.6,14.6,0,0,0,14.14,6.771a5.974,5.974,0,0,0-1.634-2.262A6.283,6.283,0,0,0,3.289,5.66a6.188,6.188,0,0,0-.838,5.677A19.6,19.6,0,0,0,5.677,17.1a7.1,7.1,0,0,1-1.026,1.068A12.857,12.857,0,0,0,0,28.075a15.9,15.9,0,0,0,3.5,9.93l1.885,2.346A12.046,12.046,0,0,0,14.853,44.9a5.732,5.732,0,0,0,1.341-.168l.1.293a3.146,3.146,0,0,0,2.933,1.969h3.436a3.1,3.1,0,0,0,2.912-1.969l.126-.293a5.732,5.732,0,0,0,1.341.168,12.046,12.046,0,0,0,9.469-4.546L38.4,38.005a15.912,15.912,0,0,0,3.5-9.951A3.831,3.831,0,0,0,41.855,27.363Z" transform="translate(0 3.285)" fill="#304251"></path><ellipse id="Ellipse_15" data-name="Ellipse 15" cx="0.89" cy="1.781" rx="0.89" ry="1.781" transform="translate(13.904 23.306)" fill="#304251"></ellipse></g><g id="Group_35177" data-name="Group 35177" transform="translate(-6668.503 -548.572)"><g id="bot&#xF3;n_zoom" data-name="bot&#xF3;n zoom" transform="translate(0 0)"><rect id="Rectangle_157" data-name="Rectangle 157" width="60" height="61" rx="10" transform="translate(-0.497 -0.428)" fill="#fff"></rect><g id="arrow" transform="translate(20.864 5.961) rotate(45)"><g id="Group_76" data-name="Group 76" transform="translate(0 0)"><path id="Path_132" data-name="Path 132" d="M19.218,8.557a1.726,1.726,0,0,0-.3-.022l-13.559.1.371-.173a3.454,3.454,0,0,0,.976-.691L11.483,3a1.788,1.788,0,0,0,.25-2.289A1.727,1.727,0,0,0,9.143.482L.507,9.119a1.727,1.727,0,0,0,0,2.443h0L9.143,20.2a1.727,1.727,0,0,0,2.591-.173,1.788,1.788,0,0,0-.25-2.289L6.716,12.953a3.455,3.455,0,0,0-.864-.63l-.518-.233,13.49-.1a1.788,1.788,0,0,0,1.822-1.451A1.727,1.727,0,0,0,19.218,8.557Z" fill="#304251"></path></g></g><g id="arrow-2" data-name="arrow" transform="translate(38.477 53.193) rotate(-135)"><g id="Group_76-2" data-name="Group 76" transform="translate(0 0)"><path id="Path_132-2" data-name="Path 132" d="M17.461,8.7a1.726,1.726,0,0,0-.3-.022L5.36,8.635l.371-.173a3.454,3.454,0,0,0,.976-.691L11.483,3a1.788,1.788,0,0,0,.25-2.289A1.727,1.727,0,0,0,9.143.482L.507,9.119a1.727,1.727,0,0,0,0,2.443h0L9.143,20.2a1.727,1.727,0,0,0,2.591-.173,1.788,1.788,0,0,0-.25-2.289L6.716,12.953a3.455,3.455,0,0,0-.864-.63l-.518-.233,11.733.039a1.788,1.788,0,0,0,1.822-1.451A1.727,1.727,0,0,0,17.461,8.7Z" fill="#304251"></path></g></g></g></g><g id="flating_bottom" data-name="flating bottom" transform="translate(-6826.179 -552)"><ellipse id="Ellipse_9" data-name="Ellipse 9" cx="34" cy="33.5" rx="34" ry="33.5" transform="translate(0.179)" fill="#ffc87e"></ellipse><g id="Group_89" data-name="Group 89" transform="translate(34.368 12.577) rotate(45)"><path id="Path_140" data-name="Path 140" d="M28.214,3.762H1.881A1.881,1.881,0,0,1,1.881,0H28.214a1.881,1.881,0,0,1,0,3.762Zm0,0" transform="translate(0 13.166)" fill="#304251"></path><path id="Path_141" data-name="Path 141" d="M1.881,30.095A1.882,1.882,0,0,1,0,28.214V1.881a1.881,1.881,0,0,1,3.762,0V28.214A1.882,1.882,0,0,1,1.881,30.095Zm0,0" transform="translate(13.166 0)" fill="#304251"></path></g></g><g id="flating_bottom-2" data-name="flating bottom" transform="translate(-6977 -552)"><circle id="Ellipse_9-2" data-name="Ellipse 9" cx="33.5" cy="33.5" r="33.5" fill="#ffc87e"></circle><g id="Group_89-2" data-name="Group 89" transform="translate(18.867 18.809)"><path id="Path_140-2" data-name="Path 140" d="M156.214,243.762H129.881a1.881,1.881,0,0,1,0-3.762h26.333a1.881,1.881,0,1,1,0,3.762Zm0,0" transform="translate(-128 -226.834)" fill="#304251"></path><path id="Path_141-2" data-name="Path 141" d="M241.881,158.095A1.882,1.882,0,0,1,240,156.214V129.881a1.881,1.881,0,0,1,3.762,0v26.333A1.882,1.882,0,0,1,241.881,158.095Zm0,0" transform="translate(-226.834 -128)" fill="#304251"></path></g></g><g id="Group_35175" data-name="Group 35175" transform="translate(-6351.812 -548.572)"><g id="share" transform="translate(0 0)" opacity="0.8"><path id="Path_136" data-name="Path 136" d="M99.913,13.561l3.725-3.725V39.369a2.881,2.881,0,1,0,5.761,0V9.836l3.724,3.724A2.88,2.88,0,0,0,117.2,9.487L108.556.846q-.1-.1-.212-.191c-.032-.026-.065-.049-.1-.073s-.084-.065-.129-.094-.081-.05-.122-.074-.079-.049-.12-.071-.084-.041-.127-.061-.085-.041-.129-.06S107.537.19,107.5.175,107.4.14,107.354.126s-.084-.022-.125-.032-.1-.026-.148-.036-.1-.015-.145-.022-.088-.015-.133-.019c-.089-.009-.178-.013-.267-.013H106.5q-.134,0-.267.013c-.044,0-.087.013-.131.019s-.1.013-.148.023-.1.023-.144.035-.087.02-.13.033-.091.031-.137.048-.087.03-.129.047-.083.038-.124.057-.089.041-.132.064-.076.045-.114.068-.086.05-.128.077-.081.059-.121.089-.071.051-.105.079c-.07.057-.137.118-.2.182l-.01.009L95.839,9.487a2.881,2.881,0,0,0,4.074,4.074Z" transform="translate(-84.435 -0.002)" fill="#fff"></path><path id="Path_137" data-name="Path 137" d="M81.289,100H73.607a2.881,2.881,0,1,0,0,5.761h4.8v28.805H45.762V105.763h4.8a2.881,2.881,0,1,0,0-5.761H42.882A2.881,2.881,0,0,0,40,102.883v34.566a2.881,2.881,0,0,0,2.881,2.881H81.289a2.881,2.881,0,0,0,2.881-2.881V102.883A2.881,2.881,0,0,0,81.289,100Z" transform="translate(-40.001 -80.798)" fill="#fff"></path></g></g><g id="arrow-3" data-name="arrow" transform="translate(-6502.254 -538.256)"><g id="Group_76-3" data-name="Group 76" transform="translate(0 0)"><path id="Path_132-3" data-name="Path 132" d="M43.742,48.531a3.328,3.328,0,0,0-.576-.043H10.333l.716-.333a6.66,6.66,0,0,0,1.881-1.332l9.207-9.207a3.446,3.446,0,0,0,.483-4.412,3.329,3.329,0,0,0-4.995-.433L.976,49.421a3.33,3.33,0,0,0,0,4.709l0,0L17.626,70.782a3.33,3.33,0,0,0,4.995-.333,3.446,3.446,0,0,0-.483-4.412l-9.19-9.224A6.661,6.661,0,0,0,11.282,55.6l-1-.45h32.7a3.446,3.446,0,0,0,3.513-2.8A3.33,3.33,0,0,0,43.742,48.531Z" transform="translate(0 -31.842)" fill="#fff"></path></g></g><g id="ticket" transform="translate(-6817.476 -401.504)"><g id="Group_425" data-name="Group 425" transform="translate(0 0)"><g id="Group_424" data-name="Group 424" transform="translate(0 0)"><path id="Path_523" data-name="Path 523" d="M50.053,18.218,32.906,1.071a3.558,3.558,0,0,0-5.086,0L1.071,27.82A3.647,3.647,0,0,0,0,30.463a3.457,3.457,0,0,0,1.093,2.466l3.652,3.652a1.806,1.806,0,0,0,2.352.176,5.2,5.2,0,0,1,6.79.472,5.269,5.269,0,0,1,.514,6.805,1.807,1.807,0,0,0,.164,2.368l3.675,3.675a3.653,3.653,0,0,0,2.567,1.072h.077a3.454,3.454,0,0,0,2.466-1.093L50.075,23.326a3.646,3.646,0,0,0,1.071-2.643A3.454,3.454,0,0,0,50.053,18.218ZM30.4,3.608a.131.131,0,0,1-.034.01L29.1,2.35Zm-9.615,43.9L18.127,44.85A8.957,8.957,0,0,0,16.475,34.7,8.808,8.808,0,0,0,6.3,33.025L3.64,30.364,30.363,3.641,47.507,20.785Z" transform="translate(0.001 -0.001)" fill="#304251" stroke="#304251" stroke-width="1"></path></g></g><g id="Group_427" data-name="Group 427" transform="translate(21.424 7.226)"><g id="Group_426" data-name="Group 426" transform="translate(0 0)"><rect id="Rectangle_924" data-name="Rectangle 924" width="3.614" height="6.603" transform="translate(0 2.539) rotate(-44.631)" fill="#304251" stroke="#304251" stroke-width="1"></rect></g></g><g id="Group_429" data-name="Group 429" transform="translate(36.747 22.57)"><g id="Group_428" data-name="Group 428" transform="translate(0 0)"><rect id="Rectangle_925" data-name="Rectangle 925" width="3.615" height="6.604" transform="matrix(0.702, -0.712, 0.712, 0.702, 0, 2.573)" fill="#304251" stroke="#304251" stroke-width="1"></rect></g></g><g id="Group_431" data-name="Group 431" transform="translate(29.084 14.868)"><g id="Group_430" data-name="Group 430" transform="translate(0 0)"><rect id="Rectangle_926" data-name="Rectangle 926" width="3.614" height="6.645" transform="translate(0 2.555) rotate(-45)" fill="#304251" stroke="#304251" stroke-width="1"></rect></g></g></g><g id="Group_35174" data-name="Group 35174" transform="translate(-6343.45 -398.52)"><g id="edit" transform="translate(0 0)"><g id="Group_440" data-name="Group 440" transform="translate(0 2.803)"><g id="Group_439" data-name="Group 439"><path id="Path_526" data-name="Path 526" d="M36.173,61.949a2.259,2.259,0,0,0-2.261,2.261v7.1a2.262,2.262,0,0,1-2.261,2.261H6.782a2.262,2.262,0,0,1-2.261-2.261V41.92A2.262,2.262,0,0,1,6.782,39.66H19.918a2.261,2.261,0,1,0,0-4.522H6.782A6.79,6.79,0,0,0,0,41.92v29.39a6.791,6.791,0,0,0,6.782,6.782H31.651a6.789,6.789,0,0,0,6.782-6.782v-7.1A2.259,2.259,0,0,0,36.173,61.949Z" transform="translate(0 -35.138)" fill="#304251"></path></g></g><g id="Group_442" data-name="Group 442" transform="translate(13.022 0)"><g id="Group_441" data-name="Group 441" transform="translate(0 0)"><path id="Path_527" data-name="Path 527" d="M174.254,6.812a8.7,8.7,0,0,0-12.22-.02L146.729,22.1a11.8,11.8,0,0,0-3.464,8.379V35.54a2.259,2.259,0,0,0,2.261,2.261h5.064a11.8,11.8,0,0,0,8.381-3.466l15.285-15.285A8.671,8.671,0,0,0,174.254,6.812ZM155.776,31.136a7.305,7.305,0,0,1-5.186,2.143h-2.8v-2.8a7.3,7.3,0,0,1,2.141-5.184l10.09-10.09,5.846,5.846Zm15.281-15.281-2,2L163.214,12l2-2a4.134,4.134,0,0,1,5.847,5.846Z" transform="translate(-143.265 -4.296)" fill="#304251"></path></g></g></g></g></g></g></svg>