<svg xmlns="http://www.w3.org/2000/svg" width="338.802" height="109.482" viewBox="0 0 338.802 109.482"><g id="Group_35370" data-name="Group 35370" transform="translate(-8921.718 11245.486)"><g id="Group_35369" data-name="Group 35369" transform="translate(8921.718 -11245.486)"><g id="Group_22029" data-name="Group 22029" transform="translate(0 0)"><path id="Path_6413" data-name="Path 6413" d="M3486.347,3905.927h-308.4a13.987,13.987,0,0,1-14.087-13.886v-79.723a13.987,13.987,0,0,1,14.087-13.886h308.4a13.987,13.987,0,0,1,14.087,13.886v79.723A13.988,13.988,0,0,1,3486.347,3905.927Z" transform="translate(-3161.632 -3796.444)" fill="#cfdfff"></path><rect id="Rectangle_12686" data-name="Rectangle 12686" width="336.578" height="106.786" rx="12.444" fill="#fff"></rect><path id="Path_9165" data-name="Path 9165" d="M12.444,0h311.69c6.872,0,12.444,4.406,12.444,9.842v87.1c0,5.436-5.571,9.842-12.444,9.842H12.444C5.571,106.786,0,102.379,0,96.944V9.842C0,4.406,5.571,0,12.444,0Z" transform="translate(0.829 0.829)" fill="#f2f3fa"></path></g></g><text id="Error_Monitoring_Bug_Reporting_Update_Versions_" data-name="Error Monitoring &amp; Bug Reporting Update Versions " transform="translate(9093 -11234.044)" fill="#fad604" font-size="13" font-family="Montserrat-Regular, Montserrat"><tspan x="17.44" y="13">Error Monitoring &amp; </tspan><tspan x="28.99" y="29">Bug Reporting</tspan><tspan x="77.5" y="45"></tspan><tspan x="53.261" y="61">Update </tspan><tspan x="50.232" y="77">Versions</tspan></text><text id="Performance_Optimization_Update_Integrations_Dependencies_" data-name="Performance Optimization Update Integrations &amp; Dependencies " transform="translate(8941 -11234.044)" fill="#fad604" font-size="13" font-family="Montserrat-Regular, Montserrat"><tspan x="29.938" y="13">Performance </tspan><tspan x="29.587" y="29">Optimization</tspan><tspan x="72.5" y="45"></tspan><tspan x="0.818" y="61">Update Integrations &amp; </tspan><tspan x="25.199" y="77">Dependencies</tspan></text></g></svg>